  0
SECTION
  2
HEADER
  9
$ACADVER
  1
AC1014
  9
$HANDSEED
  5
FFFF
  9
$MEASUREMENT
 70
     1
  0
ENDSEC
  0
SECTION
  2
TABLES
  0
TABLE
  2
VPORT
  5
8
330
0
100
AcDbSymbolTable
 70
     4
  0
VPORT
  5
2E
330
8
100
AcDbSymbolTableRecord
100
AcDbViewportTableRecord
  2
*ACTIVE
 70
     0
 10
0.0
 20
0.0
 11
1.0
 21
1.0
 12
210.0
 22
148.5
 13
0.0
 23
0.0
 14
10.0
 24
10.0
 15
10.0
 25
10.0
 16
0.0
 26
0.0
 36
1.0
 17
0.0
 27
0.0
 37
0.0
 40
341.0
 41
1.24
 42
50.0
 43
0.0
 44
0.0
 50
0.0
 51
0.0
 71
     0
 72
   100
 73
     1
 74
     3
 75
     0
 76
     0
 77
     0
 78
     0
  0
ENDTAB
  0
TABLE
  2
LTYPE
  5
5
330
0
100
AcDbSymbolTable
 70
     1
  0
LTYPE
  5
14
330
5
100
AcDbSymbolTableRecord
100
AcDbLinetypeTableRecord
  2
BYBLOCK
 70
     0
  3

 72
    65
 73
     0
 40
0.0
  0
LTYPE
  5
15
330
5
100
AcDbSymbolTableRecord
100
AcDbLinetypeTableRecord
  2
BYLAYER
 70
     0
  3

 72
    65
 73
     0
 40
0.0
  0
LTYPE
  5
16
330
5
100
AcDbSymbolTableRecord
100
AcDbLinetypeTableRecord
  2
CONTINUOUS
 70
     0
  3
Solid line
 72
    65
 73
     0
 40
0.0
  0
ENDTAB
  0
TABLE
  2
LAYER
  5
2
100
AcDbSymbolTable
 70
2
  0
LAYER
  5
50
100
AcDbSymbolTableRecord
100
AcDbLayerTableRecord
  2
0
 70
0
  6
CONTINUOUS
  0
LAYER
  5
51
100
AcDbSymbolTableRecord
100
AcDbLayerTableRecord
  2
Layer_1
 70
0
  6
CONTINUOUS
  0
ENDTAB
  0
TABLE
  2
STYLE
  5
3
330
0
100
AcDbSymbolTable
 70
     1
  0
STYLE
  5
11
330
3
100
AcDbSymbolTableRecord
100
AcDbTextStyleTableRecord
  2
STANDARD
 70
     0
 40
0.0
 41
1.0
 50
0.0
 71
     0
 42
2.5
  3
txt
  4

  0
ENDTAB
  0
TABLE
  2
VIEW
  5
6
330
0
100
AcDbSymbolTable
 70
     0
  0
ENDTAB
  0
TABLE
  2
UCS
  5
7
330
0
100
AcDbSymbolTable
 70
     0
  0
ENDTAB
  0
TABLE
  2
APPID
  5
9
330
0
100
AcDbSymbolTable
 70
     2
  0
APPID
  5
12
330
9
100
AcDbSymbolTableRecord
100
AcDbRegAppTableRecord
  2
ACAD
 70
     0
  0
ENDTAB
  0
TABLE
  2
DIMSTYLE
  5
A
330
0
100
AcDbSymbolTable
 70
     1
  0
DIMSTYLE
105
27
330
A
100
AcDbSymbolTableRecord
100
AcDbDimStyleTableRecord
  2
ISO-25
 70
     0
  3

  4

  5

  6

  7

 40
1.0
 41
2.5
 42
0.625
 43
3.75
 44
1.25
 45
0.0
 46
0.0
 47
0.0
 48
0.0
140
2.5
141
2.5
142
0.0
143
0.03937007874016
144
1.0
145
0.0
146
1.0
147
0.625
 71
     0
 72
     0
 73
     0
 74
     0
 75
     0
 76
     0
 77
     1
 78
     8
170
     0
171
     3
172
     1
173
     0
174
     0
175
     0
176
     0
177
     0
178
     0
270
     2
271
     2
272
     2
273
     2
274
     3
340
11
275
     0
280
     0
281
     0
282
     0
283
     0
284
     8
285
     0
286
     0
287
     3
288
     0
  0
ENDTAB
  0
TABLE
  2
BLOCK_RECORD
  5
1
330
0
100
AcDbSymbolTable
 70
     1
  0
BLOCK_RECORD
  5
1F
330
1
100
AcDbSymbolTableRecord
100
AcDbBlockTableRecord
  2
*MODEL_SPACE
  0
BLOCK_RECORD
  5
1B
330
1
100
AcDbSymbolTableRecord
100
AcDbBlockTableRecord
  2
*PAPER_SPACE
  0
ENDTAB
  0
ENDSEC
  0
SECTION
  2
BLOCKS
  0
BLOCK
  5
20
330
1F
100
AcDbEntity
  8
0
100
AcDbBlockBegin
  2
*MODEL_SPACE
 70
     0
 10
0.0
 20
0.0
 30
0.0
  3
*MODEL_SPACE
  1

  0
ENDBLK
  5
21
330
1F
100
AcDbEntity
  8
0
100
AcDbBlockEnd
  0
BLOCK
  5
1C
330
1B
100
AcDbEntity
 67
     1
  8
0
100
AcDbBlockBegin
  2
*PAPER_SPACE
  1

  0
ENDBLK
  5
1D
330
1B
100
AcDbEntity
 67
     1
  8
0
100
AcDbBlockEnd
  0
ENDSEC
  0
SECTION
  2
ENTITIES
  0
LWPOLYLINE
  5
100
100
AcDbEntity
  8
Layer_1
 62
7
100
AcDbPolyline
 90
7
 70
1
 10
5.142508
 20
2.171403
 30
0.0
 10
1.643404
 20
10.632651
 30
0.0
 10
2.496844
 20
10.632651
 30
0.0
 10
5.179084
 20
3.963627
 30
0.0
 10
7.873516
 20
10.632651
 30
0.0
 10
8.690380
 20
10.632651
 30
0.0
 10
5.191276
 20
2.171403
 30
0.0
  0
LWPOLYLINE
  5
101
100
AcDbEntity
  8
Layer_1
 62
7
100
AcDbPolyline
 90
12
 70
1
 10
12.301249
 20
2.342091
 30
0.0
 10
12.301249
 20
10.632651
 30
0.0
 10
17.299969
 20
10.632651
 30
0.0
 10
17.299969
 20
9.925515
 30
0.0
 10
13.093729
 20
9.925515
 30
0.0
 10
13.093729
 20
6.865323
 30
0.0
 10
16.848865
 20
6.865323
 30
0.0
 10
16.848865
 20
6.170379
 30
0.0
 10
13.093729
 20
6.170379
 30
0.0
 10
13.093729
 20
3.049227
 30
0.0
 10
17.470657
 20
3.049227
 30
0.0
 10
17.470657
 20
2.342091
 30
0.0
  0
LWPOLYLINE
  5
102
100
AcDbEntity
  8
Layer_1
 62
7
100
AcDbPolyline
 90
96
 70
1
 10
22.130028
 20
5.731467
 30
0.0
 10
22.130028
 20
5.307797
 30
0.0
 10
22.130028
 20
4.884117
 30
0.0
 10
22.130028
 20
4.460448
 30
0.0
 10
22.130028
 20
4.036779
 30
0.0
 10
22.130028
 20
3.613109
 30
0.0
 10
22.130028
 20
3.189429
 30
0.0
 10
22.130028
 20
2.765760
 30
0.0
 10
22.130028
 20
2.342091
 30
0.0
 10
22.030966
 20
2.342091
 30
0.0
 10
21.931905
 20
2.342091
 30
0.0
 10
21.832844
 20
2.342091
 30
0.0
 10
21.733782
 20
2.342091
 30
0.0
 10
21.634721
 20
2.342091
 30
0.0
 10
21.535660
 20
2.342091
 30
0.0
 10
21.436598
 20
2.342091
 30
0.0
 10
21.337537
 20
2.342091
 30
0.0
 10
21.337537
 20
3.378411
 30
0.0
 10
21.337537
 20
4.414731
 30
0.0
 10
21.337537
 20
5.451051
 30
0.0
 10
21.337537
 20
6.487371
 30
0.0
 10
21.337537
 20
7.523691
 30
0.0
 10
21.337537
 20
8.560011
 30
0.0
 10
21.337537
 20
9.596331
 30
0.0
 10
21.337537
 20
10.632651
 30
0.0
 10
21.646909
 20
10.632651
 30
0.0
 10
21.956281
 20
10.632651
 30
0.0
 10
22.265653
 20
10.632651
 30
0.0
 10
22.575025
 20
10.632651
 30
0.0
 10
22.884397
 20
10.632651
 30
0.0
 10
23.193769
 20
10.632651
 30
0.0
 10
23.503141
 20
10.632651
 30
0.0
 10
23.812513
 20
10.632651
 30
0.0
 10
24.129696
 20
10.621771
 30
0.0
 10
24.428971
 20
10.589237
 30
0.0
 10
24.710339
 20
10.534944
 30
0.0
 10
24.973801
 20
10.458891
 30
0.0
 10
25.219356
 20
10.361184
 30
0.0
 10
25.447003
 20
10.241749
 30
0.0
 10
25.656743
 20
10.100587
 30
0.0
 10
25.848577
 20
9.937707
 30
0.0
 10
26.020027
 20
9.757877
 30
0.0
 10
26.168618
 20
9.565845
 30
0.0
 10
26.294347
 20
9.361632
 30
0.0
 10
26.397216
 20
9.145227
 30
0.0
 10
26.477227
 20
8.916629
 30
0.0
 10
26.534379
 20
8.675829
 30
0.0
 10
26.568672
 20
8.422848
 30
0.0
 10
26.580107
 20
8.157675
 30
0.0
 10
26.572747
 20
7.948128
 30
0.0
 10
26.550741
 20
7.746197
 30
0.0
 10
26.514069
 20
7.551883
 30
0.0
 10
26.462731
 20
7.365195
 30
0.0
 10
26.396725
 20
7.186123
 30
0.0
 10
26.316053
 20
7.014677
 30
0.0
 10
26.220704
 20
6.850848
 30
0.0
 10
26.110690
 20
6.694635
 30
0.0
 10
25.987338
 20
6.548139
 30
0.0
 10
25.851986
 20
6.413461
 30
0.0
 10
25.704633
 20
6.290581
 30
0.0
 10
25.545280
 20
6.179520
 30
0.0
 10
25.373925
 20
6.080320
 30
0.0
 10
25.190570
 20
5.992853
 30
0.0
 10
24.995212
 20
5.917227
 30
0.0
 10
24.787853
 20
5.853440
 30
0.0
 10
25.060649
 20
5.414528
 30
0.0
 10
25.333445
 20
4.975616
 30
0.0
 10
25.606241
 20
4.536704
 30
0.0
 10
25.879037
 20
4.097792
 30
0.0
 10
26.151833
 20
3.658880
 30
0.0
 10
26.424629
 20
3.219968
 30
0.0
 10
26.697425
 20
2.781056
 30
0.0
 10
26.970221
 20
2.342144
 30
0.0
 10
26.858999
 20
2.342144
 30
0.0
 10
26.747747
 20
2.342144
 30
0.0
 10
26.636496
 20
2.342144
 30
0.0
 10
26.525244
 20
2.342144
 30
0.0
 10
26.413991
 20
2.342144
 30
0.0
 10
26.302740
 20
2.342144
 30
0.0
 10
26.191488
 20
2.342144
 30
0.0
 10
26.080236
 20
2.342144
 30
0.0
 10
25.818108
 20
2.765813
 30
0.0
 10
25.555980
 20
3.189483
 30
0.0
 10
25.293852
 20
3.613163
 30
0.0
 10
25.031724
 20
4.036832
 30
0.0
 10
24.769596
 20
4.460501
 30
0.0
 10
24.507468
 20
4.884171
 30
0.0
 10
24.245340
 20
5.307851
 30
0.0
 10
23.983212
 20
5.731520
 30
0.0
 10
23.751564
 20
5.731520
 30
0.0
 10
23.519916
 20
5.731520
 30
0.0
 10
23.288268
 20
5.731520
 30
0.0
 10
23.056620
 20
5.731520
 30
0.0
 10
22.824972
 20
5.731520
 30
0.0
 10
22.593324
 20
5.731520
 30
0.0
 10
22.361676
 20
5.731520
 30
0.0
  0
LWPOLYLINE
  5
103
100
AcDbEntity
  8
Layer_1
 62
7
100
AcDbPolyline
 90
56
 70
1
 10
22.130028
 20
6.426411
 30
0.0
 10
22.334244
 20
6.426411
 30
0.0
 10
22.538460
 20
6.426411
 30
0.0
 10
22.742675
 20
6.426411
 30
0.0
 10
22.946892
 20
6.426411
 30
0.0
 10
23.151107
 20
6.426411
 30
0.0
 10
23.355324
 20
6.426411
 30
0.0
 10
23.559540
 20
6.426411
 30
0.0
 10
23.763756
 20
6.426411
 30
0.0
 10
24.003024
 20
6.433877
 30
0.0
 10
24.227052
 20
6.455317
 30
0.0
 10
24.435840
 20
6.491051
 30
0.0
 10
24.629388
 20
6.541077
 30
0.0
 10
24.807696
 20
6.605397
 30
0.0
 10
24.970764
 20
6.684011
 30
0.0
 10
25.118592
 20
6.776917
 30
0.0
 10
25.251180
 20
6.884075
 30
0.0
 10
25.368337
 20
7.004000
 30
0.0
 10
25.469873
 20
7.135157
 30
0.0
 10
25.555793
 20
7.277557
 30
0.0
 10
25.626086
 20
7.431200
 30
0.0
 10
25.680764
 20
7.596075
 30
0.0
 10
25.719814
 20
7.772192
 30
0.0
 10
25.743249
 20
7.959552
 30
0.0
 10
25.751036
 20
8.158144
 30
0.0
 10
25.743249
 20
8.359787
 30
0.0
 10
25.719814
 20
8.550197
 30
0.0
 10
25.680764
 20
8.729355
 30
0.0
 10
25.626086
 20
8.897280
 30
0.0
 10
25.555793
 20
9.053963
 30
0.0
 10
25.469873
 20
9.199413
 30
0.0
 10
25.368337
 20
9.333621
 30
0.0
 10
25.251180
 20
9.456587
 30
0.0
 10
25.118592
 20
9.566603
 30
0.0
 10
24.970764
 20
9.661963
 30
0.0
 10
24.807696
 20
9.742603
 30
0.0
 10
24.629388
 20
9.808629
 30
0.0
 10
24.435840
 20
9.859936
 30
0.0
 10
24.227052
 20
9.896629
 30
0.0
 10
24.003024
 20
9.918603
 30
0.0
 10
23.763756
 20
9.926069
 30
0.0
 10
23.559540
 20
9.926069
 30
0.0
 10
23.355324
 20
9.926069
 30
0.0
 10
23.151107
 20
9.926069
 30
0.0
 10
22.946892
 20
9.926069
 30
0.0
 10
22.742675
 20
9.926069
 30
0.0
 10
22.538460
 20
9.926069
 30
0.0
 10
22.334244
 20
9.926069
 30
0.0
 10
22.130028
 20
9.926069
 30
0.0
 10
22.130028
 20
9.488683
 30
0.0
 10
22.130028
 20
9.051296
 30
0.0
 10
22.130028
 20
8.613909
 30
0.0
 10
22.130028
 20
8.176512
 30
0.0
 10
22.130028
 20
7.739125
 30
0.0
 10
22.130028
 20
7.301739
 30
0.0
 10
22.130028
 20
6.864352
 30
0.0
  0
LWPOLYLINE
  5
104
100
AcDbEntity
  8
Layer_1
 62
7
100
AcDbPolyline
 90
144
 70
1
 10
34.360641
 20
2.244555
 30
0.0
 10
33.909725
 20
2.263435
 30
0.0
 10
33.477478
 20
2.319968
 30
0.0
 10
33.063903
 20
2.414261
 30
0.0
 10
32.668997
 20
2.546272
 30
0.0
 10
32.292761
 20
2.716011
 30
0.0
 10
31.935194
 20
2.923467
 30
0.0
 10
31.596295
 20
3.168640
 30
0.0
 10
31.276065
 20
3.451531
 30
0.0
 10
30.984597
 20
3.762997
 30
0.0
 10
30.731993
 20
4.093899
 30
0.0
 10
30.518252
 20
4.444224
 30
0.0
 10
30.343373
 20
4.813984
 30
0.0
 10
30.207357
 20
5.203179
 30
0.0
 10
30.110205
 20
5.611797
 30
0.0
 10
30.051911
 20
6.039851
 30
0.0
 10
30.032477
 20
6.487339
 30
0.0
 10
30.051527
 20
6.932064
 30
0.0
 10
30.108679
 20
7.357931
 30
0.0
 10
30.203933
 20
7.764928
 30
0.0
 10
30.337281
 20
8.153067
 30
0.0
 10
30.508731
 20
8.522357
 30
0.0
 10
30.718281
 20
8.872779
 30
0.0
 10
30.965933
 20
9.204341
 30
0.0
 10
31.251685
 20
9.517045
 30
0.0
 10
31.565057
 20
9.801365
 30
0.0
 10
31.895573
 20
10.047787
 30
0.0
 10
32.243235
 20
10.256288
 30
0.0
 10
32.608042
 20
10.426880
 30
0.0
 10
32.989994
 20
10.559563
 30
0.0
 10
33.389091
 20
10.654283
 30
0.0
 10
33.805334
 20
10.711136
 30
0.0
 10
34.238725
 20
10.730123
 30
0.0
 10
34.714213
 20
10.709963
 30
0.0
 10
35.165316
 20
10.649376
 30
0.0
 10
35.592034
 20
10.548363
 30
0.0
 10
35.994369
 20
10.407008
 30
0.0
 10
36.372321
 20
10.225280
 30
0.0
 10
36.725889
 20
10.003157
 30
0.0
 10
37.055074
 20
9.740640
 30
0.0
 10
37.359877
 20
9.437749
 30
0.0
 10
37.289776
 20
9.372256
 30
0.0
 10
37.219675
 20
9.306763
 30
0.0
 10
37.149573
 20
9.241269
 30
0.0
 10
37.079472
 20
9.175776
 30
0.0
 10
37.009371
 20
9.110283
 30
0.0
 10
36.939269
 20
9.044789
 30
0.0
 10
36.869168
 20
8.979296
 30
0.0
 10
36.799067
 20
8.913803
 30
0.0
 10
36.542651
 20
9.170976
 30
0.0
 10
36.267186
 20
9.393867
 30
0.0
 10
35.972673
 20
9.582453
 30
0.0
 10
35.659110
 20
9.736757
 30
0.0
 10
35.326499
 20
9.856779
 30
0.0
 10
34.974837
 20
9.942539
 30
0.0
 10
34.604125
 20
9.993952
 30
0.0
 10
34.214363
 20
10.011125
 30
0.0
 10
33.862220
 20
9.995445
 30
0.0
 10
33.525129
 20
9.948299
 30
0.0
 10
33.203087
 20
9.869685
 30
0.0
 10
32.896096
 20
9.759669
 30
0.0
 10
32.604155
 20
9.618219
 30
0.0
 10
32.327264
 20
9.445344
 30
0.0
 10
32.065422
 20
9.241024
 30
0.0
 10
31.818629
 20
9.005280
 30
0.0
 10
31.594316
 20
8.745909
 30
0.0
 10
31.399911
 20
8.470741
 30
0.0
 10
31.235415
 20
8.179755
 30
0.0
 10
31.100828
 20
7.872949
 30
0.0
 10
30.996145
 20
7.550336
 30
0.0
 10
30.921372
 20
7.211915
 30
0.0
 10
30.876508
 20
6.857685
 30
0.0
 10
30.861553
 20
6.487637
 30
0.0
 10
30.876988
 20
6.117589
 30
0.0
 10
30.923281
 20
5.763360
 30
0.0
 10
31.000433
 20
5.424939
 30
0.0
 10
31.108446
 20
5.102325
 30
0.0
 10
31.247319
 20
4.795520
 30
0.0
 10
31.417055
 20
4.504533
 30
0.0
 10
31.617653
 20
4.229355
 30
0.0
 10
31.849114
 20
3.969984
 30
0.0
 10
32.104383
 20
3.734240
 30
0.0
 10
32.376416
 20
3.529931
 30
0.0
 10
32.665213
 20
3.357056
 30
0.0
 10
32.970773
 20
3.215605
 30
0.0
 10
33.293099
 20
3.105589
 30
0.0
 10
33.632189
 20
3.026976
 30
0.0
 10
33.988045
 20
2.979829
 30
0.0
 10
34.360666
 20
2.964149
 30
0.0
 10
34.744142
 20
2.976736
 30
0.0
 10
35.108186
 20
3.014496
 30
0.0
 10
35.452799
 20
3.077323
 30
0.0
 10
35.777982
 20
3.165323
 30
0.0
 10
36.083733
 20
3.278485
 30
0.0
 10
36.370055
 20
3.416789
 30
0.0
 10
36.636947
 20
3.580235
 30
0.0
 10
36.884410
 20
3.768832
 30
0.0
 10
36.884410
 20
4.006571
 30
0.0
 10
36.884410
 20
4.244320
 30
0.0
 10
36.884410
 20
4.482069
 30
0.0
 10
36.884410
 20
4.719808
 30
0.0
 10
36.884410
 20
4.957557
 30
0.0
 10
36.884410
 20
5.195296
 30
0.0
 10
36.884410
 20
5.433035
 30
0.0
 10
36.884410
 20
5.670784
 30
0.0
 10
36.571965
 20
5.670784
 30
0.0
 10
36.259546
 20
5.670784
 30
0.0
 10
35.947125
 20
5.670784
 30
0.0
 10
35.634705
 20
5.670784
 30
0.0
 10
35.322285
 20
5.670784
 30
0.0
 10
35.009866
 20
5.670784
 30
0.0
 10
34.697445
 20
5.670784
 30
0.0
 10
34.385025
 20
5.670784
 30
0.0
 10
34.385025
 20
5.759211
 30
0.0
 10
34.385025
 20
5.847637
 30
0.0
 10
34.385025
 20
5.936064
 30
0.0
 10
34.385025
 20
6.024491
 30
0.0
 10
34.385025
 20
6.112917
 30
0.0
 10
34.385025
 20
6.201344
 30
0.0
 10
34.385025
 20
6.289771
 30
0.0
 10
34.385025
 20
6.378197
 30
0.0
 10
34.791933
 20
6.378197
 30
0.0
 10
35.198841
 20
6.378197
 30
0.0
 10
35.605749
 20
6.378197
 30
0.0
 10
36.012657
 20
6.378197
 30
0.0
 10
36.419565
 20
6.378197
 30
0.0
 10
36.826474
 20
6.378197
 30
0.0
 10
37.233381
 20
6.378197
 30
0.0
 10
37.640289
 20
6.378197
 30
0.0
 10
37.640289
 20
6.006347
 30
0.0
 10
37.640289
 20
5.634485
 30
0.0
 10
37.640289
 20
5.262624
 30
0.0
 10
37.640289
 20
4.890773
 30
0.0
 10
37.640289
 20
4.518912
 30
0.0
 10
37.640289
 20
4.147061
 30
0.0
 10
37.640289
 20
3.775200
 30
0.0
 10
37.640289
 20
3.403349
 30
0.0
 10
37.303673
 20
3.131883
 30
0.0
 10
36.946102
 20
2.896619
 30
0.0
 10
36.567579
 20
2.697547
 30
0.0
 10
36.168101
 20
2.534667
 30
0.0
 10
35.747668
 20
2.407989
 30
0.0
 10
35.306282
 20
2.317536
 30
0.0
 10
34.843939
 20
2.263243
 30
0.0
  0
LWPOLYLINE
  5
105
100
AcDbEntity
  8
Layer_1
 62
7
100
AcDbPolyline
 90
12
 70
1
 10
41.568140
 20
2.342048
 30
0.0
 10
41.568140
 20
10.632608
 30
0.0
 10
46.566860
 20
10.632608
 30
0.0
 10
46.566860
 20
9.925472
 30
0.0
 10
42.360620
 20
9.925472
 30
0.0
 10
42.360620
 20
6.865280
 30
0.0
 10
46.115756
 20
6.865280
 30
0.0
 10
46.115756
 20
6.170336
 30
0.0
 10
42.360620
 20
6.170336
 30
0.0
 10
42.360620
 20
3.049184
 30
0.0
 10
46.737548
 20
3.049184
 30
0.0
 10
46.737548
 20
2.342048
 30
0.0
  0
ENDSEC
  0
SECTION
  2
OBJECTS
  0
DICTIONARY
  5
C
330
0
100
AcDbDictionary
  3
ACAD_GROUP
350
D
  3
ACAD_MLINESTYLE
350
17
  0
DICTIONARY
  5
D
330
C
100
AcDbDictionary
  0
DICTIONARY
  5
1A
330
C
100
AcDbDictionary
  0
DICTIONARY
  5
17
330
C
100
AcDbDictionary
  3
STANDARD
350
18
  0
DICTIONARY
  5
19
330
C
100
AcDbDictionary
  0
ENDSEC
  0
EOF
