solid OpenSCAD_Model
  facet normal -1 0 0
    outer loop
      vertex -40 -40 0
      vertex -40 40 4
      vertex -40 40 0
    endloop
  endfacet
  facet normal -1 -0 0
    outer loop
      vertex -40 40 4
      vertex -40 -40 0
      vertex -40 -40 4
    endloop
  endfacet
  facet normal 0 0 1
    outer loop
      vertex -5 5 4
      vertex -37.825 35.5711 4
      vertex -5 -5 4
    endloop
  endfacet
  facet normal 0 0 1
    outer loop
      vertex -5 -5 4
      vertex -36.175 -35.5711 4
      vertex -35.35 -37 4
    endloop
  endfacet
  facet normal 0 0 1
    outer loop
      vertex -37.825 -35.5711 4
      vertex -5 -5 4
      vertex -37.825 35.5711 4
    endloop
  endfacet
  facet normal 0 0 1
    outer loop
      vertex -5 -5 4
      vertex -37.825 -35.5711 4
      vertex -36.175 -35.5711 4
    endloop
  endfacet
  facet normal 0 0 1
    outer loop
      vertex -38.65 37 4
      vertex -37.825 -35.5711 4
      vertex -37.825 35.5711 4
    endloop
  endfacet
  facet normal 0 0 1
    outer loop
      vertex -37.825 -35.5711 4
      vertex -38.65 37 4
      vertex -38.65 -37 4
    endloop
  endfacet
  facet normal -0 0 1
    outer loop
      vertex 37.825 35.5711 4
      vertex 38.65 -37 4
      vertex 38.65 37 4
    endloop
  endfacet
  facet normal 0 0 1
    outer loop
      vertex 37.825 35.5711 4
      vertex 37.825 -35.5711 4
      vertex 38.65 -37 4
    endloop
  endfacet
  facet normal 0 0 1
    outer loop
      vertex 5 5 4
      vertex 37.825 35.5711 4
      vertex 36.175 35.5711 4
    endloop
  endfacet
  facet normal 0 0 1
    outer loop
      vertex 37.825 35.5711 4
      vertex 5 5 4
      vertex 37.825 -35.5711 4
    endloop
  endfacet
  facet normal 0 0 1
    outer loop
      vertex 5 5 4
      vertex 36.175 35.5711 4
      vertex 35.35 37 4
    endloop
  endfacet
  facet normal -0 0 1
    outer loop
      vertex 5 -5 4
      vertex 37.825 -35.5711 4
      vertex 5 5 4
    endloop
  endfacet
  facet normal 0 0 1
    outer loop
      vertex 40 40 4
      vertex 38.65 37 4
      vertex 40 -40 4
    endloop
  endfacet
  facet normal 0 0 1
    outer loop
      vertex 40 40 4
      vertex 37.825 38.4289 4
      vertex 38.65 37 4
    endloop
  endfacet
  facet normal 0 0 1
    outer loop
      vertex 40 40 4
      vertex 36.175 38.4289 4
      vertex 37.825 38.4289 4
    endloop
  endfacet
  facet normal 0 0 1
    outer loop
      vertex 37.825 -35.5711 4
      vertex 5 -5 4
      vertex 36.175 -35.5711 4
    endloop
  endfacet
  facet normal 0 0 1
    outer loop
      vertex -35.35 37 4
      vertex 35.35 37 4
      vertex 36.175 38.4289 4
    endloop
  endfacet
  facet normal 0 0 1
    outer loop
      vertex 35.35 37 4
      vertex -35.35 37 4
      vertex 5 5 4
    endloop
  endfacet
  facet normal -0 0 1
    outer loop
      vertex -36.175 35.5711 4
      vertex -5 5 4
      vertex -35.35 37 4
    endloop
  endfacet
  facet normal 0 0 1
    outer loop
      vertex 5 5 4
      vertex -35.35 37 4
      vertex -5 5 4
    endloop
  endfacet
  facet normal 0 0 1
    outer loop
      vertex -36.175 38.4289 4
      vertex 36.175 38.4289 4
      vertex 40 40 4
    endloop
  endfacet
  facet normal 0 0 1
    outer loop
      vertex 36.175 38.4289 4
      vertex -36.175 38.4289 4
      vertex -35.35 37 4
    endloop
  endfacet
  facet normal -0 0 1
    outer loop
      vertex -40 40 4
      vertex -36.175 38.4289 4
      vertex 40 40 4
    endloop
  endfacet
  facet normal 0 0 1
    outer loop
      vertex -38.65 37 4
      vertex -40 40 4
      vertex -38.65 -37 4
    endloop
  endfacet
  facet normal 0 0 1
    outer loop
      vertex -37.825 38.4289 4
      vertex -40 40 4
      vertex -38.65 37 4
    endloop
  endfacet
  facet normal 0 0 1
    outer loop
      vertex -36.175 38.4289 4
      vertex -40 40 4
      vertex -37.825 38.4289 4
    endloop
  endfacet
  facet normal -0 0 1
    outer loop
      vertex 38.65 -37 4
      vertex 40 -40 4
      vertex 38.65 37 4
    endloop
  endfacet
  facet normal -0 0 1
    outer loop
      vertex 37.825 -38.4289 4
      vertex 40 -40 4
      vertex 38.65 -37 4
    endloop
  endfacet
  facet normal -0 0 1
    outer loop
      vertex 36.175 -38.4289 4
      vertex 40 -40 4
      vertex 37.825 -38.4289 4
    endloop
  endfacet
  facet normal 0 0 1
    outer loop
      vertex 36.175 -35.5711 4
      vertex 5 -5 4
      vertex 35.35 -37 4
    endloop
  endfacet
  facet normal 0 0 1
    outer loop
      vertex -35.35 -37 4
      vertex 35.35 -37 4
      vertex 5 -5 4
    endloop
  endfacet
  facet normal 0 0 1
    outer loop
      vertex -35.35 -37 4
      vertex 5 -5 4
      vertex -5 -5 4
    endloop
  endfacet
  facet normal -0 0 1
    outer loop
      vertex -37.825 35.5711 4
      vertex -5 5 4
      vertex -36.175 35.5711 4
    endloop
  endfacet
  facet normal 0 0 1
    outer loop
      vertex 35.35 -37 4
      vertex -35.35 -37 4
      vertex 36.175 -38.4289 4
    endloop
  endfacet
  facet normal 0 0 1
    outer loop
      vertex -36.175 -38.4289 4
      vertex 36.175 -38.4289 4
      vertex -35.35 -37 4
    endloop
  endfacet
  facet normal 0 0 1
    outer loop
      vertex 36.175 -38.4289 4
      vertex -36.175 -38.4289 4
      vertex 40 -40 4
    endloop
  endfacet
  facet normal 0 0 1
    outer loop
      vertex -40 -40 4
      vertex -36.175 -38.4289 4
      vertex -37.825 -38.4289 4
    endloop
  endfacet
  facet normal 0 0 1
    outer loop
      vertex -36.175 -38.4289 4
      vertex -40 -40 4
      vertex 40 -40 4
    endloop
  endfacet
  facet normal 0 0 1
    outer loop
      vertex -38.65 -37 4
      vertex -40 -40 4
      vertex -37.825 -38.4289 4
    endloop
  endfacet
  facet normal 0 0 1
    outer loop
      vertex -40 -40 4
      vertex -38.65 -37 4
      vertex -40 40 4
    endloop
  endfacet
  facet normal 1 -0 0
    outer loop
      vertex 40 -40 4
      vertex 40 40 0
      vertex 40 40 4
    endloop
  endfacet
  facet normal 1 0 0
    outer loop
      vertex 40 40 0
      vertex 40 -40 4
      vertex 40 -40 0
    endloop
  endfacet
  facet normal 0 1 -0
    outer loop
      vertex 40 40 0
      vertex -40 40 4
      vertex 40 40 4
    endloop
  endfacet
  facet normal 0 1 0
    outer loop
      vertex -40 40 4
      vertex 40 40 0
      vertex -40 40 0
    endloop
  endfacet
  facet normal -0 0 -1
    outer loop
      vertex -2.49018 -0.906353 0
      vertex -37.825 -35.5711 0
      vertex -2.49018 0.906353 0
    endloop
  endfacet
  facet normal 0 0 -1
    outer loop
      vertex -2.49018 0.906353 0
      vertex -36.175 35.5711 0
      vertex -35.35 37 0
    endloop
  endfacet
  facet normal 0 0 -1
    outer loop
      vertex -37.825 35.5711 0
      vertex -2.49018 0.906353 0
      vertex -37.825 -35.5711 0
    endloop
  endfacet
  facet normal 0 0 -1
    outer loop
      vertex -2.49018 0.906353 0
      vertex -37.825 35.5711 0
      vertex -36.175 35.5711 0
    endloop
  endfacet
  facet normal 0 0 -1
    outer loop
      vertex -38.65 -37 0
      vertex -37.825 35.5711 0
      vertex -37.825 -35.5711 0
    endloop
  endfacet
  facet normal -0 0 -1
    outer loop
      vertex -37.825 35.5711 0
      vertex -38.65 -37 0
      vertex -38.65 37 0
    endloop
  endfacet
  facet normal 0 0 -1
    outer loop
      vertex 37.825 -35.5711 0
      vertex 38.65 37 0
      vertex 38.65 -37 0
    endloop
  endfacet
  facet normal 0 0 -1
    outer loop
      vertex 37.825 -35.5711 0
      vertex 37.825 35.5711 0
      vertex 38.65 37 0
    endloop
  endfacet
  facet normal 0 0 -1
    outer loop
      vertex 2.65 0 0
      vertex 37.825 -35.5711 0
      vertex 36.175 -35.5711 0
    endloop
  endfacet
  facet normal 0 0 -1
    outer loop
      vertex 37.825 -35.5711 0
      vertex 2.65 0 0
      vertex 37.825 35.5711 0
    endloop
  endfacet
  facet normal 0 0 -1
    outer loop
      vertex 2.03002 -1.70339 0
      vertex 36.175 -35.5711 0
      vertex 35.35 -37 0
    endloop
  endfacet
  facet normal -0 0 -1
    outer loop
      vertex 37.825 35.5711 0
      vertex 2.65 0 0
      vertex 36.175 35.5711 0
    endloop
  endfacet
  facet normal 0 0 -1
    outer loop
      vertex 40 -40 0
      vertex 38.65 -37 0
      vertex 40 40 0
    endloop
  endfacet
  facet normal 0 0 -1
    outer loop
      vertex 40 -40 0
      vertex 37.825 -38.4289 0
      vertex 38.65 -37 0
    endloop
  endfacet
  facet normal 0 0 -1
    outer loop
      vertex 40 -40 0
      vertex 36.175 -38.4289 0
      vertex 37.825 -38.4289 0
    endloop
  endfacet
  facet normal 0 0 -1
    outer loop
      vertex 2.03002 1.70339 0
      vertex 36.175 35.5711 0
      vertex 2.65 0 0
    endloop
  endfacet
  facet normal 0 0 -1
    outer loop
      vertex -35.35 -37 0
      vertex 35.35 -37 0
      vertex 36.175 -38.4289 0
    endloop
  endfacet
  facet normal 0 0 -1
    outer loop
      vertex 36.175 -35.5711 0
      vertex 2.03002 -1.70339 0
      vertex 2.65 0 0
    endloop
  endfacet
  facet normal 0 0 -1
    outer loop
      vertex 35.35 -37 0
      vertex 0.460167 -2.60974 0
      vertex 2.03002 -1.70339 0
    endloop
  endfacet
  facet normal 0 0 -1
    outer loop
      vertex 35.35 -37 0
      vertex -35.35 -37 0
      vertex 0.460167 -2.60974 0
    endloop
  endfacet
  facet normal -0 0 -1
    outer loop
      vertex -1.325 -2.29497 0
      vertex -36.175 -35.5711 0
      vertex -2.49018 -0.906353 0
    endloop
  endfacet
  facet normal 0 0 -1
    outer loop
      vertex -36.175 -35.5711 0
      vertex -1.325 -2.29497 0
      vertex -35.35 -37 0
    endloop
  endfacet
  facet normal -0 0 -1
    outer loop
      vertex 0.460167 -2.60974 0
      vertex -35.35 -37 0
      vertex -1.325 -2.29497 0
    endloop
  endfacet
  facet normal 0 0 -1
    outer loop
      vertex -36.175 -38.4289 0
      vertex 36.175 -38.4289 0
      vertex 40 -40 0
    endloop
  endfacet
  facet normal 0 0 -1
    outer loop
      vertex 36.175 -38.4289 0
      vertex -36.175 -38.4289 0
      vertex -35.35 -37 0
    endloop
  endfacet
  facet normal 0 0 -1
    outer loop
      vertex -40 -40 0
      vertex -36.175 -38.4289 0
      vertex 40 -40 0
    endloop
  endfacet
  facet normal -0 0 -1
    outer loop
      vertex -38.65 -37 0
      vertex -40 -40 0
      vertex -38.65 37 0
    endloop
  endfacet
  facet normal -0 0 -1
    outer loop
      vertex -37.825 -38.4289 0
      vertex -40 -40 0
      vertex -38.65 -37 0
    endloop
  endfacet
  facet normal -0 0 -1
    outer loop
      vertex -36.175 -38.4289 0
      vertex -40 -40 0
      vertex -37.825 -38.4289 0
    endloop
  endfacet
  facet normal 0 0 -1
    outer loop
      vertex 38.65 37 0
      vertex 40 40 0
      vertex 38.65 -37 0
    endloop
  endfacet
  facet normal 0 0 -1
    outer loop
      vertex 37.825 38.4289 0
      vertex 40 40 0
      vertex 38.65 37 0
    endloop
  endfacet
  facet normal 0 0 -1
    outer loop
      vertex 36.175 38.4289 0
      vertex 40 40 0
      vertex 37.825 38.4289 0
    endloop
  endfacet
  facet normal -0 0 -1
    outer loop
      vertex 36.175 35.5711 0
      vertex 2.03002 1.70339 0
      vertex 35.35 37 0
    endloop
  endfacet
  facet normal 0 0 -1
    outer loop
      vertex 0.460167 2.60974 0
      vertex 35.35 37 0
      vertex 2.03002 1.70339 0
    endloop
  endfacet
  facet normal 0 0 -1
    outer loop
      vertex -35.35 37 0
      vertex 35.35 37 0
      vertex 0.460167 2.60974 0
    endloop
  endfacet
  facet normal 0 0 -1
    outer loop
      vertex -35.35 37 0
      vertex 0.460167 2.60974 0
      vertex -1.325 2.29497 0
    endloop
  endfacet
  facet normal 0 0 -1
    outer loop
      vertex -37.825 -35.5711 0
      vertex -2.49018 -0.906353 0
      vertex -36.175 -35.5711 0
    endloop
  endfacet
  facet normal 0 0 -1
    outer loop
      vertex -2.49018 0.906353 0
      vertex -35.35 37 0
      vertex -1.325 2.29497 0
    endloop
  endfacet
  facet normal 0 0 -1
    outer loop
      vertex 35.35 37 0
      vertex -35.35 37 0
      vertex 36.175 38.4289 0
    endloop
  endfacet
  facet normal 0 0 -1
    outer loop
      vertex -36.175 38.4289 0
      vertex 36.175 38.4289 0
      vertex -35.35 37 0
    endloop
  endfacet
  facet normal 0 0 -1
    outer loop
      vertex 36.175 38.4289 0
      vertex -36.175 38.4289 0
      vertex 40 40 0
    endloop
  endfacet
  facet normal 0 0 -1
    outer loop
      vertex -40 40 0
      vertex -36.175 38.4289 0
      vertex -37.825 38.4289 0
    endloop
  endfacet
  facet normal 0 0 -1
    outer loop
      vertex -36.175 38.4289 0
      vertex -40 40 0
      vertex 40 40 0
    endloop
  endfacet
  facet normal 0 0 -1
    outer loop
      vertex -38.65 37 0
      vertex -40 40 0
      vertex -37.825 38.4289 0
    endloop
  endfacet
  facet normal 0 0 -1
    outer loop
      vertex -40 40 0
      vertex -38.65 37 0
      vertex -40 -40 0
    endloop
  endfacet
  facet normal 0 -1 0
    outer loop
      vertex -40 -40 0
      vertex 40 -40 4
      vertex -40 -40 4
    endloop
  endfacet
  facet normal 0 -1 -0
    outer loop
      vertex 40 -40 4
      vertex -40 -40 0
      vertex 40 -40 0
    endloop
  endfacet
  facet normal -1 0 0
    outer loop
      vertex -5 -5 4
      vertex -5 5 15
      vertex -5 5 4
    endloop
  endfacet
  facet normal -1 -0 0
    outer loop
      vertex -5 5 15
      vertex -5 -5 4
      vertex -5 -5 15
    endloop
  endfacet
  facet normal 0 0 1
    outer loop
      vertex 5 5 15
      vertex 2.65 0 15
      vertex 5 -5 15
    endloop
  endfacet
  facet normal 0 0 1
    outer loop
      vertex 5 5 15
      vertex 2.03002 1.70339 15
      vertex 2.65 0 15
    endloop
  endfacet
  facet normal 0 0 1
    outer loop
      vertex 5 5 15
      vertex 0.460167 2.60974 15
      vertex 2.03002 1.70339 15
    endloop
  endfacet
  facet normal -0 0 1
    outer loop
      vertex -5 5 15
      vertex 0.460167 2.60974 15
      vertex 5 5 15
    endloop
  endfacet
  facet normal 0 0 1
    outer loop
      vertex -2.49018 0.906353 15
      vertex -5 5 15
      vertex -2.49018 -0.906353 15
    endloop
  endfacet
  facet normal 0 0 1
    outer loop
      vertex -1.325 2.29497 15
      vertex -5 5 15
      vertex -2.49018 0.906353 15
    endloop
  endfacet
  facet normal 0 0 1
    outer loop
      vertex 0.460167 2.60974 15
      vertex -5 5 15
      vertex -1.325 2.29497 15
    endloop
  endfacet
  facet normal -0 0 1
    outer loop
      vertex 2.03002 -1.70339 15
      vertex 5 -5 15
      vertex 2.65 0 15
    endloop
  endfacet
  facet normal -0 0 1
    outer loop
      vertex 0.460167 -2.60974 15
      vertex 5 -5 15
      vertex 2.03002 -1.70339 15
    endloop
  endfacet
  facet normal 0 0 1
    outer loop
      vertex -5 -5 15
      vertex 0.460167 -2.60974 15
      vertex -1.325 -2.29497 15
    endloop
  endfacet
  facet normal 0 0 1
    outer loop
      vertex 0.460167 -2.60974 15
      vertex -5 -5 15
      vertex 5 -5 15
    endloop
  endfacet
  facet normal 0 0 1
    outer loop
      vertex -2.49018 -0.906353 15
      vertex -5 -5 15
      vertex -1.325 -2.29497 15
    endloop
  endfacet
  facet normal 0 0 1
    outer loop
      vertex -5 -5 15
      vertex -2.49018 -0.906353 15
      vertex -5 5 15
    endloop
  endfacet
  facet normal 1 -0 0
    outer loop
      vertex 5 -5 15
      vertex 5 5 4
      vertex 5 5 15
    endloop
  endfacet
  facet normal 1 0 0
    outer loop
      vertex 5 5 4
      vertex 5 -5 15
      vertex 5 -5 4
    endloop
  endfacet
  facet normal 0 -1 0
    outer loop
      vertex -5 -5 4
      vertex 5 -5 15
      vertex -5 -5 15
    endloop
  endfacet
  facet normal 0 -1 -0
    outer loop
      vertex 5 -5 15
      vertex -5 -5 4
      vertex 5 -5 4
    endloop
  endfacet
  facet normal 0 1 -0
    outer loop
      vertex 5 5 4
      vertex -5 5 15
      vertex 5 5 15
    endloop
  endfacet
  facet normal 0 1 0
    outer loop
      vertex -5 5 15
      vertex 5 5 4
      vertex -5 5 4
    endloop
  endfacet
  facet normal -0.939692 -0.342021 0
    outer loop
      vertex 2.65 0 0
      vertex 2.03002 1.70339 15
      vertex 2.03002 1.70339 0
    endloop
  endfacet
  facet normal -0.939692 -0.342021 0
    outer loop
      vertex 2.03002 1.70339 15
      vertex 2.65 0 0
      vertex 2.65 0 15
    endloop
  endfacet
  facet normal 1 -0 0
    outer loop
      vertex -2.49018 -0.906353 15
      vertex -2.49018 0.906353 0
      vertex -2.49018 0.906353 15
    endloop
  endfacet
  facet normal 1 0 0
    outer loop
      vertex -2.49018 0.906353 0
      vertex -2.49018 -0.906353 15
      vertex -2.49018 -0.906353 0
    endloop
  endfacet
  facet normal 0.173648 -0.984808 0
    outer loop
      vertex -1.325 2.29497 0
      vertex 0.460167 2.60974 15
      vertex -1.325 2.29497 15
    endloop
  endfacet
  facet normal 0.173648 -0.984808 0
    outer loop
      vertex 0.460167 2.60974 15
      vertex -1.325 2.29497 0
      vertex 0.460167 2.60974 0
    endloop
  endfacet
  facet normal -0.5 -0.866025 0
    outer loop
      vertex 0.460167 2.60974 0
      vertex 2.03002 1.70339 15
      vertex 0.460167 2.60974 15
    endloop
  endfacet
  facet normal -0.5 -0.866025 -0
    outer loop
      vertex 2.03002 1.70339 15
      vertex 0.460167 2.60974 0
      vertex 2.03002 1.70339 0
    endloop
  endfacet
  facet normal 0.766045 -0.642788 0
    outer loop
      vertex -2.49018 0.906353 15
      vertex -1.325 2.29497 0
      vertex -1.325 2.29497 15
    endloop
  endfacet
  facet normal 0.766045 -0.642788 0
    outer loop
      vertex -1.325 2.29497 0
      vertex -2.49018 0.906353 15
      vertex -2.49018 0.906353 0
    endloop
  endfacet
  facet normal -0.5 0.866025 0
    outer loop
      vertex 2.03002 -1.70339 0
      vertex 0.460167 -2.60974 15
      vertex 2.03002 -1.70339 15
    endloop
  endfacet
  facet normal -0.5 0.866025 0
    outer loop
      vertex 0.460167 -2.60974 15
      vertex 2.03002 -1.70339 0
      vertex 0.460167 -2.60974 0
    endloop
  endfacet
  facet normal 0.766045 0.642788 0
    outer loop
      vertex -1.325 -2.29497 15
      vertex -2.49018 -0.906353 0
      vertex -2.49018 -0.906353 15
    endloop
  endfacet
  facet normal 0.766045 0.642788 0
    outer loop
      vertex -2.49018 -0.906353 0
      vertex -1.325 -2.29497 15
      vertex -1.325 -2.29497 0
    endloop
  endfacet
  facet normal -0.939692 0.342021 0
    outer loop
      vertex 2.03002 -1.70339 0
      vertex 2.65 0 15
      vertex 2.65 0 0
    endloop
  endfacet
  facet normal -0.939692 0.342021 0
    outer loop
      vertex 2.65 0 15
      vertex 2.03002 -1.70339 0
      vertex 2.03002 -1.70339 15
    endloop
  endfacet
  facet normal 0.173648 0.984808 -0
    outer loop
      vertex 0.460167 -2.60974 0
      vertex -1.325 -2.29497 15
      vertex 0.460167 -2.60974 15
    endloop
  endfacet
  facet normal 0.173648 0.984808 0
    outer loop
      vertex -1.325 -2.29497 15
      vertex 0.460167 -2.60974 0
      vertex -1.325 -2.29497 0
    endloop
  endfacet
  facet normal -0.866025 -0.500001 0
    outer loop
      vertex 38.65 37 0
      vertex 37.825 38.4289 4
      vertex 37.825 38.4289 0
    endloop
  endfacet
  facet normal -0.866025 -0.500001 0
    outer loop
      vertex 37.825 38.4289 4
      vertex 38.65 37 0
      vertex 38.65 37 4
    endloop
  endfacet
  facet normal 0 -1 0
    outer loop
      vertex 36.175 38.4289 0
      vertex 37.825 38.4289 4
      vertex 36.175 38.4289 4
    endloop
  endfacet
  facet normal 0 -1 -0
    outer loop
      vertex 37.825 38.4289 4
      vertex 36.175 38.4289 0
      vertex 37.825 38.4289 0
    endloop
  endfacet
  facet normal 0 1 -0
    outer loop
      vertex 37.825 35.5711 0
      vertex 36.175 35.5711 4
      vertex 37.825 35.5711 4
    endloop
  endfacet
  facet normal 0 1 0
    outer loop
      vertex 36.175 35.5711 4
      vertex 37.825 35.5711 0
      vertex 36.175 35.5711 0
    endloop
  endfacet
  facet normal 0.866025 -0.500001 0
    outer loop
      vertex 35.35 37 4
      vertex 36.175 38.4289 0
      vertex 36.175 38.4289 4
    endloop
  endfacet
  facet normal 0.866025 -0.500001 0
    outer loop
      vertex 36.175 38.4289 0
      vertex 35.35 37 4
      vertex 35.35 37 0
    endloop
  endfacet
  facet normal -0.866025 0.5 0
    outer loop
      vertex 37.825 35.5711 0
      vertex 38.65 37 4
      vertex 38.65 37 0
    endloop
  endfacet
  facet normal -0.866025 0.5 0
    outer loop
      vertex 38.65 37 4
      vertex 37.825 35.5711 0
      vertex 37.825 35.5711 4
    endloop
  endfacet
  facet normal 0.866025 0.5 0
    outer loop
      vertex 36.175 35.5711 4
      vertex 35.35 37 0
      vertex 35.35 37 4
    endloop
  endfacet
  facet normal 0.866025 0.5 0
    outer loop
      vertex 35.35 37 0
      vertex 36.175 35.5711 4
      vertex 36.175 35.5711 0
    endloop
  endfacet
  facet normal -0.866025 -0.500001 0
    outer loop
      vertex -35.35 37 0
      vertex -36.175 38.4289 4
      vertex -36.175 38.4289 0
    endloop
  endfacet
  facet normal -0.866025 -0.500001 0
    outer loop
      vertex -36.175 38.4289 4
      vertex -35.35 37 0
      vertex -35.35 37 4
    endloop
  endfacet
  facet normal 0.866025 0.5 0
    outer loop
      vertex -37.825 35.5711 4
      vertex -38.65 37 0
      vertex -38.65 37 4
    endloop
  endfacet
  facet normal 0.866025 0.5 0
    outer loop
      vertex -38.65 37 0
      vertex -37.825 35.5711 4
      vertex -37.825 35.5711 0
    endloop
  endfacet
  facet normal 0 -1 0
    outer loop
      vertex -37.825 38.4289 0
      vertex -36.175 38.4289 4
      vertex -37.825 38.4289 4
    endloop
  endfacet
  facet normal 0 -1 -0
    outer loop
      vertex -36.175 38.4289 4
      vertex -37.825 38.4289 0
      vertex -36.175 38.4289 0
    endloop
  endfacet
  facet normal 0 1 -0
    outer loop
      vertex -36.175 35.5711 0
      vertex -37.825 35.5711 4
      vertex -36.175 35.5711 4
    endloop
  endfacet
  facet normal 0 1 0
    outer loop
      vertex -37.825 35.5711 4
      vertex -36.175 35.5711 0
      vertex -37.825 35.5711 0
    endloop
  endfacet
  facet normal 0.866025 -0.500001 0
    outer loop
      vertex -38.65 37 4
      vertex -37.825 38.4289 0
      vertex -37.825 38.4289 4
    endloop
  endfacet
  facet normal 0.866025 -0.500001 0
    outer loop
      vertex -37.825 38.4289 0
      vertex -38.65 37 4
      vertex -38.65 37 0
    endloop
  endfacet
  facet normal -0.866025 0.5 0
    outer loop
      vertex -36.175 35.5711 0
      vertex -35.35 37 4
      vertex -35.35 37 0
    endloop
  endfacet
  facet normal -0.866025 0.5 0
    outer loop
      vertex -35.35 37 4
      vertex -36.175 35.5711 0
      vertex -36.175 35.5711 4
    endloop
  endfacet
  facet normal -0.866025 -0.5 0
    outer loop
      vertex 38.65 -37 0
      vertex 37.825 -35.5711 4
      vertex 37.825 -35.5711 0
    endloop
  endfacet
  facet normal -0.866025 -0.5 0
    outer loop
      vertex 37.825 -35.5711 4
      vertex 38.65 -37 0
      vertex 38.65 -37 4
    endloop
  endfacet
  facet normal 0.866025 -0.5 0
    outer loop
      vertex 35.35 -37 4
      vertex 36.175 -35.5711 0
      vertex 36.175 -35.5711 4
    endloop
  endfacet
  facet normal 0.866025 -0.5 0
    outer loop
      vertex 36.175 -35.5711 0
      vertex 35.35 -37 4
      vertex 35.35 -37 0
    endloop
  endfacet
  facet normal 0 -1 0
    outer loop
      vertex 36.175 -35.5711 0
      vertex 37.825 -35.5711 4
      vertex 36.175 -35.5711 4
    endloop
  endfacet
  facet normal 0 -1 -0
    outer loop
      vertex 37.825 -35.5711 4
      vertex 36.175 -35.5711 0
      vertex 37.825 -35.5711 0
    endloop
  endfacet
  facet normal 0.866025 0.500001 0
    outer loop
      vertex 36.175 -38.4289 4
      vertex 35.35 -37 0
      vertex 35.35 -37 4
    endloop
  endfacet
  facet normal 0.866025 0.500001 0
    outer loop
      vertex 35.35 -37 0
      vertex 36.175 -38.4289 4
      vertex 36.175 -38.4289 0
    endloop
  endfacet
  facet normal 0 1 -0
    outer loop
      vertex 37.825 -38.4289 0
      vertex 36.175 -38.4289 4
      vertex 37.825 -38.4289 4
    endloop
  endfacet
  facet normal 0 1 0
    outer loop
      vertex 36.175 -38.4289 4
      vertex 37.825 -38.4289 0
      vertex 36.175 -38.4289 0
    endloop
  endfacet
  facet normal -0.866025 0.500001 0
    outer loop
      vertex 37.825 -38.4289 0
      vertex 38.65 -37 4
      vertex 38.65 -37 0
    endloop
  endfacet
  facet normal -0.866025 0.500001 0
    outer loop
      vertex 38.65 -37 4
      vertex 37.825 -38.4289 0
      vertex 37.825 -38.4289 4
    endloop
  endfacet
  facet normal -0.866025 -0.5 0
    outer loop
      vertex -35.35 -37 0
      vertex -36.175 -35.5711 4
      vertex -36.175 -35.5711 0
    endloop
  endfacet
  facet normal -0.866025 -0.5 0
    outer loop
      vertex -36.175 -35.5711 4
      vertex -35.35 -37 0
      vertex -35.35 -37 4
    endloop
  endfacet
  facet normal 0.866025 -0.5 0
    outer loop
      vertex -38.65 -37 4
      vertex -37.825 -35.5711 0
      vertex -37.825 -35.5711 4
    endloop
  endfacet
  facet normal 0.866025 -0.5 0
    outer loop
      vertex -37.825 -35.5711 0
      vertex -38.65 -37 4
      vertex -38.65 -37 0
    endloop
  endfacet
  facet normal 0 -1 0
    outer loop
      vertex -37.825 -35.5711 0
      vertex -36.175 -35.5711 4
      vertex -37.825 -35.5711 4
    endloop
  endfacet
  facet normal 0 -1 -0
    outer loop
      vertex -36.175 -35.5711 4
      vertex -37.825 -35.5711 0
      vertex -36.175 -35.5711 0
    endloop
  endfacet
  facet normal 0 1 -0
    outer loop
      vertex -36.175 -38.4289 0
      vertex -37.825 -38.4289 4
      vertex -36.175 -38.4289 4
    endloop
  endfacet
  facet normal 0 1 0
    outer loop
      vertex -37.825 -38.4289 4
      vertex -36.175 -38.4289 0
      vertex -37.825 -38.4289 0
    endloop
  endfacet
  facet normal 0.866025 0.500001 0
    outer loop
      vertex -37.825 -38.4289 4
      vertex -38.65 -37 0
      vertex -38.65 -37 4
    endloop
  endfacet
  facet normal 0.866025 0.500001 0
    outer loop
      vertex -38.65 -37 0
      vertex -37.825 -38.4289 4
      vertex -37.825 -38.4289 0
    endloop
  endfacet
  facet normal -0.866025 0.500001 0
    outer loop
      vertex -36.175 -38.4289 0
      vertex -35.35 -37 4
      vertex -35.35 -37 0
    endloop
  endfacet
  facet normal -0.866025 0.500001 0
    outer loop
      vertex -35.35 -37 4
      vertex -36.175 -38.4289 0
      vertex -36.175 -38.4289 4
    endloop
  endfacet
endsolid OpenSCAD_Model
