  0
SECTION
  2
HEADER
  9
$ACADVER
  1
AC1014
  9
$HANDSEED
  5
FFFF
  9
$MEASUREMENT
 70
     1
  0
ENDSEC
  0
SECTION
  2
TABLES
  0
TABLE
  2
VPORT
  5
8
330
0
100
AcDbSymbolTable
 70
     4
  0
VPORT
  5
2E
330
8
100
AcDbSymbolTableRecord
100
AcDbViewportTableRecord
  2
*ACTIVE
 70
     0
 10
0.0
 20
0.0
 11
1.0
 21
1.0
 12
210.0
 22
148.5
 13
0.0
 23
0.0
 14
10.0
 24
10.0
 15
10.0
 25
10.0
 16
0.0
 26
0.0
 36
1.0
 17
0.0
 27
0.0
 37
0.0
 40
341.0
 41
1.24
 42
50.0
 43
0.0
 44
0.0
 50
0.0
 51
0.0
 71
     0
 72
   100
 73
     1
 74
     3
 75
     0
 76
     0
 77
     0
 78
     0
  0
ENDTAB
  0
TABLE
  2
LTYPE
  5
5
330
0
100
AcDbSymbolTable
 70
     1
  0
LTYPE
  5
14
330
5
100
AcDbSymbolTableRecord
100
AcDbLinetypeTableRecord
  2
BYBLOCK
 70
     0
  3

 72
    65
 73
     0
 40
0.0
  0
LTYPE
  5
15
330
5
100
AcDbSymbolTableRecord
100
AcDbLinetypeTableRecord
  2
BYLAYER
 70
     0
  3

 72
    65
 73
     0
 40
0.0
  0
LTYPE
  5
16
330
5
100
AcDbSymbolTableRecord
100
AcDbLinetypeTableRecord
  2
CONTINUOUS
 70
     0
  3
Solid line
 72
    65
 73
     0
 40
0.0
  0
ENDTAB
  0
TABLE
  2
LAYER
  5
2
100
AcDbSymbolTable
 70
1
  0
LAYER
  5
50
100
AcDbSymbolTableRecord
100
AcDbLayerTableRecord
  2
0
 70
0
  6
CONTINUOUS
  0
ENDTAB
  0
TABLE
  2
STYLE
  5
3
330
0
100
AcDbSymbolTable
 70
     1
  0
STYLE
  5
11
330
3
100
AcDbSymbolTableRecord
100
AcDbTextStyleTableRecord
  2
STANDARD
 70
     0
 40
0.0
 41
1.0
 50
0.0
 71
     0
 42
2.5
  3
txt
  4

  0
ENDTAB
  0
TABLE
  2
VIEW
  5
6
330
0
100
AcDbSymbolTable
 70
     0
  0
ENDTAB
  0
TABLE
  2
UCS
  5
7
330
0
100
AcDbSymbolTable
 70
     0
  0
ENDTAB
  0
TABLE
  2
APPID
  5
9
330
0
100
AcDbSymbolTable
 70
     2
  0
APPID
  5
12
330
9
100
AcDbSymbolTableRecord
100
AcDbRegAppTableRecord
  2
ACAD
 70
     0
  0
ENDTAB
  0
TABLE
  2
DIMSTYLE
  5
A
330
0
100
AcDbSymbolTable
 70
     1
  0
DIMSTYLE
105
27
330
A
100
AcDbSymbolTableRecord
100
AcDbDimStyleTableRecord
  2
ISO-25
 70
     0
  3

  4

  5

  6

  7

 40
1.0
 41
2.5
 42
0.625
 43
3.75
 44
1.25
 45
0.0
 46
0.0
 47
0.0
 48
0.0
140
2.5
141
2.5
142
0.0
143
0.03937007874016
144
1.0
145
0.0
146
1.0
147
0.625
 71
     0
 72
     0
 73
     0
 74
     0
 75
     0
 76
     0
 77
     1
 78
     8
170
     0
171
     3
172
     1
173
     0
174
     0
175
     0
176
     0
177
     0
178
     0
270
     2
271
     2
272
     2
273
     2
274
     3
340
11
275
     0
280
     0
281
     0
282
     0
283
     0
284
     8
285
     0
286
     0
287
     3
288
     0
  0
ENDTAB
  0
TABLE
  2
BLOCK_RECORD
  5
1
330
0
100
AcDbSymbolTable
 70
     1
  0
BLOCK_RECORD
  5
1F
330
1
100
AcDbSymbolTableRecord
100
AcDbBlockTableRecord
  2
*MODEL_SPACE
  0
BLOCK_RECORD
  5
1B
330
1
100
AcDbSymbolTableRecord
100
AcDbBlockTableRecord
  2
*PAPER_SPACE
  0
ENDTAB
  0
ENDSEC
  0
SECTION
  2
BLOCKS
  0
BLOCK
  5
20
330
1F
100
AcDbEntity
  8
0
100
AcDbBlockBegin
  2
*MODEL_SPACE
 70
     0
 10
0.0
 20
0.0
 30
0.0
  3
*MODEL_SPACE
  1

  0
ENDBLK
  5
21
330
1F
100
AcDbEntity
  8
0
100
AcDbBlockEnd
  0
BLOCK
  5
1C
330
1B
100
AcDbEntity
 67
     1
  8
0
100
AcDbBlockBegin
  2
*PAPER_SPACE
  1

  0
ENDBLK
  5
1D
330
1B
100
AcDbEntity
 67
     1
  8
0
100
AcDbBlockEnd
  0
ENDSEC
  0
SECTION
  2
ENTITIES
  0
LWPOLYLINE
  5
100
100
AcDbEntity
  8
0
 62
7
100
AcDbPolyline
 90
1856
 70
1
 10
404.584950
 20
1694.089912
 30
0.0
 10
401.137148
 20
1694.115377
 30
0.0
 10
397.748276
 20
1694.191681
 30
0.0
 10
394.418334
 20
1694.319054
 30
0.0
 10
391.147323
 20
1694.497542
 30
0.0
 10
387.935232
 20
1694.727255
 30
0.0
 10
384.782071
 20
1695.008287
 30
0.0
 10
381.687841
 20
1695.340748
 30
0.0
 10
378.652531
 20
1695.724749
 30
0.0
 10
375.676151
 20
1696.160363
 30
0.0
 10
372.758701
 20
1696.647719
 30
0.0
 10
369.900173
 20
1697.186901
 30
0.0
 10
367.100583
 20
1697.778020
 30
0.0
 10
364.359915
 20
1698.421167
 30
0.0
 10
361.678167
 20
1699.116453
 30
0.0
 10
359.055358
 20
1699.863980
 30
0.0
 10
356.491471
 20
1700.663841
 30
0.0
 10
353.986513
 20
1701.516145
 30
0.0
 10
351.540477
 20
1702.420985
 30
0.0
 10
349.153379
 20
1703.378472
 30
0.0
 10
346.825203
 20
1704.388707
 30
0.0
 10
344.555947
 20
1705.451783
 30
0.0
 10
342.345631
 20
1706.567810
 30
0.0
 10
340.194236
 20
1707.736880
 30
0.0
 10
338.101770
 20
1708.959105
 30
0.0
 10
336.068235
 20
1710.234577
 30
0.0
 10
334.093620
 20
1711.563396
 30
0.0
 10
332.177936
 20
1712.945674
 30
0.0
 10
330.321182
 20
1714.381512
 30
0.0
 10
328.523348
 20
1715.871003
 30
0.0
 10
326.784445
 20
1717.414248
 30
0.0
 10
325.104472
 20
1719.011357
 30
0.0
 10
323.483429
 20
1720.662424
 30
0.0
 10
321.917505
 20
1722.342969
 30
0.0
 10
320.402844
 20
1724.028589
 30
0.0
 10
318.939335
 20
1725.719477
 30
0.0
 10
317.526886
 20
1727.415837
 30
0.0
 10
316.165386
 20
1729.117880
 30
0.0
 10
314.854743
 20
1730.825792
 30
0.0
 10
313.594846
 20
1732.539792
 30
0.0
 10
312.385603
 20
1734.260077
 30
0.0
 10
311.226903
 20
1735.986847
 30
0.0
 10
310.118645
 20
1737.720307
 30
0.0
 10
309.060736
 20
1739.460668
 30
0.0
 10
308.053075
 20
1741.208115
 30
0.0
 10
307.095561
 20
1742.962860
 30
0.0
 10
306.188072
 20
1744.725116
 30
0.0
 10
305.330537
 20
1746.495067
 30
0.0
 10
304.522834
 20
1748.272925
 30
0.0
 10
303.764871
 20
1750.058893
 30
0.0
 10
303.056539
 20
1751.853174
 30
0.0
 10
302.397743
 20
1753.655971
 30
0.0
 10
301.788384
 20
1755.467488
 30
0.0
 10
301.228350
 20
1757.287917
 30
0.0
 10
300.717549
 20
1759.117471
 30
0.0
 10
300.255879
 20
1760.956354
 30
0.0
 10
299.843239
 20
1762.804767
 30
0.0
 10
299.479519
 20
1764.662906
 30
0.0
 10
299.164625
 20
1766.530981
 30
0.0
 10
298.898448
 20
1768.409196
 30
0.0
 10
298.680904
 20
1770.297745
 30
0.0
 10
298.511873
 20
1772.196840
 30
0.0
 10
298.391264
 20
1774.106684
 30
0.0
 10
298.318927
 20
1776.027471
 30
0.0
 10
298.294901
 20
1777.959403
 30
0.0
 10
298.298592
 20
1778.640296
 30
0.0
 10
298.310863
 20
1779.316225
 30
0.0
 10
298.331439
 20
1779.987080
 30
0.0
 10
298.360318
 20
1780.652767
 30
0.0
 10
298.397685
 20
1781.313186
 30
0.0
 10
298.443541
 20
1781.968226
 30
0.0
 10
298.498070
 20
1782.617804
 30
0.0
 10
298.561272
 20
1783.261800
 30
0.0
 10
298.633240
 20
1783.900113
 30
0.0
 10
298.714064
 20
1784.532658
 30
0.0
 10
298.803839
 20
1785.159318
 30
0.0
 10
298.902683
 20
1785.779998
 30
0.0
 10
299.010652
 20
1786.394598
 30
0.0
 10
299.127830
 20
1787.003016
 30
0.0
 10
299.254298
 20
1787.605151
 30
0.0
 10
299.390141
 20
1788.200892
 30
0.0
 10
299.535450
 20
1788.790147
 30
0.0
 10
299.690300
 20
1789.372823
 30
0.0
 10
299.854782
 20
1789.948801
 30
0.0
 10
300.028970
 20
1790.517988
 30
0.0
 10
300.212966
 20
1791.080282
 30
0.0
 10
300.406844
 20
1791.635583
 30
0.0
 10
300.610687
 20
1792.183789
 30
0.0
 10
300.824586
 20
1792.724789
 30
0.0
 10
301.048616
 20
1793.258499
 30
0.0
 10
301.282870
 20
1793.784810
 30
0.0
 10
301.527429
 20
1794.303620
 30
0.0
 10
301.782378
 20
1794.814827
 30
0.0
 10
302.047807
 20
1795.318330
 30
0.0
 10
302.323792
 20
1795.814028
 30
0.0
 10
302.610416
 20
1796.301818
 30
0.0
 10
302.907770
 20
1796.781599
 30
0.0
 10
303.171040
 20
1797.254359
 30
0.0
 10
303.441831
 20
1797.721131
 30
0.0
 10
303.720095
 20
1798.181841
 30
0.0
 10
304.005768
 20
1798.636462
 30
0.0
 10
304.298804
 20
1799.084929
 30
0.0
 10
304.599165
 20
1799.527204
 30
0.0
 10
304.906788
 20
1799.963215
 30
0.0
 10
305.221617
 20
1800.392933
 30
0.0
 10
305.543615
 20
1800.816303
 30
0.0
 10
305.872727
 20
1801.233261
 30
0.0
 10
306.208897
 20
1801.643769
 30
0.0
 10
306.552079
 20
1802.047773
 30
0.0
 10
306.902227
 20
1802.445216
 30
0.0
 10
307.259277
 20
1802.836063
 30
0.0
 10
307.623191
 20
1803.220248
 30
0.0
 10
307.993914
 20
1803.597725
 30
0.0
 10
308.371392
 20
1803.968449
 30
0.0
 10
308.755577
 20
1804.332363
 30
0.0
 10
309.146423
 20
1804.689413
 30
0.0
 10
309.543867
 20
1805.039561
 30
0.0
 10
309.947871
 20
1805.382743
 30
0.0
 10
310.358379
 20
1805.718913
 30
0.0
 10
310.775337
 20
1806.048025
 30
0.0
 10
311.198707
 20
1806.370023
 30
0.0
 10
311.628425
 20
1806.684852
 30
0.0
 10
312.064436
 20
1806.992474
 30
0.0
 10
312.506711
 20
1807.292836
 30
0.0
 10
312.955178
 20
1807.585872
 30
0.0
 10
313.409798
 20
1807.871545
 30
0.0
 10
313.870509
 20
1808.149809
 30
0.0
 10
314.337281
 20
1808.420599
 30
0.0
 10
314.810456
 20
1808.683870
 30
0.0
 10
315.289979
 20
1808.940636
 30
0.0
 10
315.777012
 20
1809.191830
 30
0.0
 10
316.271520
 20
1809.437275
 30
0.0
 10
316.773445
 20
1809.676806
 30
0.0
 10
317.282733
 20
1809.910256
 30
0.0
 10
317.799338
 20
1810.137460
 30
0.0
 10
318.323204
 20
1810.358243
 30
0.0
 10
318.854285
 20
1810.572428
 30
0.0
 10
319.392535
 20
1810.779869
 30
0.0
 10
319.937890
 20
1810.980372
 30
0.0
 10
320.490312
 20
1811.173788
 30
0.0
 10
321.049737
 20
1811.359934
 30
0.0
 10
321.616128
 20
1811.538653
 30
0.0
 10
322.189430
 20
1811.709760
 30
0.0
 10
322.769597
 20
1811.873098
 30
0.0
 10
323.356563
 20
1812.028501
 30
0.0
 10
323.950293
 20
1812.175794
 30
0.0
 10
324.550721
 20
1812.314801
 30
0.0
 10
325.157810
 20
1812.445366
 30
0.0
 10
325.771506
 20
1812.567314
 30
0.0
 10
326.391762
 20
1812.680478
 30
0.0
 10
327.018514
 20
1812.784692
 30
0.0
 10
327.651724
 20
1812.879781
 30
0.0
 10
328.291337
 20
1812.965588
 30
0.0
 10
328.937298
 20
1813.041891
 30
0.0
 10
329.589561
 20
1813.108599
 30
0.0
 10
330.248080
 20
1813.165527
 30
0.0
 10
330.912798
 20
1813.212491
 30
0.0
 10
331.583662
 20
1813.249305
 30
0.0
 10
332.260625
 20
1813.275785
 30
0.0
 10
332.943640
 20
1813.291839
 30
0.0
 10
333.632652
 20
1813.297375
 30
0.0
 10
334.321664
 20
1813.293684
 30
0.0
 10
335.004679
 20
1813.281413
 30
0.0
 10
335.681642
 20
1813.260838
 30
0.0
 10
336.352505
 20
1813.231959
 30
0.0
 10
337.017224
 20
1813.194591
 30
0.0
 10
337.675743
 20
1813.148735
 30
0.0
 10
338.328006
 20
1813.094206
 30
0.0
 10
338.973967
 20
1813.031004
 30
0.0
 10
339.613580
 20
1812.959037
 30
0.0
 10
340.246790
 20
1812.878212
 30
0.0
 10
340.873541
 20
1812.788438
 30
0.0
 10
341.493797
 20
1812.689593
 30
0.0
 10
342.107493
 20
1812.581624
 30
0.0
 10
342.714583
 20
1812.464447
 30
0.0
 10
343.315011
 20
1812.337978
 30
0.0
 10
343.908741
 20
1812.202135
 30
0.0
 10
344.495707
 20
1812.056826
 30
0.0
 10
345.075874
 20
1811.901977
 30
0.0
 10
345.649175
 20
1811.737495
 30
0.0
 10
346.215567
 20
1811.563306
 30
0.0
 10
346.774992
 20
1811.379310
 30
0.0
 10
347.327414
 20
1811.185432
 30
0.0
 10
347.872769
 20
1810.981590
 30
0.0
 10
348.411019
 20
1810.767690
 30
0.0
 10
348.942100
 20
1810.543660
 30
0.0
 10
349.465966
 20
1810.309407
 30
0.0
 10
349.982571
 20
1810.064847
 30
0.0
 10
350.491859
 20
1809.809899
 30
0.0
 10
350.993784
 20
1809.544469
 30
0.0
 10
351.488291
 20
1809.268484
 30
0.0
 10
351.975325
 20
1808.981861
 30
0.0
 10
352.454848
 20
1808.683870
 30
0.0
 10
352.927608
 20
1808.420599
 30
0.0
 10
353.394380
 20
1808.149809
 30
0.0
 10
353.855090
 20
1807.871545
 30
0.0
 10
354.309711
 20
1807.585872
 30
0.0
 10
354.758177
 20
1807.292836
 30
0.0
 10
355.200453
 20
1806.992474
 30
0.0
 10
355.636463
 20
1806.684852
 30
0.0
 10
356.066182
 20
1806.370023
 30
0.0
 10
356.489552
 20
1806.048025
 30
0.0
 10
356.906510
 20
1805.718913
 30
0.0
 10
357.317018
 20
1805.382743
 30
0.0
 10
357.721022
 20
1805.039561
 30
0.0
 10
358.118465
 20
1804.689413
 30
0.0
 10
358.509312
 20
1804.332363
 30
0.0
 10
358.893497
 20
1803.968449
 30
0.0
 10
359.270974
 20
1803.597725
 30
0.0
 10
359.641698
 20
1803.220248
 30
0.0
 10
360.005612
 20
1802.836063
 30
0.0
 10
360.362661
 20
1802.445216
 30
0.0
 10
360.712810
 20
1802.047773
 30
0.0
 10
361.055992
 20
1801.643769
 30
0.0
 10
361.392162
 20
1801.233261
 30
0.0
 10
361.721273
 20
1800.816303
 30
0.0
 10
362.043271
 20
1800.392933
 30
0.0
 10
362.358100
 20
1799.963215
 30
0.0
 10
362.665723
 20
1799.527204
 30
0.0
 10
362.966085
 20
1799.084929
 30
0.0
 10
363.259121
 20
1798.636462
 30
0.0
 10
363.544794
 20
1798.181841
 30
0.0
 10
363.823058
 20
1797.721131
 30
0.0
 10
364.093848
 20
1797.254359
 30
0.0
 10
364.357119
 20
1796.781599
 30
0.0
 10
364.613885
 20
1796.302076
 30
0.0
 10
364.865078
 20
1795.815043
 30
0.0
 10
365.110524
 20
1795.320535
 30
0.0
 10
365.350054
 20
1794.818610
 30
0.0
 10
365.583505
 20
1794.309322
 30
0.0
 10
365.810709
 20
1793.792717
 30
0.0
 10
366.031492
 20
1793.268851
 30
0.0
 10
366.245677
 20
1792.737770
 30
0.0
 10
366.453118
 20
1792.199520
 30
0.0
 10
366.653621
 20
1791.654165
 30
0.0
 10
366.847037
 20
1791.101743
 30
0.0
 10
367.033183
 20
1790.542318
 30
0.0
 10
367.211902
 20
1789.975927
 30
0.0
 10
367.383008
 20
1789.402625
 30
0.0
 10
367.546346
 20
1788.822458
 30
0.0
 10
367.701749
 20
1788.235492
 30
0.0
 10
367.849042
 20
1787.641762
 30
0.0
 10
367.988050
 20
1787.041334
 30
0.0
 10
368.118615
 20
1786.434245
 30
0.0
 10
368.240562
 20
1785.820549
 30
0.0
 10
368.353726
 20
1785.200293
 30
0.0
 10
368.457940
 20
1784.573541
 30
0.0
 10
368.553029
 20
1783.940331
 30
0.0
 10
368.638836
 20
1783.300718
 30
0.0
 10
368.715140
 20
1782.654757
 30
0.0
 10
368.781848
 20
1782.002494
 30
0.0
 10
368.838776
 20
1781.343975
 30
0.0
 10
368.885739
 20
1780.679257
 30
0.0
 10
368.922553
 20
1780.008393
 30
0.0
 10
368.949034
 20
1779.331430
 30
0.0
 10
368.965088
 20
1778.648415
 30
0.0
 10
368.970624
 20
1777.959403
 30
0.0
 10
368.964165
 20
1777.108206
 30
0.0
 10
368.943959
 20
1776.267306
 30
0.0
 10
368.910467
 20
1775.436758
 30
0.0
 10
368.863688
 20
1774.616572
 30
0.0
 10
368.803715
 20
1773.806802
 30
0.0
 10
368.730641
 20
1773.007468
 30
0.0
 10
368.644557
 20
1772.218606
 30
0.0
 10
368.545565
 20
1771.440262
 30
0.0
 10
368.433739
 20
1770.672445
 30
0.0
 10
368.309162
 20
1769.915212
 30
0.0
 10
368.171908
 20
1769.168589
 30
0.0
 10
368.022068
 20
1768.432613
 30
0.0
 10
367.859727
 20
1767.707313
 30
0.0
 10
367.684966
 20
1766.992715
 30
0.0
 10
367.497879
 20
1766.288876
 30
0.0
 10
367.298539
 20
1765.595804
 30
0.0
 10
367.087039
 20
1764.913545
 30
0.0
 10
366.863451
 20
1764.242137
 30
0.0
 10
366.627879
 20
1763.581607
 30
0.0
 10
366.380385
 20
1762.931992
 30
0.0
 10
366.121072
 20
1762.293320
 30
0.0
 10
365.850014
 20
1761.665637
 30
0.0
 10
365.567303
 20
1761.048970
 30
0.0
 10
365.273022
 20
1760.443348
 30
0.0
 10
364.967244
 20
1759.848806
 30
0.0
 10
364.650072
 20
1759.265383
 30
0.0
 10
364.321569
 20
1758.693105
 30
0.0
 10
363.981838
 20
1758.132019
 30
0.0
 10
363.630961
 20
1757.582143
 30
0.0
 10
363.269012
 20
1757.043524
 30
0.0
 10
362.896083
 20
1756.516189
 30
0.0
 10
362.512258
 20
1756.000174
 30
0.0
 10
362.119252
 20
1755.485526
 30
0.0
 10
361.718810
 20
1754.979670
 30
0.0
 10
361.311069
 20
1754.482727
 30
0.0
 10
360.896169
 20
1753.994835
 30
0.0
 10
360.474238
 20
1753.516143
 30
0.0
 10
360.045415
 20
1753.046769
 30
0.0
 10
359.609829
 20
1752.586861
 30
0.0
 10
359.167627
 20
1752.136550
 30
0.0
 10
358.718939
 20
1751.695972
 30
0.0
 10
358.263894
 20
1751.265248
 30
0.0
 10
357.802631
 20
1750.844535
 30
0.0
 10
357.335287
 20
1750.433962
 30
0.0
 10
356.862001
 20
1750.033658
 30
0.0
 10
356.382902
 20
1749.643753
 30
0.0
 10
355.898120
 20
1749.264393
 30
0.0
 10
355.407349
 20
1748.895718
 30
0.0
 10
354.911624
 20
1748.537847
 30
0.0
 10
354.410631
 20
1748.190928
 30
0.0
 10
353.904498
 20
1747.855090
 30
0.0
 10
353.393365
 20
1747.530472
 30
0.0
 10
352.877360
 20
1747.217212
 30
0.0
 10
352.356631
 20
1746.915429
 30
0.0
 10
351.831307
 20
1746.625272
 30
0.0
 10
351.301527
 20
1746.346879
 30
0.0
 10
350.767420
 20
1746.080379
 30
0.0
 10
350.229123
 20
1745.825901
 30
0.0
 10
349.686767
 20
1745.583593
 30
0.0
 10
349.140490
 20
1745.353584
 30
0.0
 10
348.590439
 20
1745.136003
 30
0.0
 10
348.036725
 20
1744.930998
 30
0.0
 10
347.479505
 20
1744.738698
 30
0.0
 10
346.918908
 20
1744.559232
 30
0.0
 10
347.403829
 20
1743.924278
 30
0.0
 10
347.907073
 20
1743.299612
 30
0.0
 10
348.428550
 20
1742.685251
 30
0.0
 10
348.968211
 20
1742.081216
 30
0.0
 10
349.525985
 20
1741.487514
 30
0.0
 10
350.101806
 20
1740.904173
 30
0.0
 10
350.695591
 20
1740.331204
 30
0.0
 10
351.307294
 20
1739.768623
 30
0.0
 10
351.936832
 20
1739.216450
 30
0.0
 10
352.584149
 20
1738.674703
 30
0.0
 10
353.249163
 20
1738.143400
 30
0.0
 10
353.931818
 20
1737.622551
 30
0.0
 10
354.632041
 20
1737.112174
 30
0.0
 10
355.349776
 20
1736.612288
 30
0.0
 10
356.084939
 20
1736.122911
 30
0.0
 10
356.837467
 20
1735.644062
 30
0.0
 10
357.607295
 20
1735.175749
 30
0.0
 10
358.394358
 20
1734.718000
 30
0.0
 10
359.198592
 20
1734.270826
 30
0.0
 10
360.019913
 20
1733.834252
 30
0.0
 10
360.858266
 20
1733.408280
 30
0.0
 10
361.713578
 20
1732.992937
 30
0.0
 10
362.585793
 20
1732.588232
 30
0.0
 10
363.474829
 20
1732.194193
 30
0.0
 10
364.380628
 20
1731.810829
 30
0.0
 10
365.303110
 20
1731.438159
 30
0.0
 10
366.242227
 20
1731.076201
 30
0.0
 10
367.197896
 20
1730.724964
 30
0.0
 10
368.170053
 20
1730.384485
 30
0.0
 10
369.158624
 20
1730.054755
 30
0.0
 10
370.163563
 20
1729.735811
 30
0.0
 10
371.184778
 20
1729.427662
 30
0.0
 10
372.214122
 20
1729.130308
 30
0.0
 10
373.243474
 20
1728.843685
 30
0.0
 10
374.272873
 20
1728.567700
 30
0.0
 10
375.302318
 20
1728.302270
 30
0.0
 10
376.331828
 20
1728.047322
 30
0.0
 10
377.361420
 20
1727.802762
 30
0.0
 10
378.391114
 20
1727.568509
 30
0.0
 10
379.420928
 20
1727.344479
 30
0.0
 10
380.450881
 20
1727.130579
 30
0.0
 10
381.480981
 20
1726.926737
 30
0.0
 10
382.511256
 20
1726.732859
 30
0.0
 10
383.541707
 20
1726.548863
 30
0.0
 10
384.572370
 20
1726.374674
 30
0.0
 10
385.603245
 20
1726.210192
 30
0.0
 10
386.634360
 20
1726.055343
 30
0.0
 10
387.665733
 20
1725.910034
 30
0.0
 10
388.697374
 20
1725.774191
 30
0.0
 10
389.729301
 20
1725.647722
 30
0.0
 10
390.761532
 20
1725.530545
 30
0.0
 10
391.794077
 20
1725.422576
 30
0.0
 10
392.826973
 20
1725.323732
 30
0.0
 10
393.860219
 20
1725.233957
 30
0.0
 10
394.893835
 20
1725.153132
 30
0.0
 10
395.927838
 20
1725.081165
 30
0.0
 10
396.962246
 20
1725.017963
 30
0.0
 10
397.997080
 20
1724.963434
 30
0.0
 10
399.032347
 20
1724.917578
 30
0.0
 10
400.068075
 20
1724.880210
 30
0.0
 10
401.104274
 20
1724.851331
 30
0.0
 10
402.140971
 20
1724.830756
 30
0.0
 10
403.178166
 20
1724.818485
 30
0.0
 10
404.215887
 20
1724.814794
 30
0.0
 10
405.672328
 20
1724.826973
 30
0.0
 10
407.118039
 20
1724.863418
 30
0.0
 10
408.553112
 20
1724.924221
 30
0.0
 10
409.977629
 20
1725.009290
 30
0.0
 10
411.391665
 20
1725.118597
 30
0.0
 10
412.795312
 20
1725.252143
 30
0.0
 10
414.188652
 20
1725.409917
 30
0.0
 10
415.571770
 20
1725.591902
 30
0.0
 10
416.944757
 20
1725.798079
 30
0.0
 10
418.307687
 20
1726.028429
 30
0.0
 10
419.660652
 20
1726.282935
 30
0.0
 10
421.003736
 20
1726.561586
 30
0.0
 10
422.337012
 20
1726.864365
 30
0.0
 10
423.660581
 20
1727.191253
 30
0.0
 10
424.974518
 20
1727.542232
 30
0.0
 10
426.278915
 20
1727.917283
 30
0.0
 10
427.573845
 20
1728.316396
 30
0.0
 10
428.859401
 20
1728.739545
 30
0.0
 10
430.135666
 20
1729.186720
 30
0.0
 10
431.402722
 20
1729.657893
 30
0.0
 10
432.660654
 20
1730.153064
 30
0.0
 10
433.909553
 20
1730.672206
 30
0.0
 10
435.149493
 20
1731.215310
 30
0.0
 10
436.380566
 20
1731.782347
 30
0.0
 10
437.602846
 20
1732.373308
 30
0.0
 10
438.816435
 20
1732.988176
 30
0.0
 10
440.021406
 20
1733.626931
 30
0.0
 10
441.217843
 20
1734.289565
 30
0.0
 10
442.405837
 20
1734.976040
 30
0.0
 10
443.585463
 20
1735.686365
 30
0.0
 10
444.756812
 20
1736.420505
 30
0.0
 10
445.919969
 20
1737.177978
 30
0.0
 10
447.069599
 20
1737.959967
 30
0.0
 10
448.200324
 20
1738.766203
 30
0.0
 10
449.312162
 20
1739.596603
 30
0.0
 10
450.405123
 20
1740.451066
 30
0.0
 10
451.479233
 20
1741.329527
 30
0.0
 10
452.534513
 20
1742.231886
 30
0.0
 10
453.570970
 20
1743.158076
 30
0.0
 10
454.588614
 20
1744.107997
 30
0.0
 10
455.587482
 20
1745.081566
 30
0.0
 10
456.567574
 20
1746.078709
 30
0.0
 10
457.528918
 20
1747.099333
 30
0.0
 10
458.471522
 20
1748.143356
 30
0.0
 10
459.395406
 20
1749.210695
 30
0.0
 10
460.300597
 20
1750.301256
 30
0.0
 10
461.187095
 20
1751.414977
 30
0.0
 10
462.054927
 20
1752.551745
 30
0.0
 10
462.904103
 20
1753.711497
 30
0.0
 10
463.734651
 20
1754.894140
 30
0.0
 10
464.546580
 20
1756.099581
 30
0.0
 10
465.339908
 20
1757.327757
 30
0.0
 10
466.114653
 20
1758.578566
 30
0.0
 10
466.870826
 20
1759.851925
 30
0.0
 10
467.608453
 20
1761.147759
 30
0.0
 10
468.327553
 20
1762.465977
 30
0.0
 10
469.028126
 20
1763.806496
 30
0.0
 10
469.710210
 20
1765.169232
 30
0.0
 10
470.373803
 20
1766.554103
 30
0.0
 10
471.018933
 20
1767.961016
 30
0.0
 10
471.645611
 20
1769.389888
 30
0.0
 10
472.253863
 20
1770.840646
 30
0.0
 10
472.843699
 20
1772.313187
 30
0.0
 10
473.415137
 20
1773.807448
 30
0.0
 10
473.967670
 20
1775.319027
 30
0.0
 10
474.500855
 20
1776.843607
 30
0.0
 10
475.014821
 20
1778.381242
 30
0.0
 10
475.509679
 20
1779.931942
 30
0.0
 10
475.985539
 20
1781.495752
 30
0.0
 10
476.442540
 20
1783.072711
 30
0.0
 10
476.880783
 20
1784.662845
 30
0.0
 10
477.300389
 20
1786.266201
 30
0.0
 10
477.701477
 20
1787.882788
 30
0.0
 10
478.084168
 20
1789.512661
 30
0.0
 10
478.448589
 20
1791.155848
 30
0.0
 10
478.794835
 20
1792.812376
 30
0.0
 10
479.123051
 20
1794.482283
 30
0.0
 10
479.433332
 20
1796.165606
 30
0.0
 10
479.725814
 20
1797.862381
 30
0.0
 10
480.000599
 20
1799.572636
 30
0.0
 10
480.257818
 20
1801.296407
 30
0.0
 10
480.497588
 20
1803.033724
 30
0.0
 10
480.720022
 20
1804.784631
 30
0.0
 10
480.925240
 20
1806.549147
 30
0.0
 10
481.113360
 20
1808.327319
 30
0.0
 10
481.284504
 20
1810.119173
 30
0.0
 10
481.438781
 20
1811.924739
 30
0.0
 10
481.576322
 20
1813.744070
 30
0.0
 10
481.697236
 20
1815.577177
 30
0.0
 10
481.801653
 20
1817.424105
 30
0.0
 10
481.889674
 20
1819.284891
 30
0.0
 10
481.961457
 20
1821.159554
 30
0.0
 10
482.017093
 20
1823.048149
 30
0.0
 10
482.056675
 20
1824.950695
 30
0.0
 10
482.080295
 20
1826.867228
 30
0.0
 10
482.088599
 20
1828.797786
 30
0.0
 10
482.079096
 20
1830.889181
 30
0.0
 10
482.050770
 20
1832.959558
 30
0.0
 10
482.003530
 20
1835.008990
 30
0.0
 10
481.937376
 20
1837.037543
 30
0.0
 10
481.852399
 20
1839.045281
 30
0.0
 10
481.748591
 20
1841.032268
 30
0.0
 10
481.625961
 20
1842.998579
 30
0.0
 10
481.484517
 20
1844.944277
 30
0.0
 10
481.324298
 20
1846.869437
 30
0.0
 10
481.145303
 20
1848.774114
 30
0.0
 10
480.947559
 20
1850.658382
 30
0.0
 10
480.731076
 20
1852.522315
 30
0.0
 10
480.495872
 20
1854.365977
 30
0.0
 10
480.241976
 20
1856.189423
 30
0.0
 10
479.969386
 20
1857.992737
 30
0.0
 10
479.678131
 20
1859.775983
 30
0.0
 10
479.368220
 20
1861.539226
 30
0.0
 10
479.039680
 20
1863.282531
 30
0.0
 10
478.692521
 20
1865.005970
 30
0.0
 10
478.326762
 20
1866.709601
 30
0.0
 10
477.942420
 20
1868.393504
 30
0.0
 10
477.539505
 20
1870.057746
 30
0.0
 10
477.118045
 20
1871.702391
 30
0.0
 10
476.678057
 20
1873.327503
 30
0.0
 10
476.219543
 20
1874.933156
 30
0.0
 10
475.742539
 20
1876.519406
 30
0.0
 10
475.247045
 20
1878.086336
 30
0.0
 10
474.733088
 20
1879.634009
 30
0.0
 10
474.200678
 20
1881.162482
 30
0.0
 10
473.649843
 20
1882.671838
 30
0.0
 10
473.080591
 20
1884.162131
 30
0.0
 10
472.492481
 20
1885.633436
 30
0.0
 10
471.879135
 20
1887.126341
 30
0.0
 10
471.250004
 20
1888.594832
 30
0.0
 10
470.604993
 20
1890.038836
 30
0.0
 10
469.944001
 20
1891.458251
 30
0.0
 10
469.266928
 20
1892.852994
 30
0.0
 10
468.573672
 20
1894.222992
 30
0.0
 10
467.864121
 20
1895.568161
 30
0.0
 10
467.138184
 20
1896.888409
 30
0.0
 10
466.395768
 20
1898.183652
 30
0.0
 10
465.636754
 20
1899.453800
 30
0.0
 10
464.861049
 20
1900.698787
 30
0.0
 10
464.068552
 20
1901.918511
 30
0.0
 10
463.259160
 20
1903.112890
 30
0.0
 10
462.432773
 20
1904.281850
 30
0.0
 10
461.589290
 20
1905.425289
 30
0.0
 10
460.728608
 20
1906.543143
 30
0.0
 10
459.850627
 20
1907.635310
 30
0.0
 10
458.955244
 20
1908.701726
 30
0.0
 10
458.042358
 20
1909.742280
 30
0.0
 10
457.111868
 20
1910.756907
 30
0.0
 10
456.163672
 20
1911.745515
 30
0.0
 10
455.197669
 20
1912.708031
 30
0.0
 10
454.213757
 20
1913.644352
 30
0.0
 10
453.211844
 20
1914.554396
 30
0.0
 10
452.191810
 20
1915.438098
 30
0.0
 10
451.153563
 20
1916.295347
 30
0.0
 10
450.097011
 20
1917.126080
 30
0.0
 10
449.022042
 20
1917.930203
 30
0.0
 10
447.928555
 20
1918.707633
 30
0.0
 10
446.816450
 20
1919.458288
 30
0.0
 10
445.685623
 20
1920.182076
 30
0.0
 10
444.535984
 20
1920.878921
 30
0.0
 10
443.374184
 20
1921.593630
 30
0.0
 10
442.206884
 20
1922.284626
 30
0.0
 10
441.034013
 20
1922.951956
 30
0.0
 10
439.855485
 20
1923.595712
 30
0.0
 10
438.671209
 20
1924.215949
 30
0.0
 10
437.481111
 20
1924.812733
 30
0.0
 10
436.285089
 20
1925.386145
 30
0.0
 10
435.083080
 20
1925.936233
 30
0.0
 10
433.874981
 20
1926.463079
 30
0.0
 10
432.660719
 20
1926.966739
 30
0.0
 10
431.440210
 20
1927.447296
 30
0.0
 10
430.213363
 20
1927.904804
 30
0.0
 10
428.980094
 20
1928.339339
 30
0.0
 10
427.740320
 20
1928.750963
 30
0.0
 10
426.493958
 20
1929.139752
 30
0.0
 10
425.240926
 20
1929.505761
 30
0.0
 10
423.981131
 20
1929.849063
 30
0.0
 10
422.714498
 20
1930.169733
 30
0.0
 10
421.440937
 20
1930.467824
 30
0.0
 10
420.160363
 20
1930.743422
 30
0.0
 10
418.872704
 20
1930.996571
 30
0.0
 10
417.577856
 20
1931.227365
 30
0.0
 10
416.275739
 20
1931.435848
 30
0.0
 10
414.966277
 20
1931.622105
 30
0.0
 10
413.649387
 20
1931.786190
 30
0.0
 10
412.324969
 20
1931.928187
 30
0.0
 10
410.992957
 20
1932.048151
 30
0.0
 10
409.653251
 20
1932.146146
 30
0.0
 10
408.305784
 20
1932.222265
 30
0.0
 10
406.950448
 20
1932.276518
 30
0.0
 10
405.587186
 20
1932.308995
 30
0.0
 10
404.215887
 20
1932.319864
 30
0.0
 10
403.310862
 20
1932.307685
 30
0.0
 10
402.394858
 20
1932.271332
 30
0.0
 10
401.467699
 20
1932.210806
 30
0.0
 10
400.529228
 20
1932.126291
 30
0.0
 10
399.579261
 20
1932.017851
 30
0.0
 10
398.617640
 20
1931.885588
 30
0.0
 10
397.644191
 20
1931.729594
 30
0.0
 10
396.658748
 20
1931.549999
 30
0.0
 10
395.661144
 20
1931.346876
 30
0.0
 10
394.651204
 20
1931.120337
 30
0.0
 10
393.628771
 20
1930.870490
 30
0.0
 10
392.593661
 20
1930.597421
 30
0.0
 10
391.545707
 20
1930.301248
 30
0.0
 10
390.484744
 20
1929.982064
 30
0.0
 10
389.410606
 20
1929.639971
 30
0.0
 10
388.323126
 20
1929.275097
 30
0.0
 10
387.222129
 20
1928.887489
 30
0.0
 10
386.107440
 20
1928.477276
 30
0.0
 10
384.978911
 20
1928.044559
 30
0.0
 10
383.836348
 20
1927.589449
 30
0.0
 10
382.679595
 20
1927.112030
 30
0.0
 10
381.508485
 20
1926.612411
 30
0.0
 10
380.322844
 20
1926.090695
 30
0.0
 10
379.122504
 20
1925.546992
 30
0.0
 10
377.907301
 20
1924.981385
 30
0.0
 10
376.677067
 20
1924.393985
 30
0.0
 10
375.431619
 20
1923.784893
 30
0.0
 10
374.170800
 20
1923.154211
 30
0.0
 10
372.894433
 20
1922.502031
 30
0.0
 10
371.602364
 20
1921.828473
 30
0.0
 10
370.294405
 20
1921.133630
 30
0.0
 10
368.970402
 20
1920.417593
 30
0.0
 10
368.163078
 20
1920.031230
 30
0.0
 10
367.355753
 20
1919.644868
 30
0.0
 10
366.548429
 20
1919.258506
 30
0.0
 10
365.741104
 20
1918.872143
 30
0.0
 10
364.933779
 20
1918.485781
 30
0.0
 10
364.126455
 20
1918.099418
 30
0.0
 10
363.319130
 20
1917.713056
 30
0.0
 10
362.511806
 20
1917.326693
 30
0.0
 10
361.704481
 20
1916.940331
 30
0.0
 10
360.897156
 20
1916.553968
 30
0.0
 10
360.089832
 20
1916.167606
 30
0.0
 10
359.282507
 20
1915.781243
 30
0.0
 10
358.475183
 20
1915.394881
 30
0.0
 10
357.667858
 20
1915.008518
 30
0.0
 10
356.860534
 20
1914.622156
 30
0.0
 10
356.053209
 20
1914.235793
 30
0.0
 10
355.245884
 20
1913.849431
 30
0.0
 10
354.438560
 20
1913.463068
 30
0.0
 10
353.631235
 20
1913.076706
 30
0.0
 10
352.823911
 20
1912.690343
 30
0.0
 10
352.016586
 20
1912.303981
 30
0.0
 10
351.209261
 20
1911.917618
 30
0.0
 10
350.401937
 20
1911.531256
 30
0.0
 10
349.594612
 20
1911.144893
 30
0.0
 10
348.787288
 20
1910.758531
 30
0.0
 10
347.979963
 20
1910.372168
 30
0.0
 10
347.172639
 20
1909.985806
 30
0.0
 10
346.365314
 20
1909.599443
 30
0.0
 10
345.557989
 20
1909.213081
 30
0.0
 10
344.750665
 20
1908.826719
 30
0.0
 10
343.943340
 20
1908.440356
 30
0.0
 10
343.136016
 20
1908.053994
 30
0.0
 10
343.136016
 20
1908.454777
 30
0.0
 10
343.136016
 20
1908.855552
 30
0.0
 10
343.136016
 20
1909.256335
 30
0.0
 10
343.136016
 20
1909.657110
 30
0.0
 10
343.136016
 20
1910.057893
 30
0.0
 10
343.136016
 20
1910.458668
 30
0.0
 10
343.136016
 20
1910.859451
 30
0.0
 10
343.136016
 20
1911.260226
 30
0.0
 10
343.136016
 20
1911.661009
 30
0.0
 10
343.136016
 20
1912.061783
 30
0.0
 10
343.136016
 20
1912.462567
 30
0.0
 10
343.136016
 20
1912.863341
 30
0.0
 10
343.136016
 20
1913.264125
 30
0.0
 10
343.136016
 20
1913.664899
 30
0.0
 10
343.136016
 20
1914.065683
 30
0.0
 10
343.136016
 20
1914.466457
 30
0.0
 10
343.136016
 20
1914.867241
 30
0.0
 10
343.136016
 20
1915.268015
 30
0.0
 10
343.136016
 20
1915.668799
 30
0.0
 10
343.136016
 20
1916.069573
 30
0.0
 10
343.136016
 20
1916.470357
 30
0.0
 10
343.136016
 20
1916.871131
 30
0.0
 10
343.136016
 20
1917.271915
 30
0.0
 10
343.136016
 20
1917.672689
 30
0.0
 10
343.136016
 20
1918.073473
 30
0.0
 10
343.136016
 20
1918.474247
 30
0.0
 10
343.136016
 20
1918.875031
 30
0.0
 10
343.136016
 20
1919.275805
 30
0.0
 10
343.136016
 20
1919.676589
 30
0.0
 10
343.136016
 20
1920.077363
 30
0.0
 10
343.136016
 20
1920.478147
 30
0.0
 10
343.136016
 20
1920.878921
 30
0.0
 10
346.786276
 20
1925.745935
 30
0.0
 10
350.436536
 20
1930.612949
 30
0.0
 10
354.086797
 20
1935.479963
 30
0.0
 10
357.737057
 20
1940.346977
 30
0.0
 10
361.387318
 20
1945.213991
 30
0.0
 10
365.037578
 20
1950.081005
 30
0.0
 10
368.687839
 20
1954.948019
 30
0.0
 10
372.338099
 20
1959.815033
 30
0.0
 10
375.988360
 20
1964.682047
 30
0.0
 10
379.638620
 20
1969.549061
 30
0.0
 10
383.288881
 20
1974.416075
 30
0.0
 10
386.939141
 20
1979.283089
 30
0.0
 10
390.589401
 20
1984.150102
 30
0.0
 10
394.239662
 20
1989.017116
 30
0.0
 10
397.889922
 20
1993.884130
 30
0.0
 10
401.540183
 20
1998.751144
 30
0.0
 10
405.190443
 20
2003.618158
 30
0.0
 10
408.840704
 20
2008.485172
 30
0.0
 10
412.490964
 20
2013.352186
 30
0.0
 10
416.141225
 20
2018.219200
 30
0.0
 10
419.791485
 20
2023.086214
 30
0.0
 10
423.441745
 20
2027.953228
 30
0.0
 10
427.092006
 20
2032.820242
 30
0.0
 10
430.742266
 20
2037.687256
 30
0.0
 10
434.392527
 20
2042.554270
 30
0.0
 10
438.042787
 20
2047.421284
 30
0.0
 10
441.693048
 20
2052.288298
 30
0.0
 10
445.343308
 20
2057.155311
 30
0.0
 10
448.993569
 20
2062.022325
 30
0.0
 10
452.643829
 20
2066.889339
 30
0.0
 10
456.294090
 20
2071.756353
 30
0.0
 10
459.944350
 20
2076.623367
 30
0.0
 10
454.892805
 20
2076.623367
 30
0.0
 10
449.841259
 20
2076.623367
 30
0.0
 10
444.789714
 20
2076.623367
 30
0.0
 10
439.738169
 20
2076.623367
 30
0.0
 10
434.686624
 20
2076.623367
 30
0.0
 10
429.635078
 20
2076.623367
 30
0.0
 10
424.583533
 20
2076.623367
 30
0.0
 10
419.531988
 20
2076.623367
 30
0.0
 10
414.480443
 20
2076.623367
 30
0.0
 10
409.428897
 20
2076.623367
 30
0.0
 10
404.377352
 20
2076.623367
 30
0.0
 10
399.325807
 20
2076.623367
 30
0.0
 10
394.274262
 20
2076.623367
 30
0.0
 10
389.222716
 20
2076.623367
 30
0.0
 10
384.171171
 20
2076.623367
 30
0.0
 10
379.119626
 20
2076.623367
 30
0.0
 10
374.068080
 20
2076.623367
 30
0.0
 10
369.016535
 20
2076.623367
 30
0.0
 10
363.964990
 20
2076.623367
 30
0.0
 10
358.913445
 20
2076.623367
 30
0.0
 10
353.861899
 20
2076.623367
 30
0.0
 10
348.810354
 20
2076.623367
 30
0.0
 10
343.758809
 20
2076.623367
 30
0.0
 10
338.707264
 20
2076.623367
 30
0.0
 10
333.655718
 20
2076.623367
 30
0.0
 10
328.604173
 20
2076.623367
 30
0.0
 10
323.552628
 20
2076.623367
 30
0.0
 10
318.501082
 20
2076.623367
 30
0.0
 10
313.449537
 20
2076.623367
 30
0.0
 10
308.397992
 20
2076.623367
 30
0.0
 10
303.346447
 20
2076.623367
 30
0.0
 10
298.294901
 20
2076.623367
 30
0.0
 10
298.294901
 20
2071.568943
 30
0.0
 10
298.294901
 20
2066.514510
 30
0.0
 10
298.294901
 20
2061.460086
 30
0.0
 10
298.294901
 20
2056.405653
 30
0.0
 10
298.294901
 20
2051.351229
 30
0.0
 10
298.294901
 20
2046.296796
 30
0.0
 10
298.294901
 20
2041.242372
 30
0.0
 10
298.294901
 20
2036.187939
 30
0.0
 10
298.294901
 20
2031.133515
 30
0.0
 10
298.294901
 20
2026.079081
 30
0.0
 10
298.294901
 20
2021.024658
 30
0.0
 10
298.294901
 20
2015.970224
 30
0.0
 10
298.294901
 20
2010.915800
 30
0.0
 10
298.294901
 20
2005.861367
 30
0.0
 10
298.294901
 20
2000.806943
 30
0.0
 10
298.294901
 20
1995.752510
 30
0.0
 10
298.294901
 20
1990.698086
 30
0.0
 10
298.294901
 20
1985.643653
 30
0.0
 10
298.294901
 20
1980.589229
 30
0.0
 10
298.294901
 20
1975.534796
 30
0.0
 10
298.294901
 20
1970.480372
 30
0.0
 10
298.294901
 20
1965.425939
 30
0.0
 10
298.294901
 20
1960.371515
 30
0.0
 10
298.294901
 20
1955.317081
 30
0.0
 10
298.294901
 20
1950.262658
 30
0.0
 10
298.294901
 20
1945.208224
 30
0.0
 10
298.294901
 20
1940.153800
 30
0.0
 10
298.294901
 20
1935.099367
 30
0.0
 10
298.294901
 20
1930.044943
 30
0.0
 10
298.294901
 20
1924.990510
 30
0.0
 10
298.294901
 20
1919.936086
 30
0.0
 10
298.294901
 20
1914.881653
 30
0.0
 10
298.303205
 20
1913.642820
 30
0.0
 10
298.327563
 20
1912.417486
 30
0.0
 10
298.368345
 20
1911.205641
 30
0.0
 10
298.425550
 20
1910.007249
 30
0.0
 10
298.499178
 20
1908.822308
 30
0.0
 10
298.589413
 20
1907.650802
 30
0.0
 10
298.696266
 20
1906.492711
 30
0.0
 10
298.819810
 20
1905.348017
 30
0.0
 10
298.960109
 20
1904.216701
 30
0.0
 10
299.117238
 20
1903.098746
 30
0.0
 10
299.291260
 20
1901.994141
 30
0.0
 10
299.482250
 20
1900.902860
 30
0.0
 10
299.690263
 20
1899.824902
 30
0.0
 10
299.915373
 20
1898.760230
 30
0.0
 10
300.157653
 20
1897.708844
 30
0.0
 10
300.417159
 20
1896.670717
 30
0.0
 10
300.693966
 20
1895.645839
 30
0.0
 10
300.988145
 20
1894.634183
 30
0.0
 10
301.299754
 20
1893.635739
 30
0.0
 10
301.628866
 20
1892.650490
 30
0.0
 10
301.975554
 20
1891.678425
 30
0.0
 10
302.339874
 20
1890.719517
 30
0.0
 10
302.721900
 20
1889.773748
 30
0.0
 10
303.121697
 20
1888.841108
 30
0.0
 10
303.539337
 20
1887.921579
 30
0.0
 10
303.974887
 20
1887.015143
 30
0.0
 10
304.428409
 20
1886.121789
 30
0.0
 10
304.899970
 20
1885.241492
 30
0.0
 10
305.389651
 20
1884.374232
 30
0.0
 10
305.897509
 20
1883.519999
 30
0.0
 10
306.423608
 20
1882.678776
 30
0.0
 10
306.968022
 20
1881.850544
 30
0.0
 10
307.539441
 20
1881.050684
 30
0.0
 10
308.129185
 20
1880.277248
 30
0.0
 10
308.737161
 20
1879.530173
 30
0.0
 10
309.363321
 20
1878.809385
 30
0.0
 10
310.007594
 20
1878.114809
 30
0.0
 10
310.669914
 20
1877.446390
 30
0.0
 10
311.350198
 20
1876.804055
 30
0.0
 10
312.048400
 20
1876.187739
 30
0.0
 10
312.764437
 20
1875.597368
 30
0.0
 10
313.498253
 20
1875.032886
 30
0.0
 10
314.249767
 20
1874.494212
 30
0.0
 10
315.018921
 20
1873.981288
 30
0.0
 10
315.805643
 20
1873.494052
 30
0.0
 10
316.609876
 20
1873.032419
 30
0.0
 10
317.431539
 20
1872.596325
 30
0.0
 10
318.270566
 20
1872.185716
 30
0.0
 10
319.126893
 20
1871.800516
 30
0.0
 10
320.000455
 20
1871.440652
 30
0.0
 10
320.891188
 20
1871.106069
 30
0.0
 10
321.799008
 20
1870.796684
 30
0.0
 10
322.723861
 20
1870.512441
 30
0.0
 10
323.665672
 20
1870.253276
 30
0.0
 10
324.624386
 20
1870.019105
 30
0.0
 10
325.599920
 20
1869.809875
 30
0.0
 10
326.592219
 20
1869.625509
 30
0.0
 10
327.601199
 20
1869.465954
 30
0.0
 10
328.626815
 20
1869.331127
 30
0.0
 10
329.668983
 20
1869.220961
 30
0.0
 10
330.727640
 20
1869.135431
 30
0.0
 10
331.802710
 20
1869.074443
 30
0.0
 10
332.894148
 20
1869.037906
 30
0.0
 10
334.001715
 20
1869.025616
 30
0.0
 10
334.898897
 20
1869.035028
 30
0.0
 10
335.791346
 20
1869.063353
 30
0.0
 10
336.679200
 20
1869.110593
 30
0.0
 10
337.562597
 20
1869.176748
 30
0.0
 10
338.441658
 20
1869.261724
 30
0.0
 10
339.316540
 20
1869.365532
 30
0.0
 10
340.187362
 20
1869.488163
 30
0.0
 10
341.054271
 20
1869.629606
 30
0.0
 10
341.917389
 20
1869.789825
 30
0.0
 10
342.776862
 20
1869.968821
 30
0.0
 10
343.632820
 20
1870.166564
 30
0.0
 10
344.485401
 20
1870.383047
 30
0.0
 10
345.334734
 20
1870.618251
 30
0.0
 10
346.180967
 20
1870.872148
 30
0.0
 10
347.024220
 20
1871.144737
 30
0.0
 10
347.864631
 20
1871.435992
 30
0.0
 10
348.702339
 20
1871.745904
 30
0.0
 10
349.537491
 20
1872.074443
 30
0.0
 10
350.370197
 20
1872.421602
 30
0.0
 10
351.200607
 20
1872.787361
 30
0.0
 10
352.028867
 20
1873.171703
 30
0.0
 10
352.855087
 20
1873.574618
 30
0.0
 10
353.679416
 20
1873.996079
 30
0.0
 10
354.501992
 20
1874.436066
 30
0.0
 10
355.322945
 20
1874.894580
 30
0.0
 10
356.142411
 20
1875.371584
 30
0.0
 10
356.960522
 20
1875.867079
 30
0.0
 10
357.777424
 20
1876.381035
 30
0.0
 10
358.593237
 20
1876.913445
 30
0.0
 10
359.408109
 20
1877.464280
 30
0.0
 10
360.222169
 20
1878.033532
 30
0.0
 10
361.035555
 20
1878.621246
 30
0.0
 10
361.844872
 20
1879.230513
 30
0.0
 10
362.646670
 20
1879.847281
 30
0.0
 10
363.440995
 20
1880.471477
 30
0.0
 10
364.227910
 20
1881.103045
 30
0.0
 10
365.007463
 20
1881.741911
 30
0.0
 10
365.779689
 20
1882.388010
 30
0.0
 10
366.544655
 20
1883.041269
 30
0.0
 10
367.302414
 20
1883.701624
 30
0.0
 10
368.053005
 20
1884.369009
 30
0.0
 10
368.796482
 20
1885.043351
 30
0.0
 10
369.532900
 20
1885.724586
 30
0.0
 10
370.262306
 20
1886.412648
 30
0.0
 10
370.984746
 20
1887.107473
 30
0.0
 10
371.700285
 20
1887.808978
 30
0.0
 10
372.408959
 20
1888.517108
 30
0.0
 10
373.110824
 20
1889.231798
 30
0.0
 10
373.805935
 20
1889.952974
 30
0.0
 10
374.494339
 20
1890.680562
 30
0.0
 10
375.176080
 20
1891.414517
 30
0.0
 10
375.851225
 20
1892.154746
 30
0.0
 10
376.519810
 20
1892.901194
 30
0.0
 10
377.181890
 20
1893.653796
 30
0.0
 10
377.837520
 20
1894.412469
 30
0.0
 10
378.486739
 20
1895.177166
 30
0.0
 10
379.129609
 20
1895.947806
 30
0.0
 10
379.766187
 20
1896.724332
 30
0.0
 10
380.396499
 20
1897.506662
 30
0.0
 10
381.020621
 20
1898.294740
 30
0.0
 10
381.638589
 20
1899.088493
 30
0.0
 10
382.250467
 20
1899.887855
 30
0.0
 10
382.856284
 20
1900.692753
 30
0.0
 10
383.456112
 20
1901.503131
 30
0.0
 10
383.542565
 20
1901.674764
 30
0.0
 10
383.629018
 20
1901.843610
 30
0.0
 10
383.715471
 20
1902.009577
 30
0.0
 10
383.801924
 20
1902.172602
 30
0.0
 10
383.888377
 20
1902.332572
 30
0.0
 10
383.974830
 20
1902.489424
 30
0.0
 10
384.061283
 20
1902.643064
 30
0.0
 10
384.147735
 20
1902.793411
 30
0.0
 10
384.234188
 20
1902.940372
 30
0.0
 10
384.320641
 20
1903.083882
 30
0.0
 10
384.407094
 20
1903.223831
 30
0.0
 10
384.493547
 20
1903.360162
 30
0.0
 10
384.580000
 20
1903.492767
 30
0.0
 10
384.666453
 20
1903.621569
 30
0.0
 10
384.752906
 20
1903.746488
 30
0.0
 10
384.839359
 20
1903.867439
 30
0.0
 10
384.925812
 20
1903.984330
 30
0.0
 10
385.012265
 20
1904.097088
 30
0.0
 10
385.098718
 20
1904.205620
 30
0.0
 10
385.185171
 20
1904.309844
 30
0.0
 10
385.271624
 20
1904.409675
 30
0.0
 10
385.358077
 20
1904.505032
 30
0.0
 10
385.444529
 20
1904.595821
 30
0.0
 10
385.530982
 20
1904.681997
 30
0.0
 10
385.617435
 20
1904.763375
 30
0.0
 10
385.703888
 20
1904.839956
 30
0.0
 10
385.790341
 20
1904.911646
 30
0.0
 10
385.876794
 20
1904.978354
 30
0.0
 10
385.963247
 20
1905.039988
 30
0.0
 10
386.049700
 20
1905.096455
 30
0.0
 10
386.136153
 20
1905.147754
 30
0.0
 10
386.222606
 20
1905.193703
 30
0.0
 10
386.351030
 20
1905.278864
 30
0.0
 10
386.476918
 20
1905.361257
 30
0.0
 10
386.600452
 20
1905.440975
 30
0.0
 10
386.721782
 20
1905.518016
 30
0.0
 10
386.841081
 20
1905.592382
 30
0.0
 10
386.958526
 20
1905.663981
 30
0.0
 10
387.074283
 20
1905.732903
 30
0.0
 10
387.188517
 20
1905.799150
 30
0.0
 10
387.301394
 20
1905.862629
 30
0.0
 10
387.413091
 20
1905.923432
 30
0.0
 10
387.523782
 20
1905.981559
 30
0.0
 10
387.633625
 20
1906.037011
 30
0.0
 10
387.742784
 20
1906.089694
 30
0.0
 10
387.851445
 20
1906.139702
 30
0.0
 10
387.959765
 20
1906.187035
 30
0.0
 10
388.067919
 20
1906.231599
 30
0.0
 10
388.176073
 20
1906.273488
 30
0.0
 10
388.284393
 20
1906.312701
 30
0.0
 10
388.393054
 20
1906.349238
 30
0.0
 10
388.502214
 20
1906.383007
 30
0.0
 10
388.612056
 20
1906.414101
 30
0.0
 10
388.722747
 20
1906.442518
 30
0.0
 10
388.834444
 20
1906.468168
 30
0.0
 10
388.947331
 20
1906.491142
 30
0.0
 10
389.061556
 20
1906.511441
 30
0.0
 10
389.177312
 20
1906.528971
 30
0.0
 10
389.294757
 20
1906.543826
 30
0.0
 10
389.414057
 20
1906.556005
 30
0.0
 10
389.535386
 20
1906.565508
 30
0.0
 10
389.658921
 20
1906.571967
 30
0.0
 10
389.784808
 20
1906.575658
 30
0.0
 10
389.913232
 20
1906.576580
 30
0.0
 10
390.129503
 20
1906.573812
 30
0.0
 10
390.345931
 20
1906.565508
 30
0.0
 10
390.562663
 20
1906.551761
 30
0.0
 10
390.779847
 20
1906.532293
 30
0.0
 10
390.997640
 20
1906.507104
 30
0.0
 10
391.216190
 20
1906.476103
 30
0.0
 10
391.435662
 20
1906.439197
 30
0.0
 10
391.656186
 20
1906.396293
 30
0.0
 10
391.877938
 20
1906.347300
 30
0.0
 10
392.101054
 20
1906.292125
 30
0.0
 10
392.325684
 20
1906.230676
 30
0.0
 10
392.551994
 20
1906.162953
 30
0.0
 10
392.780130
 20
1906.088772
 30
0.0
 10
393.010240
 20
1906.008132
 30
0.0
 10
393.242473
 20
1905.920848
 30
0.0
 10
393.476994
 20
1905.826903
 30
0.0
 10
393.713941
 20
1905.726195
 30
0.0
 10
393.953481
 20
1905.618651
 30
0.0
 10
394.195753
 20
1905.504177
 30
0.0
 10
394.440921
 20
1905.382690
 30
0.0
 10
394.689125
 20
1905.254118
 30
0.0
 10
394.940521
 20
1905.118358
 30
0.0
 10
395.195257
 20
1904.975328
 30
0.0
 10
395.453500
 20
1904.824954
 30
0.0
 10
395.715387
 20
1904.667152
 30
0.0
 10
395.981075
 20
1904.501821
 30
0.0
 10
396.250712
 20
1904.328896
 30
0.0
 10
396.524464
 20
1904.148277
 30
0.0
 10
396.802470
 20
1903.959898
 30
0.0
 10
397.084886
 20
1903.763649
 30
0.0
 10
397.371860
 20
1903.559475
 30
0.0
 10
397.663549
 20
1903.347264
 30
0.0
 10
397.918995
 20
1903.043433
 30
0.0
 10
398.166323
 20
1902.737397
 30
0.0
 10
398.405549
 20
1902.429137
 30
0.0
 10
398.636665
 20
1902.118617
 30
0.0
 10
398.859671
 20
1901.805800
 30
0.0
 10
399.074567
 20
1901.490638
 30
0.0
 10
399.281353
 20
1901.173125
 30
0.0
 10
399.480029
 20
1900.853212
 30
0.0
 10
399.670594
 20
1900.530854
 30
0.0
 10
399.853059
 20
1900.206042
 30
0.0
 10
400.027404
 20
1899.878720
 30
0.0
 10
400.193648
 20
1899.548871
 30
0.0
 10
400.351773
 20
1899.216456
 30
0.0
 10
400.501797
 20
1898.881430
 30
0.0
 10
400.643711
 20
1898.543775
 30
0.0
 10
400.777515
 20
1898.203453
 30
0.0
 10
400.903208
 20
1897.860427
 30
0.0
 10
401.020792
 20
1897.514662
 30
0.0
 10
401.130265
 20
1897.166119
 30
0.0
 10
401.231637
 20
1896.814781
 30
0.0
 10
401.324890
 20
1896.460600
 30
0.0
 10
401.410051
 20
1896.103551
 30
0.0
 10
401.487093
 20
1895.743595
 30
0.0
 10
401.556016
 20
1895.380704
 30
0.0
 10
401.616819
 20
1895.014834
 30
0.0
 10
401.669502
 20
1894.645956
 30
0.0
 10
401.714067
 20
1894.274033
 30
0.0
 10
401.750604
 20
1893.899047
 30
0.0
 10
401.779022
 20
1893.520942
 30
0.0
 10
401.799320
 20
1893.139701
 30
0.0
 10
401.811499
 20
1892.755276
 30
0.0
 10
401.815190
 20
1892.367649
 30
0.0
 10
401.812422
 20
1892.191948
 30
0.0
 10
401.805041
 20
1892.010867
 30
0.0
 10
401.792308
 20
1891.824407
 30
0.0
 10
401.774962
 20
1891.632587
 30
0.0
 10
401.753187
 20
1891.435434
 30
0.0
 10
401.727261
 20
1891.232957
 30
0.0
 10
401.697459
 20
1891.025175
 30
0.0
 10
401.664059
 20
1890.812105
 30
0.0
 10
401.627245
 20
1890.593768
 30
0.0
 10
401.587294
 20
1890.370171
 30
0.0
 10
401.544482
 20
1890.141343
 30
0.0
 10
401.499088
 20
1889.907293
 30
0.0
 10
401.451294
 20
1889.668039
 30
0.0
 10
401.401378
 20
1889.423599
 30
0.0
 10
401.349617
 20
1889.173984
 30
0.0
 10
401.296288
 20
1888.919220
 30
0.0
 10
401.241574
 20
1888.659317
 30
0.0
 10
401.185753
 20
1888.394302
 30
0.0
 10
401.129102
 20
1888.124176
 30
0.0
 10
401.071898
 20
1887.848975
 30
0.0
 10
401.014324
 20
1887.568700
 30
0.0
 10
400.956658
 20
1887.283377
 30
0.0
 10
400.899176
 20
1886.993017
 30
0.0
 10
400.842156
 20
1886.697638
 30
0.0
 10
400.785782
 20
1886.397258
 30
0.0
 10
400.730330
 20
1886.091895
 30
0.0
 10
400.676078
 20
1885.781569
 30
0.0
 10
400.623210
 20
1885.466288
 30
0.0
 10
400.572095
 20
1885.146071
 30
0.0
 10
400.522917
 20
1884.820945
 30
0.0
 10
400.475861
 20
1884.490920
 30
0.0
 10
400.432995
 20
1884.157186
 30
0.0
 10
399.819659
 20
1882.749415
 30
0.0
 10
399.190628
 20
1881.363271
 30
0.0
 10
398.545885
 20
1879.998745
 30
0.0
 10
397.885420
 20
1878.655845
 30
0.0
 10
397.209205
 20
1877.334573
 30
0.0
 10
396.517221
 20
1876.034928
 30
0.0
 10
395.809461
 20
1874.756901
 30
0.0
 10
395.085913
 20
1873.500501
 30
0.0
 10
394.346542
 20
1872.265728
 30
0.0
 10
393.591348
 20
1871.052582
 30
0.0
 10
392.820302
 20
1869.861054
 30
0.0
 10
392.033396
 20
1868.691153
 30
0.0
 10
391.230611
 20
1867.542879
 30
0.0
 10
390.411919
 20
1866.416233
 30
0.0
 10
389.577321
 20
1865.311204
 30
0.0
 10
388.726788
 20
1864.227802
 30
0.0
 10
387.860312
 20
1863.166027
 30
0.0
 10
386.977865
 20
1862.125879
 30
0.0
 10
386.079437
 20
1861.107349
 30
0.0
 10
385.165011
 20
1860.110446
 30
0.0
 10
384.234567
 20
1859.135171
 30
0.0
 10
383.288096
 20
1858.181522
 30
0.0
 10
382.325572
 20
1857.249491
 30
0.0
 10
381.346974
 20
1856.339087
 30
0.0
 10
380.352304
 20
1855.450311
 30
0.0
 10
379.341525
 20
1854.583161
 30
0.0
 10
378.314635
 20
1853.737629
 30
0.0
 10
377.271609
 20
1852.913724
 30
0.0
 10
376.212436
 20
1852.111447
 30
0.0
 10
375.137089
 20
1851.330796
 30
0.0
 10
374.045558
 20
1850.571763
 30
0.0
 10
372.937826
 20
1849.834358
 30
0.0
 10
371.819271
 20
1849.118321
 30
0.0
 10
370.695226
 20
1848.423477
 30
0.0
 10
369.565608
 20
1847.749919
 30
0.0
 10
368.430325
 20
1847.097740
 30
0.0
 10
367.289303
 20
1846.467058
 30
0.0
 10
366.142450
 20
1845.857966
 30
0.0
 10
364.989683
 20
1845.270566
 30
0.0
 10
363.830919
 20
1844.704968
 30
0.0
 10
362.666074
 20
1844.161256
 30
0.0
 10
361.495056
 20
1843.639539
 30
0.0
 10
360.317793
 20
1843.139921
 30
0.0
 10
359.134199
 20
1842.662501
 30
0.0
 10
357.944175
 20
1842.207392
 30
0.0
 10
356.747656
 20
1841.774675
 30
0.0
 10
355.544548
 20
1841.364462
 30
0.0
 10
354.334761
 20
1840.976854
 30
0.0
 10
353.118220
 20
1840.611952
 30
0.0
 10
351.894832
 20
1840.269859
 30
0.0
 10
350.664525
 20
1839.950675
 30
0.0
 10
349.427196
 20
1839.654502
 30
0.0
 10
348.182781
 20
1839.381433
 30
0.0
 10
346.931188
 20
1839.131586
 30
0.0
 10
345.672325
 20
1838.905047
 30
0.0
 10
344.406108
 20
1838.701933
 30
0.0
 10
343.132463
 20
1838.522329
 30
0.0
 10
341.851299
 20
1838.366335
 30
0.0
 10
340.562532
 20
1838.234072
 30
0.0
 10
339.266080
 20
1838.125632
 30
0.0
 10
337.961858
 20
1838.041117
 30
0.0
 10
336.649776
 20
1837.980591
 30
0.0
 10
335.329759
 20
1837.944238
 30
0.0
 10
334.001715
 20
1837.932087
 30
0.0
 10
330.730666
 20
1837.952108
 30
0.0
 10
327.525883
 20
1838.012173
 30
0.0
 10
324.387171
 20
1838.112245
 30
0.0
 10
321.314281
 20
1838.252368
 30
0.0
 10
318.307020
 20
1838.432563
 30
0.0
 10
315.365157
 20
1838.652857
 30
0.0
 10
312.488461
 20
1838.913249
 30
0.0
 10
309.676739
 20
1839.213767
 30
0.0
 10
306.929750
 20
1839.554431
 30
0.0
 10
304.247273
 20
1839.935248
 30
0.0
 10
301.629106
 20
1840.356238
 30
0.0
 10
299.075017
 20
1840.817428
 30
0.0
 10
296.584785
 20
1841.318818
 30
0.0
 10
294.158198
 20
1841.860436
 30
0.0
 10
291.795025
 20
1842.442300
 30
0.0
 10
289.495063
 20
1843.064420
 30
0.0
 10
287.258082
 20
1843.726813
 30
0.0
 10
285.083860
 20
1844.429509
 30
0.0
 10
282.972185
 20
1845.172506
 30
0.0
 10
280.922826
 20
1845.955832
 30
0.0
 10
278.935572
 20
1846.779497
 30
0.0
 10
277.010209
 20
1847.643528
 30
0.0
 10
275.146507
 20
1848.547944
 30
0.0
 10
273.344244
 20
1849.492744
 30
0.0
 10
271.603210
 20
1850.477957
 30
0.0
 10
269.923190
 20
1851.503600
 30
0.0
 10
268.303946
 20
1852.569684
 30
0.0
 10
266.745266
 20
1853.676235
 30
0.0
 10
265.246945
 20
1854.823264
 30
0.0
 10
263.808735
 20
1856.010788
 30
0.0
 10
262.430443
 20
1857.238816
 30
0.0
 10
261.111838
 20
1858.507330
 30
0.0
 10
259.885184
 20
1859.811017
 30
0.0
 10
258.696442
 20
1861.144339
 30
0.0
 10
257.545677
 20
1862.507185
 30
0.0
 10
256.432963
 20
1863.899465
 30
0.0
 10
255.358354
 20
1865.321076
 30
0.0
 10
254.321933
 20
1866.771908
 30
0.0
 10
253.323757
 20
1868.251877
 30
0.0
 10
252.363899
 20
1869.760863
 30
0.0
 10
251.442423
 20
1871.298766
 30
0.0
 10
250.559404
 20
1872.865501
 30
0.0
 10
249.714896
 20
1874.460950
 30
0.0
 10
248.908983
 20
1876.085019
 30
0.0
 10
248.141721
 20
1877.737608
 30
0.0
 10
247.413182
 20
1879.418615
 30
0.0
 10
246.723431
 20
1881.127938
 30
0.0
 10
246.072534
 20
1882.865466
 30
0.0
 10
245.460563
 20
1884.631108
 30
0.0
 10
244.887584
 20
1886.424771
 30
0.0
 10
244.353671
 20
1888.246336
 30
0.0
 10
243.858878
 20
1890.095709
 30
0.0
 10
243.403279
 20
1891.972789
 30
0.0
 10
242.986949
 20
1893.877475
 30
0.0
 10
242.609951
 20
1895.809666
 30
0.0
 10
242.272342
 20
1897.769260
 30
0.0
 10
241.974204
 20
1899.756145
 30
0.0
 10
241.715592
 20
1901.770240
 30
0.0
 10
241.496590
 20
1903.811434
 30
0.0
 10
241.317244
 20
1905.879624
 30
0.0
 10
241.177646
 20
1907.974710
 30
0.0
 10
241.077843
 20
1910.096589
 30
0.0
 10
241.017870
 20
1912.245162
 30
0.0
 10
240.997922
 20
1914.420325
 30
0.0
 10
240.997922
 20
1919.489170
 30
0.0
 10
240.997922
 20
1924.558015
 30
0.0
 10
240.997922
 20
1929.626860
 30
0.0
 10
240.997922
 20
1934.695705
 30
0.0
 10
240.997922
 20
1939.764550
 30
0.0
 10
240.997922
 20
1944.833395
 30
0.0
 10
240.997922
 20
1949.902240
 30
0.0
 10
240.997922
 20
1954.971085
 30
0.0
 10
240.997922
 20
1960.039930
 30
0.0
 10
240.997922
 20
1965.108775
 30
0.0
 10
240.997922
 20
1970.177620
 30
0.0
 10
240.997922
 20
1975.246466
 30
0.0
 10
240.997922
 20
1980.315311
 30
0.0
 10
240.997922
 20
1985.384156
 30
0.0
 10
240.997922
 20
1990.453001
 30
0.0
 10
240.997922
 20
1995.521846
 30
0.0
 10
240.997922
 20
2000.590691
 30
0.0
 10
240.997922
 20
2005.659536
 30
0.0
 10
240.997922
 20
2010.728381
 30
0.0
 10
240.997922
 20
2015.797226
 30
0.0
 10
240.997922
 20
2020.866071
 30
0.0
 10
240.997922
 20
2025.934916
 30
0.0
 10
240.997922
 20
2031.003761
 30
0.0
 10
240.997922
 20
2036.072607
 30
0.0
 10
240.997922
 20
2041.141452
 30
0.0
 10
240.997922
 20
2046.210297
 30
0.0
 10
240.997922
 20
2051.279142
 30
0.0
 10
240.997922
 20
2056.347987
 30
0.0
 10
240.997922
 20
2061.416832
 30
0.0
 10
240.997922
 20
2066.485677
 30
0.0
 10
240.997922
 20
2071.554522
 30
0.0
 10
240.997922
 20
2076.623367
 30
0.0
 10
238.420250
 20
2076.623367
 30
0.0
 10
235.842578
 20
2076.623367
 30
0.0
 10
233.264906
 20
2076.623367
 30
0.0
 10
230.687234
 20
2076.623367
 30
0.0
 10
228.109562
 20
2076.623367
 30
0.0
 10
225.531890
 20
2076.623367
 30
0.0
 10
222.954218
 20
2076.623367
 30
0.0
 10
220.376546
 20
2076.623367
 30
0.0
 10
217.798874
 20
2076.623367
 30
0.0
 10
215.221201
 20
2076.623367
 30
0.0
 10
212.643529
 20
2076.623367
 30
0.0
 10
210.065857
 20
2076.623367
 30
0.0
 10
207.488185
 20
2076.623367
 30
0.0
 10
204.910513
 20
2076.623367
 30
0.0
 10
202.332841
 20
2076.623367
 30
0.0
 10
199.755169
 20
2076.623367
 30
0.0
 10
197.177497
 20
2076.623367
 30
0.0
 10
194.599825
 20
2076.623367
 30
0.0
 10
192.022153
 20
2076.623367
 30
0.0
 10
189.444481
 20
2076.623367
 30
0.0
 10
186.866809
 20
2076.623367
 30
0.0
 10
184.289137
 20
2076.623367
 30
0.0
 10
181.711465
 20
2076.623367
 30
0.0
 10
179.133792
 20
2076.623367
 30
0.0
 10
176.556120
 20
2076.623367
 30
0.0
 10
173.978448
 20
2076.623367
 30
0.0
 10
171.400776
 20
2076.623367
 30
0.0
 10
168.823104
 20
2076.623367
 30
0.0
 10
166.245432
 20
2076.623367
 30
0.0
 10
163.667760
 20
2076.623367
 30
0.0
 10
161.090088
 20
2076.623367
 30
0.0
 10
158.512416
 20
2076.623367
 30
0.0
 10
158.512416
 20
2077.569090
 30
0.0
 10
158.512416
 20
2078.514813
 30
0.0
 10
158.512416
 20
2079.460536
 30
0.0
 10
158.512416
 20
2080.406260
 30
0.0
 10
158.512416
 20
2081.351983
 30
0.0
 10
158.512416
 20
2082.297706
 30
0.0
 10
158.512416
 20
2083.243429
 30
0.0
 10
158.512416
 20
2084.189152
 30
0.0
 10
158.512416
 20
2085.134875
 30
0.0
 10
158.512416
 20
2086.080598
 30
0.0
 10
158.512416
 20
2087.026321
 30
0.0
 10
158.512416
 20
2087.972044
 30
0.0
 10
158.512416
 20
2088.917767
 30
0.0
 10
158.512416
 20
2089.863490
 30
0.0
 10
158.512416
 20
2090.809213
 30
0.0
 10
158.512416
 20
2091.754937
 30
0.0
 10
158.512416
 20
2092.700660
 30
0.0
 10
158.512416
 20
2093.646383
 30
0.0
 10
158.512416
 20
2094.592106
 30
0.0
 10
158.512416
 20
2095.537829
 30
0.0
 10
158.512416
 20
2096.483552
 30
0.0
 10
158.512416
 20
2097.429275
 30
0.0
 10
158.512416
 20
2098.374998
 30
0.0
 10
158.512416
 20
2099.320721
 30
0.0
 10
158.512416
 20
2100.266444
 30
0.0
 10
158.512416
 20
2101.212167
 30
0.0
 10
158.512416
 20
2102.157891
 30
0.0
 10
158.512416
 20
2103.103614
 30
0.0
 10
158.512416
 20
2104.049337
 30
0.0
 10
158.512416
 20
2104.995060
 30
0.0
 10
158.512416
 20
2105.940783
 30
0.0
 10
158.512416
 20
2106.886506
 30
0.0
 10
161.104500
 20
2106.886506
 30
0.0
 10
163.696593
 20
2106.886506
 30
0.0
 10
166.288686
 20
2106.886506
 30
0.0
 10
168.880770
 20
2106.886506
 30
0.0
 10
171.472854
 20
2106.886506
 30
0.0
 10
174.064947
 20
2106.886506
 30
0.0
 10
176.657031
 20
2106.886506
 30
0.0
 10
179.249125
 20
2106.886506
 30
0.0
 10
181.841218
 20
2106.886506
 30
0.0
 10
184.433302
 20
2106.886506
 30
0.0
 10
187.025395
 20
2106.886506
 30
0.0
 10
189.617479
 20
2106.886506
 30
0.0
 10
192.209563
 20
2106.886506
 30
0.0
 10
194.801656
 20
2106.886506
 30
0.0
 10
197.393740
 20
2106.886506
 30
0.0
 10
199.985833
 20
2106.886506
 30
0.0
 10
202.577926
 20
2106.886506
 30
0.0
 10
205.170010
 20
2106.886506
 30
0.0
 10
207.762104
 20
2106.886506
 30
0.0
 10
210.354188
 20
2106.886506
 30
0.0
 10
212.946272
 20
2106.886506
 30
0.0
 10
215.538365
 20
2106.886506
 30
0.0
 10
218.130458
 20
2106.886506
 30
0.0
 10
220.722542
 20
2106.886506
 30
0.0
 10
223.314635
 20
2106.886506
 30
0.0
 10
225.906719
 20
2106.886506
 30
0.0
 10
228.498803
 20
2106.886506
 30
0.0
 10
231.090896
 20
2106.886506
 30
0.0
 10
233.682989
 20
2106.886506
 30
0.0
 10
236.275073
 20
2106.886506
 30
0.0
 10
238.867167
 20
2106.886506
 30
0.0
 10
241.459251
 20
2106.886506
 30
0.0
 10
241.459251
 20
2109.034571
 30
0.0
 10
241.459251
 20
2111.182626
 30
0.0
 10
241.459251
 20
2113.330691
 30
0.0
 10
241.459251
 20
2115.478746
 30
0.0
 10
241.459251
 20
2117.626811
 30
0.0
 10
241.459251
 20
2119.774866
 30
0.0
 10
241.459251
 20
2121.922931
 30
0.0
 10
241.459251
 20
2124.070986
 30
0.0
 10
241.459251
 20
2126.219051
 30
0.0
 10
241.459251
 20
2128.367107
 30
0.0
 10
241.459251
 20
2130.515171
 30
0.0
 10
241.459251
 20
2132.663227
 30
0.0
 10
241.459251
 20
2134.811291
 30
0.0
 10
241.459251
 20
2136.959347
 30
0.0
 10
241.459251
 20
2139.107411
 30
0.0
 10
241.459251
 20
2141.255467
 30
0.0
 10
241.459251
 20
2143.403532
 30
0.0
 10
241.459251
 20
2145.551587
 30
0.0
 10
241.459251
 20
2147.699652
 30
0.0
 10
241.459251
 20
2149.847707
 30
0.0
 10
241.459251
 20
2151.995772
 30
0.0
 10
241.459251
 20
2154.143827
 30
0.0
 10
241.459251
 20
2156.291892
 30
0.0
 10
241.459251
 20
2158.439947
 30
0.0
 10
241.459251
 20
2160.588012
 30
0.0
 10
241.459251
 20
2162.736068
 30
0.0
 10
241.459251
 20
2164.884132
 30
0.0
 10
241.459251
 20
2167.032188
 30
0.0
 10
241.459251
 20
2169.180252
 30
0.0
 10
241.459251
 20
2171.328308
 30
0.0
 10
241.459251
 20
2173.476372
 30
0.0
 10
241.459251
 20
2175.624428
 30
0.0
 10
240.871057
 20
2176.212622
 30
0.0
 10
240.282863
 20
2176.800815
 30
0.0
 10
239.694670
 20
2177.389009
 30
0.0
 10
239.106476
 20
2177.977202
 30
0.0
 10
238.518282
 20
2178.565396
 30
0.0
 10
237.930089
 20
2179.153590
 30
0.0
 10
237.341895
 20
2179.741783
 30
0.0
 10
236.753702
 20
2180.329977
 30
0.0
 10
236.165508
 20
2180.918171
 30
0.0
 10
235.577314
 20
2181.506364
 30
0.0
 10
234.989121
 20
2182.094558
 30
0.0
 10
234.400927
 20
2182.682751
 30
0.0
 10
233.812733
 20
2183.270945
 30
0.0
 10
233.224540
 20
2183.859139
 30
0.0
 10
232.636346
 20
2184.447332
 30
0.0
 10
232.048153
 20
2185.035526
 30
0.0
 10
231.459959
 20
2185.623720
 30
0.0
 10
230.871765
 20
2186.211913
 30
0.0
 10
230.283572
 20
2186.800107
 30
0.0
 10
229.695378
 20
2187.388300
 30
0.0
 10
229.107184
 20
2187.976494
 30
0.0
 10
228.518991
 20
2188.564688
 30
0.0
 10
227.930797
 20
2189.152881
 30
0.0
 10
227.342603
 20
2189.741075
 30
0.0
 10
226.754410
 20
2190.329269
 30
0.0
 10
226.166216
 20
2190.917462
 30
0.0
 10
225.578023
 20
2191.505656
 30
0.0
 10
224.989829
 20
2192.093849
 30
0.0
 10
224.401635
 20
2192.682043
 30
0.0
 10
223.813442
 20
2193.270237
 30
0.0
 10
223.225248
 20
2193.858430
 30
0.0
 10
222.637054
 20
2194.446624
 30
0.0
 10
222.637054
 20
2194.933907
 30
0.0
 10
222.637054
 20
2195.421180
 30
0.0
 10
222.637054
 20
2195.908453
 30
0.0
 10
222.637054
 20
2196.395736
 30
0.0
 10
222.637054
 20
2196.883010
 30
0.0
 10
222.637054
 20
2197.370292
 30
0.0
 10
222.637054
 20
2197.857575
 30
0.0
 10
222.637054
 20
2198.344848
 30
0.0
 10
222.637054
 20
2198.832131
 30
0.0
 10
222.637054
 20
2199.319404
 30
0.0
 10
222.637054
 20
2199.806687
 30
0.0
 10
222.637054
 20
2200.293961
 30
0.0
 10
222.637054
 20
2200.781243
 30
0.0
 10
222.637054
 20
2201.268517
 30
0.0
 10
222.637054
 20
2201.755799
 30
0.0
 10
222.637054
 20
2202.243073
 30
0.0
 10
222.637054
 20
2202.730355
 30
0.0
 10
222.637054
 20
2203.217629
 30
0.0
 10
222.637054
 20
2203.704902
 30
0.0
 10
222.637054
 20
2204.192185
 30
0.0
 10
222.637054
 20
2204.679468
 30
0.0
 10
222.637054
 20
2205.166741
 30
0.0
 10
222.637054
 20
2205.654024
 30
0.0
 10
222.637054
 20
2206.141297
 30
0.0
 10
222.637054
 20
2206.628571
 30
0.0
 10
222.637054
 20
2207.115853
 30
0.0
 10
222.637054
 20
2207.603127
 30
0.0
 10
222.637054
 20
2208.090409
 30
0.0
 10
222.637054
 20
2208.577692
 30
0.0
 10
222.637054
 20
2209.064966
 30
0.0
 10
222.637054
 20
2209.552248
 30
0.0
 10
222.637054
 20
2210.039522
 30
0.0
 10
224.355503
 20
2210.039522
 30
0.0
 10
226.073951
 20
2210.039522
 30
0.0
 10
227.792399
 20
2210.039522
 30
0.0
 10
229.510847
 20
2210.039522
 30
0.0
 10
231.229295
 20
2210.039522
 30
0.0
 10
232.947743
 20
2210.039522
 30
0.0
 10
234.666191
 20
2210.039522
 30
0.0
 10
236.384639
 20
2210.039522
 30
0.0
 10
238.103087
 20
2210.039522
 30
0.0
 10
239.821535
 20
2210.039522
 30
0.0
 10
241.539983
 20
2210.039522
 30
0.0
 10
243.258431
 20
2210.039522
 30
0.0
 10
244.976879
 20
2210.039522
 30
0.0
 10
246.695327
 20
2210.039522
 30
0.0
 10
248.413775
 20
2210.039522
 30
0.0
 10
250.132223
 20
2210.039522
 30
0.0
 10
251.850671
 20
2210.039522
 30
0.0
 10
253.569119
 20
2210.039522
 30
0.0
 10
255.287567
 20
2210.039522
 30
0.0
 10
257.006015
 20
2210.039522
 30
0.0
 10
258.724463
 20
2210.039522
 30
0.0
 10
260.442912
 20
2210.039522
 30
0.0
 10
262.161360
 20
2210.039522
 30
0.0
 10
263.879808
 20
2210.039522
 30
0.0
 10
265.598256
 20
2210.039522
 30
0.0
 10
267.316704
 20
2210.039522
 30
0.0
 10
269.035152
 20
2210.039522
 30
0.0
 10
270.753600
 20
2210.039522
 30
0.0
 10
272.472048
 20
2210.039522
 30
0.0
 10
274.190496
 20
2210.039522
 30
0.0
 10
275.908944
 20
2210.039522
 30
0.0
 10
277.627392
 20
2210.039522
 30
0.0
 10
278.270364
 20
2209.710825
 30
0.0
 10
278.913345
 20
2209.382129
 30
0.0
 10
279.556316
 20
2209.053432
 30
0.0
 10
280.199297
 20
2208.724736
 30
0.0
 10
280.842269
 20
2208.396039
 30
0.0
 10
281.485250
 20
2208.067343
 30
0.0
 10
282.128222
 20
2207.738647
 30
0.0
 10
282.771203
 20
2207.409950
 30
0.0
 10
283.414175
 20
2207.081254
 30
0.0
 10
284.057156
 20
2206.752557
 30
0.0
 10
284.700127
 20
2206.423861
 30
0.0
 10
285.343108
 20
2206.095164
 30
0.0
 10
285.986080
 20
2205.766468
 30
0.0
 10
286.629061
 20
2205.437772
 30
0.0
 10
287.272033
 20
2205.109075
 30
0.0
 10
287.915014
 20
2204.780379
 30
0.0
 10
288.557986
 20
2204.451682
 30
0.0
 10
289.200967
 20
2204.122986
 30
0.0
 10
289.843938
 20
2203.794289
 30
0.0
 10
290.486919
 20
2203.465593
 30
0.0
 10
291.129891
 20
2203.136896
 30
0.0
 10
291.772872
 20
2202.808200
 30
0.0
 10
292.415844
 20
2202.479504
 30
0.0
 10
293.058825
 20
2202.150807
 30
0.0
 10
293.701797
 20
2201.822111
 30
0.0
 10
294.344778
 20
2201.493414
 30
0.0
 10
294.987759
 20
2201.164718
 30
0.0
 10
295.630730
 20
2200.836021
 30
0.0
 10
296.273702
 20
2200.507325
 30
0.0
 10
296.916683
 20
2200.178629
 30
0.0
 10
297.559655
 20
2199.849932
 30
0.0
 10
298.202636
 20
2199.521236
 30
0.0
 10
298.202636
 20
2196.640821
 30
0.0
 10
298.202636
 20
2193.760398
 30
0.0
 10
298.202636
 20
2190.879984
 30
0.0
 10
298.202636
 20
2187.999560
 30
0.0
 10
298.202636
 20
2185.119137
 30
0.0
 10
298.202636
 20
2182.238723
 30
0.0
 10
298.202636
 20
2179.358309
 30
0.0
 10
298.202636
 20
2176.477885
 30
0.0
 10
298.202636
 20
2173.597471
 30
0.0
 10
298.202636
 20
2170.717048
 30
0.0
 10
298.202636
 20
2167.836634
 30
0.0
 10
298.202636
 20
2164.956210
 30
0.0
 10
298.202636
 20
2162.075796
 30
0.0
 10
298.202636
 20
2159.195373
 30
0.0
 10
298.202636
 20
2156.314958
 30
0.0
 10
298.202636
 20
2153.434535
 30
0.0
 10
298.202636
 20
2150.554121
 30
0.0
 10
298.202636
 20
2147.673697
 30
0.0
 10
298.202636
 20
2144.793283
 30
0.0
 10
298.202636
 20
2141.912860
 30
0.0
 10
298.202636
 20
2139.032446
 30
0.0
 10
298.202636
 20
2136.152022
 30
0.0
 10
298.202636
 20
2133.271608
 30
0.0
 10
298.202636
 20
2130.391185
 30
0.0
 10
298.202636
 20
2127.510770
 30
0.0
 10
298.202636
 20
2124.630347
 30
0.0
 10
298.202636
 20
2121.749933
 30
0.0
 10
298.202636
 20
2118.869509
 30
0.0
 10
298.202636
 20
2115.989095
 30
0.0
 10
298.202636
 20
2113.108672
 30
0.0
 10
298.202636
 20
2110.228258
 30
0.0
 10
298.202636
 20
2107.347834
 30
0.0
 10
304.889018
 20
2107.362228
 30
0.0
 10
311.575391
 20
2107.376621
 30
0.0
 10
318.261773
 20
2107.391015
 30
0.0
 10
324.948146
 20
2107.405408
 30
0.0
 10
331.634519
 20
2107.419802
 30
0.0
 10
338.320901
 20
2107.434195
 30
0.0
 10
345.007274
 20
2107.448588
 30
0.0
 10
351.693656
 20
2107.462982
 30
0.0
 10
358.380029
 20
2107.477375
 30
0.0
 10
365.066411
 20
2107.491769
 30
0.0
 10
371.752793
 20
2107.506162
 30
0.0
 10
378.439166
 20
2107.520556
 30
0.0
 10
385.125539
 20
2107.534949
 30
0.0
 10
391.811922
 20
2107.549343
 30
0.0
 10
398.498294
 20
2107.563736
 30
0.0
 10
405.184677
 20
2107.578129
 30
0.0
 10
411.871050
 20
2107.592523
 30
0.0
 10
418.557432
 20
2107.606916
 30
0.0
 10
425.243805
 20
2107.621310
 30
0.0
 10
431.930187
 20
2107.635703
 30
0.0
 10
438.616560
 20
2107.650097
 30
0.0
 10
445.302942
 20
2107.664490
 30
0.0
 10
451.989315
 20
2107.678884
 30
0.0
 10
458.675697
 20
2107.693277
 30
0.0
 10
465.362070
 20
2107.707670
 30
0.0
 10
472.048452
 20
2107.722064
 30
0.0
 10
478.734834
 20
2107.736457
 30
0.0
 10
485.421207
 20
2107.750851
 30
0.0
 10
492.107580
 20
2107.765244
 30
0.0
 10
498.793962
 20
2107.779638
 30
0.0
 10
505.480345
 20
2107.794031
 30
0.0
 10
512.166718
 20
2107.808425
 30
0.0
 10
512.824110
 20
2107.151032
 30
0.0
 10
513.481503
 20
2106.493639
 30
0.0
 10
514.138896
 20
2105.836246
 30
0.0
 10
514.796289
 20
2105.178853
 30
0.0
 10
515.453682
 20
2104.521460
 30
0.0
 10
516.111075
 20
2103.864067
 30
0.0
 10
516.768468
 20
2103.206674
 30
0.0
 10
517.425861
 20
2102.549281
 30
0.0
 10
518.083253
 20
2101.891889
 30
0.0
 10
518.740646
 20
2101.234496
 30
0.0
 10
519.398039
 20
2100.577103
 30
0.0
 10
520.055432
 20
2099.919710
 30
0.0
 10
520.712825
 20
2099.262317
 30
0.0
 10
521.370218
 20
2098.604924
 30
0.0
 10
522.027611
 20
2097.947531
 30
0.0
 10
522.685004
 20
2097.290138
 30
0.0
 10
523.342396
 20
2096.632746
 30
0.0
 10
523.999789
 20
2095.975353
 30
0.0
 10
524.657182
 20
2095.317960
 30
0.0
 10
525.314575
 20
2094.660567
 30
0.0
 10
525.971968
 20
2094.003174
 30
0.0
 10
526.629361
 20
2093.345781
 30
0.0
 10
527.286754
 20
2092.688388
 30
0.0
 10
527.944147
 20
2092.030995
 30
0.0
 10
528.601539
 20
2091.373603
 30
0.0
 10
529.258932
 20
2090.716210
 30
0.0
 10
529.916325
 20
2090.058817
 30
0.0
 10
530.573718
 20
2089.401424
 30
0.0
 10
531.231111
 20
2088.744031
 30
0.0
 10
531.888504
 20
2088.086638
 30
0.0
 10
532.545897
 20
2087.429245
 30
0.0
 10
533.203290
 20
2086.771852
 30
0.0
 10
529.111889
 20
2082.660264
 30
0.0
 10
525.020478
 20
2078.548675
 30
0.0
 10
520.929068
 20
2074.437086
 30
0.0
 10
516.837667
 20
2070.325497
 30
0.0
 10
512.746257
 20
2066.213909
 30
0.0
 10
508.654856
 20
2062.102320
 30
0.0
 10
504.563445
 20
2057.990731
 30
0.0
 10
500.472044
 20
2053.879142
 30
0.0
 10
496.380634
 20
2049.767553
 30
0.0
 10
492.289233
 20
2045.655965
 30
0.0
 10
488.197823
 20
2041.544376
 30
0.0
 10
484.106422
 20
2037.432787
 30
0.0
 10
480.015011
 20
2033.321198
 30
0.0
 10
475.923610
 20
2029.209609
 30
0.0
 10
471.832200
 20
2025.098021
 30
0.0
 10
467.740799
 20
2020.986432
 30
0.0
 10
463.649389
 20
2016.874843
 30
0.0
 10
459.557988
 20
2012.763254
 30
0.0
 10
455.466577
 20
2008.651666
 30
0.0
 10
451.375176
 20
2004.540077
 30
0.0
 10
447.283775
 20
2000.428488
 30
0.0
 10
443.192365
 20
1996.316899
 30
0.0
 10
439.100955
 20
1992.205310
 30
0.0
 10
435.009553
 20
1988.093722
 30
0.0
 10
430.918152
 20
1983.982133
 30
0.0
 10
426.826742
 20
1979.870544
 30
0.0
 10
422.735332
 20
1975.758955
 30
0.0
 10
418.643931
 20
1971.647366
 30
0.0
 10
414.552530
 20
1967.535778
 30
0.0
 10
410.461119
 20
1963.424189
 30
0.0
 10
406.369718
 20
1959.312600
 30
0.0
 10
402.278308
 20
1955.201749
 30
0.0
 10
403.006515
 20
1955.500460
 30
0.0
 10
403.737933
 20
1955.791133
 30
0.0
 10
404.472533
 20
1956.073881
 30
0.0
 10
405.210262
 20
1956.348759
 30
0.0
 10
405.951109
 20
1956.615878
 30
0.0
 10
406.695029
 20
1956.875301
 30
0.0
 10
407.441993
 20
1957.127131
 30
0.0
 10
408.191956
 20
1957.371432
 30
0.0
 10
408.944899
 20
1957.608306
 30
0.0
 10
409.700786
 20
1957.837835
 30
0.0
 10
410.459569
 20
1958.060094
 30
0.0
 10
411.221232
 20
1958.275165
 30
0.0
 10
411.985727
 20
1958.483150
 30
0.0
 10
412.753026
 20
1958.684123
 30
0.0
 10
413.523103
 20
1958.878167
 30
0.0
 10
414.295911
 20
1959.065374
 30
0.0
 10
415.071423
 20
1959.245818
 30
0.0
 10
415.849610
 20
1959.419591
 30
0.0
 10
416.630426
 20
1959.586777
 30
0.0
 10
417.413845
 20
1959.747457
 30
0.0
 10
418.199828
 20
1959.901716
 30
0.0
 10
418.988349
 20
1960.049637
 30
0.0
 10
419.779371
 20
1960.191311
 30
0.0
 10
420.572865
 20
1960.326821
 30
0.0
 10
421.368785
 20
1960.456242
 30
0.0
 10
422.167105
 20
1960.579675
 30
0.0
 10
422.967786
 20
1960.697185
 30
0.0
 10
423.770802
 20
1960.808872
 30
0.0
 10
424.576115
 20
1960.914812
 30
0.0
 10
425.383698
 20
1961.015095
 30
0.0
 10
426.193504
 20
1961.109806
 30
0.0
 10
427.005507
 20
1961.199027
 30
0.0
 10
428.342981
 20
1961.185464
 30
0.0
 10
429.691167
 20
1961.144959
 30
0.0
 10
431.049963
 20
1961.077421
 30
0.0
 10
432.419269
 20
1960.982913
 30
0.0
 10
433.798982
 20
1960.861445
 30
0.0
 10
435.188992
 20
1960.713036
 30
0.0
 10
436.589216
 20
1960.537685
 30
0.0
 10
437.999542
 20
1960.335430
 30
0.0
 10
439.419862
 20
1960.106279
 30
0.0
 10
440.850090
 20
1959.850251
 30
0.0
 10
442.290108
 20
1959.567355
 30
0.0
 10
443.739832
 20
1959.257619
 30
0.0
 10
445.199152
 20
1958.921052
 30
0.0
 10
446.667957
 20
1958.557673
 30
0.0
 10
448.146164
 20
1958.167500
 30
0.0
 10
449.633662
 20
1957.750552
 30
0.0
 10
451.130349
 20
1957.306837
 30
0.0
 10
452.636125
 20
1956.836383
 30
0.0
 10
454.150887
 20
1956.339210
 30
0.0
 10
455.674544
 20
1955.815316
 30
0.0
 10
457.206975
 20
1955.264730
 30
0.0
 10
458.748098
 20
1954.687470
 30
0.0
 10
460.297792
 20
1954.083554
 30
0.0
 10
461.855984
 20
1953.452992
 30
0.0
 10
463.422544
 20
1952.795802
 30
0.0
 10
464.997381
 20
1952.112003
 30
0.0
 10
466.580401
 20
1951.401622
 30
0.0
 10
468.171495
 20
1950.664659
 30
0.0
 10
469.770560
 20
1949.901133
 30
0.0
 10
471.377496
 20
1949.111071
 30
0.0
 10
472.992210
 20
1948.294492
 30
0.0
 10
474.614591
 20
1947.451396
 30
0.0
 10
476.280512
 20
1946.627510
 30
0.0
 10
477.922103
 20
1945.782080
 30
0.0
 10
479.539363
 20
1944.915189
 30
0.0
 10
481.132293
 20
1944.026938
 30
0.0
 10
482.700902
 20
1943.117392
 30
0.0
 10
484.245180
 20
1942.186644
 30
0.0
 10
485.765128
 20
1941.234785
 30
0.0
 10
487.260754
 20
1940.261880
 30
0.0
 10
488.732050
 20
1939.268032
 30
0.0
 10
490.179016
 20
1938.253321
 30
0.0
 10
491.601660
 20
1937.217833
 30
0.0
 10
492.999965
 20
1936.161650
 30
0.0
 10
494.373948
 20
1935.084845
 30
0.0
 10
495.723610
 20
1933.987529
 30
0.0
 10
497.048933
 20
1932.869758
 30
0.0
 10
498.349934
 20
1931.731633
 30
0.0
 10
499.626605
 20
1930.573238
 30
0.0
 10
500.878954
 20
1929.394646
 30
0.0
 10
502.106964
 20
1928.195958
 30
0.0
 10
503.310653
 20
1926.977248
 30
0.0
 10
504.490020
 20
1925.738600
 30
0.0
 10
505.645048
 20
1924.480106
 30
0.0
 10
506.775755
 20
1923.201839
 30
0.0
 10
507.882131
 20
1921.903901
 30
0.0
 10
508.964176
 20
1920.586356
 30
0.0
 10
510.021901
 20
1919.249297
 30
0.0
 10
511.055295
 20
1917.892817
 30
0.0
 10
512.064358
 20
1916.516988
 30
0.0
 10
513.049100
 20
1915.121904
 30
0.0
 10
514.009512
 20
1913.707637
 30
0.0
 10
514.945593
 20
1912.274290
 30
0.0
 10
515.857344
 20
1910.821964
 30
0.0
 10
516.747726
 20
1909.362819
 30
0.0
 10
517.619628
 20
1907.908998
 30
0.0
 10
518.472947
 20
1906.460409
 30
0.0
 10
519.307573
 20
1905.016977
 30
0.0
 10
520.123423
 20
1903.578610
 30
0.0
 10
520.920377
 20
1902.145226
 30
0.0
 10
521.698342
 20
1900.716751
 30
0.0
 10
522.457227
 20
1899.293082
 30
0.0
 10
523.196912
 20
1897.874147
 30
0.0
 10
523.917304
 20
1896.459853
 30
0.0
 10
524.618301
 20
1895.050126
 30
0.0
 10
525.299794
 20
1893.644874
 30
0.0
 10
525.961699
 20
1892.244013
 30
0.0
 10
526.603905
 20
1890.847462
 30
0.0
 10
527.226310
 20
1889.455136
 30
0.0
 10
527.828814
 20
1888.066943
 30
0.0
 10
528.411315
 20
1886.682811
 30
0.0
 10
528.973711
 20
1885.302646
 30
0.0
 10
529.515901
 20
1883.926365
 30
0.0
 10
530.037784
 20
1882.553885
 30
0.0
 10
530.539257
 20
1881.185133
 30
0.0
 10
531.020229
 20
1879.819998
 30
0.0
 10
531.480579
 20
1878.458425
 30
0.0
 10
531.920225
 20
1877.100302
 30
0.0
 10
532.339046
 20
1875.745565
 30
0.0
 10
532.736960
 20
1874.394122
 30
0.0
 10
533.113856
 20
1873.045890
 30
0.0
 10
533.469633
 20
1871.700776
 30
0.0
 10
533.804197
 20
1870.358717
 30
0.0
 10
534.117430
 20
1869.019601
 30
0.0
 10
534.409248
 20
1867.683363
 30
0.0
 10
534.679540
 20
1866.349912
 30
0.0
 10
534.936306
 20
1865.023206
 30
0.0
 10
535.187500
 20
1863.707137
 30
0.0
 10
535.432945
 20
1862.401550
 30
0.0
 10
535.672476
 20
1861.106270
 30
0.0
 10
535.905926
 20
1859.821120
 30
0.0
 10
536.133130
 20
1858.545944
 30
0.0
 10
536.353913
 20
1857.280557
 30
0.0
 10
536.568099
 20
1856.024812
 30
0.0
 10
536.775539
 20
1854.778515
 30
0.0
 10
536.976042
 20
1853.541518
 30
0.0
 10
537.169458
 20
1852.313647
 30
0.0
 10
537.355604
 20
1851.094725
 30
0.0
 10
537.534323
 20
1849.884587
 30
0.0
 10
537.705430
 20
1848.683067
 30
0.0
 10
537.868768
 20
1847.489989
 30
0.0
 10
538.024171
 20
1846.305196
 30
0.0
 10
538.171464
 20
1845.128513
 30
0.0
 10
538.310471
 20
1843.959766
 30
0.0
 10
538.441036
 20
1842.798787
 30
0.0
 10
538.562984
 20
1841.645420
 30
0.0
 10
538.676148
 20
1840.499480
 30
0.0
 10
538.780362
 20
1839.360811
 30
0.0
 10
538.875451
 20
1838.229228
 30
0.0
 10
538.961258
 20
1837.104584
 30
0.0
 10
539.037561
 20
1835.986684
 30
0.0
 10
539.104270
 20
1834.875380
 30
0.0
 10
539.161197
 20
1833.770499
 30
0.0
 10
539.208161
 20
1832.671864
 30
0.0
 10
539.244975
 20
1831.579309
 30
0.0
 10
539.271455
 20
1830.492669
 30
0.0
 10
539.287509
 20
1829.411777
 30
0.0
 10
539.293045
 20
1828.336457
 30
0.0
 10
539.276806
 20
1825.980435
 30
0.0
 10
539.228275
 20
1823.635208
 30
0.0
 10
539.147542
 20
1821.300767
 30
0.0
 10
539.034637
 20
1818.977074
 30
0.0
 10
538.889706
 20
1816.664140
 30
0.0
 10
538.712832
 20
1814.361927
 30
0.0
 10
538.504137
 20
1812.070426
 30
0.0
 10
538.263711
 20
1809.789619
 30
0.0
 10
537.991666
 20
1807.519487
 30
0.0
 10
537.688093
 20
1805.260020
 30
0.0
 10
537.353095
 20
1803.011192
 30
0.0
 10
536.986772
 20
1800.772993
 30
0.0
 10
536.589237
 20
1798.545396
 30
0.0
 10
536.160570
 20
1796.328399
 30
0.0
 10
535.700894
 20
1794.121977
 30
0.0
 10
535.210299
 20
1791.926118
 30
0.0
 10
534.688887
 20
1789.740797
 30
0.0
 10
534.136760
 20
1787.566003
 30
0.0
 10
533.554028
 20
1785.401718
 30
0.0
 10
532.940775
 20
1783.247924
 30
0.0
 10
532.297121
 20
1781.104601
 30
0.0
 10
531.623157
 20
1778.971733
 30
0.0
 10
530.918985
 20
1776.849309
 30
0.0
 10
530.184708
 20
1774.737311
 30
0.0
 10
529.420416
 20
1772.635720
 30
0.0
 10
528.626230
 20
1770.544519
 30
0.0
 10
527.802242
 20
1768.463688
 30
0.0
 10
526.948554
 20
1766.393219
 30
0.0
 10
526.065267
 20
1764.333083
 30
0.0
 10
525.152483
 20
1762.283273
 30
0.0
 10
524.210303
 20
1760.243768
 30
0.0
 10
523.238598
 20
1758.214550
 30
0.0
 10
522.236279
 20
1756.213751
 30
0.0
 10
521.201455
 20
1754.242329
 30
0.0
 10
520.134061
 20
1752.300469
 30
0.0
 10
519.034023
 20
1750.388364
 30
0.0
 10
517.901278
 20
1748.506200
 30
0.0
 10
516.735759
 20
1746.654151
 30
0.0
 10
515.537395
 20
1744.832412
 30
0.0
 10
514.306128
 20
1743.041175
 30
0.0
 10
513.041876
 20
1741.280608
 30
0.0
 10
511.744584
 20
1739.550913
 30
0.0
 10
510.414177
 20
1737.852265
 30
0.0
 10
509.050592
 20
1736.184858
 30
0.0
 10
507.653755
 20
1734.548877
 30
0.0
 10
506.223600
 20
1732.944507
 30
0.0
 10
504.760063
 20
1731.371921
 30
0.0
 10
503.263081
 20
1729.831325
 30
0.0
 10
501.732578
 20
1728.322892
 30
0.0
 10
500.168490
 20
1726.846816
 30
0.0
 10
498.570744
 20
1725.403274
 30
0.0
 10
496.939275
 20
1723.992458
 30
0.0
 10
495.274027
 20
1722.614553
 30
0.0
 10
493.574918
 20
1721.269744
 30
0.0
 10
491.841883
 20
1719.958215
 30
0.0
 10
490.074857
 20
1718.680151
 30
0.0
 10
488.273776
 20
1717.435746
 30
0.0
 10
486.438565
 20
1716.225183
 30
0.0
 10
484.569162
 20
1715.048639
 30
0.0
 10
482.665490
 20
1713.906307
 30
0.0
 10
480.727496
 20
1712.798372
 30
0.0
 10
478.755105
 20
1711.725018
 30
0.0
 10
476.748244
 20
1710.686439
 30
0.0
 10
474.706857
 20
1709.682810
 30
0.0
 10
472.677639
 20
1708.712654
 30
0.0
 10
470.638135
 20
1707.774331
 30
0.0
 10
468.588324
 20
1706.867775
 30
0.0
 10
466.528188
 20
1705.992903
 30
0.0
 10
464.457719
 20
1705.149659
 30
0.0
 10
462.376888
 20
1704.337979
 30
0.0
 10
460.285687
 20
1703.557790
 30
0.0
 10
458.184096
 20
1702.809017
 30
0.0
 10
456.072098
 20
1702.091606
 30
0.0
 10
453.949674
 20
1701.405481
 30
0.0
 10
451.816806
 20
1700.750580
 30
0.0
 10
449.673484
 20
1700.126827
 30
0.0
 10
447.519689
 20
1699.534158
 30
0.0
 10
445.355404
 20
1698.972509
 30
0.0
 10
443.180610
 20
1698.441816
 30
0.0
 10
440.995289
 20
1697.942003
 30
0.0
 10
438.799430
 20
1697.473008
 30
0.0
 10
436.593008
 20
1697.034755
 30
0.0
 10
434.376011
 20
1696.627181
 30
0.0
 10
432.148414
 20
1696.250229
 30
0.0
 10
429.910215
 20
1695.903809
 30
0.0
 10
427.661387
 20
1695.587882
 30
0.0
 10
425.401920
 20
1695.302347
 30
0.0
 10
423.131788
 20
1695.047168
 30
0.0
 10
420.850981
 20
1694.822261
 30
0.0
 10
418.559480
 20
1694.627553
 30
0.0
 10
416.257267
 20
1694.462997
 30
0.0
 10
413.944333
 20
1694.328502
 30
0.0
 10
411.620641
 20
1694.224020
 30
0.0
 10
409.286199
 20
1694.149469
 30
0.0
 10
406.940972
 20
1694.104813
 30
0.0
  0
ENDSEC
  0
SECTION
  2
OBJECTS
  0
DICTIONARY
  5
C
330
0
100
AcDbDictionary
  3
ACAD_GROUP
350
D
  3
ACAD_MLINESTYLE
350
17
  0
DICTIONARY
  5
D
330
C
100
AcDbDictionary
  0
DICTIONARY
  5
1A
330
C
100
AcDbDictionary
  0
DICTIONARY
  5
17
330
C
100
AcDbDictionary
  3
STANDARD
350
18
  0
DICTIONARY
  5
19
330
C
100
AcDbDictionary
  0
ENDSEC
  0
EOF
