<?xml version="1.0" encoding="UTF-8" standalone="no"?>
<!-- Created with Inkscape (http://www.inkscape.org/) -->

<svg
   xmlns:dc="http://purl.org/dc/elements/1.1/"
   xmlns:cc="http://creativecommons.org/ns#"
   xmlns:rdf="http://www.w3.org/1999/02/22-rdf-syntax-ns#"
   xmlns:svg="http://www.w3.org/2000/svg"
   xmlns="http://www.w3.org/2000/svg"
   xmlns:sodipodi="http://sodipodi.sourceforge.net/DTD/sodipodi-0.dtd"
   xmlns:inkscape="http://www.inkscape.org/namespaces/inkscape"
   width="210mm"
   height="297mm"
   viewBox="0 0 210 297"
   version="1.1"
   id="svg3854"
   inkscape:version="0.92.3 (2405546, 2018-03-11)"
   sodipodi:docname="drawing.svg">
  <defs
     id="defs3848" />
  <sodipodi:namedview
     id="base"
     pagecolor="#ffffff"
     bordercolor="#666666"
     borderopacity="1.0"
     inkscape:pageopacity="0.0"
     inkscape:pageshadow="2"
     inkscape:zoom="2.8"
     inkscape:cx="247.22492"
     inkscape:cy="989.4498"
     inkscape:document-units="mm"
     inkscape:current-layer="layer1"
     showgrid="false"
     inkscape:window-width="1853"
     inkscape:window-height="1025"
     inkscape:window-x="1987"
     inkscape:window-y="27"
     inkscape:window-maximized="1" />
  <metadata
     id="metadata3851">
    <rdf:RDF>
      <cc:Work
         rdf:about="">
        <dc:format>image/svg+xml</dc:format>
        <dc:type
           rdf:resource="http://purl.org/dc/dcmitype/StillImage" />
        <dc:title />
      </cc:Work>
    </rdf:RDF>
  </metadata>
  <g
     inkscape:label="Layer 1"
     inkscape:groupmode="layer"
     id="layer1">
    <path
       style="fill:none;fill-opacity:1;stroke:#000000;stroke-width:0.1;stroke-miterlimit:4;stroke-dasharray:none;stroke-opacity:1"
       inkscape:connector-curvature="0"
       id="path3804"
       d="m 94.751643,35.668984 c 0.84144,-5.624564 -3.44105,-8.648195 -9.29679,-10.665272 l 1.8995,-7.61918 -4.63781,-1.155826 -1.84933,7.418401 c -1.21923,-0.303796 -2.47145,-0.590457 -3.71579,-0.874462 l 1.86251,-7.467272 -4.63516,-1.155826 -1.90086,7.616544 c -1.00919,-0.229856 -1.99991,-0.457066 -2.96152,-0.696138 l 0.005,-0.02396 -6.39603,-1.597031 -1.23375,4.953529 c 0,0 3.44105,0.7886 3.36841,0.837477 1.87839,0.468948 2.21788,1.711938 2.16107,2.697359 l -2.16372,8.679897 c -0.617708,2.603513 -2.158298,8.653937 -3.04087,12.19231 -0.22965,0.57065 -0.81238,1.42661 -2.12537,1.10167 0.0449,0.0674 -3.37105,-0.84145 -3.37105,-0.84145 l -2.30241,5.30887 6.03537,1.50455 c 1.12282,0.28137 2.22318,0.57592 3.3063,0.85332 l -1.91932,7.70637 4.63257,1.15582 1.9008,-7.62447 c 1.26546,0.34344 2.49397,0.66047 3.69602,0.959 l -1.89421,7.58881 4.63781,1.15582 1.91932,-7.69184 c 7.90847,1.49663 13.85532,0.89296 16.35853,-6.25993 2.01708,-5.7593 -0.10035,-9.08146 -4.26137,-11.24781 3.03026,-0.69877 5.31285,-2.69208 5.92179,-6.80945 z m -10.5966,14.85926 c -1.4332,5.7593 -11.13025,2.64584 -14.27409,1.86517 l 2.54679,-10.20955 c 3.14384,0.78464 13.22526,2.33806 11.7273,8.34438 z m 1.43455,-14.94248 c -1.30774,5.23885 -9.37866,2.57716 -11.9968,1.92461 l 2.309,-9.25979 c 2.61813,0.652544 11.04967,1.870452 9.6878,7.33518 z"
       sodipodi:nodetypes="ccccccccccccccccccccccccccccccccccccccccc" />
  </g>
</svg>
