<?xml version="1.0" encoding="UTF-8" standalone="no"?>
<svg
   xmlns:dc="http://purl.org/dc/elements/1.1/"
   xmlns:cc="http://creativecommons.org/ns#"
   xmlns:rdf="http://www.w3.org/1999/02/22-rdf-syntax-ns#"
   xmlns:svg="http://www.w3.org/2000/svg"
   xmlns="http://www.w3.org/2000/svg"
   id="svg3854"
   version="1.1"
   viewBox="0 0 210 297"
   height="297mm"
   width="210mm">
  <defs
     id="defs3848" />
  <metadata
     id="metadata3851">
    <rdf:RDF>
      <cc:Work
         rdf:about="">
        <dc:format>image/svg+xml</dc:format>
        <dc:type
           rdf:resource="http://purl.org/dc/dcmitype/StillImage" />
        <dc:title></dc:title>
      </cc:Work>
    </rdf:RDF>
  </metadata>
  <g
     id="layer1">
    <path
       d="m 98.543521,261.64971 0.359687,-2.92178 0.194562,-2.83774 0.03309,-2.75536 -0.124725,-2.6746 -0.278886,-2.5955 -0.429392,-2.51803 -0.576243,-2.4422 -0.719439,-2.36801 -0.85898,-2.29547 -0.994867,-2.22457 -1.127097,-2.15531 -1.255674,-2.08768 -1.380595,-2.02171 -1.501862,-1.95737 -1.619473,-1.89467 -1.733429,-1.83361 -1.843731,-1.7742 -1.950378,-1.71643 -2.053369,-1.66029 -2.152706,-1.6058 -2.248387,-1.55296 -2.340415,-1.50174 -2.428786,-1.45218 -2.513503,-1.40425 -2.594565,-1.35796 -2.671972,-1.31332 -2.745724,-1.27032 -2.815822,-1.22896 -2.882263,-1.18923 -2.945051,-1.15116 -3.004183,-1.11472 -3.05966,-1.07992 0.333701,-1.33852 0.333701,-1.33853 0.333701,-1.33853 0.333701,-1.33852 0.333701,-1.33852 0.333701,-1.33853 0.333701,-1.33852 0.333701,-1.33853 0.3337,-1.33852 0.333701,-1.33853 0.333701,-1.33852 0.333701,-1.33853 0.333701,-1.33852 0.333701,-1.33853 0.333701,-1.33852 0.333701,-1.33853 0.333701,-1.33852 0.333701,-1.33853 0.333701,-1.33852 0.333701,-1.33853 0.333701,-1.33852 0.333701,-1.33853 0.333701,-1.33853 0.3337,-1.33852 0.333701,-1.33852 0.333701,-1.33853 0.333701,-1.33852 0.333701,-1.33853 0.333701,-1.33852 0.333701,-1.33853 0.333701,-1.33852 0.333701,-1.33853 -0.814763,-0.20305 -0.814763,-0.20306 -0.814762,-0.20305 -0.814763,-0.20305 -0.814763,-0.20306 -0.814763,-0.20305 -0.814763,-0.20306 -0.814763,-0.20305 -0.814762,-0.20305 -0.814763,-0.20306 -0.814763,-0.20305 -0.814763,-0.20305 -0.814763,-0.20306 -0.814762,-0.20305 -0.814763,-0.20306 -0.814763,-0.20305 -0.814763,-0.20305 -0.814763,-0.20306 -0.814762,-0.20305 -0.814763,-0.20305 -0.814763,-0.20306 -0.814763,-0.20305 -0.814763,-0.20306 -0.814763,-0.20305 -0.814762,-0.20305 -0.814763,-0.20306 -0.814763,-0.20305 -0.814763,-0.20305 -0.814763,-0.20306 -0.814762,-0.20305 -0.814763,-0.20306 -0.814763,-0.20305 -0.324887,1.30325 -0.324887,1.30326 -0.324888,1.30325 -0.324887,1.30325 -0.324887,1.30325 -0.324887,1.30326 -0.324887,1.30325 -0.324888,1.30325 -0.324887,1.30326 -0.324887,1.30325 -0.324887,1.30325 -0.324887,1.30325 -0.324887,1.30326 -0.324888,1.30325 -0.324887,1.30325 -0.324887,1.30326 -0.324887,1.30325 -0.324887,1.30325 -0.324888,1.30325 -0.324887,1.30326 -0.324887,1.30325 -0.324887,1.30325 -0.324887,1.30325 -0.324888,1.30326 -0.324887,1.30325 -0.324887,1.30325 -0.324887,1.30326 -0.324887,1.30325 -0.324887,1.30325 -0.324888,1.30325 -0.324887,1.30326 -0.324887,1.30325 -0.643114,-0.15983 -0.644158,-0.15928 -0.645161,-0.15875 -0.646122,-0.15823 -0.647039,-0.15772 -0.647917,-0.15724 -0.64875,-0.15676 -0.649543,-0.15629 -0.650292,-0.15586 -0.651001,-0.15542 -0.651667,-0.15501 -0.65229,-0.1546 -0.652873,-0.15422 -0.653412,-0.15385 -0.653909,-0.1535 -0.654366,-0.15315 -0.6547786,-0.15283 -0.6551504,-0.15252 -0.6554797,-0.15222 -0.655767,-0.15193 -0.6560123,-0.15168 -0.6562154,-0.15142 -0.6563765,-0.15118 -0.6564956,-0.15097 -0.6565725,-0.15075 -0.6566073,-0.15057 -0.6566002,-0.15038 -0.6565509,-0.15023 -0.6564595,-0.15008 -0.65632614,-0.14994 -0.65615064,-0.14983 -0.65593309,-0.14973 0.32720281,-1.31184 0.3272028,-1.31184 0.32720281,-1.31184 0.3272028,-1.31183 0.32720285,-1.31184 0.3272028,-1.31184 0.3272028,-1.31184 0.3272028,-1.31184 0.3272028,-1.31184 0.3272028,-1.31183 0.3272028,-1.31184 0.3272028,-1.31184 0.3272028,-1.31184 0.3272028,-1.31184 0.3272028,-1.31184 0.3272028,-1.31183 0.3272028,-1.31184 0.3272028,-1.31184 0.3272028,-1.31184 0.3272028,-1.31184 0.3272028,-1.31184 0.3272028,-1.31184 0.3272029,-1.31183 0.3272028,-1.31184 0.3272028,-1.31184 0.3272028,-1.31184 0.3272028,-1.31184 0.3272028,-1.31184 0.3272028,-1.31183 0.3272028,-1.31184 0.3272028,-1.31184 0.3272028,-1.31184 L 9.2564155,146.96838 8.442118,146.76532 7.6278205,146.56227 6.813523,146.35922 5.9992255,146.15616 5.184928,145.95311 4.3706305,145.75006 3.556333,145.547 2.7420355,145.34395 1.927738,145.1409 1.1134405,144.93784 0.299143,144.73479 l -0.8142975,-0.20305 -0.8142975,-0.20306 -0.8142975,-0.20305 -0.8142975,-0.20305 -0.8142975,-0.20306 -0.8142975,-0.20305 -0.8142975,-0.20306 -0.8142975,-0.20305 -0.8142975,-0.20305 -0.8142975,-0.20306 -0.8142975,-0.20305 -0.8142975,-0.20305 -0.814298,-0.20306 -0.814297,-0.20305 -0.814298,-0.20305 -0.814297,-0.20306 -0.814298,-0.20305 -0.814297,-0.20305 -0.814298,-0.20306 -0.814297,-0.20305 -0.33394,1.33806 -0.33394,1.33806 -0.33394,1.33807 -0.33394,1.33806 -0.33394,1.33806 -0.33394,1.33806 -0.33394,1.33806 -0.33394,1.33807 -0.33394,1.33806 -0.33394,1.33806 -0.33394,1.33806 -0.33394,1.33806 -0.33394,1.33806 -0.33394,1.33807 -0.33394,1.33806 -0.33394,1.33806 -0.33394,1.33806 -0.33394,1.33806 -0.33394,1.33807 -0.33394,1.33806 -0.33394,1.33806 -0.33394,1.33806 -0.33394,1.33806 -0.33394,1.33807 -0.33394,1.33806 -0.33394,1.33806 -0.33394,1.33806 -0.33394,1.33806 -0.33394,1.33806 -0.33394,1.33807 -0.33394,1.33806 -0.33394,1.33806 -0.531572,-0.1211 -0.530954,-0.12103 -0.530322,-0.12097 -0.529682,-0.12093 -0.529029,-0.1209 -0.528366,-0.12089 -0.527693,-0.12089 -0.527007,-0.12091 -0.526311,-0.12094 -0.525604,-0.12099 -0.524886,-0.12105 -0.524157,-0.12113 -0.523418,-0.12122 -0.522667,-0.12133 -0.521905,-0.12145 -0.521132,-0.12158 -0.520349,-0.12174 -0.519554,-0.1219 -0.518748,-0.12209 -0.517932,-0.12228 -0.517105,-0.1225 -0.516266,-0.12272 -0.515417,-0.12296 -0.514557,-0.12322 -0.513685,-0.12349 -0.512803,-0.12377 -0.51191,-0.12408 -0.511006,-0.12439 -0.510091,-0.12472 -0.509164,-0.12507 -0.508228,-0.12543 -0.50728,-0.12581 8.78e-4,-0.004 8.78e-4,-0.004 8.78e-4,-0.004 8.78e-4,-0.004 8.79e-4,-0.004 8.78e-4,-0.004 8.78e-4,-0.004 8.78e-4,-0.004 8.78e-4,-0.004 8.78e-4,-0.004 8.78e-4,-0.004 8.79e-4,-0.004 8.78e-4,-0.004 8.78e-4,-0.004 8.78e-4,-0.004 8.78e-4,-0.004 8.78e-4,-0.004 8.78e-4,-0.004 8.78e-4,-0.004 8.79e-4,-0.004 8.78e-4,-0.004 8.78e-4,-0.004 8.78e-4,-0.004 8.78e-4,-0.004 8.78e-4,-0.004 8.78e-4,-0.004 8.78e-4,-0.004 8.79e-4,-0.004 8.78e-4,-0.004 8.78e-4,-0.004 8.78e-4,-0.004 8.78e-4,-0.004 -1.123644,-0.28056 -1.123645,-0.28057 -1.123644,-0.28056 -1.123644,-0.28056 -1.123645,-0.28057 -1.123644,-0.28056 -1.123645,-0.28057 -1.123644,-0.28056 -1.123644,-0.28056 -1.123645,-0.28057 -1.123644,-0.28056 -1.123645,-0.28056 -1.123644,-0.28057 -1.123644,-0.28056 -1.123645,-0.28057 -1.123644,-0.28056 -1.123644,-0.28056 -1.123645,-0.28057 -1.123644,-0.28056 -1.123644,-0.28056 -1.123645,-0.28057 -1.123644,-0.28056 -1.123645,-0.28057 -1.123644,-0.28056 -1.123644,-0.28056 -1.123645,-0.28057 -1.123644,-0.28056 -1.123644,-0.28056 -1.123645,-0.28057 -1.123644,-0.28056 -1.123645,-0.28057 -1.123644,-0.28056 -0.216743,0.87023 -0.216743,0.87023 -0.216743,0.87022 -0.216744,0.87023 -0.216743,0.87023 -0.216743,0.87023 -0.216743,0.87022 -0.216743,0.87023 -0.216743,0.87023 -0.216744,0.87023 -0.216743,0.87023 -0.216743,0.87022 -0.216743,0.87023 -0.216743,0.87023 -0.216743,0.87023 -0.216744,0.87023 -0.216743,0.87022 -0.216743,0.87023 -0.216743,0.87023 -0.216743,0.87023 -0.216743,0.87022 -0.216743,0.87023 -0.216744,0.87023 -0.216743,0.87023 -0.216743,0.87023 -0.216743,0.87022 -0.216743,0.87023 -0.216743,0.87023 -0.216744,0.87023 -0.216743,0.87022 -0.216743,0.87023 -0.216743,0.87023 0.05548,0.0127 0.161669,0.0371 0.260698,0.06 0.352568,0.0812 0.437279,0.1009 0.514832,0.11901 0.585225,0.13554 0.648459,0.15051 0.704535,0.1639 0.753451,0.17572 0.795209,0.18596 0.829807,0.19464 0.857246,0.20173 0.877527,0.20725 0.890649,0.21121 0.896611,0.21359 0.895415,0.21439 0.88706,0.21362 0.871545,0.21128 0.848872,0.20737 0.81904,0.20188 0.782049,0.19481 0.737898,0.18619 0.686589,0.17597 0.628121,0.1642 0.562494,0.15084 0.489708,0.13591 0.409763,0.11942 0.322659,0.10134 0.228396,0.0817 0.126974,0.0605 0.01839,0.0377 0.964828,0.25972 0.915313,0.28416 0.866975,0.30753 0.819812,0.32985 0.773826,0.35109 0.729016,0.37127 0.685382,0.39041 0.642924,0.40847 0.601642,0.42546 0.561537,0.44141 0.522607,0.45629 0.484854,0.4701 0.448277,0.48285 0.412877,0.49455 0.378651,0.50518 0.345603,0.51474 0.31373,0.52325 0.283034,0.5307 0.253514,0.53708 0.22517,0.5424 0.198002,0.54665 0.17201,0.54986 0.147195,0.55199 0.123556,0.55306 0.101092,0.55307 0.07981,0.55202 0.05969,0.54991 0.04076,0.54674 0.023,0.54249 0.0064,0.5372 -0.009,0.53084 -0.02322,0.52342 -0.380119,1.52487 -0.380119,1.52487 -0.380118,1.52487 -0.380119,1.52487 -0.380119,1.52487 -0.380119,1.52487 -0.380118,1.52487 -0.380119,1.52487 -0.380119,1.52487 -0.380119,1.52487 -0.380118,1.52487 -0.380119,1.52487 -0.380119,1.52487 -0.380119,1.52487 -0.380118,1.52487 -0.380119,1.52488 -0.380119,1.52487 -0.380118,1.52487 -0.380119,1.52487 -0.380119,1.52487 -0.380119,1.52487 -0.380119,1.52487 -0.380118,1.52487 -0.380119,1.52487 -0.380119,1.52487 -0.380119,1.52487 -0.380118,1.52487 -0.380119,1.52487 -0.380119,1.52487 -0.380118,1.52487 -0.380119,1.52487 -0.380119,1.52487 -0.340482,1.42789 -0.369254,1.5353 -0.396399,1.63657 -0.421917,1.7317 -0.445806,1.82072 -0.46807,1.90358 -0.488705,1.98032 -0.507713,2.05092 -0.525094,2.11539 -0.540848,2.17372 -0.554974,2.22593 -0.567473,2.27199 -0.578344,2.31193 -0.587589,2.34572 -0.595206,2.37339 -0.601195,2.39492 -0.605558,2.41032 -0.608292,2.41958 -0.609401,2.4227 -0.60888,2.41971 -0.606734,2.41056 -0.602959,2.3953 -0.597557,2.37388 -0.590529,2.34635 -0.581872,2.31267 -0.571588,2.27286 -0.559678,2.22692 -0.546139,2.17484 -0.530974,2.11663 -0.514181,2.05229 -0.49576,1.98181 -0.475713,1.9052 -0.126913,0.3052 -0.138933,0.31309 -0.151339,0.31947 -0.164134,0.32434 -0.177317,0.3277 -0.190889,0.32955 -0.204849,0.32989 -0.219197,0.32873 -0.233934,0.32605 -0.249058,0.32186 -0.264571,0.31618 -0.280472,0.30896 -0.296762,0.30026 -0.313439,0.29003 -0.330505,0.2783 -0.34796,0.26506 -0.365802,0.2503 -0.384032,0.23405 -0.402652,0.21628 -0.421659,0.19701 -0.441054,0.17621 -0.460838,0.15392 -0.48101,0.13011 -0.50157,0.1048 -0.522519,0.078 -0.543855,0.0496 -0.565581,0.0198 -0.587693,-0.0116 -0.610196,-0.0444 -0.633085,-0.0788 -0.656363,-0.11467 -0.680029,-0.15206 -0.03216,0.0198 -0.139077,-0.0104 -0.238918,-0.0387 -0.331682,-0.0651 -0.417366,-0.0895 -0.495971,-0.11191 -0.567499,-0.13243 -0.631946,-0.151 -0.689316,-0.16764 -0.739608,-0.18233 -0.78282,-0.19508 -0.81895,-0.2059 -0.84801,-0.21476 -0.86998,-0.2217 -0.88488,-0.22669 -0.89269,-0.22974 -0.89344,-0.23085 -0.8871,-0.23002 -0.87368,-0.22724 -0.85318,-0.22254 -0.82561,-0.21588 -0.79095,-0.2073 -0.74922,-0.19676 -0.70041,-0.18428 -0.64452,-0.16988 -0.58155,-0.15352 -0.5115,-0.13522 -0.43437,-0.11499 -0.35017,-0.0928 -0.25889,-0.0687 -0.16052,-0.0426 -0.0551,-0.0146 -0.40448,0.93265 -0.40449,0.93266 -0.40448,0.93265 -0.40449,0.93266 -0.40448,0.93265 -0.40448,0.93265 -0.40449,0.93266 -0.40448,0.93265 -0.40448,0.93265 -0.40449,0.93266 -0.40448,0.93265 -0.40449,0.93266 -0.40448,0.93265 -0.40448,0.93265 -0.40449,0.93266 -0.40448,0.93265 -0.40448,0.93265 -0.40449,0.93266 -0.40448,0.93265 -0.40449,0.93266 -0.40448,0.93265 -0.40448,0.93265 -0.40449,0.93266 -0.40448,0.93265 -0.40448,0.93265 -0.40449,0.93266 -0.40448,0.93265 -0.40449,0.93266 -0.40448,0.93265 -0.40448,0.93265 -0.40449,0.93266 -0.40448,0.93265 1.06028,0.26432 1.06029,0.26431 1.06028,0.26432 1.06029,0.26432 1.06028,0.26431 1.06028,0.26432 1.06029,0.26432 1.06028,0.26432 1.06029,0.26431 1.06028,0.26432 1.06029,0.26432 1.06028,0.26431 1.06028,0.26432 1.06029,0.26432 1.06028,0.26431 1.06029,0.26432 1.06028,0.26432 1.06028,0.26431 1.06029,0.26432 1.06028,0.26432 1.06029,0.26431 1.06028,0.26432 1.06028,0.26432 1.06029,0.26432 1.06028,0.26431 1.06029,0.26432 1.060281,0.26432 1.060284,0.26431 1.060284,0.26432 1.060284,0.26432 1.060284,0.26431 1.060284,0.26432 0.591397,0.1485 0.590662,0.14891 0.589933,0.14928 0.589209,0.14962 0.588491,0.14993 0.587779,0.1502 0.58707,0.15045 0.586369,0.15067 0.585671,0.15086 0.58498,0.151 0.584294,0.15113 0.583613,0.15122 0.582938,0.15128 0.582268,0.1513 0.581603,0.15131 0.580944,0.15127 0.58029,0.1512 0.579642,0.15111 0.578998,0.15098 0.578361,0.15082 0.577729,0.15063 0.577101,0.15041 0.57648,0.15015 0.575863,0.14988 0.575253,0.14955 0.574647,0.14921 0.574047,0.14884 0.573452,0.14842 0.572863,0.14799 0.572278,0.14751 0.5717,0.14701 0.571127,0.14648 -0.337183,1.35384 -0.337183,1.35385 -0.337183,1.35384 -0.337183,1.35384 -0.337183,1.35384 -0.337183,1.35385 -0.337183,1.35384 -0.337183,1.35384 -0.337183,1.35384 -0.337183,1.35385 -0.337183,1.35384 -0.337183,1.35384 -0.337183,1.35384 -0.337183,1.35385 -0.337183,1.35384 -0.337183,1.35384 -0.337182,1.35384 -0.337183,1.35385 -0.337183,1.35384 -0.337183,1.35384 -0.337183,1.35384 -0.337183,1.35385 -0.337183,1.35384 -0.337183,1.35384 -0.337183,1.35384 -0.337183,1.35385 -0.337183,1.35384 -0.337183,1.35384 -0.337183,1.35384 -0.337183,1.35385 -0.337183,1.35384 -0.337183,1.35384 0.813842,0.20305 0.813843,0.20306 0.813842,0.20305 0.813842,0.20305 0.813843,0.20305 0.813842,0.20306 0.813842,0.20305 0.813843,0.20305 0.813842,0.20305 0.813842,0.20306 0.813843,0.20305 0.813842,0.20305 0.813842,0.20305 0.813843,0.20306 0.813842,0.20305 0.813842,0.20305 0.813843,0.20305 0.813842,0.20306 0.813843,0.20305 0.813842,0.20305 0.813842,0.20305 0.813843,0.20306 0.813842,0.20305 0.813842,0.20305 0.813843,0.20305 0.813842,0.20306 0.813842,0.20305 0.813843,0.20305 0.813842,0.20305 0.813842,0.20306 0.813843,0.20305 0.813842,0.20305 0.33393,-1.33945 0.333929,-1.33946 0.33393,-1.33945 0.33393,-1.33946 0.333929,-1.33945 0.33393,-1.33946 0.33393,-1.33945 0.333929,-1.33945 0.33393,-1.33946 0.33393,-1.33945 0.33393,-1.33946 0.333929,-1.33945 0.33393,-1.33946 0.33393,-1.33945 0.333929,-1.33946 0.33393,-1.33945 0.33393,-1.33945 0.333929,-1.33946 0.33393,-1.33945 0.33393,-1.33946 0.333929,-1.33945 0.33393,-1.33946 0.33393,-1.33945 0.333929,-1.33945 0.33393,-1.33946 0.33393,-1.33945 0.33393,-1.33946 0.333929,-1.33945 0.33393,-1.33946 0.33393,-1.33945 0.333929,-1.33946 0.33393,-1.33945 0.666335,0.18057 0.665128,0.17971 0.663933,0.17886 0.662748,0.17801 0.661574,0.17717 0.660411,0.17634 0.659259,0.17553 0.658117,0.17471 0.656987,0.1739 0.655867,0.17311 0.654758,0.17232 0.653659,0.17154 0.652572,0.17077 0.651495,0.17 0.650429,0.16925 0.649374,0.1685 0.64833,0.16776 0.647296,0.16702 0.646274,0.16631 0.645261,0.16559 0.64426,0.16488 0.64327,0.16418 0.64229,0.1635 0.641322,0.16281 0.640363,0.16213 0.639417,0.16147 0.63848,0.16081 0.637554,0.16016 0.636639,0.15952 0.635736,0.15889 0.634842,0.15826 0.63396,0.15764 -0.332772,1.33319 -0.332771,1.33319 -0.332772,1.33319 -0.332771,1.33319 -0.332772,1.33319 -0.332771,1.33319 -0.332772,1.33319 -0.332772,1.33319 -0.332771,1.33319 -0.332772,1.33319 -0.332771,1.33319 -0.332772,1.33319 -0.332771,1.33319 -0.332772,1.33319 -0.332771,1.33319 -0.332772,1.33318 -0.332772,1.33319 -0.332771,1.33319 -0.332772,1.33319 -0.332771,1.33319 -0.332772,1.33319 -0.332771,1.33319 -0.332772,1.33319 -0.332772,1.33319 -0.332771,1.33319 -0.332772,1.33319 -0.332771,1.33319 -0.332772,1.33319 -0.332771,1.33319 -0.332772,1.33319 -0.332771,1.33319 -0.332772,1.33319 0.814763,0.20305 0.814763,0.20306 0.814762,0.20305 0.814763,0.20305 0.814763,0.20305 0.814763,0.20305 0.814763,0.20306 0.814762,0.20305 0.814763,0.20305 0.814763,0.20305 0.814763,0.20306 0.814763,0.20305 0.814763,0.20305 0.814762,0.20305 0.814763,0.20306 0.814763,0.20305 0.814763,0.20305 0.814763,0.20305 0.814762,0.20306 0.814763,0.20305 0.814763,0.20305 0.814763,0.20306 0.814763,0.20305 0.814762,0.20305 0.814763,0.20305 0.814763,0.20305 0.814763,0.20306 0.814763,0.20305 0.814763,0.20305 0.814762,0.20306 0.814763,0.20305 0.814763,0.20305 0.337183,-1.35129 0.337183,-1.35129 0.337183,-1.35129 0.337184,-1.35129 0.337183,-1.35129 0.337183,-1.35129 0.337183,-1.35129 0.337183,-1.35129 0.337183,-1.35129 0.337183,-1.35129 0.3371834,-1.35129 0.3371832,-1.35129 0.3371831,-1.35129 0.3371831,-1.35129 0.3371832,-1.35129 0.3371831,-1.35129 0.3371831,-1.35129 0.3371832,-1.35129 0.3371831,-1.35129 0.3371831,-1.35129 0.3371832,-1.35129 0.3371831,-1.35129 0.3371831,-1.35129 0.3371831,-1.35129 0.3371832,-1.35129 0.3371831,-1.35129 0.3371831,-1.35129 0.3371832,-1.35129 0.3371831,-1.35129 0.3371831,-1.35129 0.3371832,-1.35129 0.3371831,-1.35129 4.1354797,0.75342 4.0693389,0.67966 4.0016727,0.60132 3.9324805,0.51839 3.861764,0.4309 3.789521,0.33881 3.715752,0.24215 3.640458,0.14091 3.563639,0.0351 3.485294,-0.0753 3.405423,-0.19028 3.324027,-0.30985 3.241105,-0.43398 3.156659,-0.5627 3.070685,-0.696 2.983187,-0.83388 2.894164,-0.97633 2.803614,-1.12336 2.711539,-1.27499 2.617939,-1.43117 2.522813,-1.59195 2.426161,-1.75731 2.327985,-1.92724 2.228281,-2.10175 2.127054,-2.28085 2.0243,-2.46452 1.920021,-2.65277 1.814216,-2.8456 1.706886,-3.04301 1.59803,-3.245 1.487649,-3.45158 1.375742,-3.66272 0.995335,-2.99543 0.861298,-2.91648 0.729414,-2.83883 0.599681,-2.76251 0.472101,-2.68751 0.346673,-2.61383 0.223397,-2.54146 0.102274,-2.47041 -0.0167,-2.40069 -0.133516,-2.33227 -0.248181,-2.26519 -0.360695,-2.19942 -0.471057,-2.13497 -0.579267,-2.07184 -0.685323,-2.01002 -0.789228,-1.94953 -0.89098,-1.89035 -0.99058,-1.8325 -1.088028,-1.77596 -1.183324,-1.72074 -1.276466,-1.66684 -1.367458,-1.61427 -1.456295,-1.563 -1.542982,-1.51305 -1.627516,-1.46444 -1.709897,-1.41712 -1.790126,-1.37115 -1.868203,-1.32647 -1.944128,-1.28313 -2.0179,-1.2411 -2.08952,-1.20039 -2.158987,-1.161 1.584581,-0.38974 1.558999,-0.43323 1.532466,-0.47759 1.504977,-0.52279 1.476537,-0.56884 1.447143,-0.61576 1.416796,-0.66352 1.385496,-0.71214 1.353242,-0.76161 1.320035,-0.81194 1.285876,-0.86312 1.250763,-0.91516 1.214697,-0.96804 1.177678,-1.02179 1.139705,-1.07638 1.100779,-1.13183 1.060901,-1.18814 1.020069,-1.24529 0.978284,-1.3033 0.935545,-1.36217 0.891854,-1.42189 0.84721,-1.48247 0.801612,-1.54389 0.75506,-1.60617 0.707557,-1.6693 0.659099,-1.7333 0.609689,-1.79813 0.559326,-1.86384 0.508008,-1.93038 0.455739,-1.99779 0.402516,-2.06604 0.348339,-2.13516 6.3e-5,3e-5 6.4e-5,3e-5 6.3e-5,3e-5 6.4e-5,3e-5 6.3e-5,3e-5 6.4e-5,3e-5 6.3e-5,3e-5 6.4e-5,3e-5 6.3e-5,3e-5 6.3e-5,3e-5 6.4e-5,3e-5 6.3e-5,3e-5 6.4e-5,3e-5 6.3e-5,3e-5 6.4e-5,3e-5 6.3e-5,3e-5 6.3e-5,2e-5 6.4e-5,3e-5 6.3e-5,3e-5 6.4e-5,3e-5 6.3e-5,3e-5 6.4e-5,3e-5 6.3e-5,3e-5 6.3e-5,3e-5 6.4e-5,3e-5 6.3e-5,3e-5 6.4e-5,3e-5 6.3e-5,3e-5 6.4e-5,3e-5 6.3e-5,3e-5 6.4e-5,3e-5 z m -59.570988,83.53443 -0.88891,2.89114 -1.145866,2.61041 -1.387571,2.34122 -1.614022,2.08355 -1.825223,1.83743 -2.02117,1.60283 -2.201866,1.37977 -2.36731,1.16825 -2.517501,0.96826 -2.65244,0.77981 -2.772127,0.60288 -2.876561,0.4375 -2.965745,0.28365 -3.0396745,0.14134 -3.0983531,0.0105 -3.1417791,-0.10869 -3.1699532,-0.21641 -3.1828749,-0.31259 -3.1805446,-0.39722 -3.1629616,-0.47034 -3.130128,-0.53191 -3.08204,-0.58195 -3.018702,-0.62045 -2.94011,-0.64743 -2.846266,-0.66286 -2.737172,-0.66676 -2.612823,-0.65912 -2.473224,-0.63996 -2.318371,-0.60926 -2.148268,-0.56702 -1.962911,-0.51324 -1.762302,-0.44794 0.447416,-1.7936 0.447416,-1.79359 0.447416,-1.7936 0.447416,-1.7936 0.447416,-1.7936 0.447416,-1.79359 0.447416,-1.7936 0.447416,-1.7936 0.447415,-1.79359 0.447416,-1.7936 0.447416,-1.7936 0.447416,-1.7936 0.447416,-1.79359 0.447416,-1.7936 0.447416,-1.7936 0.447416,-1.79359 0.447416,-1.7936 0.447416,-1.7936 0.447416,-1.7936 0.447416,-1.79359 0.447416,-1.7936 0.447416,-1.7936 0.447416,-1.7936 0.447415,-1.79359 0.447416,-1.7936 0.447416,-1.7936 0.447416,-1.79359 0.447416,-1.7936 0.447416,-1.7936 0.447416,-1.7936 0.447416,-1.79359 0.447416,-1.7936 1.767998,0.42683 1.977459,0.45594 2.16786,0.48885 2.339199,0.52555 2.491478,0.56604 2.624697,0.61033 2.738853,0.6584 2.8339508,0.71028 2.9099865,0.76593 2.9669618,0.8254 3.00487638,0.88863 3.02373022,0.95568 3.0235234,1.02651 3.0042559,1.10113 2.965928,1.17954 2.908538,1.26176 2.832089,1.34775 2.736578,1.43755 2.622007,1.53113 2.488376,1.62851 2.335682,1.72968 2.16393,1.83464 1.973115,1.94339 1.763241,2.05594 1.534305,2.17228 1.286309,2.29241 1.019252,2.41634 0.733134,2.54405 0.427956,2.67556 0.103717,2.81085 -0.239583,2.94995 z m 8.06462,-84.00227 -0.798517,2.63264 -1.00872,2.3826 -1.206348,2.14275 -1.391401,1.91312 -1.563879,1.69368 -1.723783,1.48444 -1.871111,1.2854 -2.005866,1.09657 -2.128046,0.91793 -2.237651,0.7495 -2.334681,0.59126 -2.419136,0.44323 -2.491017,0.30539 -2.550324,0.17776 -2.597054,0.0603 -2.631212,-0.0469 -2.652794,-0.14393 -2.661801,-0.23076 -2.658234,-0.30739 -2.642092,-0.37382 -2.6133752,-0.43005 -2.57208399,-0.47607 -2.51821791,-0.5119 -2.4517772,-0.53753 -2.3727618,-0.55295 -2.2811716,-0.55817 -2.1770073,-0.5532 -2.060267,-0.53803 -1.930953,-0.51264 -1.789065,-0.47707 -1.6346,-0.43128 -1.467563,-0.37531 0.405641,-1.62675 0.405642,-1.62674 0.405641,-1.62674 0.405641,-1.62675 0.405641,-1.62674 0.405642,-1.62675 0.405641,-1.62674 0.405641,-1.62675 0.405641,-1.62674 0.405642,-1.62675 0.405641,-1.62674 0.405641,-1.62675 0.405641,-1.62674 0.405642,-1.62675 0.405641,-1.62674 0.405641,-1.62675 0.405641,-1.62674 0.405642,-1.62675 0.405641,-1.62674 0.405641,-1.62675 0.405641,-1.62674 0.405642,-1.62675 0.405641,-1.62674 0.405641,-1.62675 0.405641,-1.62674 0.4056417,-1.62675 0.4056412,-1.62674 0.4056413,-1.62675 0.4056412,-1.62674 0.4056413,-1.62675 0.4056412,-1.62674 0.4056413,-1.62675 1.4729156,0.35386 1.6483423,0.37627 1.807704,0.40247 1.95100051,0.43246 2.07823189,0.46624 2.1893982,0.50382 2.2844994,0.54517 2.3635354,0.59033 2.4265065,0.63926 2.473412,0.692 2.504253,0.74851 2.519029,0.80882 2.517738,0.87292 2.500385,0.9408 2.466964,1.01248 2.41748,1.08795 2.35193,1.16721 2.270314,1.25025 2.172635,1.33708 2.058888,1.42771 1.929079,1.52212 1.783203,1.62033 1.621262,1.72232 1.443256,1.8281 1.249186,1.93768 1.039049,2.05104 0.812849,2.16819 0.570581,2.28913 0.312251,2.41386 0.03785,2.54238 -0.252608,2.67469 z"
       id="path3804"
       style="fill:none;fill-opacity:1;stroke:#000000;stroke-width:0.5621708;stroke-miterlimit:4;stroke-dasharray:none;stroke-opacity:1" />
  </g>
</svg>
