  0
SECTION
  2
HEADER
  9
$ACADVER
  1
AC1014
  9
$HANDSEED
  5
FFFF
  9
$MEASUREMENT
 70
     1
  0
ENDSEC
  0
SECTION
  2
TABLES
  0
TABLE
  2
VPORT
  5
8
330
0
100
AcDbSymbolTable
 70
     4
  0
VPORT
  5
2E
330
8
100
AcDbSymbolTableRecord
100
AcDbViewportTableRecord
  2
*ACTIVE
 70
     0
 10
0.0
 20
0.0
 11
1.0
 21
1.0
 12
210.0
 22
148.5
 13
0.0
 23
0.0
 14
10.0
 24
10.0
 15
10.0
 25
10.0
 16
0.0
 26
0.0
 36
1.0
 17
0.0
 27
0.0
 37
0.0
 40
341.0
 41
1.24
 42
50.0
 43
0.0
 44
0.0
 50
0.0
 51
0.0
 71
     0
 72
   100
 73
     1
 74
     3
 75
     0
 76
     0
 77
     0
 78
     0
  0
ENDTAB
  0
TABLE
  2
LTYPE
  5
5
330
0
100
AcDbSymbolTable
 70
     1
  0
LTYPE
  5
14
330
5
100
AcDbSymbolTableRecord
100
AcDbLinetypeTableRecord
  2
BYBLOCK
 70
     0
  3

 72
    65
 73
     0
 40
0.0
  0
LTYPE
  5
15
330
5
100
AcDbSymbolTableRecord
100
AcDbLinetypeTableRecord
  2
BYLAYER
 70
     0
  3

 72
    65
 73
     0
 40
0.0
  0
LTYPE
  5
16
330
5
100
AcDbSymbolTableRecord
100
AcDbLinetypeTableRecord
  2
CONTINUOUS
 70
     0
  3
Solid line
 72
    65
 73
     0
 40
0.0
  0
ENDTAB
  0
TABLE
  2
LAYER
  5
2
100
AcDbSymbolTable
 70
2
  0
LAYER
  5
50
100
AcDbSymbolTableRecord
100
AcDbLayerTableRecord
  2
0
 70
0
  6
CONTINUOUS
  0
LAYER
  5
51
100
AcDbSymbolTableRecord
100
AcDbLayerTableRecord
  2
Layer_1
 70
0
  6
CONTINUOUS
  0
ENDTAB
  0
TABLE
  2
STYLE
  5
3
330
0
100
AcDbSymbolTable
 70
     1
  0
STYLE
  5
11
330
3
100
AcDbSymbolTableRecord
100
AcDbTextStyleTableRecord
  2
STANDARD
 70
     0
 40
0.0
 41
1.0
 50
0.0
 71
     0
 42
2.5
  3
txt
  4

  0
ENDTAB
  0
TABLE
  2
VIEW
  5
6
330
0
100
AcDbSymbolTable
 70
     0
  0
ENDTAB
  0
TABLE
  2
UCS
  5
7
330
0
100
AcDbSymbolTable
 70
     0
  0
ENDTAB
  0
TABLE
  2
APPID
  5
9
330
0
100
AcDbSymbolTable
 70
     2
  0
APPID
  5
12
330
9
100
AcDbSymbolTableRecord
100
AcDbRegAppTableRecord
  2
ACAD
 70
     0
  0
ENDTAB
  0
TABLE
  2
DIMSTYLE
  5
A
330
0
100
AcDbSymbolTable
 70
     1
  0
DIMSTYLE
105
27
330
A
100
AcDbSymbolTableRecord
100
AcDbDimStyleTableRecord
  2
ISO-25
 70
     0
  3

  4

  5

  6

  7

 40
1.0
 41
2.5
 42
0.625
 43
3.75
 44
1.25
 45
0.0
 46
0.0
 47
0.0
 48
0.0
140
2.5
141
2.5
142
0.0
143
0.03937007874016
144
1.0
145
0.0
146
1.0
147
0.625
 71
     0
 72
     0
 73
     0
 74
     0
 75
     0
 76
     0
 77
     1
 78
     8
170
     0
171
     3
172
     1
173
     0
174
     0
175
     0
176
     0
177
     0
178
     0
270
     2
271
     2
272
     2
273
     2
274
     3
340
11
275
     0
280
     0
281
     0
282
     0
283
     0
284
     8
285
     0
286
     0
287
     3
288
     0
  0
ENDTAB
  0
TABLE
  2
BLOCK_RECORD
  5
1
330
0
100
AcDbSymbolTable
 70
     1
  0
BLOCK_RECORD
  5
1F
330
1
100
AcDbSymbolTableRecord
100
AcDbBlockTableRecord
  2
*MODEL_SPACE
  0
BLOCK_RECORD
  5
1B
330
1
100
AcDbSymbolTableRecord
100
AcDbBlockTableRecord
  2
*PAPER_SPACE
  0
ENDTAB
  0
ENDSEC
  0
SECTION
  2
BLOCKS
  0
BLOCK
  5
20
330
1F
100
AcDbEntity
  8
0
100
AcDbBlockBegin
  2
*MODEL_SPACE
 70
     0
 10
0.0
 20
0.0
 30
0.0
  3
*MODEL_SPACE
  1

  0
ENDBLK
  5
21
330
1F
100
AcDbEntity
  8
0
100
AcDbBlockEnd
  0
BLOCK
  5
1C
330
1B
100
AcDbEntity
 67
     1
  8
0
100
AcDbBlockBegin
  2
*PAPER_SPACE
  1

  0
ENDBLK
  5
1D
330
1B
100
AcDbEntity
 67
     1
  8
0
100
AcDbBlockEnd
  0
ENDSEC
  0
SECTION
  2
ENTITIES
  0
LWPOLYLINE
  5
100
100
AcDbEntity
  8
Layer_1
 62
7
100
AcDbPolyline
 90
1024
 70
1
 10
105.113089
 20
37.706976
 30
0.0
 10
105.496755
 20
40.823541
 30
0.0
 10
105.704288
 20
43.850464
 30
0.0
 10
105.739584
 20
46.789515
 30
0.0
 10
105.606544
 20
49.642421
 30
0.0
 10
105.309066
 20
52.410955
 30
0.0
 10
104.851047
 20
55.096853
 30
0.0
 10
104.236388
 20
57.701867
 30
0.0
 10
103.468987
 20
60.227744
 30
0.0
 10
102.552741
 20
62.676245
 30
0.0
 10
101.491550
 20
65.049120
 30
0.0
 10
100.289313
 20
67.348117
 30
0.0
 10
98.949927
 20
69.574976
 30
0.0
 10
97.477293
 20
71.731467
 30
0.0
 10
95.875307
 20
73.819328
 30
0.0
 10
94.147869
 20
75.840309
 30
0.0
 10
92.298878
 20
77.796160
 30
0.0
 10
90.332231
 20
79.688640
 30
0.0
 10
88.251828
 20
81.519499
 30
0.0
 10
86.061568
 20
83.290475
 30
0.0
 10
83.765348
 20
85.003328
 30
0.0
 10
81.367069
 20
86.659819
 30
0.0
 10
78.870626
 20
88.261675
 30
0.0
 10
76.279921
 20
89.810667
 30
0.0
 10
73.598851
 20
91.308533
 30
0.0
 10
70.831315
 20
92.757024
 30
0.0
 10
67.981212
 20
94.157899
 30
0.0
 10
65.052439
 20
95.512907
 30
0.0
 10
62.048896
 20
96.823797
 30
0.0
 10
58.974482
 20
98.092309
 30
0.0
 10
55.833094
 20
99.320213
 30
0.0
 10
52.628633
 20
100.509248
 30
0.0
 10
49.364995
 20
101.661163
 30
0.0
 10
49.720943
 20
103.088917
 30
0.0
 10
50.076891
 20
104.516683
 30
0.0
 10
50.432838
 20
105.944448
 30
0.0
 10
50.788786
 20
107.372203
 30
0.0
 10
51.144734
 20
108.799957
 30
0.0
 10
51.500682
 20
110.227723
 30
0.0
 10
51.856629
 20
111.655477
 30
0.0
 10
52.212577
 20
113.083243
 30
0.0
 10
52.568524
 20
114.510997
 30
0.0
 10
52.924471
 20
115.938763
 30
0.0
 10
53.280419
 20
117.366517
 30
0.0
 10
53.636367
 20
118.794283
 30
0.0
 10
53.992315
 20
120.222037
 30
0.0
 10
54.348262
 20
121.649803
 30
0.0
 10
54.704210
 20
123.077557
 30
0.0
 10
55.060158
 20
124.505323
 30
0.0
 10
55.416106
 20
125.933077
 30
0.0
 10
55.772053
 20
127.360843
 30
0.0
 10
56.128001
 20
128.788597
 30
0.0
 10
56.483949
 20
130.216363
 30
0.0
 10
56.839897
 20
131.644117
 30
0.0
 10
57.195844
 20
133.071883
 30
0.0
 10
57.551792
 20
134.499648
 30
0.0
 10
57.907739
 20
135.927403
 30
0.0
 10
58.263686
 20
137.355157
 30
0.0
 10
58.619634
 20
138.782923
 30
0.0
 10
58.975582
 20
140.210677
 30
0.0
 10
59.331530
 20
141.638443
 30
0.0
 10
59.687477
 20
143.066197
 30
0.0
 10
60.043425
 20
144.493963
 30
0.0
 10
60.399373
 20
145.921717
 30
0.0
 10
60.755321
 20
147.349483
 30
0.0
 10
59.886240
 20
147.566069
 30
0.0
 10
59.017159
 20
147.782667
 30
0.0
 10
58.148080
 20
147.999253
 30
0.0
 10
57.278999
 20
148.215840
 30
0.0
 10
56.409919
 20
148.432437
 30
0.0
 10
55.540838
 20
148.649024
 30
0.0
 10
54.671758
 20
148.865621
 30
0.0
 10
53.802677
 20
149.082208
 30
0.0
 10
52.933598
 20
149.298795
 30
0.0
 10
52.064517
 20
149.515392
 30
0.0
 10
51.195437
 20
149.731979
 30
0.0
 10
50.326356
 20
149.948565
 30
0.0
 10
49.457276
 20
150.165163
 30
0.0
 10
48.588196
 20
150.381749
 30
0.0
 10
47.719116
 20
150.598347
 30
0.0
 10
46.850035
 20
150.814933
 30
0.0
 10
45.980955
 20
151.031520
 30
0.0
 10
45.111874
 20
151.248117
 30
0.0
 10
44.242795
 20
151.464704
 30
0.0
 10
43.373714
 20
151.681291
 30
0.0
 10
42.504634
 20
151.897888
 30
0.0
 10
41.635553
 20
152.114475
 30
0.0
 10
40.766473
 20
152.331072
 30
0.0
 10
39.897392
 20
152.547659
 30
0.0
 10
39.028313
 20
152.764245
 30
0.0
 10
38.159232
 20
152.980843
 30
0.0
 10
37.290151
 20
153.197429
 30
0.0
 10
36.421071
 20
153.414016
 30
0.0
 10
35.551990
 20
153.630613
 30
0.0
 10
34.682911
 20
153.847200
 30
0.0
 10
33.813830
 20
154.063797
 30
0.0
 10
32.944750
 20
154.280384
 30
0.0
 10
32.598204
 20
152.890251
 30
0.0
 10
32.251658
 20
151.500107
 30
0.0
 10
31.905110
 20
150.109973
 30
0.0
 10
31.558564
 20
148.719840
 30
0.0
 10
31.212018
 20
147.329707
 30
0.0
 10
30.865472
 20
145.939563
 30
0.0
 10
30.518926
 20
144.549429
 30
0.0
 10
30.172379
 20
143.159296
 30
0.0
 10
29.825833
 20
141.769152
 30
0.0
 10
29.479286
 20
140.379019
 30
0.0
 10
29.132740
 20
138.988885
 30
0.0
 10
28.786194
 20
137.598752
 30
0.0
 10
28.439648
 20
136.208608
 30
0.0
 10
28.093101
 20
134.818475
 30
0.0
 10
27.746555
 20
133.428341
 30
0.0
 10
27.400009
 20
132.038197
 30
0.0
 10
27.053462
 20
130.648064
 30
0.0
 10
26.706916
 20
129.257931
 30
0.0
 10
26.360369
 20
127.867797
 30
0.0
 10
26.013823
 20
126.477653
 30
0.0
 10
25.667277
 20
125.087520
 30
0.0
 10
25.320731
 20
123.697387
 30
0.0
 10
24.974185
 20
122.307253
 30
0.0
 10
24.627637
 20
120.917109
 30
0.0
 10
24.281091
 20
119.526976
 30
0.0
 10
23.934545
 20
118.136843
 30
0.0
 10
23.587999
 20
116.746699
 30
0.0
 10
23.241453
 20
115.356565
 30
0.0
 10
22.894907
 20
113.966432
 30
0.0
 10
22.548359
 20
112.576299
 30
0.0
 10
22.201813
 20
111.186155
 30
0.0
 10
21.855267
 20
109.796021
 30
0.0
 10
21.169279
 20
109.966507
 30
0.0
 10
20.482177
 20
110.136405
 30
0.0
 10
19.794005
 20
110.305739
 30
0.0
 10
19.104809
 20
110.474517
 30
0.0
 10
18.414634
 20
110.642752
 30
0.0
 10
17.723522
 20
110.810475
 30
0.0
 10
17.031522
 20
110.977685
 30
0.0
 10
16.338676
 20
111.144395
 30
0.0
 10
15.645031
 20
111.310645
 30
0.0
 10
14.950630
 20
111.476427
 30
0.0
 10
14.255519
 20
111.641771
 30
0.0
 10
13.559743
 20
111.806677
 30
0.0
 10
12.863345
 20
111.971179
 30
0.0
 10
12.166372
 20
112.135285
 30
0.0
 10
11.468869
 20
112.299019
 30
0.0
 10
10.770879
 20
112.462379
 30
0.0
 10
10.072448
 20
112.625397
 30
0.0
 10
9.373621
 20
112.788085
 30
0.0
 10
8.674443
 20
112.950453
 30
0.0
 10
7.974958
 20
113.112512
 30
0.0
 10
7.275212
 20
113.274304
 30
0.0
 10
6.575249
 20
113.435819
 30
0.0
 10
5.875114
 20
113.597077
 30
0.0
 10
5.174852
 20
113.758112
 30
0.0
 10
4.474508
 20
113.918912
 30
0.0
 10
3.774127
 20
114.079520
 30
0.0
 10
3.073753
 20
114.239925
 30
0.0
 10
2.373432
 20
114.400171
 30
0.0
 10
1.673209
 20
114.560256
 30
0.0
 10
0.973127
 20
114.720192
 30
0.0
 10
0.273233
 20
114.880011
 30
0.0
 10
-0.426429
 20
115.039723
 30
0.0
 10
-0.077412
 20
116.439019
 30
0.0
 10
0.271604
 20
117.838315
 30
0.0
 10
0.620620
 20
119.237611
 30
0.0
 10
0.969637
 20
120.636896
 30
0.0
 10
1.318653
 20
122.036192
 30
0.0
 10
1.667669
 20
123.435488
 30
0.0
 10
2.016686
 20
124.834784
 30
0.0
 10
2.365702
 20
126.234080
 30
0.0
 10
2.714718
 20
127.633376
 30
0.0
 10
3.063735
 20
129.032661
 30
0.0
 10
3.412751
 20
130.431957
 30
0.0
 10
3.761767
 20
131.831253
 30
0.0
 10
4.110784
 20
133.230549
 30
0.0
 10
4.459800
 20
134.629845
 30
0.0
 10
4.808816
 20
136.029141
 30
0.0
 10
5.157833
 20
137.428427
 30
0.0
 10
5.506849
 20
138.827723
 30
0.0
 10
5.855865
 20
140.227019
 30
0.0
 10
6.204882
 20
141.626315
 30
0.0
 10
6.553898
 20
143.025611
 30
0.0
 10
6.902914
 20
144.424907
 30
0.0
 10
7.251931
 20
145.824203
 30
0.0
 10
7.600947
 20
147.223488
 30
0.0
 10
7.949963
 20
148.622784
 30
0.0
 10
8.298980
 20
150.022080
 30
0.0
 10
8.647996
 20
151.421376
 30
0.0
 10
8.997012
 20
152.820672
 30
0.0
 10
9.346029
 20
154.219968
 30
0.0
 10
9.695045
 20
155.619253
 30
0.0
 10
10.044061
 20
157.018549
 30
0.0
 10
10.393078
 20
158.417845
 30
0.0
 10
10.742094
 20
159.817141
 30
0.0
 10
9.873510
 20
160.033728
 30
0.0
 10
9.004926
 20
160.250325
 30
0.0
 10
8.136342
 20
160.466912
 30
0.0
 10
7.267758
 20
160.683499
 30
0.0
 10
6.399174
 20
160.900096
 30
0.0
 10
5.530590
 20
161.116683
 30
0.0
 10
4.662006
 20
161.333269
 30
0.0
 10
3.793422
 20
161.549867
 30
0.0
 10
2.924838
 20
161.766453
 30
0.0
 10
2.056254
 20
161.983040
 30
0.0
 10
1.187670
 20
162.199637
 30
0.0
 10
0.319086
 20
162.416224
 30
0.0
 10
-0.549498
 20
162.632811
 30
0.0
 10
-1.418082
 20
162.849408
 30
0.0
 10
-2.286666
 20
163.065995
 30
0.0
 10
-3.155250
 20
163.282581
 30
0.0
 10
-4.023834
 20
163.499179
 30
0.0
 10
-4.892418
 20
163.715765
 30
0.0
 10
-5.761002
 20
163.932363
 30
0.0
 10
-6.629586
 20
164.148949
 30
0.0
 10
-7.498170
 20
164.365536
 30
0.0
 10
-8.366754
 20
164.582133
 30
0.0
 10
-9.235338
 20
164.798720
 30
0.0
 10
-10.103922
 20
165.015307
 30
0.0
 10
-10.972507
 20
165.231904
 30
0.0
 10
-11.841090
 20
165.448491
 30
0.0
 10
-12.709675
 20
165.665077
 30
0.0
 10
-13.578258
 20
165.881675
 30
0.0
 10
-14.446843
 20
166.098261
 30
0.0
 10
-15.315426
 20
166.314848
 30
0.0
 10
-16.184011
 20
166.531445
 30
0.0
 10
-17.052594
 20
166.748032
 30
0.0
 10
-17.408797
 20
165.320768
 30
0.0
 10
-17.764999
 20
163.893504
 30
0.0
 10
-18.121202
 20
162.466229
 30
0.0
 10
-18.477405
 20
161.038965
 30
0.0
 10
-18.833607
 20
159.611701
 30
0.0
 10
-19.189810
 20
158.184437
 30
0.0
 10
-19.546013
 20
156.757173
 30
0.0
 10
-19.902215
 20
155.329899
 30
0.0
 10
-20.258418
 20
153.902635
 30
0.0
 10
-20.614621
 20
152.475371
 30
0.0
 10
-20.970823
 20
151.048107
 30
0.0
 10
-21.327026
 20
149.620843
 30
0.0
 10
-21.683229
 20
148.193579
 30
0.0
 10
-22.039431
 20
146.766304
 30
0.0
 10
-22.395634
 20
145.339040
 30
0.0
 10
-22.751837
 20
143.911776
 30
0.0
 10
-23.108039
 20
142.484512
 30
0.0
 10
-23.464242
 20
141.057248
 30
0.0
 10
-23.820445
 20
139.629973
 30
0.0
 10
-24.176647
 20
138.202709
 30
0.0
 10
-24.532850
 20
136.775445
 30
0.0
 10
-24.889053
 20
135.348181
 30
0.0
 10
-25.245255
 20
133.920917
 30
0.0
 10
-25.601458
 20
132.493643
 30
0.0
 10
-25.957661
 20
131.066379
 30
0.0
 10
-26.313863
 20
129.639115
 30
0.0
 10
-26.670066
 20
128.211851
 30
0.0
 10
-27.026269
 20
126.784587
 30
0.0
 10
-27.382471
 20
125.357323
 30
0.0
 10
-27.738674
 20
123.930048
 30
0.0
 10
-28.094877
 20
122.502784
 30
0.0
 10
-28.451079
 20
121.075520
 30
0.0
 10
-29.018090
 20
121.204693
 30
0.0
 10
-29.584441
 20
121.333792
 30
0.0
 10
-30.150117
 20
121.462827
 30
0.0
 10
-30.715111
 20
121.591819
 30
0.0
 10
-31.279409
 20
121.720779
 30
0.0
 10
-31.842999
 20
121.849728
 30
0.0
 10
-32.405872
 20
121.978677
 30
0.0
 10
-32.968013
 20
122.107648
 30
0.0
 10
-33.529411
 20
122.236651
 30
0.0
 10
-34.090055
 20
122.365707
 30
0.0
 10
-34.649934
 20
122.494827
 30
0.0
 10
-35.209035
 20
122.624032
 30
0.0
 10
-35.767347
 20
122.753333
 30
0.0
 10
-36.324859
 20
122.882752
 30
0.0
 10
-36.881557
 20
123.012299
 30
0.0
 10
-37.437431
 20
123.141984
 30
0.0
 10
-37.992470
 20
123.271840
 30
0.0
 10
-38.546661
 20
123.401867
 30
0.0
 10
-39.099993
 20
123.532096
 30
0.0
 10
-39.652453
 20
123.662528
 30
0.0
 10
-40.204032
 20
123.793195
 30
0.0
 10
-40.754716
 20
123.924096
 30
0.0
 10
-41.304494
 20
124.055253
 30
0.0
 10
-41.853355
 20
124.186688
 30
0.0
 10
-42.401285
 20
124.318411
 30
0.0
 10
-42.948275
 20
124.450432
 30
0.0
 10
-43.494313
 20
124.582784
 30
0.0
 10
-44.039386
 20
124.715467
 30
0.0
 10
-44.583483
 20
124.848501
 30
0.0
 10
-45.126591
 20
124.981909
 30
0.0
 10
-45.668701
 20
125.115701
 30
0.0
 10
-46.209799
 20
125.249899
 30
0.0
 10
-46.208863
 20
125.254165
 30
0.0
 10
-46.207926
 20
125.258432
 30
0.0
 10
-46.206990
 20
125.262699
 30
0.0
 10
-46.206053
 20
125.266965
 30
0.0
 10
-46.205116
 20
125.271232
 30
0.0
 10
-46.204179
 20
125.275499
 30
0.0
 10
-46.203243
 20
125.279765
 30
0.0
 10
-46.202306
 20
125.284032
 30
0.0
 10
-46.201370
 20
125.288299
 30
0.0
 10
-46.200433
 20
125.292565
 30
0.0
 10
-46.199497
 20
125.296832
 30
0.0
 10
-46.198559
 20
125.301099
 30
0.0
 10
-46.197622
 20
125.305365
 30
0.0
 10
-46.196686
 20
125.309632
 30
0.0
 10
-46.195749
 20
125.313899
 30
0.0
 10
-46.194813
 20
125.318165
 30
0.0
 10
-46.193876
 20
125.322432
 30
0.0
 10
-46.192940
 20
125.326699
 30
0.0
 10
-46.192003
 20
125.330965
 30
0.0
 10
-46.191066
 20
125.335232
 30
0.0
 10
-46.190129
 20
125.339499
 30
0.0
 10
-46.189193
 20
125.343765
 30
0.0
 10
-46.188256
 20
125.348032
 30
0.0
 10
-46.187319
 20
125.352299
 30
0.0
 10
-46.186383
 20
125.356565
 30
0.0
 10
-46.185446
 20
125.360832
 30
0.0
 10
-46.184510
 20
125.365099
 30
0.0
 10
-46.183572
 20
125.369365
 30
0.0
 10
-46.182636
 20
125.373632
 30
0.0
 10
-46.181699
 20
125.377899
 30
0.0
 10
-46.180763
 20
125.382165
 30
0.0
 10
-46.179826
 20
125.386432
 30
0.0
 10
-47.378380
 20
125.685696
 30
0.0
 10
-48.576934
 20
125.984971
 30
0.0
 10
-49.775488
 20
126.284235
 30
0.0
 10
-50.974042
 20
126.583499
 30
0.0
 10
-52.172596
 20
126.882773
 30
0.0
 10
-53.371150
 20
127.182037
 30
0.0
 10
-54.569705
 20
127.481312
 30
0.0
 10
-55.768258
 20
127.780576
 30
0.0
 10
-56.966812
 20
128.079840
 30
0.0
 10
-58.165366
 20
128.379115
 30
0.0
 10
-59.363920
 20
128.678379
 30
0.0
 10
-60.562475
 20
128.977643
 30
0.0
 10
-61.761028
 20
129.276917
 30
0.0
 10
-62.959582
 20
129.576181
 30
0.0
 10
-64.158137
 20
129.875456
 30
0.0
 10
-65.356690
 20
130.174720
 30
0.0
 10
-66.555244
 20
130.473984
 30
0.0
 10
-67.753798
 20
130.773259
 30
0.0
 10
-68.952352
 20
131.072523
 30
0.0
 10
-70.150906
 20
131.371787
 30
0.0
 10
-71.349460
 20
131.671061
 30
0.0
 10
-72.548014
 20
131.970325
 30
0.0
 10
-73.746569
 20
132.269600
 30
0.0
 10
-74.945122
 20
132.568864
 30
0.0
 10
-76.143676
 20
132.868128
 30
0.0
 10
-77.342230
 20
133.167403
 30
0.0
 10
-78.540784
 20
133.466667
 30
0.0
 10
-79.739338
 20
133.765931
 30
0.0
 10
-80.937892
 20
134.065205
 30
0.0
 10
-82.136446
 20
134.364469
 30
0.0
 10
-83.335001
 20
134.663744
 30
0.0
 10
-84.533554
 20
134.963008
 30
0.0
 10
-84.764747
 20
134.034763
 30
0.0
 10
-84.995939
 20
133.106517
 30
0.0
 10
-85.227132
 20
132.178283
 30
0.0
 10
-85.458325
 20
131.250037
 30
0.0
 10
-85.689518
 20
130.321792
 30
0.0
 10
-85.920710
 20
129.393547
 30
0.0
 10
-86.151903
 20
128.465312
 30
0.0
 10
-86.383095
 20
127.537067
 30
0.0
 10
-86.614288
 20
126.608821
 30
0.0
 10
-86.845482
 20
125.680576
 30
0.0
 10
-87.076674
 20
124.752331
 30
0.0
 10
-87.307867
 20
123.824096
 30
0.0
 10
-87.539059
 20
122.895851
 30
0.0
 10
-87.770252
 20
121.967605
 30
0.0
 10
-88.001444
 20
121.039360
 30
0.0
 10
-88.232638
 20
120.111115
 30
0.0
 10
-88.463830
 20
119.182880
 30
0.0
 10
-88.695023
 20
118.254635
 30
0.0
 10
-88.926215
 20
117.326389
 30
0.0
 10
-89.157408
 20
116.398144
 30
0.0
 10
-89.388601
 20
115.469909
 30
0.0
 10
-89.619793
 20
114.541664
 30
0.0
 10
-89.850987
 20
113.613419
 30
0.0
 10
-90.082179
 20
112.685173
 30
0.0
 10
-90.313372
 20
111.756928
 30
0.0
 10
-90.544564
 20
110.828693
 30
0.0
 10
-90.775757
 20
109.900448
 30
0.0
 10
-91.006949
 20
108.972203
 30
0.0
 10
-91.238143
 20
108.043957
 30
0.0
 10
-91.469335
 20
107.115723
 30
0.0
 10
-91.700528
 20
106.187477
 30
0.0
 10
-91.931721
 20
105.259232
 30
0.0
 10
-91.872542
 20
105.245685
 30
0.0
 10
-91.700095
 20
105.206112
 30
0.0
 10
-91.422017
 20
105.142112
 30
0.0
 10
-91.045945
 20
105.055499
 30
0.0
 10
-90.579514
 20
104.947872
 30
0.0
 10
-90.030359
 20
104.820928
 30
0.0
 10
-89.406119
 20
104.676352
 30
0.0
 10
-88.714430
 20
104.515808
 30
0.0
 10
-87.962926
 20
104.340981
 30
0.0
 10
-87.159245
 20
104.153547
 30
0.0
 10
-86.311022
 20
103.955189
 30
0.0
 10
-85.425894
 20
103.747573
 30
0.0
 10
-84.511499
 20
103.532395
 30
0.0
 10
-83.575470
 20
103.311328
 30
0.0
 10
-82.625444
 20
103.086037
 30
0.0
 10
-81.669059
 20
102.858208
 30
0.0
 10
-80.713950
 20
102.629525
 30
0.0
 10
-79.767753
 20
102.401664
 30
0.0
 10
-78.838105
 20
102.176299
 30
0.0
 10
-77.932641
 20
101.955104
 30
0.0
 10
-77.058998
 20
101.739765
 30
0.0
 10
-76.224813
 20
101.531968
 30
0.0
 10
-75.437722
 20
101.333365
 30
0.0
 10
-74.705360
 20
101.145664
 30
0.0
 10
-74.035364
 20
100.970517
 30
0.0
 10
-73.435371
 20
100.809621
 30
0.0
 10
-72.913015
 20
100.664651
 30
0.0
 10
-72.475935
 20
100.537269
 30
0.0
 10
-72.131765
 20
100.429173
 30
0.0
 10
-71.888143
 20
100.342027
 30
0.0
 10
-71.752704
 20
100.277493
 30
0.0
 10
-71.733088
 20
100.237280
 30
0.0
 10
-70.703938
 20
99.960245
 30
0.0
 10
-69.727604
 20
99.657141
 30
0.0
 10
-68.802831
 20
99.329109
 30
0.0
 10
-67.928365
 20
98.977269
 30
0.0
 10
-67.102950
 20
98.602773
 30
0.0
 10
-66.325333
 20
98.206752
 30
0.0
 10
-65.594259
 20
97.790315
 30
0.0
 10
-64.908474
 20
97.354613
 30
0.0
 10
-64.266722
 20
96.900789
 30
0.0
 10
-63.667749
 20
96.429952
 30
0.0
 10
-63.110302
 20
95.943243
 30
0.0
 10
-62.593124
 20
95.441803
 30
0.0
 10
-62.114962
 20
94.926763
 30
0.0
 10
-61.674560
 20
94.399243
 30
0.0
 10
-61.270666
 20
93.860384
 30
0.0
 10
-60.902022
 20
93.311328
 30
0.0
 10
-60.567377
 20
92.753195
 30
0.0
 10
-60.265474
 20
92.187115
 30
0.0
 10
-59.995059
 20
91.614229
 30
0.0
 10
-59.754878
 20
91.035669
 30
0.0
 10
-59.543676
 20
90.452576
 30
0.0
 10
-59.360198
 20
89.866059
 30
0.0
 10
-59.203190
 20
89.277269
 30
0.0
 10
-59.071397
 20
88.687339
 30
0.0
 10
-58.963566
 20
88.097397
 30
0.0
 10
-58.878435
 20
87.508576
 30
0.0
 10
-58.814766
 20
86.922005
 30
0.0
 10
-58.771289
 20
86.338816
 30
0.0
 10
-58.746755
 20
85.760160
 30
0.0
 10
-58.739929
 20
85.187147
 30
0.0
 10
-58.749529
 20
84.620917
 30
0.0
 10
-58.774297
 20
84.062603
 30
0.0
 10
-59.179757
 20
82.436075
 30
0.0
 10
-59.585217
 20
80.809547
 30
0.0
 10
-59.990676
 20
79.183019
 30
0.0
 10
-60.396137
 20
77.556491
 30
0.0
 10
-60.801597
 20
75.929963
 30
0.0
 10
-61.207057
 20
74.303435
 30
0.0
 10
-61.612516
 20
72.676907
 30
0.0
 10
-62.017977
 20
71.050379
 30
0.0
 10
-62.423437
 20
69.423851
 30
0.0
 10
-62.828897
 20
67.797323
 30
0.0
 10
-63.234356
 20
66.170795
 30
0.0
 10
-63.639817
 20
64.544267
 30
0.0
 10
-64.045277
 20
62.917739
 30
0.0
 10
-64.450737
 20
61.291211
 30
0.0
 10
-64.856196
 20
59.664683
 30
0.0
 10
-65.261657
 20
58.038144
 30
0.0
 10
-65.667117
 20
56.411616
 30
0.0
 10
-66.072576
 20
54.785088
 30
0.0
 10
-66.478036
 20
53.158560
 30
0.0
 10
-66.883497
 20
51.532032
 30
0.0
 10
-67.288957
 20
49.905504
 30
0.0
 10
-67.694417
 20
48.278976
 30
0.0
 10
-68.099876
 20
46.652448
 30
0.0
 10
-68.505337
 20
45.025920
 30
0.0
 10
-68.910797
 20
43.399392
 30
0.0
 10
-69.316257
 20
41.772864
 30
0.0
 10
-69.721716
 20
40.146336
 30
0.0
 10
-70.127177
 20
38.519808
 30
0.0
 10
-70.532637
 20
36.893280
 30
0.0
 10
-70.938096
 20
35.266752
 30
0.0
 10
-71.343556
 20
33.640224
 30
0.0
 10
-71.749017
 20
32.013696
 30
0.0
 10
-72.112197
 20
30.490613
 30
0.0
 10
-72.506068
 20
28.852960
 30
0.0
 10
-72.928894
 20
27.107285
 30
0.0
 10
-73.378939
 20
25.260139
 30
0.0
 10
-73.854465
 20
23.318037
 30
0.0
 10
-74.353740
 20
21.287552
 30
0.0
 10
-74.875025
 20
19.175211
 30
0.0
 10
-75.416586
 20
16.987563
 30
0.0
 10
-75.976686
 20
14.731147
 30
0.0
 10
-76.553590
 20
12.412512
 30
0.0
 10
-77.145563
 20
10.038187
 30
0.0
 10
-77.750867
 20
7.614731
 30
0.0
 10
-78.367767
 20
5.148672
 30
0.0
 10
-78.994529
 20
2.646571
 30
0.0
 10
-79.629415
 20
0.114955
 30
0.0
 10
-80.270690
 20
-2.439627
 30
0.0
 10
-80.916619
 20
-5.010635
 30
0.0
 10
-81.565463
 20
-7.591520
 30
0.0
 10
-82.215491
 20
-10.175733
 30
0.0
 10
-82.864963
 20
-12.756757
 30
0.0
 10
-83.512146
 20
-15.328021
 30
0.0
 10
-84.155302
 20
-17.883008
 30
0.0
 10
-84.792697
 20
-20.415147
 30
0.0
 10
-85.422594
 20
-22.917920
 30
0.0
 10
-86.043258
 20
-25.384768
 30
0.0
 10
-86.652951
 20
-27.809152
 30
0.0
 10
-87.249941
 20
-30.184533
 30
0.0
 10
-87.832490
 20
-32.504363
 30
0.0
 10
-88.398862
 20
-34.762101
 30
0.0
 10
-88.947322
 20
-36.951211
 30
0.0
 10
-89.476132
 20
-39.065141
 30
0.0
 10
-89.983559
 20
-41.097355
 30
0.0
 10
-90.118933
 20
-41.422901
 30
0.0
 10
-90.267129
 20
-41.756864
 30
0.0
 10
-90.428557
 20
-42.097632
 30
0.0
 10
-90.603633
 20
-42.443595
 30
0.0
 10
-90.792771
 20
-42.793141
 30
0.0
 10
-90.996386
 20
-43.144661
 30
0.0
 10
-91.214892
 20
-43.496544
 30
0.0
 10
-91.448702
 20
-43.847189
 30
0.0
 10
-91.698231
 20
-44.194976
 30
0.0
 10
-91.963893
 20
-44.538293
 30
0.0
 10
-92.246102
 20
-44.875552
 30
0.0
 10
-92.545273
 20
-45.205109
 30
0.0
 10
-92.861819
 20
-45.525387
 30
0.0
 10
-93.196154
 20
-45.834752
 30
0.0
 10
-93.548692
 20
-46.131605
 30
0.0
 10
-93.919850
 20
-46.414336
 30
0.0
 10
-94.310038
 20
-46.681323
 30
0.0
 10
-94.719673
 20
-46.930976
 30
0.0
 10
-95.149168
 20
-47.161675
 30
0.0
 10
-95.598938
 20
-47.371819
 30
0.0
 10
-96.069395
 20
-47.559776
 30
0.0
 10
-96.560956
 20
-47.723957
 30
0.0
 10
-97.074033
 20
-47.862741
 30
0.0
 10
-97.609041
 20
-47.974528
 30
0.0
 10
-98.166395
 20
-48.057728
 30
0.0
 10
-98.746507
 20
-48.110635
 30
0.0
 10
-99.349793
 20
-48.131755
 30
0.0
 10
-99.976666
 20
-48.119381
 30
0.0
 10
-100.627541
 20
-48.072021
 30
0.0
 10
-101.302832
 20
-47.987968
 30
0.0
 10
-102.002953
 20
-47.865653
 30
0.0
 10
-102.728317
 20
-47.703456
 30
0.0
 10
-102.762621
 20
-47.724576
 30
0.0
 10
-102.910970
 20
-47.713483
 30
0.0
 10
-103.165815
 20
-47.672203
 30
0.0
 10
-103.519610
 20
-47.602763
 30
0.0
 10
-103.964800
 20
-47.507296
 30
0.0
 10
-104.493836
 20
-47.387925
 30
0.0
 10
-105.099168
 20
-47.246667
 30
0.0
 10
-105.773244
 20
-47.085600
 30
0.0
 10
-106.508514
 20
-46.906784
 30
0.0
 10
-107.297429
 20
-46.712299
 30
0.0
 10
-108.132437
 20
-46.504213
 30
0.0
 10
-109.005984
 20
-46.284587
 30
0.0
 10
-109.910528
 20
-46.055509
 30
0.0
 10
-110.838507
 20
-45.819029
 30
0.0
 10
-111.782379
 20
-45.577227
 30
0.0
 10
-112.734581
 20
-45.332171
 30
0.0
 10
-113.687584
 20
-45.085931
 30
0.0
 10
-114.633824
 20
-44.840576
 30
0.0
 10
-115.565749
 20
-44.598187
 30
0.0
 10
-116.475808
 20
-44.360811
 30
0.0
 10
-117.356459
 20
-44.130539
 30
0.0
 10
-118.200139
 20
-43.909419
 30
0.0
 10
-118.999307
 20
-43.699541
 30
0.0
 10
-119.746411
 20
-43.502976
 30
0.0
 10
-120.433899
 20
-43.321771
 30
0.0
 10
-121.054219
 20
-43.158016
 30
0.0
 10
-121.599819
 20
-43.013781
 30
0.0
 10
-122.063147
 20
-42.891125
 30
0.0
 10
-122.436661
 20
-42.792139
 30
0.0
 10
-122.712811
 20
-42.718859
 30
0.0
 10
-122.884032
 20
-42.673419
 30
0.0
 10
-122.942805
 20
-42.657845
 30
0.0
 10
-123.374251
 20
-43.652672
 30
0.0
 10
-123.805707
 20
-44.647509
 30
0.0
 10
-124.237152
 20
-45.642336
 30
0.0
 10
-124.668608
 20
-46.637173
 30
0.0
 10
-125.100053
 20
-47.632000
 30
0.0
 10
-125.531499
 20
-48.626827
 30
0.0
 10
-125.962955
 20
-49.621664
 30
0.0
 10
-126.394400
 20
-50.616491
 30
0.0
 10
-126.825845
 20
-51.611317
 30
0.0
 10
-127.257301
 20
-52.606155
 30
0.0
 10
-127.688747
 20
-53.600981
 30
0.0
 10
-128.120203
 20
-54.595819
 30
0.0
 10
-128.551648
 20
-55.590645
 30
0.0
 10
-128.983093
 20
-56.585472
 30
0.0
 10
-129.414549
 20
-57.580309
 30
0.0
 10
-129.845995
 20
-58.575136
 30
0.0
 10
-130.277440
 20
-59.569963
 30
0.0
 10
-130.708896
 20
-60.564800
 30
0.0
 10
-131.140341
 20
-61.559627
 30
0.0
 10
-131.571797
 20
-62.554464
 30
0.0
 10
-132.003243
 20
-63.549291
 30
0.0
 10
-132.434688
 20
-64.544117
 30
0.0
 10
-132.866144
 20
-65.538955
 30
0.0
 10
-133.297589
 20
-66.533781
 30
0.0
 10
-133.729035
 20
-67.528608
 30
0.0
 10
-134.160491
 20
-68.523445
 30
0.0
 10
-134.591936
 20
-69.518272
 30
0.0
 10
-135.023392
 20
-70.513109
 30
0.0
 10
-135.454837
 20
-71.507936
 30
0.0
 10
-135.886283
 20
-72.502763
 30
0.0
 10
-136.317739
 20
-73.497600
 30
0.0
 10
-136.749184
 20
-74.492427
 30
0.0
 10
-135.618219
 20
-74.774368
 30
0.0
 10
-134.487243
 20
-75.056299
 30
0.0
 10
-133.356277
 20
-75.338240
 30
0.0
 10
-132.225301
 20
-75.620181
 30
0.0
 10
-131.094336
 20
-75.902112
 30
0.0
 10
-129.963371
 20
-76.184053
 30
0.0
 10
-128.832395
 20
-76.465995
 30
0.0
 10
-127.701429
 20
-76.747936
 30
0.0
 10
-126.570453
 20
-77.029867
 30
0.0
 10
-125.439488
 20
-77.311808
 30
0.0
 10
-124.308512
 20
-77.593749
 30
0.0
 10
-123.177547
 20
-77.875680
 30
0.0
 10
-122.046581
 20
-78.157621
 30
0.0
 10
-120.915605
 20
-78.439563
 30
0.0
 10
-119.784640
 20
-78.721493
 30
0.0
 10
-118.653664
 20
-79.003435
 30
0.0
 10
-117.522699
 20
-79.285376
 30
0.0
 10
-116.391733
 20
-79.567307
 30
0.0
 10
-115.260757
 20
-79.849248
 30
0.0
 10
-114.129792
 20
-80.131189
 30
0.0
 10
-112.998816
 20
-80.413120
 30
0.0
 10
-111.867851
 20
-80.695061
 30
0.0
 10
-110.736885
 20
-80.977003
 30
0.0
 10
-109.605909
 20
-81.258944
 30
0.0
 10
-108.474944
 20
-81.540875
 30
0.0
 10
-107.343968
 20
-81.822816
 30
0.0
 10
-106.213002
 20
-82.104757
 30
0.0
 10
-105.082032
 20
-82.386688
 30
0.0
 10
-103.951062
 20
-82.668629
 30
0.0
 10
-102.820093
 20
-82.950571
 30
0.0
 10
-101.689123
 20
-83.232501
 30
0.0
 10
-100.558154
 20
-83.514443
 30
0.0
 10
-99.927330
 20
-83.672843
 30
0.0
 10
-99.297291
 20
-83.831680
 30
0.0
 10
-98.668029
 20
-83.990912
 30
0.0
 10
-98.039539
 20
-84.150507
 30
0.0
 10
-97.411815
 20
-84.310432
 30
0.0
 10
-96.784851
 20
-84.470645
 30
0.0
 10
-96.158643
 20
-84.631125
 30
0.0
 10
-95.533183
 20
-84.791840
 30
0.0
 10
-94.908467
 20
-84.952757
 30
0.0
 10
-94.284489
 20
-85.113824
 30
0.0
 10
-93.661242
 20
-85.275029
 30
0.0
 10
-93.038721
 20
-85.436331
 30
0.0
 10
-92.416921
 20
-85.597696
 30
0.0
 10
-91.795835
 20
-85.759083
 30
0.0
 10
-91.175458
 20
-85.920480
 30
0.0
 10
-90.555785
 20
-86.081835
 30
0.0
 10
-89.936809
 20
-86.243115
 30
0.0
 10
-89.318524
 20
-86.404299
 30
0.0
 10
-88.700926
 20
-86.565344
 30
0.0
 10
-88.084007
 20
-86.726219
 30
0.0
 10
-87.467763
 20
-86.886891
 30
0.0
 10
-86.852189
 20
-87.047328
 30
0.0
 10
-86.237277
 20
-87.207488
 30
0.0
 10
-85.623023
 20
-87.367360
 30
0.0
 10
-85.009420
 20
-87.526880
 30
0.0
 10
-84.396463
 20
-87.686037
 30
0.0
 10
-83.784146
 20
-87.844800
 30
0.0
 10
-83.172464
 20
-88.003115
 30
0.0
 10
-82.561410
 20
-88.160971
 30
0.0
 10
-81.950980
 20
-88.318315
 30
0.0
 10
-81.341167
 20
-88.475125
 30
0.0
 10
-80.731965
 20
-88.631371
 30
0.0
 10
-81.091627
 20
-90.075467
 30
0.0
 10
-81.451289
 20
-91.519573
 30
0.0
 10
-81.810950
 20
-92.963669
 30
0.0
 10
-82.170612
 20
-94.407765
 30
0.0
 10
-82.530274
 20
-95.851861
 30
0.0
 10
-82.889936
 20
-97.295968
 30
0.0
 10
-83.249598
 20
-98.740064
 30
0.0
 10
-83.609260
 20
-100.184160
 30
0.0
 10
-83.968922
 20
-101.628256
 30
0.0
 10
-84.328583
 20
-103.072363
 30
0.0
 10
-84.688245
 20
-104.516459
 30
0.0
 10
-85.047907
 20
-105.960555
 30
0.0
 10
-85.407569
 20
-107.404651
 30
0.0
 10
-85.767231
 20
-108.848757
 30
0.0
 10
-86.126893
 20
-110.292853
 30
0.0
 10
-86.486555
 20
-111.736949
 30
0.0
 10
-86.846215
 20
-113.181045
 30
0.0
 10
-87.205877
 20
-114.625152
 30
0.0
 10
-87.565539
 20
-116.069248
 30
0.0
 10
-87.925201
 20
-117.513344
 30
0.0
 10
-88.284863
 20
-118.957440
 30
0.0
 10
-88.644525
 20
-120.401547
 30
0.0
 10
-89.004187
 20
-121.845643
 30
0.0
 10
-89.363849
 20
-123.289739
 30
0.0
 10
-89.723510
 20
-124.733835
 30
0.0
 10
-90.083172
 20
-126.177941
 30
0.0
 10
-90.442834
 20
-127.622037
 30
0.0
 10
-90.802496
 20
-129.066133
 30
0.0
 10
-91.162158
 20
-130.510229
 30
0.0
 10
-91.521820
 20
-131.954336
 30
0.0
 10
-91.881482
 20
-133.398432
 30
0.0
 10
-92.241143
 20
-134.842528
 30
0.0
 10
-91.373045
 20
-135.059115
 30
0.0
 10
-90.504946
 20
-135.275712
 30
0.0
 10
-89.636848
 20
-135.492299
 30
0.0
 10
-88.768750
 20
-135.708885
 30
0.0
 10
-87.900651
 20
-135.925472
 30
0.0
 10
-87.032553
 20
-136.142069
 30
0.0
 10
-86.164454
 20
-136.358656
 30
0.0
 10
-85.296355
 20
-136.575243
 30
0.0
 10
-84.428257
 20
-136.791829
 30
0.0
 10
-83.560159
 20
-137.008427
 30
0.0
 10
-82.692060
 20
-137.225013
 30
0.0
 10
-81.823962
 20
-137.441600
 30
0.0
 10
-80.955863
 20
-137.658187
 30
0.0
 10
-80.087764
 20
-137.874784
 30
0.0
 10
-79.219666
 20
-138.091371
 30
0.0
 10
-78.351568
 20
-138.307957
 30
0.0
 10
-77.483469
 20
-138.524544
 30
0.0
 10
-76.615371
 20
-138.741141
 30
0.0
 10
-75.747271
 20
-138.957728
 30
0.0
 10
-74.879173
 20
-139.174315
 30
0.0
 10
-74.011075
 20
-139.390901
 30
0.0
 10
-73.142976
 20
-139.607499
 30
0.0
 10
-72.274878
 20
-139.824085
 30
0.0
 10
-71.406780
 20
-140.040672
 30
0.0
 10
-70.538681
 20
-140.257259
 30
0.0
 10
-69.670582
 20
-140.473856
 30
0.0
 10
-68.802484
 20
-140.690443
 30
0.0
 10
-67.934385
 20
-140.907029
 30
0.0
 10
-67.066287
 20
-141.123616
 30
0.0
 10
-66.198189
 20
-141.340213
 30
0.0
 10
-65.330090
 20
-141.556800
 30
0.0
 10
-64.461991
 20
-141.773387
 30
0.0
 10
-64.105799
 20
-140.344640
 30
0.0
 10
-63.749609
 20
-138.915883
 30
0.0
 10
-63.393417
 20
-137.487136
 30
0.0
 10
-63.037225
 20
-136.058379
 30
0.0
 10
-62.681034
 20
-134.629632
 30
0.0
 10
-62.324842
 20
-133.200875
 30
0.0
 10
-61.968650
 20
-131.772128
 30
0.0
 10
-61.612459
 20
-130.343381
 30
0.0
 10
-61.256267
 20
-128.914624
 30
0.0
 10
-60.900075
 20
-127.485877
 30
0.0
 10
-60.543883
 20
-126.057120
 30
0.0
 10
-60.187692
 20
-124.628373
 30
0.0
 10
-59.831500
 20
-123.199616
 30
0.0
 10
-59.475308
 20
-121.770869
 30
0.0
 10
-59.119117
 20
-120.342112
 30
0.0
 10
-58.762925
 20
-118.913365
 30
0.0
 10
-58.406733
 20
-117.484619
 30
0.0
 10
-58.050542
 20
-116.055861
 30
0.0
 10
-57.694350
 20
-114.627115
 30
0.0
 10
-57.338158
 20
-113.198357
 30
0.0
 10
-56.981967
 20
-111.769611
 30
0.0
 10
-56.625775
 20
-110.340853
 30
0.0
 10
-56.269583
 20
-108.912107
 30
0.0
 10
-55.913392
 20
-107.483360
 30
0.0
 10
-55.557200
 20
-106.054603
 30
0.0
 10
-55.201008
 20
-104.625856
 30
0.0
 10
-54.844816
 20
-103.197099
 30
0.0
 10
-54.488625
 20
-101.768352
 30
0.0
 10
-54.132433
 20
-100.339595
 30
0.0
 10
-53.776241
 20
-98.910848
 30
0.0
 10
-53.420050
 20
-97.482091
 30
0.0
 10
-53.063858
 20
-96.053344
 30
0.0
 10
-52.353101
 20
-96.245952
 30
0.0
 10
-51.643631
 20
-96.437643
 30
0.0
 10
-50.935436
 20
-96.628427
 30
0.0
 10
-50.228505
 20
-96.818304
 30
0.0
 10
-49.522826
 20
-97.007285
 30
0.0
 10
-48.818387
 20
-97.195381
 30
0.0
 10
-48.115178
 20
-97.382613
 30
0.0
 10
-47.413186
 20
-97.568971
 30
0.0
 10
-46.712400
 20
-97.754464
 30
0.0
 10
-46.012809
 20
-97.939115
 30
0.0
 10
-45.314400
 20
-98.122923
 30
0.0
 10
-44.617164
 20
-98.305899
 30
0.0
 10
-43.921087
 20
-98.488053
 30
0.0
 10
-43.226159
 20
-98.669387
 30
0.0
 10
-42.532368
 20
-98.849920
 30
0.0
 10
-41.839702
 20
-99.029653
 30
0.0
 10
-41.148150
 20
-99.208597
 30
0.0
 10
-40.457701
 20
-99.386752
 30
0.0
 10
-39.768342
 20
-99.564149
 30
0.0
 10
-39.080064
 20
-99.740779
 30
0.0
 10
-38.392853
 20
-99.916651
 30
0.0
 10
-37.706699
 20
-100.091776
 30
0.0
 10
-37.021589
 20
-100.266176
 30
0.0
 10
-36.337513
 20
-100.439840
 30
0.0
 10
-35.654459
 20
-100.612779
 30
0.0
 10
-34.972414
 20
-100.785013
 30
0.0
 10
-34.291369
 20
-100.956544
 30
0.0
 10
-33.611311
 20
-101.127381
 30
0.0
 10
-32.932229
 20
-101.297536
 30
0.0
 10
-32.254111
 20
-101.467019
 30
0.0
 10
-31.576946
 20
-101.635829
 30
0.0
 10
-30.900722
 20
-101.803979
 30
0.0
 10
-31.255679
 20
-103.226048
 30
0.0
 10
-31.610635
 20
-104.648117
 30
0.0
 10
-31.965591
 20
-106.070187
 30
0.0
 10
-32.320547
 20
-107.492256
 30
0.0
 10
-32.675504
 20
-108.914325
 30
0.0
 10
-33.030460
 20
-110.336395
 30
0.0
 10
-33.385417
 20
-111.758464
 30
0.0
 10
-33.740373
 20
-113.180533
 30
0.0
 10
-34.095329
 20
-114.602603
 30
0.0
 10
-34.450286
 20
-116.024672
 30
0.0
 10
-34.805242
 20
-117.446741
 30
0.0
 10
-35.160198
 20
-118.868811
 30
0.0
 10
-35.515154
 20
-120.290880
 30
0.0
 10
-35.870111
 20
-121.712949
 30
0.0
 10
-36.225067
 20
-123.135019
 30
0.0
 10
-36.580023
 20
-124.557077
 30
0.0
 10
-36.934980
 20
-125.979147
 30
0.0
 10
-37.289936
 20
-127.401216
 30
0.0
 10
-37.644893
 20
-128.823285
 30
0.0
 10
-37.999849
 20
-130.245355
 30
0.0
 10
-38.354805
 20
-131.667424
 30
0.0
 10
-38.709761
 20
-133.089493
 30
0.0
 10
-39.064718
 20
-134.511563
 30
0.0
 10
-39.419675
 20
-135.933632
 30
0.0
 10
-39.774630
 20
-137.355701
 30
0.0
 10
-40.129587
 20
-138.777771
 30
0.0
 10
-40.484543
 20
-140.199840
 30
0.0
 10
-40.839500
 20
-141.621909
 30
0.0
 10
-41.194455
 20
-143.043979
 30
0.0
 10
-41.549412
 20
-144.466048
 30
0.0
 10
-41.904368
 20
-145.888117
 30
0.0
 10
-42.259325
 20
-147.310187
 30
0.0
 10
-41.390244
 20
-147.526773
 30
0.0
 10
-40.521164
 20
-147.743371
 30
0.0
 10
-39.652084
 20
-147.959957
 30
0.0
 10
-38.783004
 20
-148.176544
 30
0.0
 10
-37.913923
 20
-148.393131
 30
0.0
 10
-37.044843
 20
-148.609717
 30
0.0
 10
-36.175762
 20
-148.826315
 30
0.0
 10
-35.306683
 20
-149.042901
 30
0.0
 10
-34.437602
 20
-149.259488
 30
0.0
 10
-33.568522
 20
-149.476075
 30
0.0
 10
-32.699441
 20
-149.692672
 30
0.0
 10
-31.830361
 20
-149.909259
 30
0.0
 10
-30.961280
 20
-150.125845
 30
0.0
 10
-30.092201
 20
-150.342432
 30
0.0
 10
-29.223120
 20
-150.559029
 30
0.0
 10
-28.354039
 20
-150.775616
 30
0.0
 10
-27.484959
 20
-150.992203
 30
0.0
 10
-26.615878
 20
-151.208789
 30
0.0
 10
-25.746799
 20
-151.425387
 30
0.0
 10
-24.877718
 20
-151.641973
 30
0.0
 10
-24.008638
 20
-151.858560
 30
0.0
 10
-23.139557
 20
-152.075157
 30
0.0
 10
-22.270477
 20
-152.291744
 30
0.0
 10
-21.401397
 20
-152.508331
 30
0.0
 10
-20.532317
 20
-152.724917
 30
0.0
 10
-19.663236
 20
-152.941504
 30
0.0
 10
-18.794156
 20
-153.158101
 30
0.0
 10
-17.925075
 20
-153.374688
 30
0.0
 10
-17.055995
 20
-153.591275
 30
0.0
 10
-16.186915
 20
-153.807872
 30
0.0
 10
-15.317835
 20
-154.024459
 30
0.0
 10
-14.448754
 20
-154.241045
 30
0.0
 10
-14.089092
 20
-152.799669
 30
0.0
 10
-13.729430
 20
-151.358293
 30
0.0
 10
-13.369769
 20
-149.916917
 30
0.0
 10
-13.010106
 20
-148.475541
 30
0.0
 10
-12.650444
 20
-147.034165
 30
0.0
 10
-12.290782
 20
-145.592789
 30
0.0
 10
-11.931120
 20
-144.151413
 30
0.0
 10
-11.571458
 20
-142.710037
 30
0.0
 10
-11.211796
 20
-141.268661
 30
0.0
 10
-10.852134
 20
-139.827285
 30
0.0
 10
-10.492472
 20
-138.385909
 30
0.0
 10
-10.132810
 20
-136.944533
 30
0.0
 10
-9.773148
 20
-135.503157
 30
0.0
 10
-9.413486
 20
-134.061781
 30
0.0
 10
-9.053824
 20
-132.620405
 30
0.0
 10
-8.694162
 20
-131.179029
 30
0.0
 10
-8.334500
 20
-129.737653
 30
0.0
 10
-7.974838
 20
-128.296277
 30
0.0
 10
-7.615176
 20
-126.854901
 30
0.0
 10
-7.255514
 20
-125.413525
 30
0.0
 10
-6.895852
 20
-123.972149
 30
0.0
 10
-6.536190
 20
-122.530773
 30
0.0
 10
-6.176528
 20
-121.089397
 30
0.0
 10
-5.816866
 20
-119.648021
 30
0.0
 10
-5.457204
 20
-118.206645
 30
0.0
 10
-5.097542
 20
-116.765269
 30
0.0
 10
-4.737880
 20
-115.323893
 30
0.0
 10
-4.378218
 20
-113.882517
 30
0.0
 10
-4.018556
 20
-112.441141
 30
0.0
 10
-3.658894
 20
-110.999765
 30
0.0
 10
-3.299232
 20
-109.558389
 30
0.0
 10
-2.939570
 20
-108.117013
 30
0.0
 10
1.471608
 20
-108.920661
 30
0.0
 10
5.812237
 20
-109.645632
 30
0.0
 10
10.080687
 20
-110.287040
 30
0.0
 10
14.275333
 20
-110.839989
 30
0.0
 10
18.394548
 20
-111.299616
 30
0.0
 10
22.436704
 20
-111.661013
 30
0.0
 10
26.400173
 20
-111.919307
 30
0.0
 10
30.283328
 20
-112.069611
 30
0.0
 10
34.084543
 20
-112.107051
 30
0.0
 10
37.802190
 20
-112.026731
 30
0.0
 10
41.434641
 20
-111.823765
 30
0.0
 10
44.980270
 20
-111.493259
 30
0.0
 10
48.437449
 20
-111.030347
 30
0.0
 10
51.804551
 20
-110.430133
 30
0.0
 10
55.079949
 20
-109.687733
 30
0.0
 10
58.262015
 20
-108.798261
 30
0.0
 10
61.349123
 20
-107.756843
 30
0.0
 10
64.339645
 20
-106.558592
 30
0.0
 10
67.231953
 20
-105.198603
 30
0.0
 10
70.024421
 20
-103.672021
 30
0.0
 10
72.715422
 20
-101.973941
 30
0.0
 10
75.303327
 20
-100.099477
 30
0.0
 10
77.786511
 20
-98.043755
 30
0.0
 10
80.163344
 20
-95.801888
 30
0.0
 10
82.432202
 20
-93.368981
 30
0.0
 10
84.591455
 20
-90.740160
 30
0.0
 10
86.639477
 20
-87.910539
 30
0.0
 10
88.574641
 20
-84.875232
 30
0.0
 10
90.395319
 20
-81.629355
 30
0.0
 10
92.099885
 20
-78.168021
 30
0.0
 10
93.686710
 20
-74.486336
 30
0.0
 10
95.154169
 20
-70.579435
 30
0.0
 10
96.215859
 20
-67.384309
 30
0.0
 10
97.134577
 20
-64.273397
 30
0.0
 10
97.912619
 20
-61.245312
 30
0.0
 10
98.552278
 20
-58.298635
 30
0.0
 10
99.055853
 20
-55.431957
 30
0.0
 10
99.425637
 20
-52.643872
 30
0.0
 10
99.663927
 20
-49.932981
 30
0.0
 10
99.773020
 20
-47.297877
 30
0.0
 10
99.755206
 20
-44.737141
 30
0.0
 10
99.612789
 20
-42.249387
 30
0.0
 10
99.348063
 20
-39.833184
 30
0.0
 10
98.963322
 20
-37.487136
 30
0.0
 10
98.460861
 20
-35.209835
 30
0.0
 10
97.842976
 20
-32.999872
 30
0.0
 10
97.111965
 20
-30.855851
 30
0.0
 10
96.270122
 20
-28.776352
 30
0.0
 10
95.319743
 20
-26.759979
 30
0.0
 10
94.263124
 20
-24.805312
 30
0.0
 10
93.102561
 20
-22.910955
 30
0.0
 10
91.840349
 20
-21.075499
 30
0.0
 10
90.478785
 20
-19.297536
 30
0.0
 10
89.020163
 20
-17.575648
 30
0.0
 10
87.466782
 20
-15.908448
 30
0.0
 10
85.820934
 20
-14.294528
 30
0.0
 10
84.084917
 20
-12.732459
 30
0.0
 10
82.261027
 20
-11.220864
 30
0.0
 10
80.351559
 20
-9.758304
 30
0.0
 10
78.358810
 20
-8.343403
 30
0.0
 10
76.285073
 20
-6.974731
 30
0.0
 10
74.132646
 20
-5.650891
 30
0.0
 10
71.903825
 20
-4.370475
 30
0.0
 10
69.600906
 20
-3.132075
 30
0.0
 10
71.291125
 20
-2.716352
 30
0.0
 10
72.954058
 20
-2.254240
 30
0.0
 10
74.588688
 20
-1.744811
 30
0.0
 10
76.193997
 20
-1.187168
 30
0.0
 10
77.768970
 20
-0.580405
 30
0.0
 10
79.312589
 20
0.076405
 30
0.0
 10
80.823838
 20
0.784160
 30
0.0
 10
82.301700
 20
1.543776
 30
0.0
 10
83.745158
 20
2.356160
 30
0.0
 10
85.153196
 20
3.222229
 30
0.0
 10
86.524797
 20
4.142891
 30
0.0
 10
87.858944
 20
5.119061
 30
0.0
 10
89.154621
 20
6.151637
 30
0.0
 10
90.410811
 20
7.241547
 30
0.0
 10
91.626496
 20
8.389685
 30
0.0
 10
92.800660
 20
9.596971
 30
0.0
 10
93.932288
 20
10.864320
 30
0.0
 10
95.020362
 20
12.192629
 30
0.0
 10
96.063865
 20
13.582816
 30
0.0
 10
97.061779
 20
15.035797
 30
0.0
 10
98.013090
 20
16.552480
 30
0.0
 10
98.916781
 20
18.133781
 30
0.0
 10
99.771834
 20
19.780597
 30
0.0
 10
100.577231
 20
21.493845
 30
0.0
 10
101.331958
 20
23.274432
 30
0.0
 10
102.034997
 20
25.123285
 30
0.0
 10
102.685332
 20
27.041291
 30
0.0
 10
103.281947
 20
29.029387
 30
0.0
 10
103.823822
 20
31.088459
 30
0.0
 10
104.309943
 20
33.219435
 30
0.0
 10
104.739294
 20
35.423211
 30
0.0
 10
105.110855
 20
37.700715
 30
0.0
 10
105.110923
 20
37.700683
 30
0.0
 10
105.110991
 20
37.700651
 30
0.0
 10
105.111058
 20
37.700619
 30
0.0
 10
105.111126
 20
37.700587
 30
0.0
 10
105.111194
 20
37.700555
 30
0.0
 10
105.111262
 20
37.700523
 30
0.0
 10
105.111329
 20
37.700491
 30
0.0
 10
105.111397
 20
37.700459
 30
0.0
 10
105.111465
 20
37.700427
 30
0.0
 10
105.111532
 20
37.700395
 30
0.0
 10
105.111600
 20
37.700363
 30
0.0
 10
105.111667
 20
37.700331
 30
0.0
 10
105.111735
 20
37.700299
 30
0.0
 10
105.111803
 20
37.700267
 30
0.0
 10
105.111871
 20
37.700235
 30
0.0
 10
105.111938
 20
37.700203
 30
0.0
 10
105.112005
 20
37.700181
 30
0.0
 10
105.112074
 20
37.700149
 30
0.0
 10
105.112141
 20
37.700117
 30
0.0
 10
105.112209
 20
37.700085
 30
0.0
 10
105.112276
 20
37.700053
 30
0.0
 10
105.112345
 20
37.700021
 30
0.0
 10
105.112412
 20
37.699989
 30
0.0
 10
105.112479
 20
37.699957
 30
0.0
 10
105.112547
 20
37.699925
 30
0.0
 10
105.112614
 20
37.699893
 30
0.0
 10
105.112683
 20
37.699861
 30
0.0
 10
105.112750
 20
37.699829
 30
0.0
 10
105.112818
 20
37.699797
 30
0.0
 10
105.112885
 20
37.699765
 30
0.0
 10
105.112954
 20
37.699733
 30
0.0
  0
LWPOLYLINE
  5
101
100
AcDbEntity
  8
Layer_1
 62
7
100
AcDbPolyline
 90
96
 70
1
 10
41.570702
 20
-51.396416
 30
0.0
 10
40.622531
 20
-54.480299
 30
0.0
 10
39.400274
 20
-57.264736
 30
0.0
 10
37.920198
 20
-59.762037
 30
0.0
 10
36.198575
 20
-61.984491
 30
0.0
 10
34.251670
 20
-63.944416
 30
0.0
 10
32.095756
 20
-65.654101
 30
0.0
 10
29.747099
 20
-67.125856
 30
0.0
 10
27.221968
 20
-68.371989
 30
0.0
 10
24.536634
 20
-69.404800
 30
0.0
 10
21.707364
 20
-70.236597
 30
0.0
 10
18.750429
 20
-70.879669
 30
0.0
 10
15.682097
 20
-71.346336
 30
0.0
 10
12.518636
 20
-71.648896
 30
0.0
 10
9.276316
 20
-71.799659
 30
0.0
 10
5.971406
 20
-71.810859
 30
0.0
 10
2.620175
 20
-71.694923
 30
0.0
 10
-0.761108
 20
-71.464085
 30
0.0
 10
-4.156175
 20
-71.130656
 30
0.0
 10
-7.548756
 20
-70.706955
 30
0.0
 10
-10.922581
 20
-70.205259
 30
0.0
 10
-14.261385
 20
-69.637888
 30
0.0
 10
-17.548894
 20
-69.017141
 30
0.0
 10
-20.768843
 20
-68.355328
 30
0.0
 10
-23.904960
 20
-67.664736
 30
0.0
 10
-26.940977
 20
-66.957685
 30
0.0
 10
-29.860627
 20
-66.246475
 30
0.0
 10
-32.647638
 20
-65.543413
 30
0.0
 10
-35.285744
 20
-64.860789
 30
0.0
 10
-37.758673
 20
-64.210912
 30
0.0
 10
-40.050159
 20
-63.606091
 30
0.0
 10
-42.143931
 20
-63.058635
 30
0.0
 10
-44.023719
 20
-62.580832
 30
0.0
 10
-43.546476
 20
-60.667659
 30
0.0
 10
-43.069232
 20
-58.754496
 30
0.0
 10
-42.591988
 20
-56.841323
 30
0.0
 10
-42.114745
 20
-54.928149
 30
0.0
 10
-41.637501
 20
-53.014976
 30
0.0
 10
-41.160257
 20
-51.101813
 30
0.0
 10
-40.683013
 20
-49.188640
 30
0.0
 10
-40.205770
 20
-47.275467
 30
0.0
 10
-39.728527
 20
-45.362304
 30
0.0
 10
-39.251283
 20
-43.449131
 30
0.0
 10
-38.774039
 20
-41.535957
 30
0.0
 10
-38.296796
 20
-39.622784
 30
0.0
 10
-37.819552
 20
-37.709621
 30
0.0
 10
-37.342308
 20
-35.796448
 30
0.0
 10
-36.865065
 20
-33.883275
 30
0.0
 10
-36.387821
 20
-31.970112
 30
0.0
 10
-35.910577
 20
-30.056939
 30
0.0
 10
-35.433333
 20
-28.143765
 30
0.0
 10
-34.956090
 20
-26.230592
 30
0.0
 10
-34.478846
 20
-24.317429
 30
0.0
 10
-34.001602
 20
-22.404256
 30
0.0
 10
-33.524358
 20
-20.491083
 30
0.0
 10
-33.047115
 20
-18.577909
 30
0.0
 10
-32.569872
 20
-16.664747
 30
0.0
 10
-32.092628
 20
-14.751573
 30
0.0
 10
-31.615385
 20
-12.838400
 30
0.0
 10
-31.138141
 20
-10.925237
 30
0.0
 10
-30.660897
 20
-9.012064
 30
0.0
 10
-30.183653
 20
-7.098891
 30
0.0
 10
-29.706410
 20
-5.185717
 30
0.0
 10
-29.229166
 20
-3.272555
 30
0.0
 10
-28.751922
 20
-1.359381
 30
0.0
 10
-26.866058
 20
-1.814667
 30
0.0
 10
-24.756768
 20
-2.301003
 30
0.0
 10
-22.444384
 20
-2.822443
 30
0.0
 10
-19.949238
 20
-3.383029
 30
0.0
 10
-17.291662
 20
-3.986805
 30
0.0
 10
-14.491985
 20
-4.637824
 30
0.0
 10
-11.570542
 20
-5.340117
 30
0.0
 10
-8.547661
 20
-6.097749
 30
0.0
 10
-5.443675
 20
-6.914741
 30
0.0
 10
-2.278916
 20
-7.795168
 30
0.0
 10
0.926285
 20
-8.743040
 30
0.0
 10
4.151598
 20
-9.762432
 30
0.0
 10
7.376689
 20
-10.857376
 30
0.0
 10
10.581229
 20
-12.031915
 30
0.0
 10
13.744885
 20
-13.290091
 30
0.0
 10
16.847326
 20
-14.635968
 30
0.0
 10
19.868221
 20
-16.073568
 30
0.0
 10
22.787237
 20
-17.606955
 30
0.0
 10
25.584045
 20
-19.240160
 30
0.0
 10
28.238313
 20
-20.977237
 30
0.0
 10
30.729707
 20
-22.822229
 30
0.0
 10
33.037899
 20
-24.779179
 30
0.0
 10
35.142555
 20
-26.852128
 30
0.0
 10
37.023345
 20
-29.045131
 30
0.0
 10
38.659937
 20
-31.362229
 30
0.0
 10
40.032000
 20
-33.807467
 30
0.0
 10
41.119202
 20
-36.384896
 30
0.0
 10
41.901212
 20
-39.098549
 30
0.0
 10
42.357698
 20
-41.952480
 30
0.0
 10
42.468330
 20
-44.950720
 30
0.0
 10
42.212774
 20
-48.097333
 30
0.0
  0
LWPOLYLINE
  5
102
100
AcDbEntity
  8
Layer_1
 62
7
100
AcDbPolyline
 90
96
 70
1
 10
50.172963
 20
38.206005
 30
0.0
 10
49.321212
 20
35.397856
 30
0.0
 10
48.245244
 20
32.856416
 30
0.0
 10
46.958473
 20
30.570816
 30
0.0
 10
45.474311
 20
28.530155
 30
0.0
 10
43.806174
 20
26.723563
 30
0.0
 10
41.967472
 20
25.140160
 30
0.0
 10
39.971620
 20
23.769067
 30
0.0
 10
37.832030
 20
22.599392
 30
0.0
 10
35.562114
 20
21.620267
 30
0.0
 10
33.175286
 20
20.820800
 30
0.0
 10
30.684960
 20
20.190123
 30
0.0
 10
28.104548
 20
19.717344
 30
0.0
 10
25.447463
 20
19.391595
 30
0.0
 10
22.727118
 20
19.201984
 30
0.0
 10
19.956927
 20
19.137664
 30
0.0
 10
17.150301
 20
19.187691
 30
0.0
 10
14.320654
 20
19.341216
 30
0.0
 10
11.481399
 20
19.587360
 30
0.0
 10
8.645950
 20
19.915243
 30
0.0
 10
5.827718
 20
20.313984
 30
0.0
 10
3.040118
 20
20.772704
 30
0.0
 10
0.296562
 20
21.280512
 30
0.0
 10
-2.389537
 20
21.826539
 30
0.0
 10
-5.004766
 20
22.399904
 30
0.0
 10
-7.535712
 20
22.989717
 30
0.0
 10
-9.968962
 20
23.585099
 30
0.0
 10
-12.291103
 20
24.175179
 30
0.0
 10
-14.488721
 20
24.749077
 30
0.0
 10
-16.548404
 20
25.295893
 30
0.0
 10
-18.456740
 20
25.804768
 30
0.0
 10
-20.200314
 20
26.264800
 30
0.0
 10
-21.765714
 20
26.665131
 30
0.0
 10
-21.333030
 20
28.400331
 30
0.0
 10
-20.900346
 20
30.135520
 30
0.0
 10
-20.467662
 20
31.870709
 30
0.0
 10
-20.034978
 20
33.605909
 30
0.0
 10
-19.602294
 20
35.341099
 30
0.0
 10
-19.169610
 20
37.076299
 30
0.0
 10
-18.736926
 20
38.811488
 30
0.0
 10
-18.304242
 20
40.546688
 30
0.0
 10
-17.871558
 20
42.281877
 30
0.0
 10
-17.438874
 20
44.017077
 30
0.0
 10
-17.006190
 20
45.752267
 30
0.0
 10
-16.573506
 20
47.487467
 30
0.0
 10
-16.140822
 20
49.222656
 30
0.0
 10
-15.708138
 20
50.957856
 30
0.0
 10
-15.275454
 20
52.693045
 30
0.0
 10
-14.842770
 20
54.428245
 30
0.0
 10
-14.410086
 20
56.163435
 30
0.0
 10
-13.977402
 20
57.898635
 30
0.0
 10
-13.544718
 20
59.633824
 30
0.0
 10
-13.112034
 20
61.369024
 30
0.0
 10
-12.679350
 20
63.104213
 30
0.0
 10
-12.246666
 20
64.839413
 30
0.0
 10
-11.813982
 20
66.574603
 30
0.0
 10
-11.381298
 20
68.309803
 30
0.0
 10
-10.948614
 20
70.044992
 30
0.0
 10
-10.515930
 20
71.780192
 30
0.0
 10
-10.083246
 20
73.515381
 30
0.0
 10
-9.650562
 20
75.250581
 30
0.0
 10
-9.217878
 20
76.985771
 30
0.0
 10
-8.785194
 20
78.720971
 30
0.0
 10
-8.352510
 20
80.456160
 30
0.0
 10
-7.919826
 20
82.191360
 30
0.0
 10
-6.348716
 20
81.813909
 30
0.0
 10
-4.590484
 20
81.412555
 30
0.0
 10
-2.662267
 20
80.983253
 30
0.0
 10
-0.581199
 20
80.521963
 30
0.0
 10
1.635581
 20
80.024640
 30
0.0
 10
3.970939
 20
79.487232
 30
0.0
 10
6.407739
 20
78.905717
 30
0.0
 10
8.928843
 20
78.276032
 30
0.0
 10
11.517117
 20
77.594155
 30
0.0
 10
14.155423
 20
76.856021
 30
0.0
 10
16.826626
 20
76.057611
 30
0.0
 10
19.513590
 20
75.194869
 30
0.0
 10
22.199178
 20
74.263755
 30
0.0
 10
24.866255
 20
73.260235
 30
0.0
 10
27.497683
 20
72.180256
 30
0.0
 10
30.076329
 20
71.019776
 30
0.0
 10
32.585054
 20
69.774752
 30
0.0
 10
35.006722
 20
68.441152
 30
0.0
 10
37.324199
 20
67.014933
 30
0.0
 10
39.520347
 20
65.492043
 30
0.0
 10
41.578031
 20
63.868448
 30
0.0
 10
43.480114
 20
62.140096
 30
0.0
 10
45.209460
 20
60.302955
 30
0.0
 10
46.748933
 20
58.352981
 30
0.0
 10
48.081398
 20
56.286123
 30
0.0
 10
49.189717
 20
54.098347
 30
0.0
 10
50.056756
 20
51.785611
 30
0.0
 10
50.665376
 20
49.343872
 30
0.0
 10
50.998444
 20
46.769088
 30
0.0
 10
51.038817
 20
44.057216
 30
0.0
 10
50.769369
 20
41.204213
 30
0.0
  0
ENDSEC
  0
SECTION
  2
OBJECTS
  0
DICTIONARY
  5
C
330
0
100
AcDbDictionary
  3
ACAD_GROUP
350
D
  3
ACAD_MLINESTYLE
350
17
  0
DICTIONARY
  5
D
330
C
100
AcDbDictionary
  0
DICTIONARY
  5
1A
330
C
100
AcDbDictionary
  0
DICTIONARY
  5
17
330
C
100
AcDbDictionary
  3
STANDARD
350
18
  0
DICTIONARY
  5
19
330
C
100
AcDbDictionary
  0
ENDSEC
  0
EOF
