  0
SECTION
  2
HEADER
  9
$ACADVER
  1
AC1014
  9
$HANDSEED
  5
FFFF
  9
$MEASUREMENT
 70
     1
  0
ENDSEC
  0
SECTION
  2
TABLES
  0
TABLE
  2
VPORT
  5
8
330
0
100
AcDbSymbolTable
 70
     4
  0
VPORT
  5
2E
330
8
100
AcDbSymbolTableRecord
100
AcDbViewportTableRecord
  2
*ACTIVE
 70
     0
 10
0.0
 20
0.0
 11
1.0
 21
1.0
 12
210.0
 22
148.5
 13
0.0
 23
0.0
 14
10.0
 24
10.0
 15
10.0
 25
10.0
 16
0.0
 26
0.0
 36
1.0
 17
0.0
 27
0.0
 37
0.0
 40
341.0
 41
1.24
 42
50.0
 43
0.0
 44
0.0
 50
0.0
 51
0.0
 71
     0
 72
   100
 73
     1
 74
     3
 75
     0
 76
     0
 77
     0
 78
     0
  0
ENDTAB
  0
TABLE
  2
LTYPE
  5
5
330
0
100
AcDbSymbolTable
 70
     1
  0
LTYPE
  5
14
330
5
100
AcDbSymbolTableRecord
100
AcDbLinetypeTableRecord
  2
BYBLOCK
 70
     0
  3

 72
    65
 73
     0
 40
0.0
  0
LTYPE
  5
15
330
5
100
AcDbSymbolTableRecord
100
AcDbLinetypeTableRecord
  2
BYLAYER
 70
     0
  3

 72
    65
 73
     0
 40
0.0
  0
LTYPE
  5
16
330
5
100
AcDbSymbolTableRecord
100
AcDbLinetypeTableRecord
  2
CONTINUOUS
 70
     0
  3
Solid line
 72
    65
 73
     0
 40
0.0
  0
ENDTAB
  0
TABLE
  2
LAYER
  5
2
100
AcDbSymbolTable
 70
2
  0
LAYER
  5
50
100
AcDbSymbolTableRecord
100
AcDbLayerTableRecord
  2
0
 70
0
  6
CONTINUOUS
  0
LAYER
  5
51
100
AcDbSymbolTableRecord
100
AcDbLayerTableRecord
  2
Layer_1
 70
0
  6
CONTINUOUS
  0
ENDTAB
  0
TABLE
  2
STYLE
  5
3
330
0
100
AcDbSymbolTable
 70
     1
  0
STYLE
  5
11
330
3
100
AcDbSymbolTableRecord
100
AcDbTextStyleTableRecord
  2
STANDARD
 70
     0
 40
0.0
 41
1.0
 50
0.0
 71
     0
 42
2.5
  3
txt
  4

  0
ENDTAB
  0
TABLE
  2
VIEW
  5
6
330
0
100
AcDbSymbolTable
 70
     0
  0
ENDTAB
  0
TABLE
  2
UCS
  5
7
330
0
100
AcDbSymbolTable
 70
     0
  0
ENDTAB
  0
TABLE
  2
APPID
  5
9
330
0
100
AcDbSymbolTable
 70
     2
  0
APPID
  5
12
330
9
100
AcDbSymbolTableRecord
100
AcDbRegAppTableRecord
  2
ACAD
 70
     0
  0
ENDTAB
  0
TABLE
  2
DIMSTYLE
  5
A
330
0
100
AcDbSymbolTable
 70
     1
  0
DIMSTYLE
105
27
330
A
100
AcDbSymbolTableRecord
100
AcDbDimStyleTableRecord
  2
ISO-25
 70
     0
  3

  4

  5

  6

  7

 40
1.0
 41
2.5
 42
0.625
 43
3.75
 44
1.25
 45
0.0
 46
0.0
 47
0.0
 48
0.0
140
2.5
141
2.5
142
0.0
143
0.03937007874016
144
1.0
145
0.0
146
1.0
147
0.625
 71
     0
 72
     0
 73
     0
 74
     0
 75
     0
 76
     0
 77
     1
 78
     8
170
     0
171
     3
172
     1
173
     0
174
     0
175
     0
176
     0
177
     0
178
     0
270
     2
271
     2
272
     2
273
     2
274
     3
340
11
275
     0
280
     0
281
     0
282
     0
283
     0
284
     8
285
     0
286
     0
287
     3
288
     0
  0
ENDTAB
  0
TABLE
  2
BLOCK_RECORD
  5
1
330
0
100
AcDbSymbolTable
 70
     1
  0
BLOCK_RECORD
  5
1F
330
1
100
AcDbSymbolTableRecord
100
AcDbBlockTableRecord
  2
*MODEL_SPACE
  0
BLOCK_RECORD
  5
1B
330
1
100
AcDbSymbolTableRecord
100
AcDbBlockTableRecord
  2
*PAPER_SPACE
  0
ENDTAB
  0
ENDSEC
  0
SECTION
  2
BLOCKS
  0
BLOCK
  5
20
330
1F
100
AcDbEntity
  8
0
100
AcDbBlockBegin
  2
*MODEL_SPACE
 70
     0
 10
0.0
 20
0.0
 30
0.0
  3
*MODEL_SPACE
  1

  0
ENDBLK
  5
21
330
1F
100
AcDbEntity
  8
0
100
AcDbBlockEnd
  0
BLOCK
  5
1C
330
1B
100
AcDbEntity
 67
     1
  8
0
100
AcDbBlockBegin
  2
*PAPER_SPACE
  1

  0
ENDBLK
  5
1D
330
1B
100
AcDbEntity
 67
     1
  8
0
100
AcDbBlockEnd
  0
ENDSEC
  0
SECTION
  2
ENTITIES
  0
LWPOLYLINE
  5
100
100
AcDbEntity
  8
Layer_1
 62
7
100
AcDbPolyline
 90
384
 70
1
 10
78.825001
 20
302.560417
 30
0.0
 10
78.571355
 20
301.543750
 30
0.0
 10
78.317709
 20
300.527084
 30
0.0
 10
78.064063
 20
299.510417
 30
0.0
 10
77.810417
 20
298.493750
 30
0.0
 10
77.556771
 20
297.477084
 30
0.0
 10
77.303125
 20
296.460417
 30
0.0
 10
77.049479
 20
295.443750
 30
0.0
 10
76.795834
 20
294.427084
 30
0.0
 10
76.565578
 20
294.480022
 30
0.0
 10
76.336207
 20
294.533100
 30
0.0
 10
76.107732
 20
294.586305
 30
0.0
 10
75.880165
 20
294.639638
 30
0.0
 10
75.653515
 20
294.693089
 30
0.0
 10
75.427791
 20
294.746668
 30
0.0
 10
75.203005
 20
294.800364
 30
0.0
 10
74.979167
 20
294.854177
 30
0.0
 10
74.979687
 20
294.856310
 30
0.0
 10
74.980207
 20
294.858444
 30
0.0
 10
74.980727
 20
294.860577
 30
0.0
 10
74.981247
 20
294.862710
 30
0.0
 10
74.981766
 20
294.864844
 30
0.0
 10
74.982287
 20
294.866977
 30
0.0
 10
74.982806
 20
294.869110
 30
0.0
 10
74.983327
 20
294.871244
 30
0.0
 10
73.963014
 20
295.125932
 30
0.0
 10
72.942702
 20
295.380619
 30
0.0
 10
71.922389
 20
295.635306
 30
0.0
 10
70.902077
 20
295.889994
 30
0.0
 10
69.881764
 20
296.144681
 30
0.0
 10
68.861452
 20
296.399369
 30
0.0
 10
67.841139
 20
296.654057
 30
0.0
 10
66.820827
 20
296.908743
 30
0.0
 10
66.613275
 20
296.075670
 30
0.0
 10
66.405723
 20
295.242598
 30
0.0
 10
66.198171
 20
294.409525
 30
0.0
 10
65.990619
 20
293.576452
 30
0.0
 10
65.783067
 20
292.743379
 30
0.0
 10
65.575515
 20
291.910306
 30
0.0
 10
65.367963
 20
291.077234
 30
0.0
 10
65.160411
 20
290.244161
 30
0.0
 10
65.247909
 20
290.224108
 30
0.0
 10
65.335408
 20
290.204054
 30
0.0
 10
65.422907
 20
290.184001
 30
0.0
 10
65.510405
 20
290.163948
 30
0.0
 10
65.597904
 20
290.143894
 30
0.0
 10
65.685403
 20
290.123841
 30
0.0
 10
65.772901
 20
290.103788
 30
0.0
 10
65.860400
 20
290.083734
 30
0.0
 10
65.901477
 20
290.074348
 30
0.0
 10
66.017488
 20
290.047702
 30
0.0
 10
66.197571
 20
290.006188
 30
0.0
 10
66.430873
 20
289.952182
 30
0.0
 10
66.706537
 20
289.888065
 30
0.0
 10
67.013706
 20
289.816204
 30
0.0
 10
67.341527
 20
289.738977
 30
0.0
 10
67.679145
 20
289.658753
 30
0.0
 10
67.712883
 20
289.650646
 30
0.0
 10
67.744830
 20
289.642753
 30
0.0
 10
67.775561
 20
289.635073
 30
0.0
 10
67.805662
 20
289.627500
 30
0.0
 10
67.835699
 20
289.619926
 30
0.0
 10
67.866259
 20
289.612246
 30
0.0
 10
67.897907
 20
289.604353
 30
0.0
 10
67.931230
 20
289.596246
 30
0.0
 10
67.927817
 20
289.593900
 30
0.0
 10
67.924403
 20
289.591553
 30
0.0
 10
67.920990
 20
289.589206
 30
0.0
 10
67.917577
 20
289.586860
 30
0.0
 10
67.914163
 20
289.584513
 30
0.0
 10
67.910750
 20
289.582166
 30
0.0
 10
67.907337
 20
289.579820
 30
0.0
 10
67.903923
 20
289.577473
 30
0.0
 10
68.095851
 20
289.529558
 30
0.0
 10
68.287777
 20
289.481644
 30
0.0
 10
68.479705
 20
289.433729
 30
0.0
 10
68.671631
 20
289.385814
 30
0.0
 10
68.863558
 20
289.337900
 30
0.0
 10
69.055486
 20
289.289985
 30
0.0
 10
69.247412
 20
289.242070
 30
0.0
 10
69.439340
 20
289.194156
 30
0.0
 10
69.744093
 20
289.106966
 30
0.0
 10
70.008491
 20
289.009089
 30
0.0
 10
70.235997
 20
288.901797
 30
0.0
 10
70.430077
 20
288.786380
 30
0.0
 10
70.594194
 20
288.664122
 30
0.0
 10
70.731815
 20
288.536308
 30
0.0
 10
70.846403
 20
288.404224
 30
0.0
 10
70.941422
 20
288.269155
 30
0.0
 10
71.018179
 20
288.133084
 30
0.0
 10
71.080451
 20
287.991280
 30
0.0
 10
71.129230
 20
287.844658
 30
0.0
 10
71.165529
 20
287.694131
 30
0.0
 10
71.190350
 20
287.540612
 30
0.0
 10
71.204697
 20
287.385015
 30
0.0
 10
71.209603
 20
287.228253
 30
0.0
 10
71.205977
 20
287.071238
 30
0.0
 10
70.899467
 20
285.841291
 30
0.0
 10
70.592956
 20
284.611343
 30
0.0
 10
70.286445
 20
283.381395
 30
0.0
 10
69.979935
 20
282.151446
 30
0.0
 10
69.673424
 20
280.921499
 30
0.0
 10
69.366914
 20
279.691551
 30
0.0
 10
69.060404
 20
278.461603
 30
0.0
 10
68.753893
 20
277.231655
 30
0.0
 10
68.372383
 20
275.701187
 30
0.0
 10
67.990873
 20
274.170718
 30
0.0
 10
67.609362
 20
272.640249
 30
0.0
 10
67.227852
 20
271.109780
 30
0.0
 10
66.846341
 20
269.579311
 30
0.0
 10
66.464831
 20
268.048843
 30
0.0
 10
66.083321
 20
266.518373
 30
0.0
 10
65.701810
 20
264.987905
 30
0.0
 10
65.664381
 20
264.902998
 30
0.0
 10
65.621159
 20
264.816694
 30
0.0
 10
65.572349
 20
264.730657
 30
0.0
 10
65.518162
 20
264.646561
 30
0.0
 10
65.458802
 20
264.566070
 30
0.0
 10
65.394482
 20
264.490849
 30
0.0
 10
65.325415
 20
264.422572
 30
0.0
 10
65.251805
 20
264.362902
 30
0.0
 10
65.172295
 20
264.309665
 30
0.0
 10
65.086343
 20
264.263137
 30
0.0
 10
64.990930
 20
264.225494
 30
0.0
 10
64.883041
 20
264.198892
 30
0.0
 10
64.759659
 20
264.185505
 30
0.0
 10
64.617766
 20
264.187532
 30
0.0
 10
64.454348
 20
264.207052
 30
0.0
 10
64.266386
 20
264.246284
 30
0.0
 10
64.046074
 20
264.300705
 30
0.0
 10
63.825761
 20
264.355137
 30
0.0
 10
63.605449
 20
264.409569
 30
0.0
 10
63.385136
 20
264.463990
 30
0.0
 10
63.164823
 20
264.518422
 30
0.0
 10
62.944511
 20
264.572854
 30
0.0
 10
62.724198
 20
264.627286
 30
0.0
 10
62.503886
 20
264.681718
 30
0.0
 10
62.505699
 20
264.678838
 30
0.0
 10
62.507513
 20
264.675958
 30
0.0
 10
62.509326
 20
264.673078
 30
0.0
 10
62.511139
 20
264.670198
 30
0.0
 10
62.512953
 20
264.667318
 30
0.0
 10
62.514766
 20
264.664438
 30
0.0
 10
62.516579
 20
264.661558
 30
0.0
 10
62.518393
 20
264.658678
 30
0.0
 10
62.515086
 20
264.659522
 30
0.0
 10
62.511886
 20
264.660307
 30
0.0
 10
62.508899
 20
264.661054
 30
0.0
 10
62.505913
 20
264.661785
 30
0.0
 10
62.502926
 20
264.662522
 30
0.0
 10
62.499939
 20
264.663283
 30
0.0
 10
62.496739
 20
264.664093
 30
0.0
 10
62.493433
 20
264.664972
 30
0.0
 10
62.156833
 20
264.752129
 30
0.0
 10
61.830266
 20
264.837270
 30
0.0
 10
61.524470
 20
264.917430
 30
0.0
 10
61.250189
 20
264.989654
 30
0.0
 10
61.018162
 20
265.050977
 30
0.0
 10
60.839130
 20
265.098444
 30
0.0
 10
60.723835
 20
265.129100
 30
0.0
 10
60.683013
 20
265.139980
 30
0.0
 10
60.609573
 20
265.159510
 30
0.0
 10
60.536133
 20
265.179041
 30
0.0
 10
60.462693
 20
265.198572
 30
0.0
 10
60.389253
 20
265.218102
 30
0.0
 10
60.315813
 20
265.237633
 30
0.0
 10
60.242373
 20
265.257164
 30
0.0
 10
60.168933
 20
265.276694
 30
0.0
 10
60.095493
 20
265.296225
 30
0.0
 10
59.717108
 20
264.423569
 30
0.0
 10
59.338722
 20
263.550913
 30
0.0
 10
58.960337
 20
262.678256
 30
0.0
 10
58.581952
 20
261.805600
 30
0.0
 10
58.203566
 20
260.932944
 30
0.0
 10
57.825181
 20
260.060287
 30
0.0
 10
57.446795
 20
259.187631
 30
0.0
 10
57.068410
 20
258.314975
 30
0.0
 10
57.973878
 20
258.089194
 30
0.0
 10
58.879347
 20
257.863412
 30
0.0
 10
59.784816
 20
257.637631
 30
0.0
 10
60.690285
 20
257.411850
 30
0.0
 10
61.595754
 20
257.186068
 30
0.0
 10
62.501222
 20
256.960287
 30
0.0
 10
63.406691
 20
256.734506
 30
0.0
 10
64.312160
 20
256.508724
 30
0.0
 10
64.671946
 20
256.417951
 30
0.0
 10
65.030171
 20
256.326495
 30
0.0
 10
65.387037
 20
256.234538
 30
0.0
 10
65.742743
 20
256.142250
 30
0.0
 10
66.097492
 20
256.049802
 30
0.0
 10
66.451483
 20
255.957375
 30
0.0
 10
66.804916
 20
255.865151
 30
0.0
 10
67.157994
 20
255.773300
 30
0.0
 10
66.901744
 20
254.745175
 30
0.0
 10
66.645493
 20
253.717051
 30
0.0
 10
66.389243
 20
252.688926
 30
0.0
 10
66.132993
 20
251.660800
 30
0.0
 10
65.876742
 20
250.632675
 30
0.0
 10
65.620493
 20
249.604550
 30
0.0
 10
65.364243
 20
248.576426
 30
0.0
 10
65.107993
 20
247.548301
 30
0.0
 10
65.896534
 20
247.351426
 30
0.0
 10
66.685076
 20
247.154550
 30
0.0
 10
67.473618
 20
246.957676
 30
0.0
 10
68.262159
 20
246.760800
 30
0.0
 10
69.050701
 20
246.563925
 30
0.0
 10
69.839243
 20
246.367051
 30
0.0
 10
70.627785
 20
246.170175
 30
0.0
 10
71.416326
 20
245.973300
 30
0.0
 10
71.669712
 20
246.989186
 30
0.0
 10
71.923098
 20
248.005071
 30
0.0
 10
72.176483
 20
249.020957
 30
0.0
 10
72.429869
 20
250.036843
 30
0.0
 10
72.683253
 20
251.052727
 30
0.0
 10
72.936639
 20
252.068613
 30
0.0
 10
73.190025
 20
253.084498
 30
0.0
 10
73.443410
 20
254.100384
 30
0.0
 10
73.770399
 20
254.013408
 30
0.0
 10
74.095965
 20
253.927413
 30
0.0
 10
74.420125
 20
253.842389
 30
0.0
 10
74.742899
 20
253.758336
 30
0.0
 10
75.064305
 20
253.675243
 30
0.0
 10
75.384359
 20
253.593099
 30
0.0
 10
75.703084
 20
253.511904
 30
0.0
 10
76.020493
 20
253.431648
 30
0.0
 10
75.767889
 20
252.418887
 30
0.0
 10
75.515284
 20
251.406127
 30
0.0
 10
75.262681
 20
250.393366
 30
0.0
 10
75.010076
 20
249.380606
 30
0.0
 10
74.757472
 20
248.367846
 30
0.0
 10
74.504868
 20
247.355086
 30
0.0
 10
74.252263
 20
246.342325
 30
0.0
 10
73.999660
 20
245.329565
 30
0.0
 10
74.788982
 20
245.132950
 30
0.0
 10
75.578305
 20
244.936335
 30
0.0
 10
76.367629
 20
244.739721
 30
0.0
 10
77.156951
 20
244.543106
 30
0.0
 10
77.946274
 20
244.346492
 30
0.0
 10
78.735597
 20
244.149876
 30
0.0
 10
79.524921
 20
243.953262
 30
0.0
 10
80.314243
 20
243.756647
 30
0.0
 10
80.572577
 20
244.792585
 30
0.0
 10
80.830910
 20
245.828523
 30
0.0
 10
81.089244
 20
246.864461
 30
0.0
 10
81.347577
 20
247.900398
 30
0.0
 10
81.605909
 20
248.936335
 30
0.0
 10
81.864243
 20
249.972273
 30
0.0
 10
82.122577
 20
251.008210
 30
0.0
 10
82.380910
 20
252.044148
 30
0.0
 10
83.855259
 20
251.803103
 30
0.0
 10
85.290398
 20
251.613913
 30
0.0
 10
86.683890
 20
251.484674
 30
0.0
 10
88.033298
 20
251.423490
 30
0.0
 10
89.336185
 20
251.438455
 30
0.0
 10
90.590109
 20
251.537666
 30
0.0
 10
91.792636
 20
251.729228
 30
0.0
 10
92.941326
 20
252.021237
 30
0.0
 10
94.094133
 20
252.448761
 30
0.0
 10
95.177229
 20
253.004153
 30
0.0
 10
96.186156
 20
253.691646
 30
0.0
 10
97.116451
 20
254.515472
 30
0.0
 10
97.963660
 20
255.479862
 30
0.0
 10
98.723319
 20
256.589049
 30
0.0
 10
99.390973
 20
257.847264
 30
0.0
 10
99.962160
 20
259.258738
 30
0.0
 10
99.962160
 20
259.259005
 30
0.0
 10
99.962160
 20
259.259271
 30
0.0
 10
99.962160
 20
259.259538
 30
0.0
 10
99.962160
 20
259.259805
 30
0.0
 10
99.962160
 20
259.260071
 30
0.0
 10
99.962160
 20
259.260338
 30
0.0
 10
99.962160
 20
259.260605
 30
0.0
 10
99.962160
 20
259.260871
 30
0.0
 10
100.328137
 20
260.428835
 30
0.0
 10
100.591687
 20
261.545805
 30
0.0
 10
100.754944
 20
262.612387
 30
0.0
 10
100.820032
 20
263.629196
 30
0.0
 10
100.789088
 20
264.596837
 30
0.0
 10
100.664236
 20
265.515924
 30
0.0
 10
100.447604
 20
266.387066
 30
0.0
 10
100.141326
 20
267.210871
 30
0.0
 10
99.827028
 20
267.837239
 30
0.0
 10
99.453627
 20
268.425024
 30
0.0
 10
99.026039
 20
268.977173
 30
0.0
 10
98.549189
 20
269.496641
 30
0.0
 10
98.027997
 20
269.986378
 30
0.0
 10
97.467383
 20
270.449332
 30
0.0
 10
96.872270
 20
270.888458
 30
0.0
 10
96.247577
 20
271.306704
 30
0.0
 10
97.171042
 20
271.729248
 30
0.0
 10
98.032205
 20
272.255167
 30
0.0
 10
98.824191
 20
272.887402
 30
0.0
 10
99.540128
 20
273.628894
 30
0.0
 10
100.173141
 20
274.482588
 30
0.0
 10
100.716358
 20
275.451423
 30
0.0
 10
101.162906
 20
276.538342
 30
0.0
 10
101.505909
 20
277.746288
 30
0.0
 10
101.520235
 20
277.739248
 30
0.0
 10
101.534560
 20
277.732208
 30
0.0
 10
101.548885
 20
277.725168
 30
0.0
 10
101.563211
 20
277.718128
 30
0.0
 10
101.577536
 20
277.711088
 30
0.0
 10
101.591861
 20
277.704048
 30
0.0
 10
101.606187
 20
277.697008
 30
0.0
 10
101.620512
 20
277.689968
 30
0.0
 10
101.638485
 20
277.809760
 30
0.0
 10
101.656459
 20
277.929551
 30
0.0
 10
101.674432
 20
278.049343
 30
0.0
 10
101.692405
 20
278.169135
 30
0.0
 10
101.710379
 20
278.288927
 30
0.0
 10
101.728341
 20
278.408718
 30
0.0
 10
101.746315
 20
278.528510
 30
0.0
 10
101.764288
 20
278.648302
 30
0.0
 10
101.764315
 20
278.648572
 30
0.0
 10
101.764319
 20
278.648837
 30
0.0
 10
101.764307
 20
278.649100
 30
0.0
 10
101.764288
 20
278.649361
 30
0.0
 10
101.764269
 20
278.649623
 30
0.0
 10
101.764257
 20
278.649889
 30
0.0
 10
101.764261
 20
278.650159
 30
0.0
 10
101.764288
 20
278.650435
 30
0.0
 10
101.874149
 20
279.818498
 30
0.0
 10
101.850779
 20
280.929877
 30
0.0
 10
101.700899
 20
281.984108
 30
0.0
 10
101.431237
 20
282.980722
 30
0.0
 10
101.048521
 20
283.919253
 30
0.0
 10
100.559473
 20
284.799235
 30
0.0
 10
99.970820
 20
285.620202
 30
0.0
 10
99.289290
 20
286.381685
 30
0.0
 10
98.576586
 20
287.039265
 30
0.0
 10
97.795386
 20
287.650272
 30
0.0
 10
96.951246
 20
288.218310
 30
0.0
 10
96.049725
 20
288.746980
 30
0.0
 10
95.096379
 20
289.239884
 30
0.0
 10
94.096764
 20
289.700624
 30
0.0
 10
93.056437
 20
290.132801
 30
0.0
 10
91.980957
 20
290.540018
 30
0.0
 10
92.237206
 20
291.568665
 30
0.0
 10
92.493457
 20
292.597310
 30
0.0
 10
92.749707
 20
293.625955
 30
0.0
 10
93.005956
 20
294.654602
 30
0.0
 10
93.262207
 20
295.683247
 30
0.0
 10
93.518457
 20
296.711893
 30
0.0
 10
93.774707
 20
297.740539
 30
0.0
 10
94.030957
 20
298.769185
 30
0.0
 10
93.241894
 20
298.966060
 30
0.0
 10
92.452832
 20
299.162935
 30
0.0
 10
91.663770
 20
299.359810
 30
0.0
 10
90.874706
 20
299.556685
 30
0.0
 10
90.085644
 20
299.753561
 30
0.0
 10
89.296581
 20
299.950435
 30
0.0
 10
88.507519
 20
300.147311
 30
0.0
 10
87.718457
 20
300.344186
 30
0.0
 10
87.471582
 20
299.353821
 30
0.0
 10
87.224706
 20
298.363456
 30
0.0
 10
86.977831
 20
297.373091
 30
0.0
 10
86.730957
 20
296.382727
 30
0.0
 10
86.484082
 20
295.392363
 30
0.0
 10
86.237206
 20
294.401998
 30
0.0
 10
85.990332
 20
293.411633
 30
0.0
 10
85.743457
 20
292.421268
 30
0.0
 10
85.420927
 20
292.499167
 30
0.0
 10
85.097904
 20
292.576596
 30
0.0
 10
84.774431
 20
292.653556
 30
0.0
 10
84.450550
 20
292.730047
 30
0.0
 10
84.126305
 20
292.806079
 30
0.0
 10
83.801737
 20
292.881663
 30
0.0
 10
83.476887
 20
292.956810
 30
0.0
 10
83.151801
 20
293.031519
 30
0.0
 10
83.399717
 20
294.026050
 30
0.0
 10
83.647634
 20
295.020581
 30
0.0
 10
83.895551
 20
296.015113
 30
0.0
 10
84.143468
 20
297.009644
 30
0.0
 10
84.391383
 20
298.004175
 30
0.0
 10
84.639300
 20
298.998706
 30
0.0
 10
84.887217
 20
299.993237
 30
0.0
 10
85.135134
 20
300.987769
 30
0.0
 10
84.346332
 20
301.184383
 30
0.0
 10
83.557530
 20
301.380997
 30
0.0
 10
82.768727
 20
301.577613
 30
0.0
 10
81.979926
 20
301.774227
 30
0.0
 10
81.191124
 20
301.970842
 30
0.0
 10
80.402322
 20
302.167457
 30
0.0
 10
79.613520
 20
302.364071
 30
0.0
  0
LWPOLYLINE
  5
101
100
AcDbEntity
  8
Layer_1
 62
7
100
AcDbPolyline
 90
528
 70
1
 10
79.850000
 20
300.854166
 30
0.0
 10
80.297136
 20
300.742708
 30
0.0
 10
80.744271
 20
300.631250
 30
0.0
 10
81.191407
 20
300.519792
 30
0.0
 10
81.638542
 20
300.408333
 30
0.0
 10
82.085677
 20
300.296875
 30
0.0
 10
82.532813
 20
300.185417
 30
0.0
 10
82.979948
 20
300.073958
 30
0.0
 10
83.427084
 20
299.962500
 30
0.0
 10
83.178386
 20
298.964844
 30
0.0
 10
82.929687
 20
297.967188
 30
0.0
 10
82.680990
 20
296.969532
 30
0.0
 10
82.432292
 20
295.971875
 30
0.0
 10
82.183594
 20
294.974219
 30
0.0
 10
81.934896
 20
293.976562
 30
0.0
 10
81.686197
 20
292.978907
 30
0.0
 10
81.437500
 20
291.981250
 30
0.0
 10
81.524998
 20
291.961463
 30
0.0
 10
81.612497
 20
291.941677
 30
0.0
 10
81.699996
 20
291.921890
 30
0.0
 10
81.787494
 20
291.902103
 30
0.0
 10
81.874993
 20
291.882317
 30
0.0
 10
81.962492
 20
291.862519
 30
0.0
 10
82.049990
 20
291.842733
 30
0.0
 10
82.137489
 20
291.822946
 30
0.0
 10
82.635233
 20
291.709264
 30
0.0
 10
83.132874
 20
291.595248
 30
0.0
 10
83.629891
 20
291.480711
 30
0.0
 10
84.125767
 20
291.365472
 30
0.0
 10
84.619984
 20
291.249343
 30
0.0
 10
85.112021
 20
291.132142
 30
0.0
 10
85.601363
 20
291.013682
 30
0.0
 10
86.087489
 20
290.893780
 30
0.0
 10
86.172908
 20
290.872426
 30
0.0
 10
86.258326
 20
290.851071
 30
0.0
 10
86.343745
 20
290.829716
 30
0.0
 10
86.429164
 20
290.808362
 30
0.0
 10
86.514582
 20
290.787007
 30
0.0
 10
86.600001
 20
290.765652
 30
0.0
 10
86.685420
 20
290.744298
 30
0.0
 10
86.770838
 20
290.722943
 30
0.0
 10
87.017453
 20
291.712005
 30
0.0
 10
87.264068
 20
292.701068
 30
0.0
 10
87.510683
 20
293.690130
 30
0.0
 10
87.757297
 20
294.679193
 30
0.0
 10
88.003911
 20
295.668256
 30
0.0
 10
88.250527
 20
296.657318
 30
0.0
 10
88.497141
 20
297.646381
 30
0.0
 10
88.743756
 20
298.635443
 30
0.0
 10
89.191151
 20
298.523985
 30
0.0
 10
89.638547
 20
298.412527
 30
0.0
 10
90.085942
 20
298.301069
 30
0.0
 10
90.533339
 20
298.189610
 30
0.0
 10
90.980734
 20
298.078151
 30
0.0
 10
91.428130
 20
297.966693
 30
0.0
 10
91.875526
 20
297.855235
 30
0.0
 10
92.322922
 20
297.743777
 30
0.0
 10
92.071619
 20
296.734923
 30
0.0
 10
91.820318
 20
295.726068
 30
0.0
 10
91.569015
 20
294.717214
 30
0.0
 10
91.317714
 20
293.708361
 30
0.0
 10
91.066412
 20
292.699506
 30
0.0
 10
90.815109
 20
291.690652
 30
0.0
 10
90.563808
 20
290.681797
 30
0.0
 10
90.312506
 20
289.672943
 30
0.0
 10
90.388804
 20
289.646639
 30
0.0
 10
90.465103
 20
289.620335
 30
0.0
 10
90.541402
 20
289.594031
 30
0.0
 10
90.617700
 20
289.567727
 30
0.0
 10
90.693999
 20
289.541423
 30
0.0
 10
90.770298
 20
289.515119
 30
0.0
 10
90.846596
 20
289.488815
 30
0.0
 10
90.922895
 20
289.462511
 30
0.0
 10
92.051893
 20
289.053426
 30
0.0
 10
93.132323
 20
288.618503
 30
0.0
 10
94.158730
 20
288.156335
 30
0.0
 10
95.125661
 20
287.665511
 30
0.0
 10
96.027662
 20
287.144626
 30
0.0
 10
96.859281
 20
286.592270
 30
0.0
 10
97.615066
 20
286.007034
 30
0.0
 10
98.289562
 20
285.387510
 30
0.0
 10
98.880125
 20
284.734347
 30
0.0
 10
99.384880
 20
284.045500
 30
0.0
 10
99.799532
 20
283.315529
 30
0.0
 10
100.119780
 20
282.538992
 30
0.0
 10
100.341331
 20
281.710447
 30
0.0
 10
100.459884
 20
280.824452
 30
0.0
 10
100.471148
 20
279.875565
 30
0.0
 10
100.370817
 20
278.858345
 30
0.0
 10
100.370817
 20
278.858078
 30
0.0
 10
100.370817
 20
278.857811
 30
0.0
 10
100.370817
 20
278.857545
 30
0.0
 10
100.370817
 20
278.857278
 30
0.0
 10
100.370817
 20
278.857011
 30
0.0
 10
100.370817
 20
278.856745
 30
0.0
 10
100.370817
 20
278.856478
 30
0.0
 10
100.370817
 20
278.856211
 30
0.0
 10
100.069361
 20
277.399875
 30
0.0
 10
99.632777
 20
276.150373
 30
0.0
 10
99.068531
 20
275.093066
 30
0.0
 10
98.384091
 20
274.213312
 30
0.0
 10
97.586924
 20
273.496473
 30
0.0
 10
96.684497
 20
272.927909
 30
0.0
 10
95.684278
 20
272.492979
 30
0.0
 10
94.593734
 20
272.177045
 30
0.0
 10
94.360922
 20
272.123403
 30
0.0
 10
94.128110
 20
272.069760
 30
0.0
 10
93.895297
 20
272.016117
 30
0.0
 10
93.662484
 20
271.962475
 30
0.0
 10
93.429671
 20
271.908832
 30
0.0
 10
93.196860
 20
271.855189
 30
0.0
 10
92.964047
 20
271.801547
 30
0.0
 10
92.731234
 20
271.747904
 30
0.0
 10
92.943213
 20
271.637487
 30
0.0
 10
93.155193
 20
271.527071
 30
0.0
 10
93.367172
 20
271.416654
 30
0.0
 10
93.579151
 20
271.306237
 30
0.0
 10
93.791131
 20
271.195821
 30
0.0
 10
94.003109
 20
271.085404
 30
0.0
 10
94.215089
 20
270.974988
 30
0.0
 10
94.427068
 20
270.864571
 30
0.0
 10
95.197737
 20
270.436444
 30
0.0
 10
95.909719
 20
269.983341
 30
0.0
 10
96.561244
 20
269.503577
 30
0.0
 10
97.150540
 20
268.995466
 30
0.0
 10
97.675834
 20
268.457321
 30
0.0
 10
98.135354
 20
267.887456
 30
0.0
 10
98.527328
 20
267.284185
 30
0.0
 10
98.849984
 20
266.645821
 30
0.0
 10
99.103138
 20
265.967201
 30
0.0
 10
99.284879
 20
265.242042
 30
0.0
 10
99.390842
 20
264.466970
 30
0.0
 10
99.416666
 20
263.638618
 30
0.0
 10
99.357978
 20
262.753613
 30
0.0
 10
99.210420
 20
261.808587
 30
0.0
 10
98.969629
 20
260.800169
 30
0.0
 10
98.631237
 20
259.724988
 30
0.0
 10
98.115761
 20
258.437095
 30
0.0
 10
97.529181
 20
257.309387
 30
0.0
 10
96.871685
 20
256.332212
 30
0.0
 10
96.143463
 20
255.495923
 30
0.0
 10
95.344703
 20
254.790871
 30
0.0
 10
94.475591
 20
254.207409
 30
0.0
 10
93.536318
 20
253.735886
 30
0.0
 10
92.527071
 20
253.366654
 30
0.0
 10
91.445396
 20
253.094293
 30
0.0
 10
90.290553
 20
252.916047
 30
0.0
 10
89.065292
 20
252.826255
 30
0.0
 10
87.772371
 20
252.819322
 30
0.0
 10
86.414542
 20
252.889487
 30
0.0
 10
84.994560
 20
253.031138
 30
0.0
 10
83.515180
 20
253.238625
 30
0.0
 10
81.979154
 20
253.506290
 30
0.0
 10
81.897383
 20
253.521917
 30
0.0
 10
81.815613
 20
253.537543
 30
0.0
 10
81.733842
 20
253.553170
 30
0.0
 10
81.652071
 20
253.568797
 30
0.0
 10
81.570301
 20
253.584423
 30
0.0
 10
81.488530
 20
253.600050
 30
0.0
 10
81.406759
 20
253.615677
 30
0.0
 10
81.324989
 20
253.631303
 30
0.0
 10
81.070301
 20
252.610470
 30
0.0
 10
80.815614
 20
251.589636
 30
0.0
 10
80.560926
 20
250.568803
 30
0.0
 10
80.306239
 20
249.547970
 30
0.0
 10
80.051551
 20
248.527137
 30
0.0
 10
79.796863
 20
247.506303
 30
0.0
 10
79.542176
 20
246.485470
 30
0.0
 10
79.287488
 20
245.464637
 30
0.0
 10
78.840092
 20
245.576095
 30
0.0
 10
78.392697
 20
245.687553
 30
0.0
 10
77.945300
 20
245.799011
 30
0.0
 10
77.497904
 20
245.910469
 30
0.0
 10
77.050509
 20
246.021929
 30
0.0
 10
76.603113
 20
246.133387
 30
0.0
 10
76.155717
 20
246.244845
 30
0.0
 10
75.708321
 20
246.356303
 30
0.0
 10
75.960926
 20
247.368282
 30
0.0
 10
76.213530
 20
248.380261
 30
0.0
 10
76.466133
 20
249.392240
 30
0.0
 10
76.718738
 20
250.404220
 30
0.0
 10
76.971343
 20
251.416198
 30
0.0
 10
77.223947
 20
252.428178
 30
0.0
 10
77.476550
 20
253.440157
 30
0.0
 10
77.729155
 20
254.452137
 30
0.0
 10
77.643481
 20
254.473225
 30
0.0
 10
77.557806
 20
254.494323
 30
0.0
 10
77.472131
 20
254.515422
 30
0.0
 10
77.386457
 20
254.536510
 30
0.0
 10
77.300782
 20
254.557609
 30
0.0
 10
77.215107
 20
254.578707
 30
0.0
 10
77.129433
 20
254.599806
 30
0.0
 10
77.043758
 20
254.620905
 30
0.0
 10
76.563251
 20
254.740941
 30
0.0
 10
76.080076
 20
254.863023
 30
0.0
 10
75.594084
 20
254.987210
 30
0.0
 10
75.105129
 20
255.113559
 30
0.0
 10
74.613057
 20
255.242133
 30
0.0
 10
74.117724
 20
255.372990
 30
0.0
 10
73.618979
 20
255.506188
 30
0.0
 10
73.116674
 20
255.641787
 30
0.0
 10
73.029954
 20
255.665221
 30
0.0
 10
72.943234
 20
255.688656
 30
0.0
 10
72.856514
 20
255.712091
 30
0.0
 10
72.769794
 20
255.735525
 30
0.0
 10
72.683074
 20
255.758960
 30
0.0
 10
72.596354
 20
255.782395
 30
0.0
 10
72.509634
 20
255.805829
 30
0.0
 10
72.422914
 20
255.829264
 30
0.0
 10
72.169008
 20
254.811035
 30
0.0
 10
71.915102
 20
253.792805
 30
0.0
 10
71.661196
 20
252.774576
 30
0.0
 10
71.407290
 20
251.756347
 30
0.0
 10
71.153383
 20
250.738118
 30
0.0
 10
70.899477
 20
249.719889
 30
0.0
 10
70.645571
 20
248.701660
 30
0.0
 10
70.391665
 20
247.683430
 30
0.0
 10
69.944790
 20
247.794889
 30
0.0
 10
69.497915
 20
247.906347
 30
0.0
 10
69.051040
 20
248.017805
 30
0.0
 10
68.604164
 20
248.129263
 30
0.0
 10
68.157290
 20
248.240722
 30
0.0
 10
67.710415
 20
248.352180
 30
0.0
 10
67.263539
 20
248.463638
 30
0.0
 10
66.816665
 20
248.575097
 30
0.0
 10
67.072394
 20
249.601920
 30
0.0
 10
67.328123
 20
250.628742
 30
0.0
 10
67.583852
 20
251.655566
 30
0.0
 10
67.839582
 20
252.682388
 30
0.0
 10
68.095311
 20
253.709211
 30
0.0
 10
68.351040
 20
254.736034
 30
0.0
 10
68.606769
 20
255.762857
 30
0.0
 10
68.862498
 20
256.789680
 30
0.0
 10
68.777858
 20
256.811557
 30
0.0
 10
68.693218
 20
256.833435
 30
0.0
 10
68.608578
 20
256.855312
 30
0.0
 10
68.523938
 20
256.877189
 30
0.0
 10
68.439298
 20
256.899067
 30
0.0
 10
68.354658
 20
256.920944
 30
0.0
 10
68.270018
 20
256.942821
 30
0.0
 10
68.185378
 20
256.964699
 30
0.0
 10
67.752798
 20
257.076019
 30
0.0
 10
67.317766
 20
257.188781
 30
0.0
 10
66.880249
 20
257.302617
 30
0.0
 10
66.440208
 20
257.417163
 30
0.0
 10
65.997611
 20
257.532051
 30
0.0
 10
65.552422
 20
257.646916
 30
0.0
 10
65.104606
 20
257.761393
 30
0.0
 10
64.654128
 20
257.875115
 30
0.0
 10
63.950222
 20
258.050636
 30
0.0
 10
63.246316
 20
258.226157
 30
0.0
 10
62.542410
 20
258.401678
 30
0.0
 10
61.838502
 20
258.577198
 30
0.0
 10
61.134596
 20
258.752719
 30
0.0
 10
60.430690
 20
258.928240
 30
0.0
 10
59.726784
 20
259.103761
 30
0.0
 10
59.022878
 20
259.279282
 30
0.0
 10
59.258294
 20
259.822251
 30
0.0
 10
59.493711
 20
260.365219
 30
0.0
 10
59.729127
 20
260.908188
 30
0.0
 10
59.964544
 20
261.451156
 30
0.0
 10
60.199962
 20
261.994126
 30
0.0
 10
60.435378
 20
262.537094
 30
0.0
 10
60.670795
 20
263.080063
 30
0.0
 10
60.906211
 20
263.623031
 30
0.0
 10
61.029884
 20
263.590317
 30
0.0
 10
61.153445
 20
263.557666
 30
0.0
 10
61.281344
 20
263.523949
 30
0.0
 10
61.418030
 20
263.488045
 30
0.0
 10
61.567951
 20
263.448834
 30
0.0
 10
61.735558
 20
263.405197
 30
0.0
 10
61.925301
 20
263.355991
 30
0.0
 10
62.141628
 20
263.300109
 30
0.0
 10
62.311627
 20
263.256343
 30
0.0
 10
62.480125
 20
263.213143
 30
0.0
 10
62.645870
 20
263.170861
 30
0.0
 10
62.807614
 20
263.129847
 30
0.0
 10
62.964103
 20
263.090455
 30
0.0
 10
63.114089
 20
263.053037
 30
0.0
 10
63.256319
 20
263.017943
 30
0.0
 10
63.389545
 20
262.985538
 30
0.0
 10
63.452382
 20
262.970509
 30
0.0
 10
63.512542
 20
262.956365
 30
0.0
 10
63.569982
 20
262.943106
 30
0.0
 10
63.624649
 20
262.930722
 30
0.0
 10
63.676489
 20
262.919202
 30
0.0
 10
63.725449
 20
262.908535
 30
0.0
 10
63.771486
 20
262.898722
 30
0.0
 10
63.814537
 20
262.889762
 30
0.0
 10
63.834761
 20
262.885602
 30
0.0
 10
63.854121
 20
262.881549
 30
0.0
 10
63.872990
 20
262.877602
 30
0.0
 10
63.891731
 20
262.873869
 30
0.0
 10
63.910729
 20
262.870349
 30
0.0
 10
63.930334
 20
262.866935
 30
0.0
 10
63.950931
 20
262.863735
 30
0.0
 10
63.972873
 20
262.860642
 30
0.0
 10
63.984051
 20
262.859042
 30
0.0
 10
63.995507
 20
262.857335
 30
0.0
 10
64.008265
 20
262.855629
 30
0.0
 10
64.023337
 20
262.854135
 30
0.0
 10
64.041737
 20
262.853097
 30
0.0
 10
64.064478
 20
262.852662
 30
0.0
 10
64.092574
 20
262.853018
 30
0.0
 10
64.127049
 20
262.854298
 30
0.0
 10
64.136862
 20
262.854799
 30
0.0
 10
64.147422
 20
262.855408
 30
0.0
 10
64.158803
 20
262.856223
 30
0.0
 10
64.171177
 20
262.857290
 30
0.0
 10
64.184681
 20
262.858783
 30
0.0
 10
64.199443
 20
262.860810
 30
0.0
 10
64.215614
 20
262.863370
 30
0.0
 10
64.233331
 20
262.866676
 30
0.0
 10
64.244265
 20
262.869130
 30
0.0
 10
64.257705
 20
262.872650
 30
0.0
 10
64.272446
 20
262.876703
 30
0.0
 10
64.287262
 20
262.880970
 30
0.0
 10
64.300937
 20
262.885023
 30
0.0
 10
64.312243
 20
262.888436
 30
0.0
 10
64.320030
 20
262.890783
 30
0.0
 10
64.323017
 20
262.891693
 30
0.0
 10
64.329097
 20
262.894466
 30
0.0
 10
64.344937
 20
262.901826
 30
0.0
 10
64.367262
 20
262.912173
 30
0.0
 10
64.392841
 20
262.924002
 30
0.0
 10
64.418409
 20
262.935831
 30
0.0
 10
64.440723
 20
262.946178
 30
0.0
 10
64.456531
 20
262.953538
 30
0.0
 10
64.462611
 20
262.956311
 30
0.0
 10
64.462945
 20
262.956558
 30
0.0
 10
64.463826
 20
262.957207
 30
0.0
 10
64.465106
 20
262.958137
 30
0.0
 10
64.466599
 20
262.959203
 30
0.0
 10
64.468093
 20
262.960270
 30
0.0
 10
64.469479
 20
262.961289
 30
0.0
 10
64.470507
 20
262.962086
 30
0.0
 10
64.471047
 20
262.962541
 30
0.0
 10
64.697102
 20
262.956461
 30
0.0
 10
64.921788
 20
262.955074
 30
0.0
 10
65.142178
 20
262.961474
 30
0.0
 10
65.355347
 20
262.978765
 30
0.0
 10
65.558369
 20
263.010039
 30
0.0
 10
65.748319
 20
263.058402
 30
0.0
 10
65.922271
 20
263.126957
 30
0.0
 10
66.077298
 20
263.218797
 30
0.0
 10
66.259606
 20
263.364097
 30
0.0
 10
66.420487
 20
263.518330
 30
0.0
 10
66.561425
 20
263.678669
 30
0.0
 10
66.683905
 20
263.842285
 30
0.0
 10
66.789409
 20
264.006350
 30
0.0
 10
66.879436
 20
264.168037
 30
0.0
 10
66.955457
 20
264.324517
 30
0.0
 10
67.018966
 20
264.472963
 30
0.0
 10
67.021100
 20
264.478723
 30
0.0
 10
67.023233
 20
264.484483
 30
0.0
 10
67.025366
 20
264.490243
 30
0.0
 10
67.027500
 20
264.496003
 30
0.0
 10
67.029633
 20
264.501763
 30
0.0
 10
67.031766
 20
264.507523
 30
0.0
 10
67.033900
 20
264.513283
 30
0.0
 10
67.036033
 20
264.519043
 30
0.0
 10
67.442022
 20
266.146127
 30
0.0
 10
67.848012
 20
267.773210
 30
0.0
 10
68.254002
 20
269.400293
 30
0.0
 10
68.659991
 20
271.027376
 30
0.0
 10
69.065981
 20
272.654460
 30
0.0
 10
69.471970
 20
274.281543
 30
0.0
 10
69.877961
 20
275.908626
 30
0.0
 10
70.283950
 20
277.535710
 30
0.0
 10
70.264675
 20
277.523987
 30
0.0
 10
70.245401
 20
277.512265
 30
0.0
 10
70.226126
 20
277.500542
 30
0.0
 10
70.206851
 20
277.488819
 30
0.0
 10
70.187577
 20
277.477097
 30
0.0
 10
70.168302
 20
277.465374
 30
0.0
 10
70.149027
 20
277.453651
 30
0.0
 10
70.129753
 20
277.441929
 30
0.0
 10
70.140206
 20
277.474483
 30
0.0
 10
70.150659
 20
277.507038
 30
0.0
 10
70.161113
 20
277.539593
 30
0.0
 10
70.171566
 20
277.572147
 30
0.0
 10
70.182019
 20
277.604702
 30
0.0
 10
70.192473
 20
277.637257
 30
0.0
 10
70.202926
 20
277.669811
 30
0.0
 10
70.213379
 20
277.702366
 30
0.0
 10
70.223299
 20
277.685961
 30
0.0
 10
70.233219
 20
277.669555
 30
0.0
 10
70.243139
 20
277.653150
 30
0.0
 10
70.253059
 20
277.636745
 30
0.0
 10
70.262979
 20
277.620339
 30
0.0
 10
70.272899
 20
277.603934
 30
0.0
 10
70.282819
 20
277.587529
 30
0.0
 10
70.292739
 20
277.571123
 30
0.0
 10
70.583104
 20
278.736487
 30
0.0
 10
70.873469
 20
279.901853
 30
0.0
 10
71.163833
 20
281.067217
 30
0.0
 10
71.454197
 20
282.232581
 30
0.0
 10
71.744562
 20
283.397947
 30
0.0
 10
72.034926
 20
284.563311
 30
0.0
 10
72.325291
 20
285.728676
 30
0.0
 10
72.615655
 20
286.894041
 30
0.0
 10
72.616175
 20
286.902361
 30
0.0
 10
72.616695
 20
286.910681
 30
0.0
 10
72.617215
 20
286.919001
 30
0.0
 10
72.617735
 20
286.927321
 30
0.0
 10
72.618255
 20
286.935641
 30
0.0
 10
72.618775
 20
286.943961
 30
0.0
 10
72.619296
 20
286.952281
 30
0.0
 10
72.619815
 20
286.960601
 30
0.0
 10
72.627069
 20
287.199900
 30
0.0
 10
72.620135
 20
287.449003
 30
0.0
 10
72.596391
 20
287.705652
 30
0.0
 10
72.553159
 20
287.967593
 30
0.0
 10
72.487794
 20
288.232564
 30
0.0
 10
72.397629
 20
288.498311
 30
0.0
 10
72.280010
 20
288.762576
 30
0.0
 10
72.132284
 20
289.023100
 30
0.0
 10
71.966254
 20
289.254721
 30
0.0
 10
71.770371
 20
289.473489
 30
0.0
 10
71.545334
 20
289.678487
 30
0.0
 10
71.291841
 20
289.868796
 30
0.0
 10
71.010592
 20
290.043497
 30
0.0
 10
70.702283
 20
290.201671
 30
0.0
 10
70.367614
 20
290.342401
 30
0.0
 10
70.007283
 20
290.464767
 30
0.0
 10
70.006397
 20
290.465409
 30
0.0
 10
70.005369
 20
290.466186
 30
0.0
 10
70.004195
 20
290.467049
 30
0.0
 10
70.003022
 20
290.467953
 30
0.0
 10
70.001849
 20
290.468853
 30
0.0
 10
70.000782
 20
290.469702
 30
0.0
 10
69.999779
 20
290.470453
 30
0.0
 10
69.998927
 20
290.471060
 30
0.0
 10
69.966159
 20
290.492276
 30
0.0
 10
69.938959
 20
290.508596
 30
0.0
 10
69.916474
 20
290.520852
 30
0.0
 10
69.897839
 20
290.529919
 30
0.0
 10
69.882212
 20
290.536532
 30
0.0
 10
69.868730
 20
290.541546
 30
0.0
 10
69.856538
 20
290.545812
 30
0.0
 10
69.844772
 20
290.550186
 30
0.0
 10
69.821956
 20
290.559146
 30
0.0
 10
69.800591
 20
290.567252
 30
0.0
 10
69.780303
 20
290.574612
 30
0.0
 10
69.760730
 20
290.581439
 30
0.0
 10
69.741508
 20
290.587839
 30
0.0
 10
69.722266
 20
290.594026
 30
0.0
 10
69.702650
 20
290.600106
 30
0.0
 10
69.682287
 20
290.606292
 30
0.0
 10
69.639183
 20
290.619018
 30
0.0
 10
69.593306
 20
290.632106
 30
0.0
 10
69.544655
 20
290.645599
 30
0.0
 10
69.493210
 20
290.659551
 30
0.0
 10
69.438970
 20
290.674004
 30
0.0
 10
69.381924
 20
290.689012
 30
0.0
 10
69.322063
 20
290.704618
 30
0.0
 10
69.259375
 20
290.720863
 30
0.0
 10
69.126128
 20
290.755028
 30
0.0
 10
68.983647
 20
290.791028
 30
0.0
 10
68.833226
 20
290.828564
 30
0.0
 10
68.676159
 20
290.867348
 30
0.0
 10
68.513738
 20
290.907092
 30
0.0
 10
68.347257
 20
290.947508
 30
0.0
 10
68.178011
 20
290.988308
 30
0.0
 10
68.007291
 20
291.029204
 30
0.0
 10
67.811305
 20
291.075871
 30
0.0
 10
67.642156
 20
291.115892
 30
0.0
 10
67.494221
 20
291.150644
 30
0.0
 10
67.361882
 20
291.181514
 30
0.0
 10
67.239515
 20
291.209887
 30
0.0
 10
67.121499
 20
291.237130
 30
0.0
 10
67.002214
 20
291.264639
 30
0.0
 10
66.876041
 20
291.293791
 30
0.0
 10
66.997394
 20
291.782065
 30
0.0
 10
67.118749
 20
292.270339
 30
0.0
 10
67.240102
 20
292.758613
 30
0.0
 10
67.361456
 20
293.246886
 30
0.0
 10
67.482811
 20
293.735161
 30
0.0
 10
67.604164
 20
294.223435
 30
0.0
 10
67.725519
 20
294.711709
 30
0.0
 10
67.846873
 20
295.199983
 30
0.0
 10
68.532029
 20
295.028890
 30
0.0
 10
69.217185
 20
294.857795
 30
0.0
 10
69.902341
 20
294.686702
 30
0.0
 10
70.587498
 20
294.515609
 30
0.0
 10
71.272654
 20
294.344514
 30
0.0
 10
71.957810
 20
294.173421
 30
0.0
 10
72.642966
 20
294.002326
 30
0.0
 10
73.328123
 20
293.831233
 30
0.0
 10
73.327602
 20
293.828140
 30
0.0
 10
73.327083
 20
293.825046
 30
0.0
 10
73.326562
 20
293.821953
 30
0.0
 10
73.326043
 20
293.818860
 30
0.0
 10
73.325523
 20
293.815766
 30
0.0
 10
73.325003
 20
293.812673
 30
0.0
 10
73.324483
 20
293.809580
 30
0.0
 10
73.323963
 20
293.806486
 30
0.0
 10
73.406256
 20
293.785910
 30
0.0
 10
73.488549
 20
293.765334
 30
0.0
 10
73.570843
 20
293.744758
 30
0.0
 10
73.653136
 20
293.724182
 30
0.0
 10
73.735429
 20
293.703606
 30
0.0
 10
73.817723
 20
293.683030
 30
0.0
 10
73.900016
 20
293.662454
 30
0.0
 10
73.982309
 20
293.641878
 30
0.0
 10
74.371407
 20
293.546070
 30
0.0
 10
74.762926
 20
293.451372
 30
0.0
 10
75.156730
 20
293.357590
 30
0.0
 10
75.552681
 20
293.264545
 30
0.0
 10
75.950642
 20
293.172054
 30
0.0
 10
76.350479
 20
293.079926
 30
0.0
 10
76.752052
 20
292.987990
 30
0.0
 10
77.155226
 20
292.896054
 30
0.0
 10
77.239343
 20
292.876780
 30
0.0
 10
77.323460
 20
292.857505
 30
0.0
 10
77.407578
 20
292.838230
 30
0.0
 10
77.491695
 20
292.818956
 30
0.0
 10
77.575812
 20
292.799681
 30
0.0
 10
77.659930
 20
292.780406
 30
0.0
 10
77.744047
 20
292.761132
 30
0.0
 10
77.828164
 20
292.741857
 30
0.0
 10
78.081028
 20
293.755920
 30
0.0
 10
78.333891
 20
294.769983
 30
0.0
 10
78.586755
 20
295.784046
 30
0.0
 10
78.839618
 20
296.798108
 30
0.0
 10
79.092482
 20
297.812171
 30
0.0
 10
79.345346
 20
298.826234
 30
0.0
 10
79.598209
 20
299.840297
 30
0.0
  0
LWPOLYLINE
  5
102
100
AcDbEntity
  8
Layer_1
 62
7
100
AcDbPolyline
 90
72
 70
1
 10
80.447917
 20
287.520833
 30
0.0
 10
80.097657
 20
286.115104
 30
0.0
 10
79.747396
 20
284.709375
 30
0.0
 10
79.397136
 20
283.303646
 30
0.0
 10
79.046876
 20
281.897916
 30
0.0
 10
78.696614
 20
280.492187
 30
0.0
 10
78.346354
 20
279.086458
 30
0.0
 10
77.996094
 20
277.680729
 30
0.0
 10
77.645834
 20
276.274999
 30
0.0
 10
77.731252
 20
276.253901
 30
0.0
 10
77.816671
 20
276.232802
 30
0.0
 10
77.902090
 20
276.211714
 30
0.0
 10
77.987508
 20
276.190615
 30
0.0
 10
78.072927
 20
276.169517
 30
0.0
 10
78.158346
 20
276.148418
 30
0.0
 10
78.243764
 20
276.127319
 30
0.0
 10
78.329183
 20
276.106231
 30
0.0
 10
78.903094
 20
275.956261
 30
0.0
 10
79.604496
 20
275.768271
 30
0.0
 10
80.413845
 20
275.558551
 30
0.0
 10
81.311602
 20
275.343393
 30
0.0
 10
82.278223
 20
275.139083
 30
0.0
 10
83.294165
 20
274.961913
 30
0.0
 10
84.339888
 20
274.828172
 30
0.0
 10
85.395850
 20
274.754145
 30
0.0
 10
85.922575
 20
274.744438
 30
0.0
 10
86.446666
 20
274.755884
 30
0.0
 10
86.965845
 20
274.791404
 30
0.0
 10
87.477835
 20
274.853889
 30
0.0
 10
87.980358
 20
274.946230
 30
0.0
 10
88.471137
 20
275.071311
 30
0.0
 10
88.947892
 20
275.232021
 30
0.0
 10
89.408349
 20
275.431250
 30
0.0
 10
89.848396
 20
275.673834
 30
0.0
 10
90.262715
 20
275.962714
 30
0.0
 10
90.647214
 20
276.297938
 30
0.0
 10
90.997801
 20
276.679552
 30
0.0
 10
91.310383
 20
277.107602
 30
0.0
 10
91.580869
 20
277.582135
 30
0.0
 10
91.805166
 20
278.103197
 30
0.0
 10
91.979183
 20
278.670833
 30
0.0
 10
92.097035
 20
279.272348
 30
0.0
 10
92.148491
 20
279.854193
 30
0.0
 10
92.137045
 20
280.414642
 30
0.0
 10
92.066187
 20
280.951965
 30
0.0
 10
91.939380
 20
281.464432
 30
0.0
 10
91.760153
 20
281.950316
 30
0.0
 10
91.531974
 20
282.407887
 30
0.0
 10
91.258334
 20
282.835417
 30
0.0
 10
90.945380
 20
283.232789
 30
0.0
 10
90.599253
 20
283.602094
 30
0.0
 10
90.223436
 20
283.944905
 30
0.0
 10
89.821408
 20
284.262795
 30
0.0
 10
89.396653
 20
284.557342
 30
0.0
 10
88.952651
 20
284.830119
 30
0.0
 10
88.492884
 20
285.082703
 30
0.0
 10
88.020833
 20
285.316667
 30
0.0
 10
87.048643
 20
285.735308
 30
0.0
 10
86.057191
 20
286.094625
 30
0.0
 10
85.071966
 20
286.400784
 30
0.0
 10
84.118453
 20
286.659950
 30
0.0
 10
83.222138
 20
286.878289
 30
0.0
 10
82.408508
 20
287.061967
 30
0.0
 10
81.703050
 20
287.217149
 30
0.0
 10
81.131250
 20
287.350000
 30
0.0
 10
81.045831
 20
287.371355
 30
0.0
 10
80.960413
 20
287.392709
 30
0.0
 10
80.874994
 20
287.414064
 30
0.0
 10
80.789575
 20
287.435419
 30
0.0
 10
80.704157
 20
287.456773
 30
0.0
 10
80.618738
 20
287.478128
 30
0.0
 10
80.533333
 20
287.499478
 30
0.0
  0
LWPOLYLINE
  5
103
100
AcDbEntity
  8
Layer_1
 62
7
100
AcDbPolyline
 90
56
 70
1
 10
81.477084
 20
285.822916
 30
0.0
 10
82.097781
 20
285.683526
 30
0.0
 10
82.779691
 20
285.529125
 30
0.0
 10
83.509674
 20
285.355324
 30
0.0
 10
84.274592
 20
285.157732
 30
0.0
 10
85.061306
 20
284.931961
 30
0.0
 10
85.856676
 20
284.673618
 30
0.0
 10
86.647565
 20
284.378317
 30
0.0
 10
87.420833
 20
284.041666
 30
0.0
 10
87.841284
 20
283.832614
 30
0.0
 10
88.243030
 20
283.610530
 30
0.0
 10
88.623461
 20
283.375598
 30
0.0
 10
88.979969
 20
283.127998
 30
0.0
 10
89.309943
 20
282.867915
 30
0.0
 10
89.610777
 20
282.595530
 30
0.0
 10
89.879859
 20
282.311025
 30
0.0
 10
90.114583
 20
282.014583
 30
0.0
 10
90.315013
 20
281.706839
 30
0.0
 10
90.481203
 20
281.386180
 30
0.0
 10
90.610533
 20
281.049419
 30
0.0
 10
90.700379
 20
280.693366
 30
0.0
 10
90.748123
 20
280.314835
 30
0.0
 10
90.751109
 20
279.910640
 30
0.0
 10
90.706779
 20
279.477590
 30
0.0
 10
90.612475
 20
279.012500
 30
0.0
 10
90.483417
 20
278.581107
 30
0.0
 10
90.324786
 20
278.198038
 30
0.0
 10
90.137292
 20
277.859465
 30
0.0
 10
89.921642
 20
277.561556
 30
0.0
 10
89.678543
 20
277.300485
 30
0.0
 10
89.408705
 20
277.072421
 30
0.0
 10
89.112835
 20
276.873536
 30
0.0
 10
88.791642
 20
276.700000
 30
0.0
 10
88.444611
 20
276.550855
 30
0.0
 10
88.072397
 20
276.427054
 30
0.0
 10
87.677457
 20
276.327630
 30
0.0
 10
87.262250
 20
276.251630
 30
0.0
 10
86.829231
 20
276.198073
 30
0.0
 10
86.380861
 20
276.166009
 30
0.0
 10
85.919595
 20
276.154467
 30
0.0
 10
85.447891
 20
276.162467
 30
0.0
 10
84.603501
 20
276.218425
 30
0.0
 10
83.763053
 20
276.318019
 30
0.0
 10
82.936349
 20
276.451753
 30
0.0
 10
82.133190
 20
276.610124
 30
0.0
 10
81.363381
 20
276.783632
 30
0.0
 10
80.636721
 20
276.962777
 30
0.0
 10
79.963012
 20
277.138055
 30
0.0
 10
79.352058
 20
277.299969
 30
0.0
 10
79.617683
 20
278.365333
 30
0.0
 10
79.883308
 20
279.430698
 30
0.0
 10
80.148933
 20
280.496063
 30
0.0
 10
80.414558
 20
281.561427
 30
0.0
 10
80.680182
 20
282.626791
 30
0.0
 10
80.945808
 20
283.692156
 30
0.0
 10
81.211434
 20
284.757521
 30
0.0
  0
LWPOLYLINE
  5
104
100
AcDbEntity
  8
Layer_1
 62
7
100
AcDbPolyline
 90
80
 70
1
 10
76.743750
 20
272.658334
 30
0.0
 10
76.361458
 20
271.126042
 30
0.0
 10
75.979167
 20
269.593750
 30
0.0
 10
75.596875
 20
268.061458
 30
0.0
 10
75.214583
 20
266.529167
 30
0.0
 10
74.832291
 20
264.996875
 30
0.0
 10
74.450000
 20
263.464583
 30
0.0
 10
74.067708
 20
261.932291
 30
0.0
 10
73.685417
 20
260.400000
 30
0.0
 10
73.771091
 20
260.378645
 30
0.0
 10
73.856766
 20
260.357291
 30
0.0
 10
73.942441
 20
260.335936
 30
0.0
 10
74.028115
 20
260.314581
 30
0.0
 10
74.113790
 20
260.293227
 30
0.0
 10
74.199465
 20
260.271872
 30
0.0
 10
74.285139
 20
260.250517
 30
0.0
 10
74.370814
 20
260.229163
 30
0.0
 10
75.064319
 20
260.049701
 30
0.0
 10
75.907750
 20
259.826701
 30
0.0
 10
76.877596
 20
259.578289
 30
0.0
 10
77.950338
 20
259.322595
 30
0.0
 10
79.102463
 20
259.077748
 30
0.0
 10
80.310454
 20
258.861877
 30
0.0
 10
81.550799
 20
258.693111
 30
0.0
 10
82.799981
 20
258.589581
 30
0.0
 10
83.421375
 20
258.567650
 30
0.0
 10
84.038063
 20
258.568823
 30
0.0
 10
84.647443
 20
258.596247
 30
0.0
 10
85.246916
 20
258.653079
 30
0.0
 10
85.833882
 20
258.742477
 30
0.0
 10
86.405740
 20
258.867577
 30
0.0
 10
86.959889
 20
259.031535
 30
0.0
 10
87.493731
 20
259.237501
 30
0.0
 10
88.003375
 20
259.491297
 30
0.0
 10
88.483246
 20
259.796841
 30
0.0
 10
88.928214
 20
260.154427
 30
0.0
 10
89.333151
 20
260.564350
 30
0.0
 10
89.692925
 20
261.026907
 30
0.0
 10
90.002407
 20
261.542393
 30
0.0
 10
90.256469
 20
262.111103
 30
0.0
 10
90.449981
 20
262.733334
 30
0.0
 10
90.449714
 20
262.733334
 30
0.0
 10
90.449447
 20
262.733334
 30
0.0
 10
90.449181
 20
262.733334
 30
0.0
 10
90.448914
 20
262.733334
 30
0.0
 10
90.448647
 20
262.733334
 30
0.0
 10
90.448381
 20
262.733334
 30
0.0
 10
90.448114
 20
262.733334
 30
0.0
 10
90.447847
 20
262.733334
 30
0.0
 10
90.574470
 20
263.394063
 30
0.0
 10
90.622716
 20
264.033472
 30
0.0
 10
90.596977
 20
264.649601
 30
0.0
 10
90.501649
 20
265.240493
 30
0.0
 10
90.341133
 20
265.804188
 30
0.0
 10
90.119827
 20
266.338726
 30
0.0
 10
89.842130
 20
266.842150
 30
0.0
 10
89.512439
 20
267.312501
 30
0.0
 10
89.137722
 20
267.750338
 30
0.0
 10
88.724583
 20
268.158655
 30
0.0
 10
88.276943
 20
268.539143
 30
0.0
 10
87.798716
 20
268.893493
 30
0.0
 10
87.293818
 20
269.223396
 30
0.0
 10
86.766167
 20
269.530543
 30
0.0
 10
86.219680
 20
269.816626
 30
0.0
 10
85.658273
 20
270.083334
 30
0.0
 10
84.501585
 20
270.564575
 30
0.0
 10
83.321678
 20
270.982011
 30
0.0
 10
82.148415
 20
271.341727
 30
0.0
 10
81.011662
 20
271.649808
 30
0.0
 10
79.941282
 20
271.912341
 30
0.0
 10
78.967139
 20
272.135411
 30
0.0
 10
78.119099
 20
272.325102
 30
0.0
 10
77.427023
 20
272.487501
 30
0.0
 10
77.341615
 20
272.508855
 30
0.0
 10
77.256207
 20
272.530210
 30
0.0
 10
77.170799
 20
272.551565
 30
0.0
 10
77.085391
 20
272.572919
 30
0.0
 10
76.999983
 20
272.594274
 30
0.0
 10
76.914575
 20
272.615629
 30
0.0
 10
76.829167
 20
272.636983
 30
0.0
  0
LWPOLYLINE
  5
105
100
AcDbEntity
  8
Layer_1
 62
7
100
AcDbPolyline
 90
56
 70
1
 10
77.770833
 20
270.960417
 30
0.0
 10
78.513191
 20
270.791388
 30
0.0
 10
79.339159
 20
270.602921
 30
0.0
 10
80.231350
 20
270.390302
 30
0.0
 10
81.172377
 20
270.148819
 30
0.0
 10
82.144851
 20
269.873761
 30
0.0
 10
83.131386
 20
269.560414
 30
0.0
 10
84.114592
 20
269.204064
 30
0.0
 10
85.077084
 20
268.800000
 30
0.0
 10
85.590455
 20
268.555315
 30
0.0
 10
86.082593
 20
268.296018
 30
0.0
 10
86.550148
 20
268.022332
 30
0.0
 10
86.989776
 20
267.734477
 30
0.0
 10
87.398130
 20
267.432678
 30
0.0
 10
87.771863
 20
267.117156
 30
0.0
 10
88.107630
 20
266.788133
 30
0.0
 10
88.402083
 20
266.445834
 30
0.0
 10
88.654510
 20
266.091830
 30
0.0
 10
88.864587
 20
265.725291
 30
0.0
 10
89.029556
 20
265.342822
 30
0.0
 10
89.146660
 20
264.941038
 30
0.0
 10
89.213146
 20
264.516545
 30
0.0
 10
89.226244
 20
264.065954
 30
0.0
 10
89.183204
 20
263.585875
 30
0.0
 10
89.081263
 20
263.072916
 30
0.0
 10
88.937386
 20
262.598000
 30
0.0
 10
88.756444
 20
262.176076
 30
0.0
 10
88.539131
 20
261.803069
 30
0.0
 10
88.286140
 20
261.474903
 30
0.0
 10
87.998164
 20
261.187505
 30
0.0
 10
87.675898
 20
260.936800
 30
0.0
 10
87.320032
 20
260.718711
 30
0.0
 10
86.931263
 20
260.529167
 30
0.0
 10
86.509775
 20
260.367738
 30
0.0
 10
86.057412
 20
260.235882
 30
0.0
 10
85.577355
 20
260.132351
 30
0.0
 10
85.072781
 20
260.055892
 30
0.0
 10
84.546873
 20
260.005258
 30
0.0
 10
84.002807
 20
259.979199
 30
0.0
 10
83.443766
 20
259.976426
 30
0.0
 10
82.872929
 20
259.995775
 30
0.0
 10
81.829252
 20
260.079156
 30
0.0
 10
80.789868
 20
260.213068
 30
0.0
 10
79.768169
 20
260.385855
 30
0.0
 10
78.777550
 20
260.585860
 30
0.0
 10
77.831405
 20
260.801428
 30
0.0
 10
76.943130
 20
261.020902
 30
0.0
 10
76.126117
 20
261.232626
 30
0.0
 10
75.393763
 20
261.424943
 30
0.0
 10
75.690898
 20
262.616870
 30
0.0
 10
75.988034
 20
263.808797
 30
0.0
 10
76.285169
 20
265.000724
 30
0.0
 10
76.582305
 20
266.192652
 30
0.0
 10
76.879440
 20
267.384578
 30
0.0
 10
77.176575
 20
268.576506
 30
0.0
 10
77.473711
 20
269.768432
 30
0.0
  0
ENDSEC
  0
SECTION
  2
OBJECTS
  0
DICTIONARY
  5
C
330
0
100
AcDbDictionary
  3
ACAD_GROUP
350
D
  3
ACAD_MLINESTYLE
350
17
  0
DICTIONARY
  5
D
330
C
100
AcDbDictionary
  0
DICTIONARY
  5
1A
330
C
100
AcDbDictionary
  0
DICTIONARY
  5
17
330
C
100
AcDbDictionary
  3
STANDARD
350
18
  0
DICTIONARY
  5
19
330
C
100
AcDbDictionary
  0
ENDSEC
  0
EOF
