solid OpenSCAD_Model
  facet normal -1 0 0
    outer loop
      vertex -40 -40 0
      vertex -40 40 30
      vertex -40 40 0
    endloop
  endfacet
  facet normal -1 -0 0
    outer loop
      vertex -40 40 30
      vertex -40 -40 0
      vertex -40 -40 30
    endloop
  endfacet
  facet normal 0 0 1
    outer loop
      vertex -35.5 -37 30
      vertex -34 -37 30
      vertex -34.5729 -35.2366 30
    endloop
  endfacet
  facet normal 0 0 1
    outer loop
      vertex 35.7865 -37.8817 30
      vertex 34 -37 30
      vertex 34.3249 -38 30
    endloop
  endfacet
  facet normal 0 0 1
    outer loop
      vertex 35.7865 36.1183 30
      vertex 34 37 30
      vertex 34.5729 35.2366 30
    endloop
  endfacet
  facet normal 0 0 1
    outer loop
      vertex -35.5 37 30
      vertex -34 37 30
      vertex -34.3249 38 30
    endloop
  endfacet
  facet normal 0 0 1
    outer loop
      vertex -36.5365 -35.5734 30
      vertex -34.5729 -35.2366 30
      vertex -36.0729 -34.1468 30
    endloop
  endfacet
  facet normal 0 0 1
    outer loop
      vertex -34.5729 -35.2366 30
      vertex -36.5365 -35.5734 30
      vertex -35.5 -37 30
    endloop
  endfacet
  facet normal -0 0 1
    outer loop
      vertex -37.9271 -34.1468 30
      vertex -36.5365 -35.5734 30
      vertex -36.0729 -34.1468 30
    endloop
  endfacet
  facet normal -0 0 1
    outer loop
      vertex -38 -34.1998 30
      vertex -36.5365 -35.5734 30
      vertex -37.9271 -34.1468 30
    endloop
  endfacet
  facet normal 0 0 1
    outer loop
      vertex -38 -34.1998 30
      vertex -38.2135 -36.1183 30
      vertex -36.5365 -35.5734 30
    endloop
  endfacet
  facet normal 0 0 1
    outer loop
      vertex -38 34.1998 30
      vertex -40 40 30
      vertex -38 -34.1998 30
    endloop
  endfacet
  facet normal -0 0 1
    outer loop
      vertex -36.5365 35.5734 30
      vertex -34.5729 35.2366 30
      vertex -35.5 37 30
    endloop
  endfacet
  facet normal 0 0 1
    outer loop
      vertex -34.5729 35.2366 30
      vertex -36.5365 35.5734 30
      vertex -36.0729 34.1468 30
    endloop
  endfacet
  facet normal 0 0 1
    outer loop
      vertex -36.5365 35.5734 30
      vertex -37.9271 34.1468 30
      vertex -36.0729 34.1468 30
    endloop
  endfacet
  facet normal 0 0 1
    outer loop
      vertex -36.5365 35.5734 30
      vertex -38 34.1998 30
      vertex -37.9271 34.1468 30
    endloop
  endfacet
  facet normal 0 0 1
    outer loop
      vertex -40 40 30
      vertex -38 34.1998 30
      vertex -38.2135 36.1183 30
    endloop
  endfacet
  facet normal 0 0 1
    outer loop
      vertex -38.2135 36.1183 30
      vertex -38 34.1998 30
      vertex -36.5365 35.5734 30
    endloop
  endfacet
  facet normal -0 0 1
    outer loop
      vertex 38 -34.1998 30
      vertex 40 -40 30
      vertex 38 34.1998 30
    endloop
  endfacet
  facet normal -0 0 1
    outer loop
      vertex 37.4635 35.5734 30
      vertex 38 34.1998 30
      vertex 38.5 37 30
    endloop
  endfacet
  facet normal 0 0 1
    outer loop
      vertex 38 34.1998 30
      vertex 37.4635 35.5734 30
      vertex 37.9271 34.1468 30
    endloop
  endfacet
  facet normal 0 0 1
    outer loop
      vertex 37.4635 35.5734 30
      vertex 36.0729 34.1468 30
      vertex 37.9271 34.1468 30
    endloop
  endfacet
  facet normal 0 0 1
    outer loop
      vertex 35.7865 36.1183 30
      vertex 36.0729 34.1468 30
      vertex 37.4635 35.5734 30
    endloop
  endfacet
  facet normal 0 0 1
    outer loop
      vertex 36.0729 34.1468 30
      vertex 35.7865 36.1183 30
      vertex 34.5729 35.2366 30
    endloop
  endfacet
  facet normal 0 0 1
    outer loop
      vertex 38 34.1998 30
      vertex 40 40 30
      vertex 38.5 37 30
    endloop
  endfacet
  facet normal 0 0 1
    outer loop
      vertex 40 40 30
      vertex 37.4635 38.4266 30
      vertex 38.5 37 30
    endloop
  endfacet
  facet normal 0 0 1
    outer loop
      vertex 34.3249 38 30
      vertex 37.4635 38.4266 30
      vertex 40 40 30
    endloop
  endfacet
  facet normal 0 0 1
    outer loop
      vertex 34 37 30
      vertex 35.7865 37.8817 30
      vertex 34.3249 38 30
    endloop
  endfacet
  facet normal 0 0 1
    outer loop
      vertex 35.7865 37.8817 30
      vertex 34 37 30
      vertex 35.7865 36.1183 30
    endloop
  endfacet
  facet normal 0 0 1
    outer loop
      vertex 37.4635 38.4266 30
      vertex 34.3249 38 30
      vertex 35.7865 37.8817 30
    endloop
  endfacet
  facet normal 0 0 1
    outer loop
      vertex 40 40 30
      vertex -34.3249 38 30
      vertex 34.3249 38 30
    endloop
  endfacet
  facet normal 0 0 1
    outer loop
      vertex -34 37 30
      vertex -35.5 37 30
      vertex -34.5729 35.2366 30
    endloop
  endfacet
  facet normal 0 0 1
    outer loop
      vertex -34.3249 38 30
      vertex -36.5365 38.4266 30
      vertex -35.5 37 30
    endloop
  endfacet
  facet normal -0 0 1
    outer loop
      vertex -40 40 30
      vertex -34.3249 38 30
      vertex 40 40 30
    endloop
  endfacet
  facet normal 0 0 1
    outer loop
      vertex -40 40 30
      vertex -38.2135 36.1183 30
      vertex -38.2135 37.8817 30
    endloop
  endfacet
  facet normal 0 0 1
    outer loop
      vertex -40 -40 30
      vertex -38 -34.1998 30
      vertex -40 40 30
    endloop
  endfacet
  facet normal 0 0 1
    outer loop
      vertex -38 -34.1998 30
      vertex -40 -40 30
      vertex -38.2135 -36.1183 30
    endloop
  endfacet
  facet normal 0 0 1
    outer loop
      vertex -36.5365 38.4266 30
      vertex -40 40 30
      vertex -38.2135 37.8817 30
    endloop
  endfacet
  facet normal 0 0 1
    outer loop
      vertex -34.3249 38 30
      vertex -40 40 30
      vertex -36.5365 38.4266 30
    endloop
  endfacet
  facet normal 0 0 1
    outer loop
      vertex 40 40 30
      vertex 38 34.1998 30
      vertex 40 -40 30
    endloop
  endfacet
  facet normal -0 0 1
    outer loop
      vertex 37.4635 -38.4266 30
      vertex 40 -40 30
      vertex 38.5 -37 30
    endloop
  endfacet
  facet normal -0 0 1
    outer loop
      vertex 34.3249 -38 30
      vertex 37.4635 -38.4266 30
      vertex 35.7865 -37.8817 30
    endloop
  endfacet
  facet normal -0 0 1
    outer loop
      vertex 34 -37 30
      vertex 35.7865 -37.8817 30
      vertex 35.7865 -36.1183 30
    endloop
  endfacet
  facet normal 0 0 1
    outer loop
      vertex 37.4635 -38.4266 30
      vertex 34.3249 -38 30
      vertex 40 -40 30
    endloop
  endfacet
  facet normal -0 0 1
    outer loop
      vertex -34.3249 -38 30
      vertex 40 -40 30
      vertex 34.3249 -38 30
    endloop
  endfacet
  facet normal 0 0 1
    outer loop
      vertex -34 -37 30
      vertex -35.5 -37 30
      vertex -34.3249 -38 30
    endloop
  endfacet
  facet normal 0 0 1
    outer loop
      vertex -36.5365 -38.4266 30
      vertex -34.3249 -38 30
      vertex -35.5 -37 30
    endloop
  endfacet
  facet normal 0 0 1
    outer loop
      vertex -40 -40 30
      vertex -34.3249 -38 30
      vertex -36.5365 -38.4266 30
    endloop
  endfacet
  facet normal 0 0 1
    outer loop
      vertex -34.3249 -38 30
      vertex -40 -40 30
      vertex 40 -40 30
    endloop
  endfacet
  facet normal 0 0 1
    outer loop
      vertex -38.2135 -37.8817 30
      vertex -40 -40 30
      vertex -36.5365 -38.4266 30
    endloop
  endfacet
  facet normal 0 0 1
    outer loop
      vertex -38.2135 -36.1183 30
      vertex -40 -40 30
      vertex -38.2135 -37.8817 30
    endloop
  endfacet
  facet normal 0 0 1
    outer loop
      vertex 40 -40 30
      vertex 38 -34.1998 30
      vertex 38.5 -37 30
    endloop
  endfacet
  facet normal 0 0 1
    outer loop
      vertex 37.4635 -35.5734 30
      vertex 38 -34.1998 30
      vertex 37.9271 -34.1468 30
    endloop
  endfacet
  facet normal 0 0 1
    outer loop
      vertex 38 -34.1998 30
      vertex 37.4635 -35.5734 30
      vertex 38.5 -37 30
    endloop
  endfacet
  facet normal -0 0 1
    outer loop
      vertex 36.0729 -34.1468 30
      vertex 37.4635 -35.5734 30
      vertex 37.9271 -34.1468 30
    endloop
  endfacet
  facet normal 0 0 1
    outer loop
      vertex 36.0729 -34.1468 30
      vertex 35.7865 -36.1183 30
      vertex 37.4635 -35.5734 30
    endloop
  endfacet
  facet normal 0 0 1
    outer loop
      vertex 34 -37 30
      vertex 35.7865 -36.1183 30
      vertex 34.5729 -35.2366 30
    endloop
  endfacet
  facet normal -0 0 1
    outer loop
      vertex 34.5729 -35.2366 30
      vertex 35.7865 -36.1183 30
      vertex 36.0729 -34.1468 30
    endloop
  endfacet
  facet normal 1 -0 0
    outer loop
      vertex 40 -40 30
      vertex 40 40 0
      vertex 40 40 30
    endloop
  endfacet
  facet normal 1 0 0
    outer loop
      vertex 40 40 0
      vertex 40 -40 30
      vertex 40 -40 0
    endloop
  endfacet
  facet normal 0 1 0
    outer loop
      vertex -4.5 40 20.5
      vertex -22.6599 40 18.6996
      vertex -24.5156 40 19.2276
    endloop
  endfacet
  facet normal 0 1 0
    outer loop
      vertex -4.5 40 20.5
      vertex -21.1202 40 17.5369
      vertex -22.6599 40 18.6996
    endloop
  endfacet
  facet normal 0 1 0
    outer loop
      vertex -4.5 40 20.5
      vertex -20.1045 40 15.8965
      vertex -21.1202 40 17.5369
    endloop
  endfacet
  facet normal 0 1 -0
    outer loop
      vertex -4.5 40 14.5
      vertex -20.1045 40 15.8965
      vertex -4.5 40 20.5
    endloop
  endfacet
  facet normal 0 1 0
    outer loop
      vertex -20.1045 40 15.8965
      vertex -4.5 40 14.5
      vertex -19.75 40 14
    endloop
  endfacet
  facet normal 0 1 0
    outer loop
      vertex 40 40 30
      vertex 4.5 40 20.5
      vertex -40 40 30
    endloop
  endfacet
  facet normal 0 1 0
    outer loop
      vertex 23.5633 40 19.0496
      vertex 40 40 30
      vertex 25.4844 40 19.2276
    endloop
  endfacet
  facet normal 0 1 0
    outer loop
      vertex 40 40 30
      vertex 27.3401 40 18.6996
      vertex 25.4844 40 19.2276
    endloop
  endfacet
  facet normal 0 1 0
    outer loop
      vertex 40 40 30
      vertex 28.8798 40 17.5369
      vertex 27.3401 40 18.6996
    endloop
  endfacet
  facet normal 0 1 0
    outer loop
      vertex 40 40 30
      vertex 29.8955 40 15.8965
      vertex 28.8798 40 17.5369
    endloop
  endfacet
  facet normal 0 1 0
    outer loop
      vertex 40 40 30
      vertex 30.25 40 14
      vertex 29.8955 40 15.8965
    endloop
  endfacet
  facet normal 0 1 -0
    outer loop
      vertex 40 40 0
      vertex 30.25 40 14
      vertex 40 40 30
    endloop
  endfacet
  facet normal 0 1 0
    outer loop
      vertex -40 40 0
      vertex -22.6599 40 9.30039
      vertex 40 40 0
    endloop
  endfacet
  facet normal 0 1 0
    outer loop
      vertex 27.3401 40 9.30039
      vertex 40 40 0
      vertex 25.4844 40 8.7724
    endloop
  endfacet
  facet normal 0 1 0
    outer loop
      vertex 28.8798 40 10.4631
      vertex 40 40 0
      vertex 27.3401 40 9.30039
    endloop
  endfacet
  facet normal 0 1 0
    outer loop
      vertex 29.8955 40 12.1035
      vertex 40 40 0
      vertex 28.8798 40 10.4631
    endloop
  endfacet
  facet normal 0 1 0
    outer loop
      vertex 30.25 40 14
      vertex 40 40 0
      vertex 29.8955 40 12.1035
    endloop
  endfacet
  facet normal 0 1 -0
    outer loop
      vertex -4.5 40 20.5
      vertex -40 40 30
      vertex 4.5 40 20.5
    endloop
  endfacet
  facet normal 0 1 -0
    outer loop
      vertex -24.5156 40 19.2276
      vertex -40 40 30
      vertex -4.5 40 20.5
    endloop
  endfacet
  facet normal 0 1 -0
    outer loop
      vertex -26.4367 40 19.0496
      vertex -40 40 30
      vertex -24.5156 40 19.2276
    endloop
  endfacet
  facet normal 0 1 -0
    outer loop
      vertex -28.1638 40 18.1896
      vertex -40 40 30
      vertex -26.4367 40 19.0496
    endloop
  endfacet
  facet normal 0 1 -0
    outer loop
      vertex -29.4636 40 16.7638
      vertex -40 40 30
      vertex -28.1638 40 18.1896
    endloop
  endfacet
  facet normal 0 1 -0
    outer loop
      vertex -30.1606 40 14.9647
      vertex -40 40 30
      vertex -29.4636 40 16.7638
    endloop
  endfacet
  facet normal 0 1 0
    outer loop
      vertex -40 40 0
      vertex -30.1606 40 14.9647
      vertex -30.1606 40 13.0353
    endloop
  endfacet
  facet normal 0 1 0
    outer loop
      vertex -40 40 0
      vertex -30.1606 40 13.0353
      vertex -29.4636 40 11.2362
    endloop
  endfacet
  facet normal 0 1 0
    outer loop
      vertex -22.6599 40 9.30039
      vertex -40 40 0
      vertex -24.5156 40 8.7724
    endloop
  endfacet
  facet normal 0 1 0
    outer loop
      vertex -30.1606 40 14.9647
      vertex -40 40 0
      vertex -40 40 30
    endloop
  endfacet
  facet normal 0 1 0
    outer loop
      vertex -28.1638 40 9.81041
      vertex -40 40 0
      vertex -29.4636 40 11.2362
    endloop
  endfacet
  facet normal 0 1 0
    outer loop
      vertex -26.4367 40 8.95041
      vertex -40 40 0
      vertex -28.1638 40 9.81041
    endloop
  endfacet
  facet normal 0 1 0
    outer loop
      vertex -24.5156 40 8.7724
      vertex -40 40 0
      vertex -26.4367 40 8.95041
    endloop
  endfacet
  facet normal 0 1 0
    outer loop
      vertex 40 40 30
      vertex 23.5633 40 19.0496
      vertex 4.5 40 20.5
    endloop
  endfacet
  facet normal 0 1 -0
    outer loop
      vertex 21.8362 40 18.1896
      vertex 4.5 40 20.5
      vertex 23.5633 40 19.0496
    endloop
  endfacet
  facet normal 0 1 -0
    outer loop
      vertex 20.5364 40 16.7638
      vertex 4.5 40 20.5
      vertex 21.8362 40 18.1896
    endloop
  endfacet
  facet normal 0 1 -0
    outer loop
      vertex 19.8394 40 14.9647
      vertex 4.5 40 20.5
      vertex 20.5364 40 16.7638
    endloop
  endfacet
  facet normal 0 1 0
    outer loop
      vertex 19.8394 40 14.9647
      vertex 4.5 40 14.5
      vertex 4.5 40 20.5
    endloop
  endfacet
  facet normal 0 1 0
    outer loop
      vertex -22.6599 40 9.30039
      vertex -4.5 40 14.5
      vertex 4.5 40 14.5
    endloop
  endfacet
  facet normal 0 1 -0
    outer loop
      vertex 19.8394 40 13.0353
      vertex 4.5 40 14.5
      vertex 19.8394 40 14.9647
    endloop
  endfacet
  facet normal 0 1 0
    outer loop
      vertex 20.5364 40 11.2362
      vertex 4.5 40 14.5
      vertex 19.8394 40 13.0353
    endloop
  endfacet
  facet normal 0 1 0
    outer loop
      vertex -4.5 40 14.5
      vertex -20.1045 40 12.1035
      vertex -19.75 40 14
    endloop
  endfacet
  facet normal 0 1 0
    outer loop
      vertex 21.8362 40 9.81041
      vertex 4.5 40 14.5
      vertex 20.5364 40 11.2362
    endloop
  endfacet
  facet normal 0 1 0
    outer loop
      vertex -4.5 40 14.5
      vertex -21.1202 40 10.4631
      vertex -20.1045 40 12.1035
    endloop
  endfacet
  facet normal 0 1 0
    outer loop
      vertex -22.6599 40 9.30039
      vertex 4.5 40 14.5
      vertex 21.8362 40 9.81041
    endloop
  endfacet
  facet normal 0 1 0
    outer loop
      vertex -4.5 40 14.5
      vertex -22.6599 40 9.30039
      vertex -21.1202 40 10.4631
    endloop
  endfacet
  facet normal 0 1 0
    outer loop
      vertex 23.5633 40 8.95041
      vertex -22.6599 40 9.30039
      vertex 21.8362 40 9.81041
    endloop
  endfacet
  facet normal 0 1 0
    outer loop
      vertex 40 40 0
      vertex 23.5633 40 8.95041
      vertex 25.4844 40 8.7724
    endloop
  endfacet
  facet normal 0 1 0
    outer loop
      vertex 40 40 0
      vertex -22.6599 40 9.30039
      vertex 23.5633 40 8.95041
    endloop
  endfacet
  facet normal 0 0 -1
    outer loop
      vertex -36.5365 35.5734 0
      vertex 35.7865 36.1183 0
      vertex -36.5365 -35.5734 0
    endloop
  endfacet
  facet normal -0 0 -1
    outer loop
      vertex 35.7865 36.1183 0
      vertex -36.5365 35.5734 0
      vertex -35.5 37 0
    endloop
  endfacet
  facet normal 0 0 -1
    outer loop
      vertex -38.2135 -36.1183 0
      vertex -36.5365 35.5734 0
      vertex -36.5365 -35.5734 0
    endloop
  endfacet
  facet normal -0 0 -1
    outer loop
      vertex -36.5365 35.5734 0
      vertex -38.2135 -36.1183 0
      vertex -38.2135 36.1183 0
    endloop
  endfacet
  facet normal 0 0 -1
    outer loop
      vertex 37.4635 -35.5734 0
      vertex 38.5 37 0
      vertex 38.5 -37 0
    endloop
  endfacet
  facet normal 0 0 -1
    outer loop
      vertex 37.4635 -35.5734 0
      vertex 37.4635 35.5734 0
      vertex 38.5 37 0
    endloop
  endfacet
  facet normal 0 0 -1
    outer loop
      vertex 35.7865 -36.1183 0
      vertex 37.4635 35.5734 0
      vertex 37.4635 -35.5734 0
    endloop
  endfacet
  facet normal -0 0 -1
    outer loop
      vertex 37.4635 35.5734 0
      vertex 35.7865 -36.1183 0
      vertex 35.7865 36.1183 0
    endloop
  endfacet
  facet normal 0 0 -1
    outer loop
      vertex 40 -40 0
      vertex 38.5 -37 0
      vertex 40 40 0
    endloop
  endfacet
  facet normal 0 0 -1
    outer loop
      vertex 40 -40 0
      vertex 37.4635 -38.4266 0
      vertex 38.5 -37 0
    endloop
  endfacet
  facet normal 0 0 -1
    outer loop
      vertex 40 -40 0
      vertex 35.7865 -37.8817 0
      vertex 37.4635 -38.4266 0
    endloop
  endfacet
  facet normal 0 0 -1
    outer loop
      vertex -35.5 -37 0
      vertex 35.7865 -36.1183 0
      vertex 35.7865 -37.8817 0
    endloop
  endfacet
  facet normal 0 0 -1
    outer loop
      vertex -36.5365 -35.5734 0
      vertex 35.7865 -36.1183 0
      vertex -35.5 -37 0
    endloop
  endfacet
  facet normal 0 0 -1
    outer loop
      vertex 35.7865 -36.1183 0
      vertex -36.5365 -35.5734 0
      vertex 35.7865 36.1183 0
    endloop
  endfacet
  facet normal 0 0 -1
    outer loop
      vertex -36.5365 -38.4266 0
      vertex 35.7865 -37.8817 0
      vertex 40 -40 0
    endloop
  endfacet
  facet normal -0 0 -1
    outer loop
      vertex 35.7865 -37.8817 0
      vertex -36.5365 -38.4266 0
      vertex -35.5 -37 0
    endloop
  endfacet
  facet normal 0 0 -1
    outer loop
      vertex -40 -40 0
      vertex -38.2135 -36.1183 0
      vertex -38.2135 -37.8817 0
    endloop
  endfacet
  facet normal -0 0 -1
    outer loop
      vertex -38.2135 -36.1183 0
      vertex -40 -40 0
      vertex -38.2135 36.1183 0
    endloop
  endfacet
  facet normal 0 0 -1
    outer loop
      vertex -40 40 0
      vertex -38.2135 36.1183 0
      vertex -40 -40 0
    endloop
  endfacet
  facet normal -0 0 -1
    outer loop
      vertex -36.5365 -38.4266 0
      vertex -40 -40 0
      vertex -38.2135 -37.8817 0
    endloop
  endfacet
  facet normal 0 0 -1
    outer loop
      vertex -40 -40 0
      vertex -36.5365 -38.4266 0
      vertex 40 -40 0
    endloop
  endfacet
  facet normal 0 0 -1
    outer loop
      vertex 38.5 37 0
      vertex 40 40 0
      vertex 38.5 -37 0
    endloop
  endfacet
  facet normal 0 0 -1
    outer loop
      vertex 37.4635 38.4266 0
      vertex 40 40 0
      vertex 38.5 37 0
    endloop
  endfacet
  facet normal 0 0 -1
    outer loop
      vertex 35.7865 37.8817 0
      vertex 40 40 0
      vertex 37.4635 38.4266 0
    endloop
  endfacet
  facet normal 0 0 -1
    outer loop
      vertex 35.7865 36.1183 0
      vertex -35.5 37 0
      vertex 35.7865 37.8817 0
    endloop
  endfacet
  facet normal 0 0 -1
    outer loop
      vertex -36.5365 38.4266 0
      vertex 35.7865 37.8817 0
      vertex -35.5 37 0
    endloop
  endfacet
  facet normal 0 0 -1
    outer loop
      vertex 35.7865 37.8817 0
      vertex -36.5365 38.4266 0
      vertex 40 40 0
    endloop
  endfacet
  facet normal 0 0 -1
    outer loop
      vertex -36.5365 38.4266 0
      vertex -40 40 0
      vertex 40 40 0
    endloop
  endfacet
  facet normal 0 0 -1
    outer loop
      vertex -38.2135 37.8817 0
      vertex -40 40 0
      vertex -36.5365 38.4266 0
    endloop
  endfacet
  facet normal 0 0 -1
    outer loop
      vertex -38.2135 36.1183 0
      vertex -40 40 0
      vertex -38.2135 37.8817 0
    endloop
  endfacet
  facet normal 0 -1 0
    outer loop
      vertex -40 -40 0
      vertex 40 -40 30
      vertex -40 -40 30
    endloop
  endfacet
  facet normal 0 -1 -0
    outer loop
      vertex 40 -40 30
      vertex -40 -40 0
      vertex 40 -40 0
    endloop
  endfacet
  facet normal 1 -0 0
    outer loop
      vertex -38 -34.1998 30
      vertex -38 34.1998 2
      vertex -38 34.1998 30
    endloop
  endfacet
  facet normal 1 0 0
    outer loop
      vertex -38 34.1998 2
      vertex -38 -34.1998 30
      vertex -38 -34.1998 2
    endloop
  endfacet
  facet normal -1 0 0
    outer loop
      vertex 38 -34.1998 2
      vertex 38 34.1998 30
      vertex 38 34.1998 2
    endloop
  endfacet
  facet normal -1 -0 0
    outer loop
      vertex 38 34.1998 30
      vertex 38 -34.1998 2
      vertex 38 -34.1998 30
    endloop
  endfacet
  facet normal 0 -1 0
    outer loop
      vertex 34.3249 38 30
      vertex 23.5633 38 19.0496
      vertex 25.4844 38 19.2276
    endloop
  endfacet
  facet normal 0 -1 0
    outer loop
      vertex 4.5 38 20.5
      vertex 21.8362 38 18.1896
      vertex 23.5633 38 19.0496
    endloop
  endfacet
  facet normal 0 -1 0
    outer loop
      vertex 4.5 38 20.5
      vertex 20.5364 38 16.7638
      vertex 21.8362 38 18.1896
    endloop
  endfacet
  facet normal 0 -1 0
    outer loop
      vertex 4.5 38 20.5
      vertex 19.8394 38 14.9647
      vertex 20.5364 38 16.7638
    endloop
  endfacet
  facet normal 0 -1 0
    outer loop
      vertex 4.5 38 14.5
      vertex 19.8394 38 14.9647
      vertex 4.5 38 20.5
    endloop
  endfacet
  facet normal 0 -1 0
    outer loop
      vertex 4.5 38 14.5
      vertex 19.8394 38 13.0353
      vertex 19.8394 38 14.9647
    endloop
  endfacet
  facet normal 0 -1 0
    outer loop
      vertex -4.5 38 14.5
      vertex 19.8394 38 13.0353
      vertex 4.5 38 14.5
    endloop
  endfacet
  facet normal 0 -1 0
    outer loop
      vertex -21.1202 38 10.4631
      vertex -4.5 38 14.5
      vertex -20.1045 38 12.1035
    endloop
  endfacet
  facet normal 0 -1 0
    outer loop
      vertex -4.5 38 14.5
      vertex 20.5364 38 11.2362
      vertex 19.8394 38 13.0353
    endloop
  endfacet
  facet normal 0 -1 0
    outer loop
      vertex -22.6599 38 9.30039
      vertex -4.5 38 14.5
      vertex -21.1202 38 10.4631
    endloop
  endfacet
  facet normal 0 -1 0
    outer loop
      vertex -4.5 38 14.5
      vertex 21.8362 38 9.81041
      vertex 20.5364 38 11.2362
    endloop
  endfacet
  facet normal 0 -1 -0
    outer loop
      vertex -4.5 38 14.5
      vertex -22.6599 38 9.30039
      vertex 21.8362 38 9.81041
    endloop
  endfacet
  facet normal 0 -1 0
    outer loop
      vertex -22.6599 38 9.30039
      vertex 23.5633 38 8.95041
      vertex 21.8362 38 9.81041
    endloop
  endfacet
  facet normal 0 -1 0
    outer loop
      vertex -34.3249 38 2
      vertex -22.6599 38 9.30039
      vertex -24.5156 38 8.7724
    endloop
  endfacet
  facet normal 0 -1 -0
    outer loop
      vertex -22.6599 38 9.30039
      vertex -34.3249 38 2
      vertex 23.5633 38 8.95041
    endloop
  endfacet
  facet normal 0 -1 0
    outer loop
      vertex -34.3249 38 30
      vertex -4.5 38 20.5
      vertex 34.3249 38 30
    endloop
  endfacet
  facet normal 0 -1 0
    outer loop
      vertex -22.6599 38 18.6996
      vertex -34.3249 38 30
      vertex -24.5156 38 19.2276
    endloop
  endfacet
  facet normal 0 -1 0
    outer loop
      vertex -34.3249 38 30
      vertex -26.4367 38 19.0496
      vertex -24.5156 38 19.2276
    endloop
  endfacet
  facet normal 0 -1 0
    outer loop
      vertex -34.3249 38 30
      vertex -28.1638 38 18.1896
      vertex -26.4367 38 19.0496
    endloop
  endfacet
  facet normal 0 -1 0
    outer loop
      vertex -34.3249 38 30
      vertex -29.4636 38 16.7638
      vertex -28.1638 38 18.1896
    endloop
  endfacet
  facet normal 0 -1 0
    outer loop
      vertex -34.3249 38 30
      vertex -30.1606 38 14.9647
      vertex -29.4636 38 16.7638
    endloop
  endfacet
  facet normal 0 -1 0
    outer loop
      vertex -34.3249 38 2
      vertex -30.1606 38 14.9647
      vertex -34.3249 38 30
    endloop
  endfacet
  facet normal 0 -1 -0
    outer loop
      vertex 23.5633 38 8.95041
      vertex -34.3249 38 2
      vertex 34.3249 38 2
    endloop
  endfacet
  facet normal 0 -1 -0
    outer loop
      vertex -26.4367 38 8.95041
      vertex -34.3249 38 2
      vertex -24.5156 38 8.7724
    endloop
  endfacet
  facet normal 0 -1 -0
    outer loop
      vertex -28.1638 38 9.81041
      vertex -34.3249 38 2
      vertex -26.4367 38 8.95041
    endloop
  endfacet
  facet normal 0 -1 -0
    outer loop
      vertex -29.4636 38 11.2362
      vertex -34.3249 38 2
      vertex -28.1638 38 9.81041
    endloop
  endfacet
  facet normal 0 -1 -0
    outer loop
      vertex -30.1606 38 13.0353
      vertex -34.3249 38 2
      vertex -29.4636 38 11.2362
    endloop
  endfacet
  facet normal 0 -1 -0
    outer loop
      vertex -30.1606 38 14.9647
      vertex -34.3249 38 2
      vertex -30.1606 38 13.0353
    endloop
  endfacet
  facet normal 0 -1 0
    outer loop
      vertex 4.5 38 20.5
      vertex 34.3249 38 30
      vertex -4.5 38 20.5
    endloop
  endfacet
  facet normal 0 -1 0
    outer loop
      vertex 23.5633 38 19.0496
      vertex 34.3249 38 30
      vertex 4.5 38 20.5
    endloop
  endfacet
  facet normal 0 -1 0
    outer loop
      vertex 27.3401 38 18.6996
      vertex 34.3249 38 30
      vertex 25.4844 38 19.2276
    endloop
  endfacet
  facet normal 0 -1 0
    outer loop
      vertex 28.8798 38 17.5369
      vertex 34.3249 38 30
      vertex 27.3401 38 18.6996
    endloop
  endfacet
  facet normal 0 -1 0
    outer loop
      vertex 29.8955 38 15.8965
      vertex 34.3249 38 30
      vertex 28.8798 38 17.5369
    endloop
  endfacet
  facet normal 0 -1 0
    outer loop
      vertex 30.25 38 14
      vertex 34.3249 38 30
      vertex 29.8955 38 15.8965
    endloop
  endfacet
  facet normal 0 -1 0
    outer loop
      vertex 34.3249 38 2
      vertex 30.25 38 14
      vertex 29.8955 38 12.1035
    endloop
  endfacet
  facet normal 0 -1 0
    outer loop
      vertex 30.25 38 14
      vertex 34.3249 38 2
      vertex 34.3249 38 30
    endloop
  endfacet
  facet normal 0 -1 0
    outer loop
      vertex 28.8798 38 10.4631
      vertex 34.3249 38 2
      vertex 29.8955 38 12.1035
    endloop
  endfacet
  facet normal 0 -1 0
    outer loop
      vertex 27.3401 38 9.30039
      vertex 34.3249 38 2
      vertex 28.8798 38 10.4631
    endloop
  endfacet
  facet normal 0 -1 0
    outer loop
      vertex 25.4844 38 8.7724
      vertex 34.3249 38 2
      vertex 27.3401 38 9.30039
    endloop
  endfacet
  facet normal 0 -1 0
    outer loop
      vertex 23.5633 38 8.95041
      vertex 34.3249 38 2
      vertex 25.4844 38 8.7724
    endloop
  endfacet
  facet normal 0 -1 0
    outer loop
      vertex -34.3249 38 30
      vertex -22.6599 38 18.6996
      vertex -4.5 38 20.5
    endloop
  endfacet
  facet normal 0 -1 0
    outer loop
      vertex -21.1202 38 17.5369
      vertex -4.5 38 20.5
      vertex -22.6599 38 18.6996
    endloop
  endfacet
  facet normal 0 -1 0
    outer loop
      vertex -20.1045 38 15.8965
      vertex -4.5 38 20.5
      vertex -21.1202 38 17.5369
    endloop
  endfacet
  facet normal 0 -1 0
    outer loop
      vertex -20.1045 38 15.8965
      vertex -4.5 38 14.5
      vertex -4.5 38 20.5
    endloop
  endfacet
  facet normal 0 -1 0
    outer loop
      vertex -20.1045 38 12.1035
      vertex -4.5 38 14.5
      vertex -19.75 38 14
    endloop
  endfacet
  facet normal 0 -1 0
    outer loop
      vertex -19.75 38 14
      vertex -4.5 38 14.5
      vertex -20.1045 38 15.8965
    endloop
  endfacet
  facet normal -0 0 1
    outer loop
      vertex -37.9271 34.1468 2
      vertex -20.1384 6.3862 2
      vertex -36.0729 34.1468 2
    endloop
  endfacet
  facet normal 0 0 1
    outer loop
      vertex -20.1384 1.3862 2
      vertex -34.5729 -35.2366 2
      vertex -34 -37 2
    endloop
  endfacet
  facet normal 0 0 1
    outer loop
      vertex -20.1384 6.3862 2
      vertex -37.9271 34.1468 2
      vertex -20.1384 1.3862 2
    endloop
  endfacet
  facet normal 0 0 1
    outer loop
      vertex -20.1384 1.3862 2
      vertex -36.0729 -34.1468 2
      vertex -34.5729 -35.2366 2
    endloop
  endfacet
  facet normal 0 0 1
    outer loop
      vertex -37.9271 -34.1468 2
      vertex -20.1384 1.3862 2
      vertex -37.9271 34.1468 2
    endloop
  endfacet
  facet normal 0 0 1
    outer loop
      vertex -20.1384 1.3862 2
      vertex -37.9271 -34.1468 2
      vertex -36.0729 -34.1468 2
    endloop
  endfacet
  facet normal 0 0 1
    outer loop
      vertex -38 34.1998 2
      vertex -37.9271 -34.1468 2
      vertex -37.9271 34.1468 2
    endloop
  endfacet
  facet normal 0 0 1
    outer loop
      vertex -37.9271 -34.1468 2
      vertex -38 34.1998 2
      vertex -38 -34.1998 2
    endloop
  endfacet
  facet normal -0 0 1
    outer loop
      vertex -20.1384 1.3862 2
      vertex -13.3416 -27.9038 2
      vertex -13.1384 1.3862 2
    endloop
  endfacet
  facet normal 0 0 1
    outer loop
      vertex -13.3416 -27.9038 2
      vertex -20.1384 1.3862 2
      vertex -20.3416 -27.9038 2
    endloop
  endfacet
  facet normal -0 0 1
    outer loop
      vertex 20.3416 -32.9038 2
      vertex 34.5729 -35.2366 2
      vertex 20.3416 -27.9038 2
    endloop
  endfacet
  facet normal 0 0 1
    outer loop
      vertex 34.5729 35.2366 2
      vertex 20.1384 6.3862 2
      vertex 20.1384 1.3862 2
    endloop
  endfacet
  facet normal 0 0 1
    outer loop
      vertex -34 37 2
      vertex 34 37 2
      vertex 34.3249 38 2
    endloop
  endfacet
  facet normal 0 0 1
    outer loop
      vertex 34.5729 35.2366 2
      vertex 13.1384 6.3862 2
      vertex 20.1384 6.3862 2
    endloop
  endfacet
  facet normal 0 0 1
    outer loop
      vertex 13.1384 6.3862 2
      vertex -13.1384 6.3862 2
      vertex 13.1384 1.3862 2
    endloop
  endfacet
  facet normal 0 0 1
    outer loop
      vertex 34 37 2
      vertex -13.1384 6.3862 2
      vertex 13.1384 6.3862 2
    endloop
  endfacet
  facet normal 0 0 1
    outer loop
      vertex 34 37 2
      vertex -34 37 2
      vertex -13.1384 6.3862 2
    endloop
  endfacet
  facet normal 0 0 1
    outer loop
      vertex -13.1384 6.3862 2
      vertex -34.5729 35.2366 2
      vertex -20.1384 6.3862 2
    endloop
  endfacet
  facet normal 0 0 1
    outer loop
      vertex -20.1384 1.3862 2
      vertex -34 -37 2
      vertex -20.3416 -27.9038 2
    endloop
  endfacet
  facet normal -0 0 1
    outer loop
      vertex -36.0729 34.1468 2
      vertex -20.1384 6.3862 2
      vertex -34.5729 35.2366 2
    endloop
  endfacet
  facet normal -0 0 1
    outer loop
      vertex -34.5729 35.2366 2
      vertex -13.1384 6.3862 2
      vertex -34 37 2
    endloop
  endfacet
  facet normal 0 -0 1
    outer loop
      vertex -34 37 2
      vertex 34.3249 38 2
      vertex -34.3249 38 2
    endloop
  endfacet
  facet normal -0 0 1
    outer loop
      vertex 37.9271 34.1468 2
      vertex 38 -34.1998 2
      vertex 38 34.1998 2
    endloop
  endfacet
  facet normal 0 0 1
    outer loop
      vertex 37.9271 34.1468 2
      vertex 37.9271 -34.1468 2
      vertex 38 -34.1998 2
    endloop
  endfacet
  facet normal 0 0 1
    outer loop
      vertex 20.3416 -27.9038 2
      vertex 37.9271 34.1468 2
      vertex 36.0729 34.1468 2
    endloop
  endfacet
  facet normal 0 0 1
    outer loop
      vertex 37.9271 34.1468 2
      vertex 20.3416 -27.9038 2
      vertex 37.9271 -34.1468 2
    endloop
  endfacet
  facet normal 0 0 1
    outer loop
      vertex 20.3416 -27.9038 2
      vertex 36.0729 34.1468 2
      vertex 34.5729 35.2366 2
    endloop
  endfacet
  facet normal 0 0 1
    outer loop
      vertex 37.9271 -34.1468 2
      vertex 20.3416 -27.9038 2
      vertex 36.0729 -34.1468 2
    endloop
  endfacet
  facet normal 0 0 1
    outer loop
      vertex 13.1384 6.3862 2
      vertex 34.5729 35.2366 2
      vertex 34 37 2
    endloop
  endfacet
  facet normal 0 0 1
    outer loop
      vertex 36.0729 -34.1468 2
      vertex 20.3416 -27.9038 2
      vertex 34.5729 -35.2366 2
    endloop
  endfacet
  facet normal 0 0 1
    outer loop
      vertex 34.5729 -35.2366 2
      vertex 20.3416 -32.9038 2
      vertex 34 -37 2
    endloop
  endfacet
  facet normal 0 0 1
    outer loop
      vertex 34 -37 2
      vertex 20.3416 -32.9038 2
      vertex 34.3249 -38 2
    endloop
  endfacet
  facet normal -0 0 1
    outer loop
      vertex 13.3416 -32.9038 2
      vertex 34.3249 -38 2
      vertex 20.3416 -32.9038 2
    endloop
  endfacet
  facet normal 0 0 1
    outer loop
      vertex 13.1384 1.3862 2
      vertex -13.1384 1.3862 2
      vertex 13.3416 -27.9038 2
    endloop
  endfacet
  facet normal 0 0 1
    outer loop
      vertex -13.3416 -27.9038 2
      vertex 13.3416 -27.9038 2
      vertex -13.1384 1.3862 2
    endloop
  endfacet
  facet normal 0 0 1
    outer loop
      vertex 13.3416 -27.9038 2
      vertex -13.3416 -27.9038 2
      vertex 13.3416 -32.9038 2
    endloop
  endfacet
  facet normal 0 0 1
    outer loop
      vertex -13.3416 -32.9038 2
      vertex 13.3416 -32.9038 2
      vertex -13.3416 -27.9038 2
    endloop
  endfacet
  facet normal 0 0 1
    outer loop
      vertex 13.3416 -32.9038 2
      vertex -13.3416 -32.9038 2
      vertex 34.3249 -38 2
    endloop
  endfacet
  facet normal 0 0 1
    outer loop
      vertex -34.3249 -38 2
      vertex -13.3416 -32.9038 2
      vertex -20.3416 -32.9038 2
    endloop
  endfacet
  facet normal 0 0 1
    outer loop
      vertex -20.3416 -27.9038 2
      vertex -34 -37 2
      vertex -20.3416 -32.9038 2
    endloop
  endfacet
  facet normal 0 0 1
    outer loop
      vertex -34.3249 -38 2
      vertex -20.3416 -32.9038 2
      vertex -34 -37 2
    endloop
  endfacet
  facet normal 0 0 1
    outer loop
      vertex -13.3416 -32.9038 2
      vertex -34.3249 -38 2
      vertex 34.3249 -38 2
    endloop
  endfacet
  facet normal 0 0 1
    outer loop
      vertex 34.5729 35.2366 2
      vertex 20.1384 1.3862 2
      vertex 20.3416 -27.9038 2
    endloop
  endfacet
  facet normal 0 0 1
    outer loop
      vertex 20.1384 1.3862 2
      vertex 13.3416 -27.9038 2
      vertex 20.3416 -27.9038 2
    endloop
  endfacet
  facet normal 0 0 1
    outer loop
      vertex -13.1384 1.3862 2
      vertex 13.1384 1.3862 2
      vertex -13.1384 6.3862 2
    endloop
  endfacet
  facet normal -0 0 1
    outer loop
      vertex 13.1384 1.3862 2
      vertex 13.3416 -27.9038 2
      vertex 20.1384 1.3862 2
    endloop
  endfacet
  facet normal 0 0 1
    outer loop
      vertex -14.8781 -28.9772 2
      vertex -14.8781 -31.8304 2
      vertex -13.8416 -30.4038 2
    endloop
  endfacet
  facet normal -0 0 1
    outer loop
      vertex -16.5551 -29.5221 2
      vertex -14.8781 -31.8304 2
      vertex -14.8781 -28.9772 2
    endloop
  endfacet
  facet normal 0 0 1
    outer loop
      vertex -14.8781 -31.8304 2
      vertex -16.5551 -29.5221 2
      vertex -16.5551 -31.2855 2
    endloop
  endfacet
  facet normal 0 0 1
    outer loop
      vertex 15.8051 -28.9772 2
      vertex 15.8051 -31.8304 2
      vertex 16.8416 -30.4038 2
    endloop
  endfacet
  facet normal -0 0 1
    outer loop
      vertex 14.1281 -29.5221 2
      vertex 15.8051 -31.8304 2
      vertex 15.8051 -28.9772 2
    endloop
  endfacet
  facet normal 0 0 1
    outer loop
      vertex 15.8051 -31.8304 2
      vertex 14.1281 -29.5221 2
      vertex 14.1281 -31.2855 2
    endloop
  endfacet
  facet normal 0 0 1
    outer loop
      vertex -14.6749 5.31278 2
      vertex -14.6749 2.45962 2
      vertex -13.6384 3.8862 2
    endloop
  endfacet
  facet normal -0 0 1
    outer loop
      vertex -16.3519 4.76788 2
      vertex -14.6749 2.45962 2
      vertex -14.6749 5.31278 2
    endloop
  endfacet
  facet normal 0 0 1
    outer loop
      vertex -14.6749 2.45962 2
      vertex -16.3519 4.76788 2
      vertex -16.3519 3.00452 2
    endloop
  endfacet
  facet normal 0 0 1
    outer loop
      vertex 15.6019 5.31278 2
      vertex 15.6019 2.45962 2
      vertex 16.6384 3.8862 2
    endloop
  endfacet
  facet normal -0 0 1
    outer loop
      vertex 13.9249 4.76788 2
      vertex 15.6019 2.45962 2
      vertex 15.6019 5.31278 2
    endloop
  endfacet
  facet normal 0 0 1
    outer loop
      vertex 15.6019 2.45962 2
      vertex 13.9249 4.76788 2
      vertex 13.9249 3.00452 2
    endloop
  endfacet
  facet normal 0 1 -0
    outer loop
      vertex 34.3249 -38 2
      vertex -34.3249 -38 30
      vertex 34.3249 -38 30
    endloop
  endfacet
  facet normal 0 1 0
    outer loop
      vertex -34.3249 -38 30
      vertex 34.3249 -38 2
      vertex -34.3249 -38 2
    endloop
  endfacet
  facet normal 0.587794 -0.80901 0
    outer loop
      vertex 37.9271 34.1468 2
      vertex 38 34.1998 30
      vertex 37.9271 34.1468 30
    endloop
  endfacet
  facet normal 0.587794 -0.80901 0
    outer loop
      vertex 38 34.1998 30
      vertex 37.9271 34.1468 2
      vertex 38 34.1998 2
    endloop
  endfacet
  facet normal -0.587786 -0.809016 0
    outer loop
      vertex 34.5729 35.2366 2
      vertex 36.0729 34.1468 30
      vertex 34.5729 35.2366 30
    endloop
  endfacet
  facet normal -0.587786 -0.809016 -0
    outer loop
      vertex 36.0729 34.1468 30
      vertex 34.5729 35.2366 2
      vertex 36.0729 34.1468 2
    endloop
  endfacet
  facet normal -0.951056 0.309018 0
    outer loop
      vertex 34 37 2
      vertex 34.3249 38 30
      vertex 34.3249 38 2
    endloop
  endfacet
  facet normal -0.951056 0.309018 0
    outer loop
      vertex 34.3249 38 30
      vertex 34 37 2
      vertex 34 37 30
    endloop
  endfacet
  facet normal 0 -1 0
    outer loop
      vertex 36.0729 34.1468 2
      vertex 37.9271 34.1468 30
      vertex 36.0729 34.1468 30
    endloop
  endfacet
  facet normal 0 -1 -0
    outer loop
      vertex 37.9271 34.1468 30
      vertex 36.0729 34.1468 2
      vertex 37.9271 34.1468 2
    endloop
  endfacet
  facet normal -0.951057 -0.309017 0
    outer loop
      vertex 34.5729 35.2366 2
      vertex 34 37 30
      vertex 34 37 2
    endloop
  endfacet
  facet normal -0.951057 -0.309017 0
    outer loop
      vertex 34 37 30
      vertex 34.5729 35.2366 2
      vertex 34.5729 35.2366 30
    endloop
  endfacet
  facet normal 0.951056 0.309018 0
    outer loop
      vertex -34 37 30
      vertex -34.3249 38 2
      vertex -34.3249 38 30
    endloop
  endfacet
  facet normal 0.951056 0.309018 0
    outer loop
      vertex -34.3249 38 2
      vertex -34 37 30
      vertex -34 37 2
    endloop
  endfacet
  facet normal 0 -1 0
    outer loop
      vertex -37.9271 34.1468 2
      vertex -36.0729 34.1468 30
      vertex -37.9271 34.1468 30
    endloop
  endfacet
  facet normal 0 -1 -0
    outer loop
      vertex -36.0729 34.1468 30
      vertex -37.9271 34.1468 2
      vertex -36.0729 34.1468 2
    endloop
  endfacet
  facet normal 0.951057 -0.309017 0
    outer loop
      vertex -34.5729 35.2366 30
      vertex -34 37 2
      vertex -34 37 30
    endloop
  endfacet
  facet normal 0.951057 -0.309017 0
    outer loop
      vertex -34 37 2
      vertex -34.5729 35.2366 30
      vertex -34.5729 35.2366 2
    endloop
  endfacet
  facet normal 0.587786 -0.809016 0
    outer loop
      vertex -36.0729 34.1468 2
      vertex -34.5729 35.2366 30
      vertex -36.0729 34.1468 30
    endloop
  endfacet
  facet normal 0.587786 -0.809016 0
    outer loop
      vertex -34.5729 35.2366 30
      vertex -36.0729 34.1468 2
      vertex -34.5729 35.2366 2
    endloop
  endfacet
  facet normal -0.587794 -0.80901 0
    outer loop
      vertex -38 34.1998 2
      vertex -37.9271 34.1468 30
      vertex -38 34.1998 30
    endloop
  endfacet
  facet normal -0.587794 -0.80901 -0
    outer loop
      vertex -37.9271 34.1468 30
      vertex -38 34.1998 2
      vertex -37.9271 34.1468 2
    endloop
  endfacet
  facet normal 0 1 -0
    outer loop
      vertex 37.9271 -34.1468 2
      vertex 36.0729 -34.1468 30
      vertex 37.9271 -34.1468 30
    endloop
  endfacet
  facet normal 0 1 0
    outer loop
      vertex 36.0729 -34.1468 30
      vertex 37.9271 -34.1468 2
      vertex 36.0729 -34.1468 2
    endloop
  endfacet
  facet normal 0.587794 0.80901 -0
    outer loop
      vertex 38 -34.1998 2
      vertex 37.9271 -34.1468 30
      vertex 38 -34.1998 30
    endloop
  endfacet
  facet normal 0.587794 0.80901 0
    outer loop
      vertex 37.9271 -34.1468 30
      vertex 38 -34.1998 2
      vertex 37.9271 -34.1468 2
    endloop
  endfacet
  facet normal -0.587786 0.809016 0
    outer loop
      vertex 36.0729 -34.1468 2
      vertex 34.5729 -35.2366 30
      vertex 36.0729 -34.1468 30
    endloop
  endfacet
  facet normal -0.587786 0.809016 0
    outer loop
      vertex 34.5729 -35.2366 30
      vertex 36.0729 -34.1468 2
      vertex 34.5729 -35.2366 2
    endloop
  endfacet
  facet normal -0.951057 0.309017 0
    outer loop
      vertex 34 -37 2
      vertex 34.5729 -35.2366 30
      vertex 34.5729 -35.2366 2
    endloop
  endfacet
  facet normal -0.951057 0.309017 0
    outer loop
      vertex 34.5729 -35.2366 30
      vertex 34 -37 2
      vertex 34 -37 30
    endloop
  endfacet
  facet normal -0.951056 -0.309018 0
    outer loop
      vertex 34.3249 -38 2
      vertex 34 -37 30
      vertex 34 -37 2
    endloop
  endfacet
  facet normal -0.951056 -0.309018 0
    outer loop
      vertex 34 -37 30
      vertex 34.3249 -38 2
      vertex 34.3249 -38 30
    endloop
  endfacet
  facet normal 0.951057 0.309017 0
    outer loop
      vertex -34 -37 30
      vertex -34.5729 -35.2366 2
      vertex -34.5729 -35.2366 30
    endloop
  endfacet
  facet normal 0.951057 0.309017 0
    outer loop
      vertex -34.5729 -35.2366 2
      vertex -34 -37 30
      vertex -34 -37 2
    endloop
  endfacet
  facet normal 0 1 -0
    outer loop
      vertex -36.0729 -34.1468 2
      vertex -37.9271 -34.1468 30
      vertex -36.0729 -34.1468 30
    endloop
  endfacet
  facet normal 0 1 0
    outer loop
      vertex -37.9271 -34.1468 30
      vertex -36.0729 -34.1468 2
      vertex -37.9271 -34.1468 2
    endloop
  endfacet
  facet normal 0.587786 0.809016 -0
    outer loop
      vertex -34.5729 -35.2366 2
      vertex -36.0729 -34.1468 30
      vertex -34.5729 -35.2366 30
    endloop
  endfacet
  facet normal 0.587786 0.809016 0
    outer loop
      vertex -36.0729 -34.1468 30
      vertex -34.5729 -35.2366 2
      vertex -36.0729 -34.1468 2
    endloop
  endfacet
  facet normal -0.587794 0.80901 0
    outer loop
      vertex -37.9271 -34.1468 2
      vertex -38 -34.1998 30
      vertex -37.9271 -34.1468 30
    endloop
  endfacet
  facet normal -0.587794 0.80901 0
    outer loop
      vertex -38 -34.1998 30
      vertex -37.9271 -34.1468 2
      vertex -38 -34.1998 2
    endloop
  endfacet
  facet normal 0.951056 -0.309018 0
    outer loop
      vertex -34.3249 -38 30
      vertex -34 -37 2
      vertex -34 -37 30
    endloop
  endfacet
  facet normal 0.951056 -0.309018 0
    outer loop
      vertex -34 -37 2
      vertex -34.3249 -38 30
      vertex -34.3249 -38 2
    endloop
  endfacet
  facet normal -1 0 0
    outer loop
      vertex -20.1384 1.3862 2
      vertex -20.1384 6.3862 23
      vertex -20.1384 6.3862 2
    endloop
  endfacet
  facet normal -1 -0 0
    outer loop
      vertex -20.1384 6.3862 23
      vertex -20.1384 1.3862 2
      vertex -20.1384 1.3862 23
    endloop
  endfacet
  facet normal 0 0 1
    outer loop
      vertex -13.1384 6.3862 23
      vertex -13.6384 3.8862 23
      vertex -13.1384 1.3862 23
    endloop
  endfacet
  facet normal 0 0 1
    outer loop
      vertex -13.1384 6.3862 23
      vertex -14.6749 5.31278 23
      vertex -13.6384 3.8862 23
    endloop
  endfacet
  facet normal -0 0 1
    outer loop
      vertex -20.1384 6.3862 23
      vertex -14.6749 5.31278 23
      vertex -13.1384 6.3862 23
    endloop
  endfacet
  facet normal 0 0 1
    outer loop
      vertex -16.3519 4.76788 23
      vertex -20.1384 6.3862 23
      vertex -16.3519 3.00452 23
    endloop
  endfacet
  facet normal 0 0 1
    outer loop
      vertex -14.6749 5.31278 23
      vertex -20.1384 6.3862 23
      vertex -16.3519 4.76788 23
    endloop
  endfacet
  facet normal -0 0 1
    outer loop
      vertex -14.6749 2.45962 23
      vertex -13.1384 1.3862 23
      vertex -13.6384 3.8862 23
    endloop
  endfacet
  facet normal 0 0 1
    outer loop
      vertex -20.1384 1.3862 23
      vertex -14.6749 2.45962 23
      vertex -16.3519 3.00452 23
    endloop
  endfacet
  facet normal 0 0 1
    outer loop
      vertex -14.6749 2.45962 23
      vertex -20.1384 1.3862 23
      vertex -13.1384 1.3862 23
    endloop
  endfacet
  facet normal 0 0 1
    outer loop
      vertex -20.1384 1.3862 23
      vertex -16.3519 3.00452 23
      vertex -20.1384 6.3862 23
    endloop
  endfacet
  facet normal 1 -0 0
    outer loop
      vertex -13.1384 1.3862 23
      vertex -13.1384 6.3862 2
      vertex -13.1384 6.3862 23
    endloop
  endfacet
  facet normal 1 0 0
    outer loop
      vertex -13.1384 6.3862 2
      vertex -13.1384 1.3862 23
      vertex -13.1384 1.3862 2
    endloop
  endfacet
  facet normal 0 -1 0
    outer loop
      vertex -20.1384 1.3862 2
      vertex -13.1384 1.3862 23
      vertex -20.1384 1.3862 23
    endloop
  endfacet
  facet normal 0 -1 -0
    outer loop
      vertex -13.1384 1.3862 23
      vertex -20.1384 1.3862 2
      vertex -13.1384 1.3862 2
    endloop
  endfacet
  facet normal 0 1 -0
    outer loop
      vertex -13.1384 6.3862 2
      vertex -20.1384 6.3862 23
      vertex -13.1384 6.3862 23
    endloop
  endfacet
  facet normal 0 1 0
    outer loop
      vertex -20.1384 6.3862 23
      vertex -13.1384 6.3862 2
      vertex -20.1384 6.3862 2
    endloop
  endfacet
  facet normal -0.809017 -0.587786 0
    outer loop
      vertex -13.6384 3.8862 2
      vertex -14.6749 5.31278 23
      vertex -14.6749 5.31278 2
    endloop
  endfacet
  facet normal -0.809017 -0.587786 0
    outer loop
      vertex -14.6749 5.31278 23
      vertex -13.6384 3.8862 2
      vertex -13.6384 3.8862 23
    endloop
  endfacet
  facet normal 1 -0 0
    outer loop
      vertex -16.3519 3.00452 23
      vertex -16.3519 4.76788 2
      vertex -16.3519 4.76788 23
    endloop
  endfacet
  facet normal 1 0 0
    outer loop
      vertex -16.3519 4.76788 2
      vertex -16.3519 3.00452 23
      vertex -16.3519 3.00452 2
    endloop
  endfacet
  facet normal 0.309017 -0.951056 0
    outer loop
      vertex -16.3519 4.76788 2
      vertex -14.6749 5.31278 23
      vertex -16.3519 4.76788 23
    endloop
  endfacet
  facet normal 0.309017 -0.951056 0
    outer loop
      vertex -14.6749 5.31278 23
      vertex -16.3519 4.76788 2
      vertex -14.6749 5.31278 2
    endloop
  endfacet
  facet normal 0.309017 0.951056 -0
    outer loop
      vertex -14.6749 2.45962 2
      vertex -16.3519 3.00452 23
      vertex -14.6749 2.45962 23
    endloop
  endfacet
  facet normal 0.309017 0.951056 0
    outer loop
      vertex -16.3519 3.00452 23
      vertex -14.6749 2.45962 2
      vertex -16.3519 3.00452 2
    endloop
  endfacet
  facet normal -0.809017 0.587786 0
    outer loop
      vertex -14.6749 2.45962 2
      vertex -13.6384 3.8862 23
      vertex -13.6384 3.8862 2
    endloop
  endfacet
  facet normal -0.809017 0.587786 0
    outer loop
      vertex -13.6384 3.8862 23
      vertex -14.6749 2.45962 2
      vertex -14.6749 2.45962 23
    endloop
  endfacet
  facet normal -1 0 0
    outer loop
      vertex 13.1384 1.3862 2
      vertex 13.1384 6.3862 23
      vertex 13.1384 6.3862 2
    endloop
  endfacet
  facet normal -1 -0 0
    outer loop
      vertex 13.1384 6.3862 23
      vertex 13.1384 1.3862 2
      vertex 13.1384 1.3862 23
    endloop
  endfacet
  facet normal 0 0 1
    outer loop
      vertex 20.1384 6.3862 23
      vertex 16.6384 3.8862 23
      vertex 20.1384 1.3862 23
    endloop
  endfacet
  facet normal 0 0 1
    outer loop
      vertex 20.1384 6.3862 23
      vertex 15.6019 5.31278 23
      vertex 16.6384 3.8862 23
    endloop
  endfacet
  facet normal 0 0 1
    outer loop
      vertex 13.9249 4.76788 23
      vertex 13.1384 6.3862 23
      vertex 13.9249 3.00452 23
    endloop
  endfacet
  facet normal 0 0 1
    outer loop
      vertex 15.6019 5.31278 23
      vertex 13.1384 6.3862 23
      vertex 13.9249 4.76788 23
    endloop
  endfacet
  facet normal -0 0 1
    outer loop
      vertex 13.1384 6.3862 23
      vertex 15.6019 5.31278 23
      vertex 20.1384 6.3862 23
    endloop
  endfacet
  facet normal -0 0 1
    outer loop
      vertex 15.6019 2.45962 23
      vertex 20.1384 1.3862 23
      vertex 16.6384 3.8862 23
    endloop
  endfacet
  facet normal 0 0 1
    outer loop
      vertex 15.6019 2.45962 23
      vertex 13.1384 1.3862 23
      vertex 20.1384 1.3862 23
    endloop
  endfacet
  facet normal 0 0 1
    outer loop
      vertex 13.9249 3.00452 23
      vertex 13.1384 1.3862 23
      vertex 15.6019 2.45962 23
    endloop
  endfacet
  facet normal 0 0 1
    outer loop
      vertex 13.1384 1.3862 23
      vertex 13.9249 3.00452 23
      vertex 13.1384 6.3862 23
    endloop
  endfacet
  facet normal 1 -0 0
    outer loop
      vertex 20.1384 1.3862 23
      vertex 20.1384 6.3862 2
      vertex 20.1384 6.3862 23
    endloop
  endfacet
  facet normal 1 0 0
    outer loop
      vertex 20.1384 6.3862 2
      vertex 20.1384 1.3862 23
      vertex 20.1384 1.3862 2
    endloop
  endfacet
  facet normal 0 1 -0
    outer loop
      vertex 20.1384 6.3862 2
      vertex 13.1384 6.3862 23
      vertex 20.1384 6.3862 23
    endloop
  endfacet
  facet normal 0 1 0
    outer loop
      vertex 13.1384 6.3862 23
      vertex 20.1384 6.3862 2
      vertex 13.1384 6.3862 2
    endloop
  endfacet
  facet normal 0 -1 0
    outer loop
      vertex 13.1384 1.3862 2
      vertex 20.1384 1.3862 23
      vertex 13.1384 1.3862 23
    endloop
  endfacet
  facet normal 0 -1 -0
    outer loop
      vertex 20.1384 1.3862 23
      vertex 13.1384 1.3862 2
      vertex 20.1384 1.3862 2
    endloop
  endfacet
  facet normal -0.809017 -0.587785 0
    outer loop
      vertex 16.6384 3.8862 2
      vertex 15.6019 5.31278 23
      vertex 15.6019 5.31278 2
    endloop
  endfacet
  facet normal -0.809017 -0.587785 0
    outer loop
      vertex 15.6019 5.31278 23
      vertex 16.6384 3.8862 2
      vertex 16.6384 3.8862 23
    endloop
  endfacet
  facet normal 1 -0 0
    outer loop
      vertex 13.9249 3.00452 23
      vertex 13.9249 4.76788 2
      vertex 13.9249 4.76788 23
    endloop
  endfacet
  facet normal 1 0 0
    outer loop
      vertex 13.9249 4.76788 2
      vertex 13.9249 3.00452 23
      vertex 13.9249 3.00452 2
    endloop
  endfacet
  facet normal 0.309017 -0.951056 0
    outer loop
      vertex 13.9249 4.76788 2
      vertex 15.6019 5.31278 23
      vertex 13.9249 4.76788 23
    endloop
  endfacet
  facet normal 0.309017 -0.951056 0
    outer loop
      vertex 15.6019 5.31278 23
      vertex 13.9249 4.76788 2
      vertex 15.6019 5.31278 2
    endloop
  endfacet
  facet normal 0.309017 0.951056 -0
    outer loop
      vertex 15.6019 2.45962 2
      vertex 13.9249 3.00452 23
      vertex 15.6019 2.45962 23
    endloop
  endfacet
  facet normal 0.309017 0.951056 0
    outer loop
      vertex 13.9249 3.00452 23
      vertex 15.6019 2.45962 2
      vertex 13.9249 3.00452 2
    endloop
  endfacet
  facet normal -0.809017 0.587785 0
    outer loop
      vertex 15.6019 2.45962 2
      vertex 16.6384 3.8862 23
      vertex 16.6384 3.8862 2
    endloop
  endfacet
  facet normal -0.809017 0.587785 0
    outer loop
      vertex 16.6384 3.8862 23
      vertex 15.6019 2.45962 2
      vertex 15.6019 2.45962 23
    endloop
  endfacet
  facet normal -1 0 0
    outer loop
      vertex -20.3416 -32.9038 2
      vertex -20.3416 -27.9038 23
      vertex -20.3416 -27.9038 2
    endloop
  endfacet
  facet normal -1 -0 0
    outer loop
      vertex -20.3416 -27.9038 23
      vertex -20.3416 -32.9038 2
      vertex -20.3416 -32.9038 23
    endloop
  endfacet
  facet normal 0 0 1
    outer loop
      vertex -13.3416 -27.9038 23
      vertex -13.8416 -30.4038 23
      vertex -13.3416 -32.9038 23
    endloop
  endfacet
  facet normal 0 0 1
    outer loop
      vertex -13.3416 -27.9038 23
      vertex -14.8781 -28.9772 23
      vertex -13.8416 -30.4038 23
    endloop
  endfacet
  facet normal -0 0 1
    outer loop
      vertex -20.3416 -27.9038 23
      vertex -14.8781 -28.9772 23
      vertex -13.3416 -27.9038 23
    endloop
  endfacet
  facet normal 0 0 1
    outer loop
      vertex -16.5551 -29.5221 23
      vertex -20.3416 -27.9038 23
      vertex -16.5551 -31.2855 23
    endloop
  endfacet
  facet normal 0 0 1
    outer loop
      vertex -14.8781 -28.9772 23
      vertex -20.3416 -27.9038 23
      vertex -16.5551 -29.5221 23
    endloop
  endfacet
  facet normal -0 0 1
    outer loop
      vertex -14.8781 -31.8304 23
      vertex -13.3416 -32.9038 23
      vertex -13.8416 -30.4038 23
    endloop
  endfacet
  facet normal 0 0 1
    outer loop
      vertex -20.3416 -32.9038 23
      vertex -14.8781 -31.8304 23
      vertex -16.5551 -31.2855 23
    endloop
  endfacet
  facet normal 0 0 1
    outer loop
      vertex -14.8781 -31.8304 23
      vertex -20.3416 -32.9038 23
      vertex -13.3416 -32.9038 23
    endloop
  endfacet
  facet normal 0 0 1
    outer loop
      vertex -20.3416 -32.9038 23
      vertex -16.5551 -31.2855 23
      vertex -20.3416 -27.9038 23
    endloop
  endfacet
  facet normal 1 -0 0
    outer loop
      vertex -13.3416 -32.9038 23
      vertex -13.3416 -27.9038 2
      vertex -13.3416 -27.9038 23
    endloop
  endfacet
  facet normal 1 0 0
    outer loop
      vertex -13.3416 -27.9038 2
      vertex -13.3416 -32.9038 23
      vertex -13.3416 -32.9038 2
    endloop
  endfacet
  facet normal 0 -1 0
    outer loop
      vertex -20.3416 -32.9038 2
      vertex -13.3416 -32.9038 23
      vertex -20.3416 -32.9038 23
    endloop
  endfacet
  facet normal 0 -1 -0
    outer loop
      vertex -13.3416 -32.9038 23
      vertex -20.3416 -32.9038 2
      vertex -13.3416 -32.9038 2
    endloop
  endfacet
  facet normal 0 1 -0
    outer loop
      vertex -13.3416 -27.9038 2
      vertex -20.3416 -27.9038 23
      vertex -13.3416 -27.9038 23
    endloop
  endfacet
  facet normal 0 1 0
    outer loop
      vertex -20.3416 -27.9038 23
      vertex -13.3416 -27.9038 2
      vertex -20.3416 -27.9038 2
    endloop
  endfacet
  facet normal -0.809017 -0.587786 0
    outer loop
      vertex -13.8416 -30.4038 2
      vertex -14.8781 -28.9772 23
      vertex -14.8781 -28.9772 2
    endloop
  endfacet
  facet normal -0.809017 -0.587786 0
    outer loop
      vertex -14.8781 -28.9772 23
      vertex -13.8416 -30.4038 2
      vertex -13.8416 -30.4038 23
    endloop
  endfacet
  facet normal 1 -0 0
    outer loop
      vertex -16.5551 -31.2855 23
      vertex -16.5551 -29.5221 2
      vertex -16.5551 -29.5221 23
    endloop
  endfacet
  facet normal 1 0 0
    outer loop
      vertex -16.5551 -29.5221 2
      vertex -16.5551 -31.2855 23
      vertex -16.5551 -31.2855 2
    endloop
  endfacet
  facet normal 0.309017 -0.951056 0
    outer loop
      vertex -16.5551 -29.5221 2
      vertex -14.8781 -28.9772 23
      vertex -16.5551 -29.5221 23
    endloop
  endfacet
  facet normal 0.309017 -0.951056 0
    outer loop
      vertex -14.8781 -28.9772 23
      vertex -16.5551 -29.5221 2
      vertex -14.8781 -28.9772 2
    endloop
  endfacet
  facet normal 0.309017 0.951056 -0
    outer loop
      vertex -14.8781 -31.8304 2
      vertex -16.5551 -31.2855 23
      vertex -14.8781 -31.8304 23
    endloop
  endfacet
  facet normal 0.309017 0.951056 0
    outer loop
      vertex -16.5551 -31.2855 23
      vertex -14.8781 -31.8304 2
      vertex -16.5551 -31.2855 2
    endloop
  endfacet
  facet normal -0.809017 0.587786 0
    outer loop
      vertex -14.8781 -31.8304 2
      vertex -13.8416 -30.4038 23
      vertex -13.8416 -30.4038 2
    endloop
  endfacet
  facet normal -0.809017 0.587786 0
    outer loop
      vertex -13.8416 -30.4038 23
      vertex -14.8781 -31.8304 2
      vertex -14.8781 -31.8304 23
    endloop
  endfacet
  facet normal -1 0 0
    outer loop
      vertex 13.3416 -32.9038 2
      vertex 13.3416 -27.9038 23
      vertex 13.3416 -27.9038 2
    endloop
  endfacet
  facet normal -1 -0 0
    outer loop
      vertex 13.3416 -27.9038 23
      vertex 13.3416 -32.9038 2
      vertex 13.3416 -32.9038 23
    endloop
  endfacet
  facet normal 0 0 1
    outer loop
      vertex 20.3416 -27.9038 23
      vertex 16.8416 -30.4038 23
      vertex 20.3416 -32.9038 23
    endloop
  endfacet
  facet normal 0 0 1
    outer loop
      vertex 20.3416 -27.9038 23
      vertex 15.8051 -28.9772 23
      vertex 16.8416 -30.4038 23
    endloop
  endfacet
  facet normal 0 0 1
    outer loop
      vertex 14.1281 -29.5221 23
      vertex 13.3416 -27.9038 23
      vertex 14.1281 -31.2855 23
    endloop
  endfacet
  facet normal 0 0 1
    outer loop
      vertex 15.8051 -28.9772 23
      vertex 13.3416 -27.9038 23
      vertex 14.1281 -29.5221 23
    endloop
  endfacet
  facet normal -0 0 1
    outer loop
      vertex 13.3416 -27.9038 23
      vertex 15.8051 -28.9772 23
      vertex 20.3416 -27.9038 23
    endloop
  endfacet
  facet normal -0 0 1
    outer loop
      vertex 15.8051 -31.8304 23
      vertex 20.3416 -32.9038 23
      vertex 16.8416 -30.4038 23
    endloop
  endfacet
  facet normal 0 0 1
    outer loop
      vertex 15.8051 -31.8304 23
      vertex 13.3416 -32.9038 23
      vertex 20.3416 -32.9038 23
    endloop
  endfacet
  facet normal 0 0 1
    outer loop
      vertex 14.1281 -31.2855 23
      vertex 13.3416 -32.9038 23
      vertex 15.8051 -31.8304 23
    endloop
  endfacet
  facet normal 0 0 1
    outer loop
      vertex 13.3416 -32.9038 23
      vertex 14.1281 -31.2855 23
      vertex 13.3416 -27.9038 23
    endloop
  endfacet
  facet normal 1 -0 0
    outer loop
      vertex 20.3416 -32.9038 23
      vertex 20.3416 -27.9038 2
      vertex 20.3416 -27.9038 23
    endloop
  endfacet
  facet normal 1 0 0
    outer loop
      vertex 20.3416 -27.9038 2
      vertex 20.3416 -32.9038 23
      vertex 20.3416 -32.9038 2
    endloop
  endfacet
  facet normal 0 1 -0
    outer loop
      vertex 20.3416 -27.9038 2
      vertex 13.3416 -27.9038 23
      vertex 20.3416 -27.9038 23
    endloop
  endfacet
  facet normal 0 1 0
    outer loop
      vertex 13.3416 -27.9038 23
      vertex 20.3416 -27.9038 2
      vertex 13.3416 -27.9038 2
    endloop
  endfacet
  facet normal 0 -1 0
    outer loop
      vertex 13.3416 -32.9038 2
      vertex 20.3416 -32.9038 23
      vertex 13.3416 -32.9038 23
    endloop
  endfacet
  facet normal 0 -1 -0
    outer loop
      vertex 20.3416 -32.9038 23
      vertex 13.3416 -32.9038 2
      vertex 20.3416 -32.9038 2
    endloop
  endfacet
  facet normal -0.809017 -0.587786 0
    outer loop
      vertex 16.8416 -30.4038 2
      vertex 15.8051 -28.9772 23
      vertex 15.8051 -28.9772 2
    endloop
  endfacet
  facet normal -0.809017 -0.587786 0
    outer loop
      vertex 15.8051 -28.9772 23
      vertex 16.8416 -30.4038 2
      vertex 16.8416 -30.4038 23
    endloop
  endfacet
  facet normal 1 -0 0
    outer loop
      vertex 14.1281 -31.2855 23
      vertex 14.1281 -29.5221 2
      vertex 14.1281 -29.5221 23
    endloop
  endfacet
  facet normal 1 0 0
    outer loop
      vertex 14.1281 -29.5221 2
      vertex 14.1281 -31.2855 23
      vertex 14.1281 -31.2855 2
    endloop
  endfacet
  facet normal 0.309017 -0.951056 0
    outer loop
      vertex 14.1281 -29.5221 2
      vertex 15.8051 -28.9772 23
      vertex 14.1281 -29.5221 23
    endloop
  endfacet
  facet normal 0.309017 -0.951056 0
    outer loop
      vertex 15.8051 -28.9772 23
      vertex 14.1281 -29.5221 2
      vertex 15.8051 -28.9772 2
    endloop
  endfacet
  facet normal 0.309017 0.951056 -0
    outer loop
      vertex 15.8051 -31.8304 2
      vertex 14.1281 -31.2855 23
      vertex 15.8051 -31.8304 23
    endloop
  endfacet
  facet normal 0.309017 0.951056 0
    outer loop
      vertex 14.1281 -31.2855 23
      vertex 15.8051 -31.8304 2
      vertex 14.1281 -31.2855 2
    endloop
  endfacet
  facet normal -0.809017 0.587786 0
    outer loop
      vertex 15.8051 -31.8304 2
      vertex 16.8416 -30.4038 23
      vertex 16.8416 -30.4038 2
    endloop
  endfacet
  facet normal -0.809017 0.587786 0
    outer loop
      vertex 16.8416 -30.4038 23
      vertex 15.8051 -31.8304 2
      vertex 15.8051 -31.8304 23
    endloop
  endfacet
  facet normal -0.809016 -0.587787 0
    outer loop
      vertex 38.5 37 0
      vertex 37.4635 38.4266 30
      vertex 37.4635 38.4266 0
    endloop
  endfacet
  facet normal -0.809016 -0.587787 0
    outer loop
      vertex 37.4635 38.4266 30
      vertex 38.5 37 0
      vertex 38.5 37 30
    endloop
  endfacet
  facet normal 1 -0 0
    outer loop
      vertex 35.7865 36.1183 30
      vertex 35.7865 37.8817 0
      vertex 35.7865 37.8817 30
    endloop
  endfacet
  facet normal 1 0 0
    outer loop
      vertex 35.7865 37.8817 0
      vertex 35.7865 36.1183 30
      vertex 35.7865 36.1183 0
    endloop
  endfacet
  facet normal 0.309017 -0.951056 0
    outer loop
      vertex 35.7865 37.8817 0
      vertex 37.4635 38.4266 30
      vertex 35.7865 37.8817 30
    endloop
  endfacet
  facet normal 0.309017 -0.951056 0
    outer loop
      vertex 37.4635 38.4266 30
      vertex 35.7865 37.8817 0
      vertex 37.4635 38.4266 0
    endloop
  endfacet
  facet normal 0.309017 0.951056 -0
    outer loop
      vertex 37.4635 35.5734 0
      vertex 35.7865 36.1183 30
      vertex 37.4635 35.5734 30
    endloop
  endfacet
  facet normal 0.309017 0.951056 0
    outer loop
      vertex 35.7865 36.1183 30
      vertex 37.4635 35.5734 0
      vertex 35.7865 36.1183 0
    endloop
  endfacet
  facet normal -0.809017 0.587785 0
    outer loop
      vertex 37.4635 35.5734 0
      vertex 38.5 37 30
      vertex 38.5 37 0
    endloop
  endfacet
  facet normal -0.809017 0.587785 0
    outer loop
      vertex 38.5 37 30
      vertex 37.4635 35.5734 0
      vertex 37.4635 35.5734 30
    endloop
  endfacet
  facet normal -0.809016 -0.587787 0
    outer loop
      vertex -35.5 37 0
      vertex -36.5365 38.4266 30
      vertex -36.5365 38.4266 0
    endloop
  endfacet
  facet normal -0.809016 -0.587787 0
    outer loop
      vertex -36.5365 38.4266 30
      vertex -35.5 37 0
      vertex -35.5 37 30
    endloop
  endfacet
  facet normal 1 -0 0
    outer loop
      vertex -38.2135 36.1183 30
      vertex -38.2135 37.8817 0
      vertex -38.2135 37.8817 30
    endloop
  endfacet
  facet normal 1 0 0
    outer loop
      vertex -38.2135 37.8817 0
      vertex -38.2135 36.1183 30
      vertex -38.2135 36.1183 0
    endloop
  endfacet
  facet normal 0.309017 -0.951056 0
    outer loop
      vertex -38.2135 37.8817 0
      vertex -36.5365 38.4266 30
      vertex -38.2135 37.8817 30
    endloop
  endfacet
  facet normal 0.309017 -0.951056 0
    outer loop
      vertex -36.5365 38.4266 30
      vertex -38.2135 37.8817 0
      vertex -36.5365 38.4266 0
    endloop
  endfacet
  facet normal 0.309017 0.951056 -0
    outer loop
      vertex -36.5365 35.5734 0
      vertex -38.2135 36.1183 30
      vertex -36.5365 35.5734 30
    endloop
  endfacet
  facet normal 0.309017 0.951056 0
    outer loop
      vertex -38.2135 36.1183 30
      vertex -36.5365 35.5734 0
      vertex -38.2135 36.1183 0
    endloop
  endfacet
  facet normal -0.809017 0.587785 0
    outer loop
      vertex -36.5365 35.5734 0
      vertex -35.5 37 30
      vertex -35.5 37 0
    endloop
  endfacet
  facet normal -0.809017 0.587785 0
    outer loop
      vertex -35.5 37 30
      vertex -36.5365 35.5734 0
      vertex -36.5365 35.5734 30
    endloop
  endfacet
  facet normal -0.809017 -0.587785 0
    outer loop
      vertex 38.5 -37 0
      vertex 37.4635 -35.5734 30
      vertex 37.4635 -35.5734 0
    endloop
  endfacet
  facet normal -0.809017 -0.587785 0
    outer loop
      vertex 37.4635 -35.5734 30
      vertex 38.5 -37 0
      vertex 38.5 -37 30
    endloop
  endfacet
  facet normal 1 -0 0
    outer loop
      vertex 35.7865 -37.8817 30
      vertex 35.7865 -36.1183 0
      vertex 35.7865 -36.1183 30
    endloop
  endfacet
  facet normal 1 0 0
    outer loop
      vertex 35.7865 -36.1183 0
      vertex 35.7865 -37.8817 30
      vertex 35.7865 -37.8817 0
    endloop
  endfacet
  facet normal 0.309017 -0.951056 0
    outer loop
      vertex 35.7865 -36.1183 0
      vertex 37.4635 -35.5734 30
      vertex 35.7865 -36.1183 30
    endloop
  endfacet
  facet normal 0.309017 -0.951056 0
    outer loop
      vertex 37.4635 -35.5734 30
      vertex 35.7865 -36.1183 0
      vertex 37.4635 -35.5734 0
    endloop
  endfacet
  facet normal -0.809016 0.587787 0
    outer loop
      vertex 37.4635 -38.4266 0
      vertex 38.5 -37 30
      vertex 38.5 -37 0
    endloop
  endfacet
  facet normal -0.809016 0.587787 0
    outer loop
      vertex 38.5 -37 30
      vertex 37.4635 -38.4266 0
      vertex 37.4635 -38.4266 30
    endloop
  endfacet
  facet normal 0.309017 0.951056 -0
    outer loop
      vertex 37.4635 -38.4266 0
      vertex 35.7865 -37.8817 30
      vertex 37.4635 -38.4266 30
    endloop
  endfacet
  facet normal 0.309017 0.951056 0
    outer loop
      vertex 35.7865 -37.8817 30
      vertex 37.4635 -38.4266 0
      vertex 35.7865 -37.8817 0
    endloop
  endfacet
  facet normal -0.809017 -0.587785 0
    outer loop
      vertex -35.5 -37 0
      vertex -36.5365 -35.5734 30
      vertex -36.5365 -35.5734 0
    endloop
  endfacet
  facet normal -0.809017 -0.587785 0
    outer loop
      vertex -36.5365 -35.5734 30
      vertex -35.5 -37 0
      vertex -35.5 -37 30
    endloop
  endfacet
  facet normal 1 -0 0
    outer loop
      vertex -38.2135 -37.8817 30
      vertex -38.2135 -36.1183 0
      vertex -38.2135 -36.1183 30
    endloop
  endfacet
  facet normal 1 0 0
    outer loop
      vertex -38.2135 -36.1183 0
      vertex -38.2135 -37.8817 30
      vertex -38.2135 -37.8817 0
    endloop
  endfacet
  facet normal 0.309017 -0.951056 0
    outer loop
      vertex -38.2135 -36.1183 0
      vertex -36.5365 -35.5734 30
      vertex -38.2135 -36.1183 30
    endloop
  endfacet
  facet normal 0.309017 -0.951056 0
    outer loop
      vertex -36.5365 -35.5734 30
      vertex -38.2135 -36.1183 0
      vertex -36.5365 -35.5734 0
    endloop
  endfacet
  facet normal 0.309017 0.951056 -0
    outer loop
      vertex -36.5365 -38.4266 0
      vertex -38.2135 -37.8817 30
      vertex -36.5365 -38.4266 30
    endloop
  endfacet
  facet normal 0.309017 0.951056 0
    outer loop
      vertex -38.2135 -37.8817 30
      vertex -36.5365 -38.4266 0
      vertex -38.2135 -37.8817 0
    endloop
  endfacet
  facet normal -0.809016 0.587787 0
    outer loop
      vertex -36.5365 -38.4266 0
      vertex -35.5 -37 30
      vertex -35.5 -37 0
    endloop
  endfacet
  facet normal -0.809016 0.587787 0
    outer loop
      vertex -35.5 -37 30
      vertex -36.5365 -38.4266 0
      vertex -36.5365 -38.4266 30
    endloop
  endfacet
  facet normal 1 -0 0
    outer loop
      vertex -4.5 38 20.5
      vertex -4.5 40 14.5
      vertex -4.5 40 20.5
    endloop
  endfacet
  facet normal 1 0 0
    outer loop
      vertex -4.5 40 14.5
      vertex -4.5 38 20.5
      vertex -4.5 38 14.5
    endloop
  endfacet
  facet normal 0 0 -1
    outer loop
      vertex -4.5 38 20.5
      vertex 4.5 40 20.5
      vertex 4.5 38 20.5
    endloop
  endfacet
  facet normal -0 0 -1
    outer loop
      vertex 4.5 40 20.5
      vertex -4.5 38 20.5
      vertex -4.5 40 20.5
    endloop
  endfacet
  facet normal -1 0 0
    outer loop
      vertex 4.5 38 14.5
      vertex 4.5 40 20.5
      vertex 4.5 40 14.5
    endloop
  endfacet
  facet normal -1 -0 0
    outer loop
      vertex 4.5 40 20.5
      vertex 4.5 38 14.5
      vertex 4.5 38 20.5
    endloop
  endfacet
  facet normal -0 0 1
    outer loop
      vertex -4.5 40 14.5
      vertex 4.5 38 14.5
      vertex 4.5 40 14.5
    endloop
  endfacet
  facet normal 0 0 1
    outer loop
      vertex 4.5 38 14.5
      vertex -4.5 40 14.5
      vertex -4.5 38 14.5
    endloop
  endfacet
  facet normal -0.982973 0 -0.183749
    outer loop
      vertex -19.75 38 14
      vertex -20.1045 40 15.8965
      vertex -19.75 40 14
    endloop
  endfacet
  facet normal -0.982973 -0 -0.183749
    outer loop
      vertex -20.1045 40 15.8965
      vertex -19.75 38 14
      vertex -20.1045 38 15.8965
    endloop
  endfacet
  facet normal -0.850217 0 -0.526433
    outer loop
      vertex -20.1045 38 15.8965
      vertex -21.1202 40 17.5369
      vertex -20.1045 40 15.8965
    endloop
  endfacet
  facet normal -0.850217 -0 -0.526433
    outer loop
      vertex -21.1202 40 17.5369
      vertex -20.1045 38 15.8965
      vertex -21.1202 38 17.5369
    endloop
  endfacet
  facet normal 1 -0 0
    outer loop
      vertex -30.1606 38 14.9647
      vertex -30.1606 40 13.0353
      vertex -30.1606 40 14.9647
    endloop
  endfacet
  facet normal 1 0 0
    outer loop
      vertex -30.1606 40 13.0353
      vertex -30.1606 38 14.9647
      vertex -30.1606 38 13.0353
    endloop
  endfacet
  facet normal 0.0922687 0 -0.995734
    outer loop
      vertex -26.4367 38 19.0496
      vertex -24.5156 40 19.2276
      vertex -24.5156 38 19.2276
    endloop
  endfacet
  facet normal 0.0922687 0 -0.995734
    outer loop
      vertex -24.5156 40 19.2276
      vertex -26.4367 38 19.0496
      vertex -26.4367 40 19.0496
    endloop
  endfacet
  facet normal -0.602635 0 0.798017
    outer loop
      vertex -22.6599 40 9.30039
      vertex -21.1202 38 10.4631
      vertex -21.1202 40 10.4631
    endloop
  endfacet
  facet normal -0.602635 0 0.798017
    outer loop
      vertex -21.1202 38 10.4631
      vertex -22.6599 40 9.30039
      vertex -22.6599 38 9.30039
    endloop
  endfacet
  facet normal -0.602635 0 -0.798017
    outer loop
      vertex -22.6599 38 18.6996
      vertex -21.1202 40 17.5369
      vertex -21.1202 38 17.5369
    endloop
  endfacet
  facet normal -0.602635 0 -0.798017
    outer loop
      vertex -21.1202 40 17.5369
      vertex -22.6599 38 18.6996
      vertex -22.6599 40 18.6996
    endloop
  endfacet
  facet normal 0.73901 0 -0.673695
    outer loop
      vertex -28.1638 38 18.1896
      vertex -29.4636 40 16.7638
      vertex -28.1638 40 18.1896
    endloop
  endfacet
  facet normal 0.73901 0 -0.673695
    outer loop
      vertex -29.4636 40 16.7638
      vertex -28.1638 38 18.1896
      vertex -29.4636 38 16.7638
    endloop
  endfacet
  facet normal 0.445738 0 -0.895164
    outer loop
      vertex -28.1638 38 18.1896
      vertex -26.4367 40 19.0496
      vertex -26.4367 38 19.0496
    endloop
  endfacet
  facet normal 0.445738 0 -0.895164
    outer loop
      vertex -26.4367 40 19.0496
      vertex -28.1638 38 18.1896
      vertex -28.1638 40 18.1896
    endloop
  endfacet
  facet normal -0.273663 0 -0.961826
    outer loop
      vertex -24.5156 38 19.2276
      vertex -22.6599 40 18.6996
      vertex -22.6599 38 18.6996
    endloop
  endfacet
  facet normal -0.273663 0 -0.961826
    outer loop
      vertex -22.6599 40 18.6996
      vertex -24.5156 38 19.2276
      vertex -24.5156 40 19.2276
    endloop
  endfacet
  facet normal 0.932472 0 -0.361242
    outer loop
      vertex -29.4636 38 16.7638
      vertex -30.1606 40 14.9647
      vertex -29.4636 40 16.7638
    endloop
  endfacet
  facet normal 0.932472 0 -0.361242
    outer loop
      vertex -30.1606 40 14.9647
      vertex -29.4636 38 16.7638
      vertex -30.1606 38 14.9647
    endloop
  endfacet
  facet normal 0.932472 -0 0.361242
    outer loop
      vertex -30.1606 38 13.0353
      vertex -29.4636 40 11.2362
      vertex -30.1606 40 13.0353
    endloop
  endfacet
  facet normal 0.932472 0 0.361242
    outer loop
      vertex -29.4636 40 11.2362
      vertex -30.1606 38 13.0353
      vertex -29.4636 38 11.2362
    endloop
  endfacet
  facet normal -0.273663 0 0.961826
    outer loop
      vertex -24.5156 40 8.7724
      vertex -22.6599 38 9.30039
      vertex -22.6599 40 9.30039
    endloop
  endfacet
  facet normal -0.273663 0 0.961826
    outer loop
      vertex -22.6599 38 9.30039
      vertex -24.5156 40 8.7724
      vertex -24.5156 38 8.7724
    endloop
  endfacet
  facet normal -0.850217 0 0.526433
    outer loop
      vertex -21.1202 38 10.4631
      vertex -20.1045 40 12.1035
      vertex -21.1202 40 10.4631
    endloop
  endfacet
  facet normal -0.850217 0 0.526433
    outer loop
      vertex -20.1045 40 12.1035
      vertex -21.1202 38 10.4631
      vertex -20.1045 38 12.1035
    endloop
  endfacet
  facet normal -0.982973 0 0.183748
    outer loop
      vertex -20.1045 38 12.1035
      vertex -19.75 40 14
      vertex -20.1045 40 12.1035
    endloop
  endfacet
  facet normal -0.982973 0 0.183748
    outer loop
      vertex -19.75 40 14
      vertex -20.1045 38 12.1035
      vertex -19.75 38 14
    endloop
  endfacet
  facet normal 0.445738 0 0.895163
    outer loop
      vertex -28.1638 40 9.81041
      vertex -26.4367 38 8.95041
      vertex -26.4367 40 8.95041
    endloop
  endfacet
  facet normal 0.445738 0 0.895163
    outer loop
      vertex -26.4367 38 8.95041
      vertex -28.1638 40 9.81041
      vertex -28.1638 38 9.81041
    endloop
  endfacet
  facet normal 0.0922683 0 0.995734
    outer loop
      vertex -26.4367 40 8.95041
      vertex -24.5156 38 8.7724
      vertex -24.5156 40 8.7724
    endloop
  endfacet
  facet normal 0.0922683 0 0.995734
    outer loop
      vertex -24.5156 38 8.7724
      vertex -26.4367 40 8.95041
      vertex -26.4367 38 8.95041
    endloop
  endfacet
  facet normal 0.739009 -0 0.673695
    outer loop
      vertex -29.4636 38 11.2362
      vertex -28.1638 40 9.81041
      vertex -29.4636 40 11.2362
    endloop
  endfacet
  facet normal 0.739009 0 0.673695
    outer loop
      vertex -28.1638 40 9.81041
      vertex -29.4636 38 11.2362
      vertex -28.1638 38 9.81041
    endloop
  endfacet
  facet normal -0.982973 0 -0.18375
    outer loop
      vertex 30.25 38 14
      vertex 29.8955 40 15.8965
      vertex 30.25 40 14
    endloop
  endfacet
  facet normal -0.982973 -0 -0.18375
    outer loop
      vertex 29.8955 40 15.8965
      vertex 30.25 38 14
      vertex 29.8955 38 15.8965
    endloop
  endfacet
  facet normal -0.850217 0 -0.526433
    outer loop
      vertex 29.8955 38 15.8965
      vertex 28.8798 40 17.5369
      vertex 29.8955 40 15.8965
    endloop
  endfacet
  facet normal -0.850217 -0 -0.526433
    outer loop
      vertex 28.8798 40 17.5369
      vertex 29.8955 38 15.8965
      vertex 28.8798 38 17.5369
    endloop
  endfacet
  facet normal 1 -0 0
    outer loop
      vertex 19.8394 38 14.9647
      vertex 19.8394 40 13.0353
      vertex 19.8394 40 14.9647
    endloop
  endfacet
  facet normal 1 0 0
    outer loop
      vertex 19.8394 40 13.0353
      vertex 19.8394 38 14.9647
      vertex 19.8394 38 13.0353
    endloop
  endfacet
  facet normal 0.0922687 0 -0.995734
    outer loop
      vertex 23.5633 38 19.0496
      vertex 25.4844 40 19.2276
      vertex 25.4844 38 19.2276
    endloop
  endfacet
  facet normal 0.0922687 0 -0.995734
    outer loop
      vertex 25.4844 40 19.2276
      vertex 23.5633 38 19.0496
      vertex 23.5633 40 19.0496
    endloop
  endfacet
  facet normal -0.602635 0 0.798017
    outer loop
      vertex 27.3401 40 9.30039
      vertex 28.8798 38 10.4631
      vertex 28.8798 40 10.4631
    endloop
  endfacet
  facet normal -0.602635 0 0.798017
    outer loop
      vertex 28.8798 38 10.4631
      vertex 27.3401 40 9.30039
      vertex 27.3401 38 9.30039
    endloop
  endfacet
  facet normal -0.602635 0 -0.798017
    outer loop
      vertex 27.3401 38 18.6996
      vertex 28.8798 40 17.5369
      vertex 28.8798 38 17.5369
    endloop
  endfacet
  facet normal -0.602635 0 -0.798017
    outer loop
      vertex 28.8798 40 17.5369
      vertex 27.3401 38 18.6996
      vertex 27.3401 40 18.6996
    endloop
  endfacet
  facet normal 0.73901 0 -0.673695
    outer loop
      vertex 21.8362 38 18.1896
      vertex 20.5364 40 16.7638
      vertex 21.8362 40 18.1896
    endloop
  endfacet
  facet normal 0.73901 0 -0.673695
    outer loop
      vertex 20.5364 40 16.7638
      vertex 21.8362 38 18.1896
      vertex 20.5364 38 16.7638
    endloop
  endfacet
  facet normal 0.445738 0 -0.895164
    outer loop
      vertex 21.8362 38 18.1896
      vertex 23.5633 40 19.0496
      vertex 23.5633 38 19.0496
    endloop
  endfacet
  facet normal 0.445738 0 -0.895164
    outer loop
      vertex 23.5633 40 19.0496
      vertex 21.8362 38 18.1896
      vertex 21.8362 40 18.1896
    endloop
  endfacet
  facet normal -0.273663 0 -0.961826
    outer loop
      vertex 25.4844 38 19.2276
      vertex 27.3401 40 18.6996
      vertex 27.3401 38 18.6996
    endloop
  endfacet
  facet normal -0.273663 0 -0.961826
    outer loop
      vertex 27.3401 40 18.6996
      vertex 25.4844 38 19.2276
      vertex 25.4844 40 19.2276
    endloop
  endfacet
  facet normal 0.932472 0 -0.361242
    outer loop
      vertex 20.5364 38 16.7638
      vertex 19.8394 40 14.9647
      vertex 20.5364 40 16.7638
    endloop
  endfacet
  facet normal 0.932472 0 -0.361242
    outer loop
      vertex 19.8394 40 14.9647
      vertex 20.5364 38 16.7638
      vertex 19.8394 38 14.9647
    endloop
  endfacet
  facet normal 0.932472 -0 0.361242
    outer loop
      vertex 19.8394 38 13.0353
      vertex 20.5364 40 11.2362
      vertex 19.8394 40 13.0353
    endloop
  endfacet
  facet normal 0.932472 0 0.361242
    outer loop
      vertex 20.5364 40 11.2362
      vertex 19.8394 38 13.0353
      vertex 20.5364 38 11.2362
    endloop
  endfacet
  facet normal -0.273663 0 0.961826
    outer loop
      vertex 25.4844 40 8.7724
      vertex 27.3401 38 9.30039
      vertex 27.3401 40 9.30039
    endloop
  endfacet
  facet normal -0.273663 0 0.961826
    outer loop
      vertex 27.3401 38 9.30039
      vertex 25.4844 40 8.7724
      vertex 25.4844 38 8.7724
    endloop
  endfacet
  facet normal -0.850217 0 0.526433
    outer loop
      vertex 28.8798 38 10.4631
      vertex 29.8955 40 12.1035
      vertex 28.8798 40 10.4631
    endloop
  endfacet
  facet normal -0.850217 0 0.526433
    outer loop
      vertex 29.8955 40 12.1035
      vertex 28.8798 38 10.4631
      vertex 29.8955 38 12.1035
    endloop
  endfacet
  facet normal -0.982973 0 0.183749
    outer loop
      vertex 29.8955 38 12.1035
      vertex 30.25 40 14
      vertex 29.8955 40 12.1035
    endloop
  endfacet
  facet normal -0.982973 0 0.183749
    outer loop
      vertex 30.25 40 14
      vertex 29.8955 38 12.1035
      vertex 30.25 38 14
    endloop
  endfacet
  facet normal 0.445738 0 0.895163
    outer loop
      vertex 21.8362 40 9.81041
      vertex 23.5633 38 8.95041
      vertex 23.5633 40 8.95041
    endloop
  endfacet
  facet normal 0.445738 0 0.895163
    outer loop
      vertex 23.5633 38 8.95041
      vertex 21.8362 40 9.81041
      vertex 21.8362 38 9.81041
    endloop
  endfacet
  facet normal 0.0922682 0 0.995734
    outer loop
      vertex 23.5633 40 8.95041
      vertex 25.4844 38 8.7724
      vertex 25.4844 40 8.7724
    endloop
  endfacet
  facet normal 0.0922682 0 0.995734
    outer loop
      vertex 25.4844 38 8.7724
      vertex 23.5633 40 8.95041
      vertex 23.5633 38 8.95041
    endloop
  endfacet
  facet normal 0.739009 -0 0.673695
    outer loop
      vertex 20.5364 38 11.2362
      vertex 21.8362 40 9.81041
      vertex 20.5364 40 11.2362
    endloop
  endfacet
  facet normal 0.739009 0 0.673695
    outer loop
      vertex 21.8362 40 9.81041
      vertex 20.5364 38 11.2362
      vertex 21.8362 38 9.81041
    endloop
  endfacet
endsolid OpenSCAD_Model
