  0
SECTION
  2
HEADER
  9
$ACADVER
  1
AC1014
  9
$HANDSEED
  5
FFFF
  9
$MEASUREMENT
 70
     1
  0
ENDSEC
  0
SECTION
  2
TABLES
  0
TABLE
  2
VPORT
  5
8
330
0
100
AcDbSymbolTable
 70
     4
  0
VPORT
  5
2E
330
8
100
AcDbSymbolTableRecord
100
AcDbViewportTableRecord
  2
*ACTIVE
 70
     0
 10
0.0
 20
0.0
 11
1.0
 21
1.0
 12
210.0
 22
148.5
 13
0.0
 23
0.0
 14
10.0
 24
10.0
 15
10.0
 25
10.0
 16
0.0
 26
0.0
 36
1.0
 17
0.0
 27
0.0
 37
0.0
 40
341.0
 41
1.24
 42
50.0
 43
0.0
 44
0.0
 50
0.0
 51
0.0
 71
     0
 72
   100
 73
     1
 74
     3
 75
     0
 76
     0
 77
     0
 78
     0
  0
ENDTAB
  0
TABLE
  2
LTYPE
  5
5
330
0
100
AcDbSymbolTable
 70
     1
  0
LTYPE
  5
14
330
5
100
AcDbSymbolTableRecord
100
AcDbLinetypeTableRecord
  2
BYBLOCK
 70
     0
  3

 72
    65
 73
     0
 40
0.0
  0
LTYPE
  5
15
330
5
100
AcDbSymbolTableRecord
100
AcDbLinetypeTableRecord
  2
BYLAYER
 70
     0
  3

 72
    65
 73
     0
 40
0.0
  0
LTYPE
  5
16
330
5
100
AcDbSymbolTableRecord
100
AcDbLinetypeTableRecord
  2
CONTINUOUS
 70
     0
  3
Solid line
 72
    65
 73
     0
 40
0.0
  0
ENDTAB
  0
TABLE
  2
LAYER
  5
2
100
AcDbSymbolTable
 70
1
  0
LAYER
  5
50
100
AcDbSymbolTableRecord
100
AcDbLayerTableRecord
  2
0
 70
0
  6
CONTINUOUS
  0
ENDTAB
  0
TABLE
  2
STYLE
  5
3
330
0
100
AcDbSymbolTable
 70
     1
  0
STYLE
  5
11
330
3
100
AcDbSymbolTableRecord
100
AcDbTextStyleTableRecord
  2
STANDARD
 70
     0
 40
0.0
 41
1.0
 50
0.0
 71
     0
 42
2.5
  3
txt
  4

  0
ENDTAB
  0
TABLE
  2
VIEW
  5
6
330
0
100
AcDbSymbolTable
 70
     0
  0
ENDTAB
  0
TABLE
  2
UCS
  5
7
330
0
100
AcDbSymbolTable
 70
     0
  0
ENDTAB
  0
TABLE
  2
APPID
  5
9
330
0
100
AcDbSymbolTable
 70
     2
  0
APPID
  5
12
330
9
100
AcDbSymbolTableRecord
100
AcDbRegAppTableRecord
  2
ACAD
 70
     0
  0
ENDTAB
  0
TABLE
  2
DIMSTYLE
  5
A
330
0
100
AcDbSymbolTable
 70
     1
  0
DIMSTYLE
105
27
330
A
100
AcDbSymbolTableRecord
100
AcDbDimStyleTableRecord
  2
ISO-25
 70
     0
  3

  4

  5

  6

  7

 40
1.0
 41
2.5
 42
0.625
 43
3.75
 44
1.25
 45
0.0
 46
0.0
 47
0.0
 48
0.0
140
2.5
141
2.5
142
0.0
143
0.03937007874016
144
1.0
145
0.0
146
1.0
147
0.625
 71
     0
 72
     0
 73
     0
 74
     0
 75
     0
 76
     0
 77
     1
 78
     8
170
     0
171
     3
172
     1
173
     0
174
     0
175
     0
176
     0
177
     0
178
     0
270
     2
271
     2
272
     2
273
     2
274
     3
340
11
275
     0
280
     0
281
     0
282
     0
283
     0
284
     8
285
     0
286
     0
287
     3
288
     0
  0
ENDTAB
  0
TABLE
  2
BLOCK_RECORD
  5
1
330
0
100
AcDbSymbolTable
 70
     1
  0
BLOCK_RECORD
  5
1F
330
1
100
AcDbSymbolTableRecord
100
AcDbBlockTableRecord
  2
*MODEL_SPACE
  0
BLOCK_RECORD
  5
1B
330
1
100
AcDbSymbolTableRecord
100
AcDbBlockTableRecord
  2
*PAPER_SPACE
  0
ENDTAB
  0
ENDSEC
  0
SECTION
  2
BLOCKS
  0
BLOCK
  5
20
330
1F
100
AcDbEntity
  8
0
100
AcDbBlockBegin
  2
*MODEL_SPACE
 70
     0
 10
0.0
 20
0.0
 30
0.0
  3
*MODEL_SPACE
  1

  0
ENDBLK
  5
21
330
1F
100
AcDbEntity
  8
0
100
AcDbBlockEnd
  0
BLOCK
  5
1C
330
1B
100
AcDbEntity
 67
     1
  8
0
100
AcDbBlockBegin
  2
*PAPER_SPACE
  1

  0
ENDBLK
  5
1D
330
1B
100
AcDbEntity
 67
     1
  8
0
100
AcDbBlockEnd
  0
ENDSEC
  0
SECTION
  2
ENTITIES
  0
LWPOLYLINE
  5
100
100
AcDbEntity
  8
0
 62
7
100
AcDbPolyline
 90
32
 70
1
 10
4.509911
 20
3.302847
 30
0.0
 10
4.453022
 20
3.232152
 30
0.0
 10
4.403562
 20
3.158691
 30
0.0
 10
4.361571
 20
3.082913
 30
0.0
 10
4.327088
 20
3.005265
 30
0.0
 10
4.300156
 20
2.926197
 30
0.0
 10
4.280812
 20
2.846158
 30
0.0
 10
4.269097
 20
2.765594
 30
0.0
 10
4.265050
 20
2.684956
 30
0.0
 10
4.268714
 20
2.604692
 30
0.0
 10
4.280127
 20
2.525250
 30
0.0
 10
4.299329
 20
2.447079
 30
0.0
 10
4.326360
 20
2.370627
 30
0.0
 10
4.361262
 20
2.296343
 30
0.0
 10
4.404072
 20
2.224676
 30
0.0
 10
4.454833
 20
2.156073
 30
0.0
 10
4.513584
 20
2.090984
 30
0.0
 10
4.569198
 20
2.151100
 30
0.0
 10
4.617398
 20
2.216665
 30
0.0
 10
4.658175
 20
2.286960
 30
0.0
 10
4.691525
 20
2.361261
 30
0.0
 10
4.717439
 20
2.438848
 30
0.0
 10
4.735913
 20
2.518999
 30
0.0
 10
4.746939
 20
2.600994
 30
0.0
 10
4.750510
 20
2.684110
 30
0.0
 10
4.746620
 20
2.767626
 30
0.0
 10
4.735261
 20
2.850821
 30
0.0
 10
4.716428
 20
2.932973
 30
0.0
 10
4.690110
 20
3.013362
 30
0.0
 10
4.656308
 20
3.091265
 30
0.0
 10
4.615012
 20
3.165961
 30
0.0
 10
4.566216
 20
3.236728
 30
0.0
  0
LWPOLYLINE
  5
101
100
AcDbEntity
  8
0
 62
7
100
AcDbPolyline
 90
33
 70
0
 10
4.510193
 20
6.743700
 30
0.0
 10
4.376316
 20
6.576374
 30
0.0
 10
4.260879
 20
6.405771
 30
0.0
 10
4.163754
 20
6.232387
 30
0.0
 10
4.084814
 20
6.056714
 30
0.0
 10
4.023932
 20
5.879247
 30
0.0
 10
3.980980
 20
5.700479
 30
0.0
 10
3.955832
 20
5.520906
 30
0.0
 10
3.948358
 20
5.341020
 30
0.0
 10
3.958434
 20
5.161317
 30
0.0
 10
3.985931
 20
4.982289
 30
0.0
 10
4.030721
 20
4.804431
 30
0.0
 10
4.092679
 20
4.628237
 30
0.0
 10
4.171675
 20
4.454201
 30
0.0
 10
4.267584
 20
4.282818
 30
0.0
 10
4.380277
 20
4.114580
 30
0.0
 10
4.509627
 20
3.949982
 30
0.0
 10
4.641014
 20
4.117650
 30
0.0
 10
4.754925
 20
4.288444
 30
0.0
 10
4.851351
 20
4.461894
 30
0.0
 10
4.930284
 20
4.637529
 30
0.0
 10
4.991716
 20
4.814876
 30
0.0
 10
5.035640
 20
4.993466
 30
0.0
 10
5.062048
 20
5.172826
 30
0.0
 10
5.070932
 20
5.352486
 30
0.0
 10
5.062285
 20
5.531973
 30
0.0
 10
5.036097
 20
5.710817
 30
0.0
 10
4.992362
 20
5.888547
 30
0.0
 10
4.931070
 20
6.064691
 30
0.0
 10
4.852216
 20
6.238778
 30
0.0
 10
4.755790
 20
6.410336
 30
0.0
 10
4.641785
 20
6.578895
 30
0.0
 10
4.510193
 20
6.743982
 30
0.0
  0
LWPOLYLINE
  5
102
100
AcDbEntity
  8
0
 62
7
100
AcDbPolyline
 90
480
 70
1
 10
5.049802
 20
4.196644
 30
0.0
 10
5.170493
 20
4.312537
 30
0.0
 10
5.294405
 20
4.417006
 30
0.0
 10
5.421486
 20
4.510360
 30
0.0
 10
5.551681
 20
4.592911
 30
0.0
 10
5.684940
 20
4.664967
 30
0.0
 10
5.821208
 20
4.726840
 30
0.0
 10
5.960433
 20
4.778838
 30
0.0
 10
6.102562
 20
4.821273
 30
0.0
 10
6.247541
 20
4.854454
 30
0.0
 10
6.395319
 20
4.878691
 30
0.0
 10
6.545841
 20
4.894295
 30
0.0
 10
6.699056
 20
4.901573
 30
0.0
 10
6.854910
 20
4.900840
 30
0.0
 10
7.013350
 20
4.892401
 30
0.0
 10
7.174324
 20
4.876571
 30
0.0
 10
7.337778
 20
4.853658
 30
0.0
 10
7.283293
 20
4.733509
 30
0.0
 10
7.225806
 20
4.616594
 30
0.0
 10
7.165036
 20
4.503082
 30
0.0
 10
7.100707
 20
4.393146
 30
0.0
 10
7.032539
 20
4.286955
 30
0.0
 10
6.960255
 20
4.184680
 30
0.0
 10
6.883577
 20
4.086493
 30
0.0
 10
6.802226
 20
3.992562
 30
0.0
 10
6.715924
 20
3.903061
 30
0.0
 10
6.624392
 20
3.818158
 30
0.0
 10
6.527353
 20
3.738026
 30
0.0
 10
6.424529
 20
3.662834
 30
0.0
 10
6.315640
 20
3.592754
 30
0.0
 10
6.200410
 20
3.527956
 30
0.0
 10
6.078558
 20
3.468610
 30
0.0
 10
5.949809
 20
3.414889
 30
0.0
 10
5.978857
 20
3.437549
 30
0.0
 10
6.007581
 20
3.459740
 30
0.0
 10
6.035982
 20
3.481519
 30
0.0
 10
6.064061
 20
3.502937
 30
0.0
 10
6.091817
 20
3.524050
 30
0.0
 10
6.119252
 20
3.544909
 30
0.0
 10
6.146365
 20
3.565570
 30
0.0
 10
6.173156
 20
3.586091
 30
0.0
 10
6.199626
 20
3.606521
 30
0.0
 10
6.225777
 20
3.626917
 30
0.0
 10
6.251606
 20
3.647330
 30
0.0
 10
6.277116
 20
3.667816
 30
0.0
 10
6.302307
 20
3.688430
 30
0.0
 10
6.327179
 20
3.709227
 30
0.0
 10
6.351733
 20
3.730258
 30
0.0
 10
6.375967
 20
3.751580
 30
0.0
 10
6.415446
 20
3.787879
 30
0.0
 10
6.453438
 20
3.825133
 30
0.0
 10
6.489922
 20
3.863351
 30
0.0
 10
6.524879
 20
3.902542
 30
0.0
 10
6.558290
 20
3.942716
 30
0.0
 10
6.590136
 20
3.983881
 30
0.0
 10
6.620396
 20
4.026046
 30
0.0
 10
6.649052
 20
4.069221
 30
0.0
 10
6.676084
 20
4.113415
 30
0.0
 10
6.701472
 20
4.158636
 30
0.0
 10
6.725199
 20
4.204894
 30
0.0
 10
6.747243
 20
4.252198
 30
0.0
 10
6.767586
 20
4.300557
 30
0.0
 10
6.786207
 20
4.349980
 30
0.0
 10
6.803089
 20
4.400477
 30
0.0
 10
6.818211
 20
4.452056
 30
0.0
 10
6.822066
 20
4.467787
 30
0.0
 10
6.824634
 20
4.482118
 30
0.0
 10
6.825932
 20
4.495125
 30
0.0
 10
6.825964
 20
4.506883
 30
0.0
 10
6.824751
 20
4.517463
 30
0.0
 10
6.822267
 20
4.526943
 30
0.0
 10
6.818547
 20
4.535396
 30
0.0
 10
6.813591
 20
4.542897
 30
0.0
 10
6.807411
 20
4.549524
 30
0.0
 10
6.800011
 20
4.555349
 30
0.0
 10
6.791398
 20
4.560446
 30
0.0
 10
6.781582
 20
4.564891
 30
0.0
 10
6.770570
 20
4.568757
 30
0.0
 10
6.758372
 20
4.572124
 30
0.0
 10
6.744992
 20
4.575062
 30
0.0
 10
6.730440
 20
4.577659
 30
0.0
 10
6.675247
 20
4.585279
 30
0.0
 10
6.620469
 20
4.590407
 30
0.0
 10
6.566097
 20
4.593116
 30
0.0
 10
6.512124
 20
4.593483
 30
0.0
 10
6.458541
 20
4.591592
 30
0.0
 10
6.405340
 20
4.587494
 30
0.0
 10
6.352513
 20
4.581277
 30
0.0
 10
6.300051
 20
4.573013
 30
0.0
 10
6.247947
 20
4.562780
 30
0.0
 10
6.196191
 20
4.550650
 30
0.0
 10
6.144776
 20
4.536697
 30
0.0
 10
6.093694
 20
4.520997
 30
0.0
 10
6.042936
 20
4.503623
 30
0.0
 10
5.992493
 20
4.484649
 30
0.0
 10
5.942358
 20
4.464152
 30
0.0
 10
5.892518
 20
4.442178
 30
0.0
 10
5.809864
 20
4.402811
 30
0.0
 10
5.729060
 20
4.360993
 30
0.0
 10
5.650018
 20
4.316844
 30
0.0
 10
5.572650
 20
4.270485
 30
0.0
 10
5.496868
 20
4.222038
 30
0.0
 10
5.422583
 20
4.171623
 30
0.0
 10
5.349708
 20
4.119362
 30
0.0
 10
5.278155
 20
4.065376
 30
0.0
 10
5.207836
 20
4.009786
 30
0.0
 10
5.138662
 20
3.952712
 30
0.0
 10
5.070546
 20
3.894277
 30
0.0
 10
5.003399
 20
3.834602
 30
0.0
 10
4.937133
 20
3.773807
 30
0.0
 10
4.871661
 20
3.712013
 30
0.0
 10
4.806894
 20
3.649342
 30
0.0
 10
4.742744
 20
3.585916
 30
0.0
 10
4.741672
 20
3.584730
 30
0.0
 10
4.740656
 20
3.583460
 30
0.0
 10
4.739696
 20
3.582106
 30
0.0
 10
4.738765
 20
3.580638
 30
0.0
 10
4.737834
 20
3.579058
 30
0.0
 10
4.736902
 20
3.577364
 30
0.0
 10
4.735943
 20
3.575530
 30
0.0
 10
4.734955
 20
3.573554
 30
0.0
 10
4.733911
 20
3.571438
 30
0.0
 10
4.732782
 20
3.569152
 30
0.0
 10
4.731568
 20
3.566668
 30
0.0
 10
4.730242
 20
3.564015
 30
0.0
 10
4.728803
 20
3.561151
 30
0.0
 10
4.727222
 20
3.558074
 30
0.0
 10
4.725472
 20
3.554778
 30
0.0
 10
4.723553
 20
3.551247
 30
0.0
 10
4.846824
 20
3.543633
 30
0.0
 10
4.966294
 20
3.530213
 30
0.0
 10
5.081893
 20
3.510828
 30
0.0
 10
5.193550
 20
3.485317
 30
0.0
 10
5.301196
 20
3.453525
 30
0.0
 10
5.404760
 20
3.415292
 30
0.0
 10
5.504171
 20
3.370461
 30
0.0
 10
5.599359
 20
3.318872
 30
0.0
 10
5.690255
 20
3.260368
 30
0.0
 10
5.776788
 20
3.194790
 30
0.0
 10
5.858887
 20
3.121979
 30
0.0
 10
5.936483
 20
3.041779
 30
0.0
 10
6.009504
 20
2.954029
 30
0.0
 10
6.077882
 20
2.858572
 30
0.0
 10
6.141544
 20
2.755249
 30
0.0
 10
6.200422
 20
2.643858
 30
0.0
 10
6.127468
 20
2.628815
 30
0.0
 10
6.055284
 20
2.616372
 30
0.0
 10
5.983859
 20
2.606658
 30
0.0
 10
5.913182
 20
2.599806
 30
0.0
 10
5.843242
 20
2.595948
 30
0.0
 10
5.774030
 20
2.595214
 30
0.0
 10
5.705533
 20
2.597726
 30
0.0
 10
5.637742
 20
2.603635
 30
0.0
 10
5.570645
 20
2.613065
 30
0.0
 10
5.504232
 20
2.626143
 30
0.0
 10
5.438492
 20
2.643003
 30
0.0
 10
5.373414
 20
2.663777
 30
0.0
 10
5.308988
 20
2.688596
 30
0.0
 10
5.245202
 20
2.717590
 30
0.0
 10
5.182047
 20
2.750893
 30
0.0
 10
5.119511
 20
2.788638
 30
0.0
 10
5.166395
 20
2.774529
 30
0.0
 10
5.213301
 20
2.761152
 30
0.0
 10
5.260268
 20
2.748748
 30
0.0
 10
5.307330
 20
2.737558
 30
0.0
 10
5.354525
 20
2.727822
 30
0.0
 10
5.401888
 20
2.719781
 30
0.0
 10
5.449456
 20
2.713680
 30
0.0
 10
5.497266
 20
2.709757
 30
0.0
 10
5.545353
 20
2.708261
 30
0.0
 10
5.593755
 20
2.709418
 30
0.0
 10
5.642507
 20
2.713482
 30
0.0
 10
5.691646
 20
2.720693
 30
0.0
 10
5.741209
 20
2.731290
 30
0.0
 10
5.791231
 20
2.745514
 30
0.0
 10
5.841749
 20
2.763610
 30
0.0
 10
5.892800
 20
2.785816
 30
0.0
 10
5.886605
 20
2.796503
 30
0.0
 10
5.880684
 20
2.807358
 30
0.0
 10
5.874978
 20
2.818325
 30
0.0
 10
5.869429
 20
2.829346
 30
0.0
 10
5.863979
 20
2.840366
 30
0.0
 10
5.858572
 20
2.851328
 30
0.0
 10
5.853148
 20
2.862174
 30
0.0
 10
5.847647
 20
2.872847
 30
0.0
 10
5.842014
 20
2.883295
 30
0.0
 10
5.836192
 20
2.893458
 30
0.0
 10
5.830121
 20
2.903279
 30
0.0
 10
5.823746
 20
2.912703
 30
0.0
 10
5.817006
 20
2.921669
 30
0.0
 10
5.809844
 20
2.930124
 30
0.0
 10
5.802201
 20
2.938012
 30
0.0
 10
5.794022
 20
2.945271
 30
0.0
 10
5.770860
 20
2.964169
 30
0.0
 10
5.747608
 20
2.983055
 30
0.0
 10
5.724254
 20
3.001891
 30
0.0
 10
5.700784
 20
3.020639
 30
0.0
 10
5.677182
 20
3.039257
 30
0.0
 10
5.653430
 20
3.057711
 30
0.0
 10
5.629518
 20
3.075960
 30
0.0
 10
5.605427
 20
3.093966
 30
0.0
 10
5.581145
 20
3.111692
 30
0.0
 10
5.556656
 20
3.129099
 30
0.0
 10
5.531948
 20
3.146148
 30
0.0
 10
5.507002
 20
3.162800
 30
0.0
 10
5.481805
 20
3.179016
 30
0.0
 10
5.456341
 20
3.194758
 30
0.0
 10
5.430596
 20
3.209990
 30
0.0
 10
5.404556
 20
3.224671
 30
0.0
 10
5.363777
 20
3.246072
 30
0.0
 10
5.322402
 20
3.266096
 30
0.0
 10
5.280431
 20
3.284832
 30
0.0
 10
5.237864
 20
3.302373
 30
0.0
 10
5.194699
 20
3.318809
 30
0.0
 10
5.150938
 20
3.334233
 30
0.0
 10
5.106578
 20
3.348733
 30
0.0
 10
5.061620
 20
3.362401
 30
0.0
 10
5.016064
 20
3.375327
 30
0.0
 10
4.969908
 20
3.387604
 30
0.0
 10
4.923154
 20
3.399322
 30
0.0
 10
4.875799
 20
3.410571
 30
0.0
 10
4.827844
 20
3.421445
 30
0.0
 10
4.779288
 20
3.432031
 30
0.0
 10
4.730132
 20
3.442422
 30
0.0
 10
4.680373
 20
3.452707
 30
0.0
 10
4.742691
 20
3.335004
 30
0.0
 10
4.794592
 20
3.218605
 30
0.0
 10
4.836224
 20
3.103452
 30
0.0
 10
4.867734
 20
2.989487
 30
0.0
 10
4.889270
 20
2.876652
 30
0.0
 10
4.900977
 20
2.764888
 30
0.0
 10
4.903009
 20
2.654136
 30
0.0
 10
4.895501
 20
2.544339
 30
0.0
 10
4.878610
 20
2.435439
 30
0.0
 10
4.852479
 20
2.327376
 30
0.0
 10
4.817256
 20
2.220093
 30
0.0
 10
4.773089
 20
2.113531
 30
0.0
 10
4.720124
 20
2.007633
 30
0.0
 10
4.658509
 20
1.902339
 30
0.0
 10
4.588391
 20
1.797592
 30
0.0
 10
4.509911
 20
1.693333
 30
0.0
 10
4.472225
 20
1.741900
 30
0.0
 10
4.436043
 20
1.790799
 30
0.0
 10
4.401429
 20
1.840084
 30
0.0
 10
4.368443
 20
1.889809
 30
0.0
 10
4.337149
 20
1.940028
 30
0.0
 10
4.307609
 20
1.990796
 30
0.0
 10
4.279886
 20
2.042167
 30
0.0
 10
4.254043
 20
2.094195
 30
0.0
 10
4.230139
 20
2.146934
 30
0.0
 10
4.208242
 20
2.200438
 30
0.0
 10
4.188410
 20
2.254761
 30
0.0
 10
4.170706
 20
2.309958
 30
0.0
 10
4.155192
 20
2.366083
 30
0.0
 10
4.141933
 20
2.423189
 30
0.0
 10
4.130985
 20
2.481332
 30
0.0
 10
4.122420
 20
2.540564
 30
0.0
 10
4.116513
 20
2.600232
 30
0.0
 10
4.113547
 20
2.659237
 30
0.0
 10
4.113426
 20
2.717603
 30
0.0
 10
4.116051
 20
2.775356
 30
0.0
 10
4.121334
 20
2.832520
 30
0.0
 10
4.129177
 20
2.889120
 30
0.0
 10
4.139481
 20
2.945181
 30
0.0
 10
4.152153
 20
3.000728
 30
0.0
 10
4.167097
 20
3.055785
 30
0.0
 10
4.184219
 20
3.110378
 30
0.0
 10
4.203421
 20
3.164530
 30
0.0
 10
4.224611
 20
3.218268
 30
0.0
 10
4.247688
 20
3.271616
 30
0.0
 10
4.272560
 20
3.324598
 30
0.0
 10
4.299131
 20
3.377239
 30
0.0
 10
4.327306
 20
3.429564
 30
0.0
 10
4.258892
 20
3.434687
 30
0.0
 10
4.182702
 20
3.430053
 30
0.0
 10
4.100229
 20
3.416452
 30
0.0
 10
4.012963
 20
3.394676
 30
0.0
 10
3.922397
 20
3.365519
 30
0.0
 10
3.830021
 20
3.329772
 30
0.0
 10
3.737328
 20
3.288227
 30
0.0
 10
3.645810
 20
3.241676
 30
0.0
 10
3.556956
 20
3.190913
 30
0.0
 10
3.472261
 20
3.136727
 30
0.0
 10
3.393214
 20
3.079913
 30
0.0
 10
3.321307
 20
3.021261
 30
0.0
 10
3.258032
 20
2.961564
 30
0.0
 10
3.204881
 20
2.901614
 30
0.0
 10
3.163346
 20
2.842203
 30
0.0
 10
3.134924
 20
2.784122
 30
0.0
 10
3.184435
 20
2.761285
 30
0.0
 10
3.233814
 20
2.742779
 30
0.0
 10
3.283082
 20
2.728381
 30
0.0
 10
3.332260
 20
2.717854
 30
0.0
 10
3.381368
 20
2.710973
 30
0.0
 10
3.430428
 20
2.707507
 30
0.0
 10
3.479459
 20
2.707226
 30
0.0
 10
3.528483
 20
2.709907
 30
0.0
 10
3.577521
 20
2.715306
 30
0.0
 10
3.626592
 20
2.723200
 30
0.0
 10
3.675718
 20
2.733360
 30
0.0
 10
3.724919
 20
2.745555
 30
0.0
 10
3.774216
 20
2.759556
 30
0.0
 10
3.823629
 20
2.775131
 30
0.0
 10
3.873180
 20
2.792054
 30
0.0
 10
3.922889
 20
2.810087
 30
0.0
 10
3.883041
 20
2.774636
 30
0.0
 10
3.835580
 20
2.742025
 30
0.0
 10
3.781312
 20
2.712375
 30
0.0
 10
3.721043
 20
2.685807
 30
0.0
 10
3.655580
 20
2.662442
 30
0.0
 10
3.585729
 20
2.642401
 30
0.0
 10
3.512297
 20
2.625807
 30
0.0
 10
3.436091
 20
2.612776
 30
0.0
 10
3.357917
 20
2.603435
 30
0.0
 10
3.278581
 20
2.597903
 30
0.0
 10
3.198892
 20
2.596295
 30
0.0
 10
3.119654
 20
2.598750
 30
0.0
 10
3.041674
 20
2.605371
 30
0.0
 10
2.965759
 20
2.616284
 30
0.0
 10
2.892716
 20
2.631612
 30
0.0
 10
2.823351
 20
2.651478
 30
0.0
 10
2.881608
 20
2.761294
 30
0.0
 10
2.944694
 20
2.863295
 30
0.0
 10
3.012563
 20
2.957626
 30
0.0
 10
3.085170
 20
3.044428
 30
0.0
 10
3.162467
 20
3.123845
 30
0.0
 10
3.244411
 20
3.196020
 30
0.0
 10
3.330954
 20
3.261096
 30
0.0
 10
3.422050
 20
3.319216
 30
0.0
 10
3.517655
 20
3.370522
 30
0.0
 10
3.617721
 20
3.415159
 30
0.0
 10
3.722204
 20
3.453269
 30
0.0
 10
3.831056
 20
3.484995
 30
0.0
 10
3.944233
 20
3.510479
 30
0.0
 10
4.061689
 20
3.529865
 30
0.0
 10
4.183377
 20
3.543299
 30
0.0
 10
4.309251
 20
3.550919
 30
0.0
 10
4.299980
 20
3.560311
 30
0.0
 10
4.290991
 20
3.569447
 30
0.0
 10
4.282265
 20
3.578340
 30
0.0
 10
4.273779
 20
3.587004
 30
0.0
 10
4.265509
 20
3.595456
 30
0.0
 10
4.257438
 20
3.603709
 30
0.0
 10
4.249541
 20
3.611777
 30
0.0
 10
4.241797
 20
3.619677
 30
0.0
 10
4.234186
 20
3.627421
 30
0.0
 10
4.226687
 20
3.635024
 30
0.0
 10
4.219276
 20
3.642500
 30
0.0
 10
4.211932
 20
3.649863
 30
0.0
 10
4.204637
 20
3.657130
 30
0.0
 10
4.197367
 20
3.664313
 30
0.0
 10
4.190100
 20
3.671428
 30
0.0
 10
4.182816
 20
3.678484
 30
0.0
 10
4.129364
 20
3.729538
 30
0.0
 10
4.075446
 20
3.779995
 30
0.0
 10
4.021007
 20
3.829789
 30
0.0
 10
3.965998
 20
3.878853
 30
0.0
 10
3.910368
 20
3.927121
 30
0.0
 10
3.854064
 20
3.974523
 30
0.0
 10
3.797036
 20
4.020996
 30
0.0
 10
3.739233
 20
4.066469
 30
0.0
 10
3.680603
 20
4.110879
 30
0.0
 10
3.621094
 20
4.154156
 30
0.0
 10
3.560656
 20
4.196234
 30
0.0
 10
3.499238
 20
4.237046
 30
0.0
 10
3.436788
 20
4.276526
 30
0.0
 10
3.373255
 20
4.314606
 30
0.0
 10
3.308587
 20
4.351219
 30
0.0
 10
3.242733
 20
4.386298
 30
0.0
 10
3.188219
 20
4.413668
 30
0.0
 10
3.133350
 20
4.439598
 30
0.0
 10
3.078105
 20
4.463963
 30
0.0
 10
3.022459
 20
4.486631
 30
0.0
 10
2.966390
 20
4.507476
 30
0.0
 10
2.909874
 20
4.526367
 30
0.0
 10
2.852889
 20
4.543179
 30
0.0
 10
2.795411
 20
4.557783
 30
0.0
 10
2.737417
 20
4.570046
 30
0.0
 10
2.678884
 20
4.579843
 30
0.0
 10
2.619789
 20
4.587044
 30
0.0
 10
2.560108
 20
4.591522
 30
0.0
 10
2.499819
 20
4.593147
 30
0.0
 10
2.438898
 20
4.591790
 30
0.0
 10
2.377323
 20
4.587324
 30
0.0
 10
2.315069
 20
4.579620
 30
0.0
 10
2.307660
 20
4.578463
 30
0.0
 10
2.300234
 20
4.577221
 30
0.0
 10
2.292766
 20
4.575895
 30
0.0
 10
2.285233
 20
4.574512
 30
0.0
 10
2.277611
 20
4.573044
 30
0.0
 10
2.269875
 20
4.571492
 30
0.0
 10
2.262002
 20
4.569883
 30
0.0
 10
2.253968
 20
4.568218
 30
0.0
 10
2.245749
 20
4.566468
 30
0.0
 10
2.237320
 20
4.564662
 30
0.0
 10
2.228658
 20
4.562800
 30
0.0
 10
2.219740
 20
4.560880
 30
0.0
 10
2.210540
 20
4.558933
 30
0.0
 10
2.201035
 20
4.556929
 30
0.0
 10
2.191201
 20
4.554869
 30
0.0
 10
2.181014
 20
4.552781
 30
0.0
 10
2.202934
 20
4.457174
 30
0.0
 10
2.230432
 20
4.366001
 30
0.0
 10
2.263267
 20
4.279045
 30
0.0
 10
2.301196
 20
4.196092
 30
0.0
 10
2.343977
 20
4.116923
 30
0.0
 10
2.391367
 20
4.041323
 30
0.0
 10
2.443125
 20
3.969076
 30
0.0
 10
2.499007
 20
3.899965
 30
0.0
 10
2.558773
 20
3.833775
 30
0.0
 10
2.622179
 20
3.770289
 30
0.0
 10
2.688983
 20
3.709291
 30
0.0
 10
2.758943
 20
3.650565
 30
0.0
 10
2.831817
 20
3.593894
 30
0.0
 10
2.907362
 20
3.539062
 30
0.0
 10
2.985337
 20
3.485854
 30
0.0
 10
3.065498
 20
3.434080
 30
0.0
 10
2.976759
 20
3.452835
 30
0.0
 10
2.882054
 20
3.487521
 30
0.0
 10
2.782748
 20
3.536725
 30
0.0
 10
2.680203
 20
3.599034
 30
0.0
 10
2.575782
 20
3.673037
 30
0.0
 10
2.470850
 20
3.757320
 30
0.0
 10
2.366769
 20
3.850470
 30
0.0
 10
2.264904
 20
3.951076
 30
0.0
 10
2.166617
 20
4.057724
 30
0.0
 10
2.073272
 20
4.169002
 30
0.0
 10
1.986232
 20
4.283496
 30
0.0
 10
1.906861
 20
4.399796
 30
0.0
 10
1.836522
 20
4.516487
 30
0.0
 10
1.776579
 20
4.632158
 30
0.0
 10
1.728395
 20
4.745395
 30
0.0
 10
1.693333
 20
4.854787
 30
0.0
 10
1.856735
 20
4.877912
 30
0.0
 10
2.017751
 20
4.893747
 30
0.0
 10
2.176312
 20
4.901983
 30
0.0
 10
2.332346
 20
4.902321
 30
0.0
 10
2.485785
 20
4.894436
 30
0.0
 10
2.636556
 20
4.878030
 30
0.0
 10
2.784591
 20
4.852797
 30
0.0
 10
2.929819
 20
4.818428
 30
0.0
 10
3.072170
 20
4.774616
 30
0.0
 10
3.211573
 20
4.721055
 30
0.0
 10
3.347958
 20
4.657437
 30
0.0
 10
3.481255
 20
4.583456
 30
0.0
 10
3.611394
 20
4.498803
 30
0.0
 10
3.738303
 20
4.403172
 30
0.0
 10
3.861914
 20
4.296256
 30
0.0
 10
3.982156
 20
4.177736
 30
0.0
 10
3.893415
 20
4.394571
 30
0.0
 10
3.823004
 20
4.608370
 30
0.0
 10
3.770472
 20
4.819231
 30
0.0
 10
3.735370
 20
5.027251
 30
0.0
 10
3.717246
 20
5.232529
 30
0.0
 10
3.715665
 20
5.435165
 30
0.0
 10
3.730152
 20
5.635255
 30
0.0
 10
3.760269
 20
5.832898
 30
0.0
 10
3.805567
 20
6.028194
 30
0.0
 10
3.865595
 20
6.221239
 30
0.0
 10
3.939905
 20
6.412134
 30
0.0
 10
4.028034
 20
6.600975
 30
0.0
 10
4.129556
 20
6.787862
 30
0.0
 10
4.244009
 20
6.972892
 30
0.0
 10
4.370944
 20
7.156165
 30
0.0
 10
4.509911
 20
7.337778
 30
0.0
 10
4.647821
 20
7.157589
 30
0.0
 10
4.773915
 20
6.975730
 30
0.0
 10
4.887751
 20
6.792098
 30
0.0
 10
4.988882
 20
6.606589
 30
0.0
 10
5.076865
 20
6.419100
 30
0.0
 10
5.151256
 20
6.229529
 30
0.0
 10
5.211610
 20
6.037773
 30
0.0
 10
5.257482
 20
5.843729
 30
0.0
 10
5.288429
 20
5.647293
 30
0.0
 10
5.304005
 20
5.448363
 30
0.0
 10
5.303767
 20
5.246837
 30
0.0
 10
5.287268
 20
5.042610
 30
0.0
 10
5.254067
 20
4.835580
 30
0.0
 10
5.203719
 20
4.625645
 30
0.0
 10
5.135778
 20
4.412701
 30
0.0
  0
ENDSEC
  0
SECTION
  2
OBJECTS
  0
DICTIONARY
  5
C
330
0
100
AcDbDictionary
  3
ACAD_GROUP
350
D
  3
ACAD_MLINESTYLE
350
17
  0
DICTIONARY
  5
D
330
C
100
AcDbDictionary
  0
DICTIONARY
  5
1A
330
C
100
AcDbDictionary
  0
DICTIONARY
  5
17
330
C
100
AcDbDictionary
  3
STANDARD
350
18
  0
DICTIONARY
  5
19
330
C
100
AcDbDictionary
  0
ENDSEC
  0
EOF
